<?xml version="1.0" standalone="no"?>
<!DOCTYPE svg PUBLIC "-//W3C//DTD SVG 1.1//EN" "http://www.w3.org/Graphics/SVG/1.1/DTD/svg11.dtd" >
<svg xmlns="http://www.w3.org/2000/svg" xmlns:xlink="http://www.w3.org/1999/xlink" version="1.1">
<metadata>
Created by FontForge 20201107 at Fri Jan 18 01:44:19 2013
 By 
Copyright (c) 2012 by Glenjan. All rights reserved.
</metadata>
<defs>
<font id="IdealistSans-Light" horiz-adv-x="590" >
  <font-face 
    font-family="Idealist Sans"
    font-weight="300"
    font-stretch="normal"
    units-per-em="1000"
    panose-1="2 0 0 0 0 0 0 0 0 0"
    ascent="750"
    descent="-250"
    x-height="500"
    cap-height="650"
    bbox="-90 -267 6315 1009"
    underline-thickness="50"
    underline-position="-200"
    unicode-range="U+0020-25CA"
  />
<missing-glyph horiz-adv-x="510" 
d="M105 400h328l-328 -284l109 190z" />
    <glyph glyph-name="germandbls" unicode="&#x17f;s" horiz-adv-x="628" 
d="M65 0v541q0 88 61 142.5t159 54.5q96 0 145.5 -45.5t49.5 -109.5q0 -97 -99 -137q-40 -16 -56 -32t-16 -43q0 -59 104 -79q96 -18 140.5 -54t44.5 -99q0 -74 -57.5 -111.5t-156.5 -37.5q-93 0 -164 32l19 63q71 -33 145 -33q78 0 111 21.5t33 66.5q0 34 -32 53t-104 34
q-155 31 -155 141q0 83 100 125q73 29 73 91q0 43 -35 66t-88 23q-81 0 -115.5 -36t-34.5 -104v-533h-72z" />
    <glyph glyph-name="fb.liga" unicode="fb" horiz-adv-x="987" 
d="M30 500h90v34q0 87 53 141.5t140 54.5q114 0 203 -69v-202q81 51 189 51q119 0 183 -63.5t64 -187.5q0 -122 -82.5 -195.5t-212.5 -73.5q-121 0 -213 49v588q-51 39 -123 39q-129 0 -129 -129v-37h158l-4 -62l-154 5v-443h-72v437l-90 11v52zM516 393v-309
q63 -30 142 -30q101 0 161 54.5t60 151.5q0 93 -46.5 141t-136.5 48q-100 0 -180 -56z" />
    <glyph glyph-name="ff.liga" unicode="ff" horiz-adv-x="633" 
d="M30 500h90v34q0 87 53 141.5t140 54.5q85 0 153 -36q49 36 119 36q83 0 148 -37l-30 -56q-49 29 -110 29q-129 0 -129 -129v-37h158l-4 -62l-154 5v-443h-72v436l-200 7v-443h-72v437l-90 11v52zM192 500h200v34q0 61 28 109q-43 23 -99 23q-129 0 -129 -129v-37z" />
    <glyph glyph-name="ffi.liga" unicode="ffi" horiz-adv-x="801" 
d="M664 0v436l-200 7v-443h-72v436l-200 7v-443h-72v437l-90 11v52h90v34q0 87 53 141.5t140 54.5q85 0 153 -36q49 36 119 36q83 0 148 -37l-30 -56q-49 29 -110 29q-129 0 -129 -129v-37h272v-500h-72zM192 500h200v34q0 61 28 109q-43 23 -99 23q-129 0 -129 -129v-37z
" />
    <glyph glyph-name="ffj.liga" unicode="ffj" horiz-adv-x="801" 
d="M30 500h90v34q0 87 53 141.5t140 54.5q85 0 153 -36q49 36 119 36q83 0 148 -37l-30 -56q-49 29 -110 29q-129 0 -129 -129v-37h272v-538q0 -197 -184 -210l-7 63q119 12 119 129v492l-200 7v-443h-72v436l-200 7v-443h-72v437l-90 11v52zM192 500h200v34q0 61 28 109
q-43 23 -99 23q-129 0 -129 -129v-37z" />
    <glyph glyph-name="fh.liga" unicode="fh" horiz-adv-x="986" 
d="M30 500h90v34q0 87 53 141.5t140 54.5q114 0 203 -69v-245q69 94 193 94q101 0 156.5 -56t55.5 -162v-292h-72v293q0 75 -35.5 115t-104.5 40q-67 0 -111.5 -26.5t-81.5 -84.5v-337h-72v627q-51 39 -123 39q-129 0 -129 -129v-37h158l-4 -62l-154 5v-443h-72v437l-90 11
v52z" />
    <glyph glyph-name="fi.liga" unicode="fi" horiz-adv-x="529" 
d="M30 500h90v34q0 87 53 141.5t140 54.5q83 0 148 -37l-30 -56q-49 29 -110 29q-129 0 -129 -129v-37h272v-500h-72v436l-200 7v-443h-72v437l-90 11v52z" />
    <glyph glyph-name="fj.liga" unicode="fj" horiz-adv-x="529" 
d="M30 500h90v34q0 87 53 141.5t140 54.5q83 0 148 -37l-30 -56q-49 29 -110 29q-129 0 -129 -129v-37h272v-538q0 -197 -184 -210l-7 63q119 12 119 129v492l-200 7v-443h-72v437l-90 11v52z" />
    <glyph glyph-name="fk.liga" unicode="fk" horiz-adv-x="921" 
d="M516 661v-386l99 67l178 158h91l1 -8l-218 -188l234 -296l-2 -8h-83l-206 264l-94 -55v-209h-72v627q-51 39 -123 39q-129 0 -129 -129v-37h158l-4 -62l-154 5v-443h-72v437l-90 11v52h90v34q0 87 53 141.5t140 54.5q114 0 203 -69z" />
    <glyph glyph-name="fl.liga" unicode="fl" horiz-adv-x="607" 
d="M30 500h90v34q0 87 53 141.5t140 54.5q114 0 203 -69v-524q0 -40 17 -58.5t59 -20.5v-62q-14 -2 -24 -2q-124 0 -124 159v474q-51 39 -123 39q-129 0 -129 -129v-37h158l-4 -62l-154 5v-443h-72v437l-90 11v52z" />
    <glyph glyph-name="ft.liga" unicode="ft" horiz-adv-x="744" 
d="M692 500l-4 -65l-202 7v-276q0 -112 108 -112q57 0 109 31l26 -57q-56 -38 -143 -38q-172 0 -172 175v271l-222 8v-444h-72v437l-90 11v52h90v34q0 87 53 141.5t140 54.5q82 0 132.5 -40t50.5 -100q0 -55 -32 -90h228zM192 500h162q76 4 76 84q0 42 -32.5 63.5
t-90.5 21.5q-115 0 -115 -132v-37z" />
    <glyph glyph-name="ii.liga" unicode="i&#x457;" horiz-adv-x="406" 
d="M65 500h72v-500h-72v500zM269 500h72v-500h-72v500zM22 681q23 0 37.5 -13.5t14.5 -36.5q0 -22 -14 -36t-38 -14q-23 0 -37.5 14t-14.5 36q0 23 14.5 36.5t37.5 13.5zM203 681q23 0 37.5 -13.5t14.5 -36.5q0 -22 -14 -36t-38 -14q-23 0 -37.5 14t-14.5 36q0 23 14.5 36.5
t37.5 13.5zM384 681q23 0 37.5 -13.5t14.5 -36.5q0 -22 -14 -36t-38 -14q-23 0 -37.5 14t-14.5 36q0 23 14.5 36.5t37.5 13.5z" />
    <glyph glyph-name="lsb.liga" unicode="&#x17f;b" horiz-adv-x="845" 
d="M65 0v534q0 87 50.5 141.5t137.5 54.5q67 0 121 -32v-239q81 51 189 51q119 0 183 -63.5t64 -187.5q0 -122 -82.5 -195.5t-212.5 -73.5q-121 0 -213 49v618q-18 9 -41 9q-67 0 -95.5 -33.5t-28.5 -95.5v-537h-72zM374 393v-309q63 -30 142 -30q101 0 161 54.5t60 151.5
q0 93 -46.5 141t-136.5 48q-100 0 -180 -56z" />
    <glyph glyph-name="lsh.liga" unicode="&#x17f;h" horiz-adv-x="844" 
d="M65 0v534q0 87 50.5 141.5t137.5 54.5q67 0 121 -32v-282q69 94 193 94q101 0 156.5 -56t55.5 -162v-292h-72v293q0 75 -35.5 115t-104.5 40q-67 0 -111.5 -26.5t-81.5 -84.5v-337h-72v657q-18 9 -41 9q-67 0 -95.5 -33.5t-28.5 -95.5v-537h-72z" />
    <glyph glyph-name="lsi.liga" unicode="&#x17f;i" horiz-adv-x="425" 
d="M65 0v534q0 87 53 141.5t140 54.5q83 0 148 -37l-30 -56q-49 29 -110 29q-129 0 -129 -129v-537h-72zM288 0v500h72v-500h-72z" />
    <glyph glyph-name="lsj.liga" unicode="&#x17f;j" horiz-adv-x="425" 
d="M65 0v534q0 87 53 141.5t140 54.5q83 0 148 -37l-30 -56q-49 29 -110 29q-129 0 -129 -129v-537h-72zM288 500h72v-538q0 -197 -184 -210l-7 63q119 12 119 129v556z" />
    <glyph glyph-name="lsk.liga" unicode="&#x17f;k" horiz-adv-x="779" 
d="M651 500h91l1 -8l-218 -188l234 -296l-2 -8h-83l-206 264l-94 -55v-209h-72v657q-18 9 -41 9q-67 0 -95.5 -33.5t-28.5 -95.5v-537h-72v534q0 87 50.5 141.5t137.5 54.5q67 0 121 -32v-423l99 67z" />
    <glyph glyph-name="lsl.liga" unicode="&#x17f;l" horiz-adv-x="465" 
d="M65 0v534q0 87 50.5 141.5t137.5 54.5q67 0 121 -32v-561q0 -40 17 -58.5t59 -20.5v-62q-14 -2 -24 -2q-124 0 -124 159v504q-18 9 -41 9q-67 0 -95.5 -33.5t-28.5 -95.5v-537h-72z" />
    <glyph glyph-name="lsls.liga" unicode="&#x17f;&#x17f;" horiz-adv-x="500" 
d="M65 0v534q0 87 53 141.5t140 54.5q73 0 128 -27q46 27 105 27q83 0 148 -37l-30 -56q-49 29 -110 29q-129 0 -129 -129v-537h-72v534q0 70 36 122q-35 10 -68 10q-129 0 -129 -129v-537h-72z" />
    <glyph glyph-name="lslsi.liga" unicode="&#x17f;&#x17f;i" horiz-adv-x="658" 
d="M65 0v534q0 87 53 141.5t140 54.5q73 0 128 -27q46 27 105 27q83 0 148 -37l-30 -56q-49 29 -110 29q-129 0 -129 -129v-537h-72v534q0 70 36 122q-35 10 -68 10q-129 0 -129 -129v-537h-72zM521 0v500h72v-500h-72z" />
    <glyph glyph-name="lslsj.liga" unicode="&#x17f;&#x17f;j" horiz-adv-x="658" 
d="M65 0v534q0 87 53 141.5t140 54.5q73 0 128 -27q46 27 105 27q83 0 148 -37l-30 -56q-49 29 -110 29q-129 0 -129 -129v-537h-72v534q0 70 36 122q-35 10 -68 10q-129 0 -129 -129v-537h-72zM521 500h72v-538q0 -197 -184 -210l-7 63q119 12 119 129v556z" />
    <glyph glyph-name="lst.liga" unicode="&#x17f;t" horiz-adv-x="653" 
d="M65 0v534q0 87 53 141.5t140 54.5q67 0 107 -36t40 -98q0 -54 -26 -96h222l-4 -65l-202 8v-277q0 -112 108 -112q57 0 109 31l26 -57q-56 -38 -143 -38q-172 0 -172 175v269l-70 13v25q86 39 86 118q0 78 -83 78q-65 0 -92 -34t-27 -97v-537h-72z" />
    <glyph glyph-name=".notdef" horiz-adv-x="510" 
d="M105 400h328l-328 -284l109 190z" />
    <glyph glyph-name=".null" horiz-adv-x="0" 
 />
    <glyph glyph-name="nonmarkingreturn" horiz-adv-x="333" 
 />
    <glyph glyph-name="space" unicode=" " horiz-adv-x="295" 
 />
    <glyph glyph-name="exclam" unicode="!" horiz-adv-x="208" 
d="M65 679h79l-10 -509h-59zM104 108q27 0 43 -16.5t16 -41.5t-16 -41.5t-43 -16.5t-43 16.5t-16 41.5t16 41.5t43 16.5z" />
    <glyph glyph-name="quotedbl" unicode="&#x22;" horiz-adv-x="278" 
d="M46 479l-1 171h77l-21 -174zM161 468v182h77l-21 -185z" />
    <glyph glyph-name="numbersign" unicode="#" horiz-adv-x="522" 
d="M168 530l60 -4l-11 -103h97l12 107l59 -4l-11 -103h108l-2 -58h-112l-9 -80h113l-2 -58h-117l-10 -100l-62 5l9 95h-95l-12 -100l-60 5l10 95h-93l2 58h99l8 80h-98l2 58h102zM211 365l-9 -80h97l7 80h-95z" />
    <glyph glyph-name="dollar" unicode="$" horiz-adv-x="530" 
d="M227 673h68v-66q79 -6 150 -48l-30 -57q-71 44 -158 44q-64 0 -93.5 -26t-29.5 -65q0 -37 22 -57.5t78 -35.5l88 -23q158 -42 158 -176q0 -67 -47.5 -115.5t-137.5 -57.5v-73h-68v70q-99 4 -182 49l24 68q90 -52 180 -52q159 0 159 109q0 46 -27 71.5t-89 41.5l-97 25
q-131 34 -131 150q0 64 42.5 107t120.5 50v67z" />
    <glyph glyph-name="uni0025" unicode="%" horiz-adv-x="722" 
d="M506 511l47 -32l-348 -497l-48 31zM176 236q-62 0 -104 39.5t-42 97.5t42 97.5t104 39.5t104 -39.5t42 -97.5t-42 -97.5t-104 -39.5zM176 291q39 0 62.5 22.5t23.5 59.5t-23.5 59.5t-62.5 22.5t-62.5 -22.5t-23.5 -59.5t23.5 -59.5t62.5 -22.5zM546 -10q-62 0 -104 39.5
t-42 97.5t42 97.5t104 39.5t104 -39.5t42 -97.5t-42 -97.5t-104 -39.5zM546 45q39 0 62.5 22.5t23.5 59.5t-23.5 59.5t-62.5 22.5t-62.5 -22.5t-23.5 -59.5t23.5 -59.5t62.5 -22.5z" />
    <glyph glyph-name="ampersand" unicode="&#x26;" horiz-adv-x="714" 
d="M453 429h202l4 -57h-51q-1 -88 -12.5 -142.5t-42.5 -106.5q56 -51 126 -63l-20 -67q-44 7 -76 24t-71 50q-51 -43 -102.5 -61.5t-117.5 -18.5q-110 0 -181 57.5t-71 153.5q0 59 32 106t88 75q-54 46 -54 115q0 60 57 100.5t145 40.5q104 0 185 -49l-32 -57
q-65 42 -153 42q-64 0 -96.5 -21.5t-32.5 -59.5q0 -41 37 -73l280 -251q24 50 31.5 91.5t7.5 106.5l-86 14zM457 113l-256 223q-87 -38 -87 -131q0 -68 49 -110t125 -42q58 0 96 13t73 47z" />
    <glyph glyph-name="quotesingle" unicode="'" horiz-adv-x="164" 
d="M46 467l-1 183h79l-21 -187z" />
    <glyph glyph-name="parenleft" unicode="(" horiz-adv-x="228" 
d="M145 711l53 -25q-84 -175 -84 -371t84 -371l-53 -26q-105 153 -105 397q0 245 105 396z" />
    <glyph glyph-name="parenright" unicode=")" horiz-adv-x="228" 
d="M30 686l53 25q105 -151 105 -396q0 -243 -105 -396l-53 25q84 175 84 371t-84 371z" />
    <glyph glyph-name="asterisk" unicode="*" horiz-adv-x="293" 
d="M228 648l-49 -78l84 -11q0 -28 -11 -52l-79 16l9 -92q-13 -3 -27 -3q-7 0 -21 2l-8 90l-80 -40q-14 22 -16 50l72 31l-63 62q13 21 38 34l61 -66l42 82q29 -8 48 -25z" />
    <glyph glyph-name="plus" unicode="+" horiz-adv-x="414" 
d="M174 498h66v-135h134v-63h-134v-135h-66v135h-134v63h134v135z" />
    <glyph glyph-name="comma" unicode="," horiz-adv-x="209" 
d="M65 -114l-20 32q34 14 48 33t14 49q-25 0 -40.5 14.5t-15.5 33.5q0 22 12.5 36.5t39.5 14.5q30 0 45.5 -23t15.5 -59q0 -45 -25.5 -80.5t-73.5 -50.5z" />
    <glyph glyph-name="hyphen" unicode="-" horiz-adv-x="368" 
d="M40 303h288v-64h-288v64z" />
    <glyph glyph-name="period" unicode="." horiz-adv-x="218" 
d="M109 108q27 0 43 -16.5t16 -41.5t-16 -41.5t-43 -16.5t-43 16.5t-16 41.5t16 41.5t43 16.5z" />
    <glyph glyph-name="slash" unicode="/" horiz-adv-x="292" 
d="M2 -13l243 703l65 -22l-244 -703z" />
    <glyph glyph-name="zero" unicode="0" horiz-adv-x="720" 
d="M680 325q0 -150 -90 -244t-230 -94t-230 94t-90 244q0 151 90 244.5t230 93.5q141 0 230.5 -95t89.5 -243zM116 325q0 -128 68.5 -200t175.5 -72t175.5 72t68.5 200q0 125 -68.5 199t-175.5 74q-108 0 -176 -72.5t-68 -200.5z" />
    <glyph glyph-name="one" unicode="1" horiz-adv-x="300" 
d="M180 651l55 -1v-650h-74v565l-110 -57l-21 56z" />
    <glyph glyph-name="two" unicode="2" horiz-adv-x="550" 
d="M72 0v67l228 221q57 56 84.5 100t27.5 90q0 58 -38.5 89t-101.5 31q-98 0 -176 -59l-36 59q50 36 100 50.5t118 14.5q96 0 153.5 -49t57.5 -135q0 -110 -123 -226l-187 -178v-6h311v-69h-418z" />
    <glyph glyph-name="three" unicode="3" horiz-adv-x="546" 
d="M170 391h92q52 0 84 29.5t32 74.5q0 49 -34.5 76.5t-87.5 27.5q-87 0 -159 -54l-34 56q80 62 196 62q86 0 140 -44.5t54 -114.5q0 -41 -20 -77.5t-57 -56.5v-6q54 -17 84.5 -59t30.5 -105q0 -91 -63 -152t-175 -61q-70 0 -120.5 17.5t-97.5 56.5l36 58q79 -65 180 -65
q77 0 121 39.5t44 104.5q0 130 -148 130h-98v63z" />
    <glyph glyph-name="four" unicode="4" horiz-adv-x="581" 
d="M373 655l92 -5v-437h76l-9 -66h-67v-147h-74v147h-356v56zM391 213v350l-9 1l-253 -351h262z" />
    <glyph glyph-name="five" unicode="5" horiz-adv-x="555" 
d="M83 650h376v-66h-304v-186q59 13 116 13q100 0 162 -56t62 -152q0 -93 -67 -154.5t-186 -61.5q-65 0 -112.5 15t-94.5 50l37 59q77 -58 167 -58q86 0 133.5 41.5t47.5 108.5q0 143 -176 143q-45 0 -74.5 -7t-71.5 -26l-15 6v331z" />
    <glyph glyph-name="six" unicode="6" horiz-adv-x="555" 
d="M432 662l8 -64q-142 -2 -231 -65t-89 -196q69 69 187 69q88 0 145.5 -55.5t57.5 -149.5q0 -103 -64.5 -158.5t-157.5 -55.5q-115 0 -179 81.5t-64 242.5q0 88 29.5 155.5t82.5 109.5t122.5 63.5t152.5 22.5zM121 269q0 -101 44 -159t121 -58q69 0 109 39t40 110
q0 139 -143 139q-100 0 -171 -71z" />
    <glyph glyph-name="seven" unicode="7" horiz-adv-x="511" 
d="M45 650h417v-52l-261 -598h-83l260 584h-333v66z" />
    <glyph glyph-name="eight" unicode="8" horiz-adv-x="570" 
d="M169 355v4q-36 17 -60 54t-24 80q0 78 55.5 124t145.5 46q85 0 142 -42.5t57 -120.5q0 -48 -24 -84.5t-58 -54.5v-4q53 -20 85 -65t32 -101q0 -96 -63.5 -150t-170.5 -54q-120 0 -178 54t-58 145q0 56 33 102.5t86 66.5zM286 382q61 0 93 30t32 83q0 50 -31 78.5
t-94 28.5t-95 -28.5t-32 -78.5q0 -48 33 -80.5t94 -32.5zM286 319q-76 0 -118.5 -33.5t-42.5 -99.5q0 -62 38.5 -98.5t122.5 -36.5q78 0 118.5 37.5t40.5 97.5q0 133 -159 133z" />
    <glyph glyph-name="nine" unicode="9" horiz-adv-x="561" 
d="M120 -13l-8 67q144 3 236.5 71.5t96.5 193.5q-78 -71 -189 -71q-89 0 -146.5 56.5t-57.5 151.5q0 105 66 156t161 51q111 0 175 -76t64 -242q0 -173 -109.5 -264t-288.5 -94zM444 387q0 213 -171 213q-146 0 -146 -142q0 -69 36.5 -106.5t106.5 -37.5q98 0 174 73z" />
    <glyph glyph-name="colon" unicode=":" horiz-adv-x="218" 
d="M109 108q27 0 43 -16.5t16 -41.5t-16 -41.5t-43 -16.5t-43 16.5t-16 41.5t16 41.5t43 16.5zM109 469q27 0 43 -16.5t16 -41.5t-16 -41.5t-43 -16.5t-43 16.5t-16 41.5t16 41.5t43 16.5z" />
    <glyph glyph-name="semicolon" unicode=";" horiz-adv-x="218" 
d="M65 -114l-20 32q34 14 48 33t14 49q-25 0 -40.5 14.5t-15.5 33.5q0 22 12.5 36.5t39.5 14.5q30 0 45.5 -23t15.5 -59q0 -45 -25.5 -80.5t-73.5 -50.5zM109 469q27 0 43 -16.5t16 -41.5t-16 -41.5t-43 -16.5t-43 16.5t-16 41.5t16 41.5t43 16.5z" />
    <glyph glyph-name="less" unicode="&#x3c;" horiz-adv-x="314" 
d="M234 499l45 -37l-156 -138l156 -135l-45 -41l-194 159v33z" />
    <glyph glyph-name="equal" unicode="=" horiz-adv-x="370" 
d="M40 295h290v-64h-290v64zM40 434h290v-64h-290v64z" />
    <glyph glyph-name="greater" unicode="&#x3e;" horiz-adv-x="314" 
d="M85 499l194 -159v-33l-194 -159l-45 37l156 138l-156 135z" />
    <glyph glyph-name="question" unicode="?" horiz-adv-x="527" 
d="M254 170h-52q-12 23 -12 61q0 89 119 137q51 21 76.5 51.5t25.5 79.5q0 57 -40 87.5t-120 30.5q-109 0 -189 -72l-36 51q92 86 232 86q105 0 167 -48.5t62 -144.5q0 -59 -38 -105t-98 -69q-50 -19 -73.5 -41.5t-23.5 -61.5v-42zM229 108q27 0 43 -16.5t16 -41.5
t-16 -41.5t-43 -16.5t-43 16.5t-16 41.5t16 41.5t43 16.5z" />
    <glyph glyph-name="at" unicode="@" horiz-adv-x="779" 
d="M508 141q-49 -60 -135 -60q-72 0 -117.5 45t-45.5 117t51 121.5t127 49.5q60 0 104 -39l27 27l27 -6v-180q0 -32 16 -49t42 -17q68 0 68 113q0 119 -75.5 184.5t-194.5 65.5q-128 0 -211.5 -70.5t-83.5 -194.5q0 -123 75.5 -191.5t197.5 -68.5q127 0 212 41l20 -62
q-104 -42 -232 -42q-147 0 -243.5 84t-96.5 239q0 146 104 236.5t258 90.5q140 0 238.5 -85t98.5 -227q0 -80 -36.5 -125.5t-101.5 -45.5q-62 0 -93 49zM484 188v134q-37 34 -91 34q-116 0 -116 -114q0 -101 102 -101q64 0 105 47z" />
    <glyph glyph-name="A" unicode="A" horiz-adv-x="699" 
d="M306 650h88l280 -650h-79l-93 219h-309l-91 -219h-77zM341 573l-122 -292h257l-121 292h-14z" />
    <glyph glyph-name="B" unicode="B" horiz-adv-x="594" 
d="M65 650h226q94 0 153 -41t59 -123q0 -38 -17.5 -74t-49.5 -56v-4q54 -20 83.5 -61.5t29.5 -96.5q0 -86 -61.5 -140t-164.5 -54h-258v650zM139 314v-250h175q74 0 117.5 31.5t43.5 94.5q0 124 -152 124h-184zM139 589v-215h173q57 0 87 29.5t30 79.5q0 51 -34.5 78.5
t-95.5 27.5h-160z" />
    <glyph glyph-name="C" unicode="C" horiz-adv-x="648" 
d="M612 597l-31 -60q-92 62 -192 62q-120 0 -197 -77t-77 -196q0 -127 76.5 -198.5t196.5 -71.5q63 0 107.5 12.5t95.5 45.5l22 -66q-94 -61 -236 -61q-66 0 -125.5 20.5t-107.5 61t-76 107t-28 150.5q0 148 101.5 242.5t247.5 94.5q131 0 223 -66z" />
    <glyph glyph-name="D" unicode="D" horiz-adv-x="693" 
d="M65 650h237q168 0 259.5 -84t91.5 -237q0 -157 -100.5 -243t-271.5 -86h-216v650zM140 586v-521h141q134 0 215 65t81 199q0 257 -275 257h-162z" />
    <glyph glyph-name="E" unicode="E" horiz-adv-x="532" 
d="M65 0v650h407v-64h-332v-215h299v-64h-299v-242h347v-65h-422z" />
    <glyph glyph-name="F" unicode="F" horiz-adv-x="517" 
d="M65 650h407v-64h-332v-219h299v-63h-299v-304h-75v650z" />
    <glyph glyph-name="G" unicode="G" horiz-adv-x="698" 
d="M392 339h246v-275q-106 -77 -264 -77q-91 0 -165.5 38t-121.5 116t-47 184q0 148 100 243t245 95q139 0 240 -66l-32 -59q-89 61 -208 61q-122 0 -196 -77t-74 -197q0 -123 77 -198t192 -75q104 0 183 46v179h-175v62z" />
    <glyph glyph-name="H" unicode="H" horiz-adv-x="660" 
d="M520 650h75v-650h-75v308h-380v-308h-75v650h75v-278h380v278z" />
    <glyph glyph-name="I" unicode="I" horiz-adv-x="205" 
d="M65 650h75v-650h-75v650z" />
    <glyph glyph-name="J" unicode="J" horiz-adv-x="215" 
d="M75 650h75v-640q0 -226 -215 -257l-25 64q87 15 126 57.5t39 136.5v639z" />
    <glyph glyph-name="K" unicode="K" horiz-adv-x="638" 
d="M65 650h74v-364l346 364h95l-257 -266l290 -384h-92l-249 337l-133 -129v-208h-74v650z" />
    <glyph glyph-name="L" unicode="L" horiz-adv-x="499" 
d="M140 65h314v-65h-389v650h75v-585z" />
    <glyph glyph-name="M" unicode="M" horiz-adv-x="760" 
d="M65 650h104l211 -312l212 312h103v-650h-74v369l2 199h-9l-223 -326h-27l-219 326h-8l1 -199v-369h-73v650z" />
    <glyph glyph-name="N" unicode="N" horiz-adv-x="727" 
d="M65 650h80l450 -561l-4 199v362h71v-650h-83l-450 565l7 -230v-335h-71v650z" />
    <glyph glyph-name="O" unicode="O" horiz-adv-x="776" 
d="M115 325q0 -124 79.5 -199t193.5 -75t193.5 75t79.5 199t-79.5 199t-193.5 75t-193.5 -75t-79.5 -199zM736 325q0 -149 -99.5 -243.5t-248.5 -94.5q-150 0 -249 94t-99 244q0 149 99.5 243.5t248.5 94.5q150 0 249 -94t99 -244z" />
    <glyph glyph-name="P" unicode="P" horiz-adv-x="578" 
d="M65 650h220q111 0 182 -53.5t71 -146.5q0 -96 -70 -150t-183 -54h-145v-246h-75v650zM140 586v-275h130q193 0 193 139q0 136 -193 136h-130z" />
    <glyph glyph-name="Q" unicode="Q" horiz-adv-x="776" 
d="M719 -42l-17 -74l-432 120q-100 28 -165 115.5t-65 205.5q0 150 99 244t249 94t249 -94t99 -244q0 -121 -67.5 -205t-179.5 -113zM115 325q0 -124 79.5 -199t193.5 -75t193.5 75t79.5 199t-79.5 199t-193.5 75t-193.5 -75t-79.5 -199z" />
    <glyph glyph-name="R" unicode="R" horiz-adv-x="617" 
d="M65 650h255q98 0 159.5 -48.5t61.5 -131.5q0 -57 -39.5 -104t-111.5 -66l197 -300h-91l-182 287h-174v-287h-75v650zM140 586v-234h166q72 0 116 30.5t44 87.5q0 116 -161 116h-165z" />
    <glyph glyph-name="S" unicode="S" horiz-adv-x="563" 
d="M479 610l-32 -59q-78 49 -172 49q-70 0 -104 -31t-34 -73q0 -41 27 -67t87 -38l95 -20q172 -36 172 -192q0 -82 -64.5 -137t-184.5 -55q-69 0 -118.5 12t-105.5 41l26 68q96 -55 196 -55q92 0 134.5 34.5t42.5 90.5q0 55 -30 84.5t-101 44.5l-105 22q-64 13 -103 55
t-39 108q0 76 55.5 123.5t153.5 47.5q118 0 204 -53z" />
    <glyph glyph-name="T" unicode="T" horiz-adv-x="555" 
d="M40 586v64h475v-64h-200v-586h-75v586h-200z" />
    <glyph glyph-name="U" unicode="U" horiz-adv-x="661" 
d="M60 650h75v-367q0 -115 51.5 -173.5t143.5 -58.5t144 58.5t52 173.5v367h75v-360q0 -152 -71.5 -227.5t-199.5 -75.5t-199 75t-71 228v360z" />
    <glyph glyph-name="V" unicode="V" horiz-adv-x="674" 
d="M390 0h-103l-267 650h83l230 -578h17l226 578h78z" />
    <glyph glyph-name="W" unicode="W" horiz-adv-x="996" 
d="M339 0h-108l-211 650h82l182 -583h6l173 583h67l182 -583h6l181 583h77l-208 -650h-108l-159 516h-6z" />
    <glyph glyph-name="X" unicode="X" horiz-adv-x="674" 
d="M53 650h91l191 -269l191 269h88l-224 -306l254 -344h-93l-219 304l-215 -304h-87l249 345z" />
    <glyph glyph-name="Y" unicode="Y" horiz-adv-x="626" 
d="M25 650h84l203 -325h6l200 325h83l-250 -397v-253h-74v252z" />
    <glyph glyph-name="Z" unicode="Z" horiz-adv-x="605" 
d="M63 650h499v-59l-432 -526h440v-65h-535v55l439 532h-411v63z" />
    <glyph glyph-name="bracketleft" unicode="[" horiz-adv-x="241" 
d="M126 677v-710h80v-58h-151v826h151v-58h-80z" />
    <glyph glyph-name="backslash" unicode="\" horiz-adv-x="292" 
d="M47 690l243 -703l-64 -22l-244 703z" />
    <glyph glyph-name="bracketright" unicode="]" horiz-adv-x="241" 
d="M115 -33v710h-80v58h151v-826h-151v58h80z" />
    <glyph glyph-name="asciicircum" unicode="^" horiz-adv-x="362" 
d="M174 663h14l139 -147l-22 -51l-124 116l-124 -116l-22 51z" />
    <glyph glyph-name="underscore" unicode="_" horiz-adv-x="363" 
d="M0 -46h363v-62h-363v62z" />
    <glyph glyph-name="grave" unicode="`" horiz-adv-x="264" 
d="M127 732l86 -170h-52l-97 131z" />
    <glyph glyph-name="a" unicode="a" horiz-adv-x="602" 
d="M111 409l-19 60q96 41 205 41t160 -41t51 -130v-217q0 -40 14 -55t53 -16v-51q-27 -10 -55 -10q-31 0 -47.5 19.5t-20.5 66.5q-80 -86 -222 -86q-87 0 -130 39t-43 110q0 66 43 116q125 38 337 44v37q0 59 -32 85t-113 26q-90 0 -181 -38zM437 130v116q-169 -3 -280 -32
q-26 -30 -26 -69q0 -92 106 -92q122 0 200 77z" />
    <glyph glyph-name="b" unicode="b" horiz-adv-x="608" 
d="M65 730h72v-271q81 51 189 51q119 0 183 -63.5t64 -187.5q0 -122 -82.5 -195.5t-212.5 -73.5q-121 0 -213 49v691zM137 393v-309q63 -30 142 -30q101 0 161 54.5t60 151.5q0 93 -46.5 141t-136.5 48q-100 0 -180 -56z" />
    <glyph glyph-name="c" unicode="c" horiz-adv-x="539" 
d="M492 477l-32 -57q-57 28 -138 28q-101 0 -157.5 -51.5t-56.5 -147.5q0 -87 57 -141t142 -54q96 0 168 36l24 -59q-83 -41 -197 -41q-122 0 -194.5 72.5t-72.5 184.5q0 116 80 189.5t201 73.5q107 0 176 -33z" />
    <glyph glyph-name="d" unicode="d" horiz-adv-x="607" 
d="M470 730h72v-709q-108 -31 -247 -31q-121 0 -190.5 66t-69.5 193q0 116 75.5 188.5t191.5 72.5q94 0 168 -50v270zM470 73v314q-72 61 -160 61q-86 0 -143.5 -52t-57.5 -146q0 -98 56.5 -147t150.5 -49q88 0 154 19z" />
    <glyph glyph-name="e" unicode="e" horiz-adv-x="571" 
d="M528 234h-420q5 -90 63.5 -135.5t145.5 -45.5q104 0 174 37l21 -63q-81 -37 -199 -37q-133 0 -205.5 69.5t-72.5 189.5q0 116 77 188.5t194 72.5q114 0 172 -56t58 -149q0 -39 -8 -71zM109 295h358q0 82 -40.5 117.5t-128.5 35.5q-72 0 -126.5 -40.5t-62.5 -112.5z" />
    <glyph glyph-name="f" unicode="f" horiz-adv-x="361" 
d="M30 500h90v34q0 87 53 141.5t140 54.5q83 0 148 -37l-30 -56q-49 29 -110 29q-129 0 -129 -129v-37h158l-4 -62l-154 5v-443h-72v437l-90 11v52z" />
    <glyph glyph-name="g" unicode="g" horiz-adv-x="582" 
d="M569 510v-51h-129q72 -44 72 -123q0 -76 -58.5 -125t-160.5 -49q-82 0 -135 28q-46 -19 -46 -62q0 -29 24 -48.5t75 -19.5h132q90 0 166 -19q40 -52 40 -113q0 -52 -27 -89.5t-72 -56.5t-91.5 -27.5t-97.5 -8.5q-108 0 -166 41t-58 114q0 79 69 125q-56 27 -56 92
q0 66 65 105q-40 47 -40 113q0 80 59.5 127t166.5 47h268zM351 0h-123q-30 0 -68 5q-59 -29 -59 -93q0 -107 170 -107q33 0 65.5 5t68.5 17t58 37.5t22 60.5q0 34 -20 63q-56 12 -114 12zM140 336q0 -57 39.5 -87t113.5 -30q69 0 110.5 30t41.5 87q0 58 -42.5 89t-109.5 31
q-71 0 -112 -31.5t-41 -88.5z" />
    <glyph glyph-name="h" unicode="h" horiz-adv-x="607" 
d="M65 730h72v-314q69 94 193 94q101 0 156.5 -56t55.5 -162v-292h-72v293q0 75 -35.5 115t-104.5 40q-67 0 -111.5 -26.5t-81.5 -84.5v-337h-72v730z" />
    <glyph glyph-name="i" unicode="i" horiz-adv-x="202" 
d="M65 500h72v-500h-72v500zM101 713q26 0 41.5 -16.5t15.5 -40.5q0 -23 -16 -40t-41 -17t-41 17t-16 40q0 24 15.5 40.5t41.5 16.5z" />
    <glyph glyph-name="j" unicode="j" horiz-adv-x="203" 
d="M66 500h72v-538q0 -96 -46.5 -150.5t-137.5 -59.5l-7 63q119 12 119 129v556zM102 713q26 0 41.5 -16.5t15.5 -40.5q0 -23 -16 -40t-41 -17t-41 17t-16 40q0 24 15.5 40.5t41.5 16.5z" />
    <glyph glyph-name="k" unicode="k" horiz-adv-x="542" 
d="M65 730h72v-455l99 67l178 158h91l1 -8l-218 -188l234 -296l-2 -8h-83l-206 264l-94 -55v-209h-72v730z" />
    <glyph glyph-name="l" unicode="l" horiz-adv-x="227" 
d="M65 730h72v-593q0 -40 17 -58.5t59 -20.5v-62q-14 -2 -24 -2q-124 0 -124 159v577z" />
    <glyph glyph-name="m" unicode="m" horiz-adv-x="964" 
d="M65 500h59l7 -92q72 102 195 102q122 0 172 -99q81 99 205 99q100 0 148 -54t48 -164v-292h-72v290q0 158 -124 158q-113 0 -186 -100q5 -30 5 -56v-292h-72v291q0 157 -124 157q-123 0 -189 -108v-340h-72v500z" />
    <glyph glyph-name="n" unicode="n" horiz-adv-x="609" 
d="M65 500h60l8 -90q66 100 202 100q101 0 155 -56t54 -162v-292h-72v293q0 155 -137 155q-69 0 -116 -27t-82 -84v-337h-72v500z" />
    <glyph glyph-name="o" unicode="o" horiz-adv-x="624" 
d="M589 250q0 -117 -79 -188.5t-198 -71.5t-198 71.5t-79 188.5t79 188.5t198 71.5t198 -71.5t79 -188.5zM108 250q0 -90 56.5 -145t147.5 -55t147.5 55t56.5 145t-56.5 145t-147.5 55t-147.5 -55t-56.5 -145z" />
    <glyph glyph-name="p" unicode="p" horiz-adv-x="597" 
d="M65 -230v711q106 29 221 29q133 0 204.5 -66t71.5 -190q0 -115 -68 -189.5t-189 -74.5q-53 0 -90.5 11.5t-77.5 43.5v-275h-72zM137 428v-307q74 -66 168 -66q82 0 133 53.5t51 145.5q0 97 -55 146t-151 49q-75 0 -146 -21z" />
    <glyph glyph-name="q" unicode="q" horiz-adv-x="602" 
d="M537 -230h-72v273q-83 -53 -186 -53q-118 0 -181 66.5t-63 191.5q0 117 84 189.5t205 72.5q119 0 213 -50v-690zM465 112v304q-64 32 -140 32q-97 0 -157 -51.5t-60 -147.5q0 -195 179 -195q97 0 178 58z" />
    <glyph glyph-name="r" unicode="r" horiz-adv-x="489" 
d="M65 500h61l6 -92q33 52 85 77t107 25q92 0 145 -66l-50 -46q-41 48 -107 48q-104 0 -175 -108v-338h-72v500z" />
    <glyph glyph-name="s" unicode="s" horiz-adv-x="495" 
d="M428 481l-25 -60q-68 28 -149 28q-138 0 -138 -74q0 -38 34 -54.5t110 -26.5q195 -26 195 -157q0 -74 -61.5 -110.5t-173.5 -36.5q-105 0 -175 30l19 64q72 -31 152 -31q170 0 170 85q0 41 -34.5 61.5t-115.5 29.5q-190 21 -190 142q0 62 53.5 100.5t155.5 38.5
q98 0 173 -29z" />
    <glyph glyph-name="t" unicode="t" horiz-adv-x="431" 
d="M20 447v29l62 38l69 109l22 -3v-120h205l-3 -64l-202 7v-273q0 -116 105 -116q60 0 111 31l27 -57q-61 -38 -146 -38q-169 0 -169 179v267z" />
    <glyph glyph-name="u" unicode="u" horiz-adv-x="601" 
d="M65 500h72v-293q0 -74 34.5 -114.5t99.5 -40.5q68 0 112.5 27t80.5 85v336h72v-500h-60l-8 88q-71 -98 -197 -98q-206 0 -206 218v292z" />
    <glyph glyph-name="v" unicode="v" horiz-adv-x="603" 
d="M30 500h82l182 -435h9l190 435h80l-230 -500h-92z" />
    <glyph glyph-name="w" unicode="w" horiz-adv-x="848" 
d="M201 0l-171 500h77l142 -427h5l144 427h61l145 -427h5l134 427h75l-169 -500h-91l-128 380h-5l-130 -380h-94z" />
    <glyph glyph-name="x" unicode="x" horiz-adv-x="553" 
d="M41 500h83l148 -211h6l149 211h86l-174 -237l189 -263h-86l-164 230h-6l-164 -230h-83l189 260z" />
    <glyph glyph-name="y" unicode="y" horiz-adv-x="596" 
d="M30 500h81l204 -424h6l165 424h80l-246 -599q-20 -48 -61.5 -75t-90.5 -27q-28 0 -57 11l12 59q18 -5 41 -5q75 0 102 78l17 49z" />
    <glyph glyph-name="z" unicode="z" horiz-adv-x="538" 
d="M57 500h434v-48l-348 -390h350v-62h-448v48l345 391h-333v61z" />
    <glyph glyph-name="braceleft" unicode="{" horiz-adv-x="289" 
d="M259 735v-62h-23q-63 0 -63 -61v-197q0 -71 -51 -91v-5q51 -19 51 -91v-197q0 -61 63 -61h23v-62h-32q-57 0 -91.5 33t-34.5 93v206q0 50 -53 50h-18v63h18q53 0 53 50v206q0 59 35 92.5t91 33.5h32z" />
    <glyph glyph-name="bar" unicode="|" horiz-adv-x="217" 
d="M75 686h67v-796h-67v796z" />
    <glyph glyph-name="braceright" unicode="}" horiz-adv-x="289" 
d="M30 -92v62h23q63 0 63 61v197q0 71 51 91v5q-51 20 -51 91v197q0 61 -63 61h-23v62h32q57 0 91.5 -33t34.5 -93v-206q0 -50 53 -50h18v-63h-18q-53 0 -53 -50v-206q0 -59 -35 -92.5t-91 -33.5h-32z" />
    <glyph glyph-name="asciitilde" unicode="~" horiz-adv-x="430" 
d="M49 293l-19 44q45 45 110 45q37 0 81 -20q42 -21 73 -21q46 0 75 25l31 -37q-44 -51 -107 -51q-33 0 -77 21q-48 22 -82 22q-51 0 -85 -28z" />
    <glyph glyph-name="exclamdown" unicode="&#xa1;" horiz-adv-x="225" 
d="M160 -29h-79l10 509h59zM121 542q-27 0 -43 16.5t-16 41.5t16 41.5t43 16.5t43 -16.5t16 -41.5t-16 -41.5t-43 -16.5z" />
    <glyph glyph-name="cent" unicode="&#xa2;" horiz-adv-x="539" 
d="M492 477l-32 -57q-57 28 -138 28q-101 0 -157.5 -51.5t-56.5 -147.5q0 -87 57 -141t142 -54q96 0 168 36l24 -59q-67 -33 -152 -39v-75h-64v74q-114 6 -181 77t-67 179t69 179t179 82v69h64v-68q82 -3 145 -32z" />
    <glyph glyph-name="currency" unicode="&#xa4;" horiz-adv-x="451" 
d="M86 455l48 -52q45 27 91 27q51 0 91 -27l46 51l44 -42l-50 -46q28 -43 28 -88q0 -39 -28 -87l48 -47l-41 -42l-46 52q-45 -28 -92 -28q-49 0 -92 26l-47 -51l-41 44l48 45q-26 40 -26 88q0 49 26 89l-48 47zM327 278q0 42 -29.5 69t-72.5 27q-44 0 -73 -26.5t-29 -69.5
t29.5 -70t72.5 -27t72.5 27t29.5 70z" />
    <glyph glyph-name="yen" unicode="&#xa5;" horiz-adv-x="612" 
d="M25 595h84l194 -297h11l193 297h80l-195 -293h76v-60h-320v60h75zM148 206h320v-60h-124v-146h-74v146h-122v60z" />
    <glyph glyph-name="brokenbar" unicode="&#xa6;" horiz-adv-x="217" 
d="M75 263h67v-373h-67v373zM75 686h67v-363h-67v363z" />
    <glyph glyph-name="section" unicode="&#xa7;" horiz-adv-x="507" 
d="M416 651l-32 -54q-53 32 -125 32q-55 0 -83 -17t-28 -57q0 -31 20 -45t59 -24l84 -21q72 -17 111.5 -49.5t39.5 -89.5q0 -86 -80 -130q47 -40 47 -107t-57.5 -99.5t-135.5 -32.5q-102 0 -176 35l21 62q63 -34 154 -34q59 0 92.5 16t33.5 59q0 34 -23.5 50.5t-72.5 28.5
l-83 20q-137 33 -137 143q0 77 84 123q-49 36 -49 94q0 65 53 100.5t124 35.5q85 0 159 -39zM288 404l-113 26q-64 -36 -64 -83q0 -39 25 -58.5t81 -33.5l114 -29q30 14 47.5 39t17.5 51q0 40 -24.5 57t-83.5 31z" />
    <glyph glyph-name="dieresis" unicode="&#xa8;" horiz-adv-x="406" 
d="M92 676q23 0 37.5 -13.5t14.5 -36.5q0 -22 -14 -36t-38 -14q-23 0 -37.5 14t-14.5 36q0 23 14.5 36.5t37.5 13.5zM313 676q23 0 37.5 -13.5t14.5 -36.5q0 -22 -14 -36t-38 -14q-23 0 -37.5 14t-14.5 36q0 23 14.5 36.5t37.5 13.5z" />
    <glyph glyph-name="copyright" unicode="&#xa9;" horiz-adv-x="758" 
d="M501 455l-27 -49q-36 21 -84 21q-57 0 -89.5 -29.5t-32.5 -83.5q0 -53 33.5 -82.5t85.5 -29.5q56 0 100 25l17 -51q-55 -32 -117 -32q-84 0 -133.5 46t-49.5 124q0 79 53.5 124t135.5 45q59 0 108 -28zM718 313q0 -147 -96.5 -236.5t-242.5 -89.5t-242.5 89.5
t-96.5 236.5t96.5 236.5t242.5 89.5t242.5 -89.5t96.5 -236.5zM108 313q0 -126 77 -195t194 -69t194 69t77 195t-77 195t-194 69t-194 -69t-77 -195z" />
    <glyph glyph-name="ordfeminine" unicode="&#xaa;" horiz-adv-x="380" 
d="M68 591l-16 47q60 25 128 25q139 0 139 -106v-138q0 -45 40 -49v-34q-15 -5 -37 -5q-37 0 -37 61q-64 -61 -147 -61q-52 0 -79.5 25t-27.5 68q0 48 32 80q77 26 206 26v23q0 33 -19 46.5t-72 13.5q-60 0 -110 -22zM269 424v64q-114 0 -170 -19q-13 -18 -13 -42
q0 -47 66 -47q59 0 117 44z" />
    <glyph glyph-name="guillemotleft" unicode="&#xab;" horiz-adv-x="448" 
d="M211 410l30 -45l-120 -106l120 -110l-30 -48l-171 139v34zM383 421l30 -46l-120 -116l120 -121l-30 -47l-172 152v33z" />
    <glyph glyph-name="logicalnot" unicode="&#xac;" horiz-adv-x="378" 
d="M40 368h298l-7 -170h-54l-8 106h-229v64z" />
    <glyph glyph-name="uni00AD" unicode="&#xad;" horiz-adv-x="368" 
d="M40 303h288v-64h-288v64z" />
    <glyph glyph-name="registered" unicode="&#xae;" horiz-adv-x="438" 
d="M219 289q-80 0 -132 51.5t-52 129.5t52 129t132 51t132 -51t52 -129t-52 -129.5t-132 -51.5zM254 463l43 -80h-42l-37 74h-25v-74h-38v182h67q29 0 49 -13t20 -40q0 -33 -37 -49zM193 532v-43h33q26 0 26 24q0 19 -27 19h-32zM358 470q0 65 -37 102.5t-102 37.5
t-102 -37.5t-37 -102.5t37 -103t102 -38t102 38t37 103z" />
    <glyph glyph-name="macron" unicode="&#xaf;" horiz-adv-x="392" 
d="M45 641h312v-59h-312v59z" />
    <glyph glyph-name="degree" unicode="&#xb0;" horiz-adv-x="364" 
d="M329 521q0 -61 -42 -101.5t-105 -40.5t-105 40.5t-42 101.5t42 101.5t105 40.5t105 -40.5t42 -101.5zM94 521q0 -40 24 -64t64 -24t64 24t24 64t-24 64t-64 24t-64 -24t-24 -64z" />
    <glyph glyph-name="plusminus" unicode="&#xb1;" horiz-adv-x="414" 
d="M174 576h66v-135h134v-63h-134v-135h-66v135h-134v63h134v135zM354 118h-294v63h294v-63z" />
    <glyph glyph-name="twosuperior" unicode="&#xb2;" horiz-adv-x="331" 
d="M295 436v-61h-265v62l159 116q49 35 49 80q0 59 -77 59q-54 0 -101 -43l-35 48q63 57 141 57q61 0 98 -33t37 -87q0 -71 -54 -111l-122 -87h170z" />
    <glyph glyph-name="threesuperior" unicode="&#xb3;" horiz-adv-x="350" 
d="M262 582q54 -29 54 -90t-44 -93.5t-110 -32.5q-82 0 -137 40l25 50q48 -33 108 -33q43 0 71 17t28 50q0 30 -17 44t-60 14h-78v54h69q33 0 49 10t16 36q0 49 -72 49q-51 0 -94 -29l-31 43q55 43 131 43q48 0 86.5 -26t38.5 -72q0 -52 -33 -74z" />
    <glyph glyph-name="acute" unicode="&#xb4;" horiz-adv-x="264" 
d="M64 562l86 170l63 -39l-97 -131h-52z" />
    <glyph glyph-name="mu" unicode="&#xb5;" horiz-adv-x="601" 
d="M138 -230l-73 1v729h72v-310q0 -72 33.5 -105t100.5 -33q68 0 112.5 27t80.5 85v336h72v-500h-60l-8 88q-71 -98 -197 -98q-93 0 -140 62l7 -163v-119z" />
    <glyph glyph-name="paragraph" unicode="&#xb6;" horiz-adv-x="371" 
d="M336 650l-10 -69l-65 7h-47q-55 0 -86 -24.5t-31 -66.5q0 -81 87 -81q67 0 86 58l34 -4v-444q0 -94 -28 -158t-88 -107l-45 44q50 44 69 90t19 110v360q-29 -12 -66 -12q-65 0 -100 37.5t-35 102.5q0 71 54.5 114t130.5 43h121z" />
    <glyph glyph-name="periodcentered" unicode="&#xb7;" horiz-adv-x="218" 
d="M109 302q27 0 43 -16.5t16 -41.5t-16 -41.5t-43 -16.5t-43 16.5t-16 41.5t16 41.5t43 16.5z" />
    <glyph glyph-name="cedilla" unicode="&#xb8;" horiz-adv-x="236" 
d="M70 0l57 4l-6 -49q32 0 53.5 -18.5t21.5 -45.5q0 -43 -35 -76t-102 -44l-10 49q85 13 85 63q0 29 -33 29h-31v88z" />
    <glyph glyph-name="onesuperior" unicode="&#xb9;" horiz-adv-x="222" 
d="M20 684l118 64l34 -4v-369h-63v287l-75 -19z" />
    <glyph glyph-name="ordmasculine" unicode="&#xba;" horiz-adv-x="396" 
d="M366 497q0 -77 -47 -121.5t-121 -44.5t-121 44.5t-47 121.5t47 121.5t121 44.5t121 -44.5t47 -121.5zM84 497q0 -60 32.5 -89t81.5 -29t81.5 29t32.5 89t-32.5 89t-81.5 29t-81.5 -29t-32.5 -89z" />
    <glyph glyph-name="guillemotright" unicode="&#xbb;" horiz-adv-x="448" 
d="M237 410l171 -136v-34l-171 -139l-30 48l120 110l-120 106zM65 421l172 -145v-33l-172 -152l-30 47l120 121l-120 116z" />
    <glyph glyph-name="questiondown" unicode="&#xbf;" horiz-adv-x="527" 
d="M273 480h52q12 -23 12 -61q0 -89 -119 -137q-51 -21 -76.5 -51.5t-25.5 -79.5q0 -57 40 -87.5t120 -30.5q109 0 189 72l36 -51q-92 -86 -232 -86q-105 0 -167 48.5t-62 144.5q0 59 38 105t98 69q50 19 73.5 41.5t23.5 61.5v42zM298 542q-27 0 -43 16.5t-16 41.5t16 41.5
t43 16.5t43 -16.5t16 -41.5t-16 -41.5t-43 -16.5z" />
    <glyph glyph-name="Agrave" unicode="&#xc0;" horiz-adv-x="699" 
d="M306 650h88l280 -650h-79l-93 219h-309l-91 -219h-77zM341 573l-122 -292h257l-121 292h-14zM290 877l84 -171h-56l-91 133z" />
    <glyph glyph-name="Aacute" unicode="&#xc1;" horiz-adv-x="699" 
d="M306 650h88l280 -650h-79l-93 219h-309l-91 -219h-77zM341 573l-122 -292h257l-121 292h-14zM330 706l84 171l63 -38l-91 -133h-56z" />
    <glyph glyph-name="Acircumflex" unicode="&#xc2;" horiz-adv-x="699" 
d="M306 650h88l280 -650h-79l-93 219h-309l-91 -219h-77zM341 573l-122 -292h257l-121 292h-14zM349 773l-126 -81l-18 43l137 113h15l136 -113l-18 -43z" />
    <glyph glyph-name="Atilde" unicode="&#xc3;" horiz-adv-x="699" 
d="M306 650h88l280 -650h-79l-93 219h-309l-91 -219h-77zM341 573l-122 -292h257l-121 292h-14zM197 716l-21 48q46 41 106 41q38 0 74 -20q35 -19 69 -19q41 0 67 25l31 -36q-40 -49 -97 -49q-40 0 -78 21q-37 20 -70 20q-43 0 -81 -31z" />
    <glyph glyph-name="Adieresis" unicode="&#xc4;" horiz-adv-x="699" 
d="M306 650h88l280 -650h-79l-93 219h-309l-91 -219h-77zM341 573l-122 -292h257l-121 292h-14zM243 822q24 0 39 -14t15 -38q0 -23 -15 -37t-39 -14q-23 0 -37.5 14.5t-14.5 36.5q0 24 14.5 38t37.5 14zM463 822q22 0 37.5 -14.5t15.5 -37.5q0 -22 -15.5 -36.5t-37.5 -14.5
t-38 14.5t-16 36.5q0 23 15.5 37.5t38.5 14.5z" />
    <glyph glyph-name="Aring" unicode="&#xc5;" horiz-adv-x="699" 
d="M306 650h88l280 -650h-79l-93 219h-309l-91 -219h-77zM341 573l-122 -292h257l-121 292h-14zM349 682q-47 0 -80.5 30.5t-33.5 75.5t33.5 75.5t80.5 30.5t80.5 -30.5t33.5 -75.5t-33.5 -75.5t-80.5 -30.5zM410 788q0 25 -17 41.5t-44 16.5t-44 -16.5t-17 -41.5t17 -41.5
t44 -16.5t44 16.5t17 41.5z" />
    <glyph glyph-name="AE" unicode="&#xc6;" horiz-adv-x="947" 
d="M410 650h477v-64h-332v-216h299v-63h-299v-242h347v-65h-421v147h-296l-88 -147h-82zM445 586l-222 -375h258v375h-36z" />
    <glyph glyph-name="Ccedilla" unicode="&#xc7;" horiz-adv-x="648" 
d="M612 597l-31 -60q-92 62 -192 62q-120 0 -197 -77t-77 -196q0 -127 76.5 -198.5t196.5 -71.5q63 0 107.5 12.5t95.5 45.5l22 -66q-89 -58 -221 -61l-5 -37q36 0 58.5 -23t22.5 -56q0 -50 -43.5 -86.5t-101.5 -46.5l-10 54q44 8 69 28t25 49q0 36 -43 36h-36l3 85
q-125 14 -208 99.5t-83 236.5q0 148 101.5 242.5t247.5 94.5q131 0 223 -66z" />
    <glyph glyph-name="Egrave" unicode="&#xc8;" horiz-adv-x="532" 
d="M65 0v650h407v-64h-332v-215h299v-64h-299v-242h347v-65h-422zM230 877l84 -171h-56l-91 133z" />
    <glyph glyph-name="Eacute" unicode="&#xc9;" horiz-adv-x="532" 
d="M65 0v650h407v-64h-332v-215h299v-64h-299v-242h347v-65h-422zM240 706l84 171l63 -38l-91 -133h-56z" />
    <glyph glyph-name="Ecircumflex" unicode="&#xca;" horiz-adv-x="532" 
d="M65 0v650h407v-64h-332v-215h299v-64h-299v-242h347v-65h-422zM280 783l-126 -81l-18 43l137 113h15l136 -113l-18 -43z" />
    <glyph glyph-name="Edieresis" unicode="&#xcb;" horiz-adv-x="532" 
d="M65 0v650h407v-64h-332v-215h299v-64h-299v-242h347v-65h-422zM170 822q24 0 39 -14t15 -38q0 -23 -15 -37t-39 -14q-23 0 -37.5 14.5t-14.5 36.5q0 24 14.5 38t37.5 14zM390 822q22 0 37.5 -14.5t15.5 -37.5q0 -22 -15.5 -36.5t-37.5 -14.5t-38 14.5t-16 36.5
q0 23 15.5 37.5t38.5 14.5z" />
    <glyph glyph-name="Igrave" unicode="&#xcc;" horiz-adv-x="205" 
d="M65 650h75v-650h-75v650zM52 877l84 -171h-56l-91 133z" />
    <glyph glyph-name="Iacute" unicode="&#xcd;" horiz-adv-x="205" 
d="M65 650h75v-650h-75v650zM77 706l84 171l63 -38l-91 -133h-56z" />
    <glyph glyph-name="Icircumflex" unicode="&#xce;" horiz-adv-x="205" 
d="M65 650h75v-650h-75v650zM102 773l-126 -81l-18 43l137 113h15l136 -113l-18 -43z" />
    <glyph glyph-name="Idieresis" unicode="&#xcf;" horiz-adv-x="205" 
d="M65 650h75v-650h-75v650zM-8 822q24 0 39 -14t15 -38q0 -23 -15 -37t-39 -14q-23 0 -37.5 14.5t-14.5 36.5q0 24 14.5 38t37.5 14zM212 822q22 0 37.5 -14.5t15.5 -37.5q0 -22 -15.5 -36.5t-37.5 -14.5t-38 14.5t-16 36.5q0 23 15.5 37.5t38.5 14.5z" />
    <glyph glyph-name="Eth" unicode="&#xd0;" horiz-adv-x="708" 
d="M80 650h237q168 0 259.5 -84t91.5 -237q0 -157 -100.5 -243t-271.5 -86h-216v301h-68v61h68v288zM155 587v-225h167v-61h-167v-236h141q134 0 215 65t81 199q0 258 -275 258h-162z" />
    <glyph glyph-name="Ntilde" unicode="&#xd1;" horiz-adv-x="727" 
d="M65 650h80l450 -561l-4 199v362h71v-650h-83l-450 565l7 -230v-335h-71v650zM211 716l-21 48q46 41 106 41q38 0 74 -20q35 -19 69 -19q41 0 67 25l31 -36q-40 -49 -97 -49q-40 0 -78 21q-37 20 -70 20q-43 0 -81 -31z" />
    <glyph glyph-name="Ograve" unicode="&#xd2;" horiz-adv-x="776" 
d="M115 325q0 -124 79.5 -199t193.5 -75t193.5 75t79.5 199t-79.5 199t-193.5 75t-193.5 -75t-79.5 -199zM736 325q0 -149 -99.5 -243.5t-248.5 -94.5q-150 0 -249 94t-99 244q0 149 99.5 243.5t248.5 94.5q150 0 249 -94t99 -244zM329 882l84 -171h-56l-91 133z" />
    <glyph glyph-name="Oacute" unicode="&#xd3;" horiz-adv-x="776" 
d="M115 325q0 -124 79.5 -199t193.5 -75t193.5 75t79.5 199t-79.5 199t-193.5 75t-193.5 -75t-79.5 -199zM736 325q0 -149 -99.5 -243.5t-248.5 -94.5q-150 0 -249 94t-99 244q0 149 99.5 243.5t248.5 94.5q150 0 249 -94t99 -244zM362 711l84 171l63 -38l-91 -133h-56z" />
    <glyph glyph-name="Ocircumflex" unicode="&#xd4;" horiz-adv-x="776" 
d="M115 325q0 -124 79.5 -199t193.5 -75t193.5 75t79.5 199t-79.5 199t-193.5 75t-193.5 -75t-79.5 -199zM736 325q0 -149 -99.5 -243.5t-248.5 -94.5q-150 0 -249 94t-99 244q0 149 99.5 243.5t248.5 94.5q150 0 249 -94t99 -244zM388 783l-126 -81l-18 43l137 113h15
l136 -113l-18 -43z" />
    <glyph glyph-name="Otilde" unicode="&#xd5;" horiz-adv-x="776" 
d="M115 325q0 -124 79.5 -199t193.5 -75t193.5 75t79.5 199t-79.5 199t-193.5 75t-193.5 -75t-79.5 -199zM736 325q0 -149 -99.5 -243.5t-248.5 -94.5q-150 0 -249 94t-99 244q0 149 99.5 243.5t248.5 94.5q150 0 249 -94t99 -244zM236 716l-21 48q46 41 106 41q38 0 74 -20
q35 -19 69 -19q41 0 67 25l31 -36q-40 -49 -97 -49q-39 0 -78 21q-37 20 -70 20q-43 0 -81 -31z" />
    <glyph glyph-name="Odieresis" unicode="&#xd6;" horiz-adv-x="776" 
d="M115 325q0 -124 79.5 -199t193.5 -75t193.5 75t79.5 199t-79.5 199t-193.5 75t-193.5 -75t-79.5 -199zM736 325q0 -149 -99.5 -243.5t-248.5 -94.5q-150 0 -249 94t-99 244q0 149 99.5 243.5t248.5 94.5q150 0 249 -94t99 -244zM278 822q24 0 39 -14t15 -38
q0 -23 -15 -37t-39 -14q-23 0 -37.5 14.5t-14.5 36.5q0 24 14.5 38t37.5 14zM498 822q22 0 37.5 -14.5t15.5 -37.5q0 -22 -15.5 -36.5t-37.5 -14.5t-38 14.5t-16 36.5q0 23 15.5 37.5t38.5 14.5z" />
    <glyph glyph-name="multiply" unicode="&#xd7;" horiz-adv-x="366" 
d="M78 469l105 -104l106 104l42 -42l-105 -106l105 -105l-42 -42l-106 104l-105 -104l-43 42l105 105l-105 106z" />
    <glyph glyph-name="Oslash" unicode="&#xd8;" horiz-adv-x="776" 
d="M625 669l55 -36l-48 -60q104 -94 104 -248q0 -150 -99 -244t-249 -94q-106 0 -188 48l-46 -57l-52 36l46 58q-108 97 -108 253q0 150 99 244t249 94q108 0 191 -51zM193 128l343 430q-65 41 -148 41q-114 0 -193.5 -75t-79.5 -199q0 -121 78 -197zM587 518l-344 -429
q65 -38 145 -38q114 0 193.5 75t79.5 199q0 116 -74 193z" />
    <glyph glyph-name="Ugrave" unicode="&#xd9;" horiz-adv-x="661" 
d="M60 650h75v-367q0 -115 51.5 -173.5t143.5 -58.5t144 58.5t52 173.5v367h75v-360q0 -152 -71.5 -227.5t-199.5 -75.5t-199 75t-71 228v360zM288 877l84 -171h-56l-91 133z" />
    <glyph glyph-name="Uacute" unicode="&#xda;" horiz-adv-x="661" 
d="M60 650h75v-367q0 -115 51.5 -173.5t143.5 -58.5t144 58.5t52 173.5v367h75v-360q0 -152 -71.5 -227.5t-199.5 -75.5t-199 75t-71 228v360zM286 706l84 171l63 -38l-91 -133h-56z" />
    <glyph glyph-name="Ucircumflex" unicode="&#xdb;" horiz-adv-x="661" 
d="M60 650h75v-367q0 -115 51.5 -173.5t143.5 -58.5t144 58.5t52 173.5v367h75v-360q0 -152 -71.5 -227.5t-199.5 -75.5t-199 75t-71 228v360zM330 783l-126 -81l-18 43l137 113h15l136 -113l-18 -43z" />
    <glyph glyph-name="Udieresis" unicode="&#xdc;" horiz-adv-x="661" 
d="M60 650h75v-367q0 -115 51.5 -173.5t143.5 -58.5t144 58.5t52 173.5v367h75v-360q0 -152 -71.5 -227.5t-199.5 -75.5t-199 75t-71 228v360zM220 822q24 0 39 -14t15 -38q0 -23 -15 -37t-39 -14q-23 0 -37.5 14.5t-14.5 36.5q0 24 14.5 38t37.5 14zM440 822
q22 0 37.5 -14.5t15.5 -37.5q0 -22 -15.5 -36.5t-37.5 -14.5t-38 14.5t-16 36.5q0 23 15.5 37.5t38.5 14.5z" />
    <glyph glyph-name="Yacute" unicode="&#xdd;" horiz-adv-x="626" 
d="M25 650h84l203 -325h6l200 325h83l-250 -397v-253h-74v252zM287 706l84 171l63 -38l-91 -133h-56z" />
    <glyph glyph-name="Thorn" unicode="&#xde;" horiz-adv-x="565" 
d="M65 663h75v-113h142q111 0 179.5 -54.5t68.5 -148.5q0 -97 -67.5 -150.5t-180.5 -53.5h-142v-143h-75v663zM140 486v-279h129q94 0 140 32.5t46 107.5q0 139 -186 139h-129z" />
    <glyph glyph-name="agrave" unicode="&#xe0;" horiz-adv-x="602" 
d="M111 409l-19 60q96 41 205 41t160 -41t51 -130v-217q0 -40 14 -55t53 -16v-51q-27 -10 -55 -10q-31 0 -47.5 19.5t-20.5 66.5q-80 -86 -222 -86q-87 0 -130 39t-43 110q0 66 43 116q125 38 337 44v37q0 59 -32 85t-113 26q-90 0 -181 -38zM437 130v116q-169 -3 -280 -32
q-26 -30 -26 -69q0 -92 106 -92q122 0 200 77zM241 732l86 -170h-52l-97 131z" />
    <glyph glyph-name="aacute" unicode="&#xe1;" horiz-adv-x="602" 
d="M111 409l-19 60q96 41 205 41t160 -41t51 -130v-217q0 -40 14 -55t53 -16v-51q-27 -10 -55 -10q-31 0 -47.5 19.5t-20.5 66.5q-80 -86 -222 -86q-87 0 -130 39t-43 110q0 66 43 116q125 38 337 44v37q0 59 -32 85t-113 26q-90 0 -181 -38zM437 130v116q-169 -3 -280 -32
q-26 -30 -26 -69q0 -92 106 -92q122 0 200 77zM254 562l86 170l63 -39l-97 -131h-52z" />
    <glyph glyph-name="acircumflex" unicode="&#xe2;" horiz-adv-x="602" 
d="M111 409l-19 60q96 41 205 41t160 -41t51 -130v-217q0 -40 14 -55t53 -16v-51q-27 -10 -55 -10q-31 0 -47.5 19.5t-20.5 66.5q-80 -86 -222 -86q-87 0 -130 39t-43 110q0 66 43 116q125 38 337 44v37q0 59 -32 85t-113 26q-90 0 -181 -38zM437 130v116q-169 -3 -280 -32
q-26 -30 -26 -69q0 -92 106 -92q122 0 200 77zM388 555l-109 75l-109 -75l-18 35l118 119h18l118 -119z" />
    <glyph glyph-name="atilde" unicode="&#xe3;" horiz-adv-x="602" 
d="M111 409l-19 60q96 41 205 41t160 -41t51 -130v-217q0 -40 14 -55t53 -16v-51q-27 -10 -55 -10q-31 0 -47.5 19.5t-20.5 66.5q-80 -86 -222 -86q-87 0 -130 39t-43 110q0 66 43 116q125 38 337 44v37q0 59 -32 85t-113 26q-90 0 -181 -38zM437 130v116q-169 -3 -280 -32
q-26 -30 -26 -69q0 -92 106 -92q122 0 200 77zM133 574l-20 44q44 45 105 45q43 0 75 -23q26 -20 62 -20q38 0 67 26l30 -35q-40 -50 -97 -50q-39 0 -74 22q-32 21 -69 21q-47 0 -79 -30z" />
    <glyph glyph-name="adieresis" unicode="&#xe4;" horiz-adv-x="602" 
d="M111 409l-19 60q96 41 205 41t160 -41t51 -130v-217q0 -40 14 -55t53 -16v-51q-27 -10 -55 -10q-31 0 -47.5 19.5t-20.5 66.5q-80 -86 -222 -86q-87 0 -130 39t-43 110q0 66 43 116q125 38 337 44v37q0 59 -32 85t-113 26q-90 0 -181 -38zM437 130v116q-169 -3 -280 -32
q-26 -30 -26 -69q0 -92 106 -92q122 0 200 77zM178 676q23 0 37.5 -13.5t14.5 -36.5q0 -22 -14 -36t-38 -14q-23 0 -37.5 14t-14.5 36q0 23 14.5 36.5t37.5 13.5zM399 676q23 0 37.5 -13.5t14.5 -36.5q0 -22 -14 -36t-38 -14q-23 0 -37.5 14t-14.5 36q0 23 14.5 36.5
t37.5 13.5z" />
    <glyph glyph-name="aring" unicode="&#xe5;" horiz-adv-x="602" 
d="M111 409l-19 60q96 41 205 41t160 -41t51 -130v-217q0 -40 14 -55t53 -16v-51q-27 -10 -55 -10q-31 0 -47.5 19.5t-20.5 66.5q-80 -86 -222 -86q-87 0 -130 39t-43 110q0 66 43 116q125 38 337 44v37q0 59 -32 85t-113 26q-90 0 -181 -38zM437 130v116q-169 -3 -280 -32
q-26 -30 -26 -69q0 -92 106 -92q122 0 200 77zM290 557q-44 0 -74 27.5t-30 70.5t30 70.5t74 27.5t74 -27.5t30 -70.5t-30 -70.5t-74 -27.5zM290 602q25 0 39 14.5t14 38.5t-14 38.5t-39 14.5t-39 -14.5t-14 -38.5t14 -38.5t39 -14.5z" />
    <glyph glyph-name="ae" unicode="&#xe6;" horiz-adv-x="928" 
d="M107 409l-18 60q92 41 208 41q75 0 115 -22t63 -72q38 48 82.5 71t104.5 23q114 0 172.5 -56t58.5 -149q0 -43 -8 -70h-395q6 -90 55 -135.5t131 -45.5q59 0 94.5 6.5t78.5 27.5l22 -62q-78 -36 -201 -36q-71 0 -116.5 23t-85.5 71q-57 -52 -113.5 -73t-127.5 -21
q-84 0 -127 39.5t-43 109.5q0 67 43 115q128 44 323 44v27q0 63 -26.5 92.5t-103.5 29.5q-95 0 -186 -38zM423 126v120q-147 0 -265 -32q-26 -29 -26 -69q0 -91 112 -91q53 0 92.5 16t86.5 56zM488 292h336q-2 84 -41 120.5t-126 36.5q-70 0 -116 -40t-53 -117z" />
    <glyph glyph-name="ccedilla" unicode="&#xe7;" horiz-adv-x="539" 
d="M492 477l-32 -57q-57 28 -138 28q-101 0 -157.5 -51.5t-56.5 -147.5q0 -87 57 -141t142 -54q96 0 168 36l24 -59q-75 -37 -175 -40l-4 -36q32 0 53.5 -18.5t21.5 -45.5q0 -43 -35 -76t-102 -44l-10 49q85 13 85 63q0 29 -33 29h-31v80q-108 10 -171 80.5t-63 174.5
q0 116 80 189.5t201 73.5q107 0 176 -33z" />
    <glyph glyph-name="egrave" unicode="&#xe8;" horiz-adv-x="571" 
d="M528 234h-420q5 -90 63.5 -135.5t145.5 -45.5q104 0 174 37l21 -63q-81 -37 -199 -37q-133 0 -205.5 69.5t-72.5 189.5q0 116 77 188.5t194 72.5q114 0 172 -56t58 -149q0 -39 -8 -71zM109 295h358q0 82 -40.5 117.5t-128.5 35.5q-72 0 -126.5 -40.5t-62.5 -112.5z
M254 732l86 -170h-52l-97 131z" />
    <glyph glyph-name="eacute" unicode="&#xe9;" horiz-adv-x="571" 
d="M528 234h-420q5 -90 63.5 -135.5t145.5 -45.5q104 0 174 37l21 -63q-81 -37 -199 -37q-133 0 -205.5 69.5t-72.5 189.5q0 116 77 188.5t194 72.5q114 0 172 -56t58 -149q0 -39 -8 -71zM109 295h358q0 82 -40.5 117.5t-128.5 35.5q-72 0 -126.5 -40.5t-62.5 -112.5z
M282 562l86 170l63 -39l-97 -131h-52z" />
    <glyph glyph-name="ecircumflex" unicode="&#xea;" horiz-adv-x="571" 
d="M528 234h-420q5 -90 63.5 -135.5t145.5 -45.5q104 0 174 37l21 -63q-81 -37 -199 -37q-133 0 -205.5 69.5t-72.5 189.5q0 116 77 188.5t194 72.5q114 0 172 -56t58 -149q0 -39 -8 -71zM109 295h358q0 82 -40.5 117.5t-128.5 35.5q-72 0 -126.5 -40.5t-62.5 -112.5z
M423 555l-109 75l-109 -75l-18 35l118 119h18l118 -119z" />
    <glyph glyph-name="edieresis" unicode="&#xeb;" horiz-adv-x="571" 
d="M528 234h-420q5 -90 63.5 -135.5t145.5 -45.5q104 0 174 37l21 -63q-81 -37 -199 -37q-133 0 -205.5 69.5t-72.5 189.5q0 116 77 188.5t194 72.5q114 0 172 -56t58 -149q0 -39 -8 -71zM109 295h358q0 82 -40.5 117.5t-128.5 35.5q-72 0 -126.5 -40.5t-62.5 -112.5z
M201 676q23 0 37.5 -13.5t14.5 -36.5q0 -22 -14 -36t-38 -14q-23 0 -37.5 14t-14.5 36q0 23 14.5 36.5t37.5 13.5zM422 676q23 0 37.5 -13.5t14.5 -36.5q0 -22 -14 -36t-38 -14q-23 0 -37.5 14t-14.5 36q0 23 14.5 36.5t37.5 13.5z" />
    <glyph glyph-name="igrave" unicode="&#xec;" horiz-adv-x="202" 
d="M65 500h72v-500h-72v500zM55 732l86 -170h-52l-97 131z" />
    <glyph glyph-name="iacute" unicode="&#xed;" horiz-adv-x="202" 
d="M65 500h72v-500h-72v500zM75 562l86 170l63 -39l-97 -131h-52z" />
    <glyph glyph-name="icircumflex" unicode="&#xee;" horiz-adv-x="202" 
d="M65 500h72v-500h-72v500zM210 555l-109 75l-109 -75l-18 35l118 119h18l118 -119z" />
    <glyph glyph-name="idieresis" unicode="&#xef;" horiz-adv-x="202" 
d="M65 500h72v-500h-72v500zM-9 676q23 0 37.5 -13.5t14.5 -36.5q0 -22 -14 -36t-38 -14q-23 0 -37.5 14t-14.5 36q0 23 14.5 36.5t37.5 13.5zM212 676q23 0 37.5 -13.5t14.5 -36.5q0 -22 -14 -36t-38 -14q-23 0 -37.5 14t-14.5 36q0 23 14.5 36.5t37.5 13.5z" />
    <glyph glyph-name="eth" unicode="&#xf0;" horiz-adv-x="597" 
d="M192 551l44 69q-64 16 -143 17l5 64q96 0 173 -24l55 85l48 -21l-50 -80q233 -96 233 -370q0 -152 -74 -231q-67 -70 -192 -70q-113 0 -184.5 66.5t-71.5 183.5q0 98 71.5 163.5t172.5 65.5q148 0 202 -94h6q-18 81 -63 137t-135 91l-49 -74zM478 229q0 78 -50.5 128
t-136.5 50q-88 0 -136 -45t-48 -130q0 -84 49.5 -132.5t134.5 -48.5q86 0 136.5 47t50.5 131z" />
    <glyph glyph-name="ntilde" unicode="&#xf1;" horiz-adv-x="609" 
d="M65 500h60l8 -90q66 100 202 100q101 0 155 -56t54 -162v-292h-72v293q0 155 -137 155q-69 0 -116 -27t-82 -84v-337h-72v500zM167 574l-20 44q44 45 105 45q43 0 75 -23q26 -20 62 -20q38 0 67 26l30 -35q-40 -50 -97 -50q-39 0 -74 22q-32 21 -69 21q-47 0 -79 -30z
" />
    <glyph glyph-name="ograve" unicode="&#xf2;" horiz-adv-x="624" 
d="M589 250q0 -117 -79 -188.5t-198 -71.5t-198 71.5t-79 188.5t79 188.5t198 71.5t198 -71.5t79 -188.5zM108 250q0 -90 56.5 -145t147.5 -55t147.5 55t56.5 145t-56.5 145t-147.5 55t-147.5 -55t-56.5 -145zM253 732l86 -170h-52l-97 131z" />
    <glyph glyph-name="oacute" unicode="&#xf3;" horiz-adv-x="624" 
d="M589 250q0 -117 -79 -188.5t-198 -71.5t-198 71.5t-79 188.5t79 188.5t198 71.5t198 -71.5t79 -188.5zM108 250q0 -90 56.5 -145t147.5 -55t147.5 55t56.5 145t-56.5 145t-147.5 55t-147.5 -55t-56.5 -145zM298 562l86 170l63 -39l-97 -131h-52z" />
    <glyph glyph-name="ocircumflex" unicode="&#xf4;" horiz-adv-x="624" 
d="M589 250q0 -117 -79 -188.5t-198 -71.5t-198 71.5t-79 188.5t79 188.5t198 71.5t198 -71.5t79 -188.5zM108 250q0 -90 56.5 -145t147.5 -55t147.5 55t56.5 145t-56.5 145t-147.5 55t-147.5 -55t-56.5 -145zM421 555l-109 75l-109 -75l-18 35l118 119h18l118 -119z" />
    <glyph glyph-name="otilde" unicode="&#xf5;" horiz-adv-x="624" 
d="M589 250q0 -117 -79 -188.5t-198 -71.5t-198 71.5t-79 188.5t79 188.5t198 71.5t198 -71.5t79 -188.5zM108 250q0 -90 56.5 -145t147.5 -55t147.5 55t56.5 145t-56.5 145t-147.5 55t-147.5 -55t-56.5 -145zM163 574l-20 44q44 45 105 45q43 0 75 -23q26 -20 62 -20
q38 0 67 26l30 -35q-40 -50 -97 -50q-39 0 -74 22q-32 21 -69 21q-47 0 -79 -30z" />
    <glyph glyph-name="odieresis" unicode="&#xf6;" horiz-adv-x="624" 
d="M589 250q0 -117 -79 -188.5t-198 -71.5t-198 71.5t-79 188.5t79 188.5t198 71.5t198 -71.5t79 -188.5zM108 250q0 -90 56.5 -145t147.5 -55t147.5 55t56.5 145t-56.5 145t-147.5 55t-147.5 -55t-56.5 -145zM202 676q23 0 37.5 -13.5t14.5 -36.5q0 -22 -14 -36t-38 -14
q-23 0 -37.5 14t-14.5 36q0 23 14.5 36.5t37.5 13.5zM423 676q23 0 37.5 -13.5t14.5 -36.5q0 -22 -14 -36t-38 -14q-23 0 -37.5 14t-14.5 36q0 23 14.5 36.5t37.5 13.5z" />
    <glyph glyph-name="divide" unicode="&#xf7;" horiz-adv-x="387" 
d="M193 228q27 0 43 -17t16 -43t-15.5 -41t-43.5 -15q-27 0 -42.5 15t-15.5 41t16 43t42 17zM50 363h287v-64h-287v64zM193 552q27 0 43 -17t16 -43t-16 -41.5t-43 -15.5t-42.5 15.5t-15.5 41.5t16 43t42 17z" />
    <glyph glyph-name="oslash" unicode="&#xf8;" horiz-adv-x="624" 
d="M454 539l61 -20l-34 -58q108 -72 108 -211q0 -117 -79 -188.5t-198 -71.5q-51 0 -98 14l-29 -49l-60 20l32 54q-122 73 -122 221q0 117 79 188.5t198 71.5q61 0 113 -20zM189 85l205 351q-39 14 -82 14q-91 0 -147.5 -55t-56.5 -145q0 -110 81 -165zM448 405l-203 -347
q28 -8 67 -8q91 0 147.5 55t56.5 145q0 100 -68 155z" />
    <glyph glyph-name="ugrave" unicode="&#xf9;" horiz-adv-x="601" 
d="M65 500h72v-293q0 -74 34.5 -114.5t99.5 -40.5q68 0 112.5 27t80.5 85v336h72v-500h-60l-8 88q-71 -98 -197 -98q-206 0 -206 218v292zM245 732l86 -170h-52l-97 131z" />
    <glyph glyph-name="uacute" unicode="&#xfa;" horiz-adv-x="601" 
d="M65 500h72v-293q0 -74 34.5 -114.5t99.5 -40.5q68 0 112.5 27t80.5 85v336h72v-500h-60l-8 88q-71 -98 -197 -98q-206 0 -206 218v292zM267 562l86 170l63 -39l-97 -131h-52z" />
    <glyph glyph-name="ucircumflex" unicode="&#xfb;" horiz-adv-x="601" 
d="M65 500h72v-293q0 -74 34.5 -114.5t99.5 -40.5q68 0 112.5 27t80.5 85v336h72v-500h-60l-8 88q-71 -98 -197 -98q-206 0 -206 218v292zM411 555l-109 75l-109 -75l-18 35l118 119h18l118 -119z" />
    <glyph glyph-name="udieresis" unicode="&#xfc;" horiz-adv-x="601" 
d="M65 500h72v-293q0 -74 34.5 -114.5t99.5 -40.5q68 0 112.5 27t80.5 85v336h72v-500h-60l-8 88q-71 -98 -197 -98q-206 0 -206 218v292zM190 676q23 0 37.5 -13.5t14.5 -36.5q0 -22 -14 -36t-38 -14q-23 0 -37.5 14t-14.5 36q0 23 14.5 36.5t37.5 13.5zM411 676
q23 0 37.5 -13.5t14.5 -36.5q0 -22 -14 -36t-38 -14q-23 0 -37.5 14t-14.5 36q0 23 14.5 36.5t37.5 13.5z" />
    <glyph glyph-name="yacute" unicode="&#xfd;" horiz-adv-x="596" 
d="M30 500h81l204 -424h6l165 424h80l-246 -599q-20 -48 -61.5 -75t-90.5 -27q-28 0 -57 11l12 59q18 -5 41 -5q75 0 102 78l17 49zM271 562l86 170l63 -39l-97 -131h-52z" />
    <glyph glyph-name="thorn" unicode="&#xfe;" horiz-adv-x="603" 
d="M65 730h74v-242q75 22 149 22q132 0 203.5 -69t71.5 -192q0 -118 -64.5 -188.5t-188.5 -70.5q-59 0 -97 12.5t-74 44.5v-277h-74v960zM139 425v-308q68 -63 170 -63q84 0 132.5 51.5t48.5 143.5q0 98 -52.5 148t-148.5 50q-80 0 -150 -22z" />
    <glyph glyph-name="ydieresis" unicode="&#xff;" horiz-adv-x="596" 
d="M30 500h81l204 -424h6l165 424h80l-246 -599q-20 -48 -61.5 -75t-90.5 -27q-28 0 -57 11l12 59q18 -5 41 -5q75 0 102 78l17 49zM198 676q23 0 37.5 -13.5t14.5 -36.5q0 -22 -14 -36t-38 -14q-23 0 -37.5 14t-14.5 36q0 23 14.5 36.5t37.5 13.5zM419 676q23 0 37.5 -13.5
t14.5 -36.5q0 -22 -14 -36t-38 -14q-23 0 -37.5 14t-14.5 36q0 23 14.5 36.5t37.5 13.5z" />
    <glyph glyph-name="Amacron" unicode="&#x100;" horiz-adv-x="699" 
d="M306 650h88l280 -650h-79l-93 219h-309l-91 -219h-77zM341 573l-122 -292h257l-121 292h-14zM194 787h311v-63h-311v63z" />
    <glyph glyph-name="amacron" unicode="&#x101;" horiz-adv-x="602" 
d="M111 409l-19 60q96 41 205 41t160 -41t51 -130v-217q0 -40 14 -55t53 -16v-51q-27 -10 -55 -10q-31 0 -47.5 19.5t-20.5 66.5q-80 -86 -222 -86q-87 0 -130 39t-43 110q0 66 43 116q125 38 337 44v37q0 59 -32 85t-113 26q-90 0 -181 -38zM437 130v116q-169 -3 -280 -32
q-26 -30 -26 -69q0 -92 106 -92q122 0 200 77zM134 641h312v-59h-312v59z" />
    <glyph glyph-name="Abreve" unicode="&#x102;" horiz-adv-x="699" 
d="M306 650h88l280 -650h-79l-93 219h-309l-91 -219h-77zM341 573l-122 -292h257l-121 292h-14zM199 809l48 20q30 -58 101 -58t104 58l47 -20q-38 -99 -151 -99q-52 0 -92 27t-57 72z" />
    <glyph glyph-name="abreve" unicode="&#x103;" horiz-adv-x="602" 
d="M111 409l-19 60q96 41 205 41t160 -41t51 -130v-217q0 -40 14 -55t53 -16v-51q-27 -10 -55 -10q-31 0 -47.5 19.5t-20.5 66.5q-80 -86 -222 -86q-87 0 -130 39t-43 110q0 66 43 116q125 38 337 44v37q0 59 -32 85t-113 26q-90 0 -181 -38zM437 130v116q-169 -3 -280 -32
q-26 -30 -26 -69q0 -92 106 -92q122 0 200 77zM160 660l58 15q15 -55 74 -55t74 55l58 -15q-34 -96 -132 -96t-132 96z" />
    <glyph glyph-name="Aogonek" unicode="&#x104;" horiz-adv-x="699" 
d="M306 650h88l280 -650q-48 -29 -48 -76q0 -49 58 -49q14 0 25 3l-13 -49q-14 -6 -38 -6q-40 0 -66.5 22.5t-26.5 60.5q0 66 53 94h-23l-93 219h-309l-91 -219h-77zM341 573l-122 -292h257l-121 292h-14z" />
    <glyph glyph-name="aogonek" unicode="&#x105;" horiz-adv-x="602" 
d="M111 409l-19 60q96 41 205 41t160 -41t51 -130v-217q0 -40 14 -55t53 -16v-51q-45 -28 -45 -69q0 -46 47 -46q14 0 26 4l-14 -50q-15 -3 -29 -3q-40 0 -64 23.5t-24 57.5q0 48 41 73q-56 5 -61 86q-80 -86 -222 -86q-87 0 -130 39t-43 110q0 66 43 116q125 38 337 44v37
q0 59 -32 85t-113 26q-90 0 -181 -38zM437 130v116q-169 -3 -280 -32q-26 -30 -26 -69q0 -92 106 -92q122 0 200 77z" />
    <glyph glyph-name="Cacute" unicode="&#x106;" horiz-adv-x="648" 
d="M612 597l-31 -60q-92 62 -192 62q-120 0 -197 -77t-77 -196q0 -127 76.5 -198.5t196.5 -71.5q63 0 107.5 12.5t95.5 45.5l22 -66q-94 -61 -236 -61q-66 0 -125.5 20.5t-107.5 61t-76 107t-28 150.5q0 148 101.5 242.5t247.5 94.5q131 0 223 -66zM361 706l84 171l63 -38
l-91 -133h-56z" />
    <glyph glyph-name="cacute" unicode="&#x107;" horiz-adv-x="539" 
d="M492 477l-32 -57q-57 28 -138 28q-101 0 -157.5 -51.5t-56.5 -147.5q0 -87 57 -141t142 -54q96 0 168 36l24 -59q-83 -41 -197 -41q-122 0 -194.5 72.5t-72.5 184.5q0 116 80 189.5t201 73.5q107 0 176 -33zM286 562l86 170l63 -39l-97 -131h-52z" />
    <glyph glyph-name="Ccircumflex" unicode="&#x108;" horiz-adv-x="648" 
d="M612 597l-31 -60q-92 62 -192 62q-120 0 -197 -77t-77 -196q0 -127 76.5 -198.5t196.5 -71.5q63 0 107.5 12.5t95.5 45.5l22 -66q-94 -61 -236 -61q-66 0 -125.5 20.5t-107.5 61t-76 107t-28 150.5q0 148 101.5 242.5t247.5 94.5q131 0 223 -66zM391 783l-126 -81l-18 43
l137 113h15l136 -113l-18 -43z" />
    <glyph glyph-name="ccircumflex" unicode="&#x109;" horiz-adv-x="539" 
d="M492 477l-32 -57q-57 28 -138 28q-101 0 -157.5 -51.5t-56.5 -147.5q0 -87 57 -141t142 -54q96 0 168 36l24 -59q-83 -41 -197 -41q-122 0 -194.5 72.5t-72.5 184.5q0 116 80 189.5t201 73.5q107 0 176 -33zM424 554l-109 75l-109 -75l-18 35l118 119h18l118 -119z" />
    <glyph glyph-name="Cdotaccent" unicode="&#x10a;" horiz-adv-x="648" 
d="M612 597l-31 -60q-92 62 -192 62q-120 0 -197 -77t-77 -196q0 -127 76.5 -198.5t196.5 -71.5q63 0 107.5 12.5t95.5 45.5l22 -66q-94 -61 -236 -61q-66 0 -125.5 20.5t-107.5 61t-76 107t-28 150.5q0 148 101.5 242.5t247.5 94.5q131 0 223 -66zM397 838q27 0 44 -17.5
t17 -42.5t-16.5 -40.5t-44.5 -15.5q-26 0 -42.5 15.5t-16.5 40.5t16.5 42.5t42.5 17.5z" />
    <glyph glyph-name="cdotaccent" unicode="&#x10b;" horiz-adv-x="539" 
d="M492 477l-32 -57q-57 28 -138 28q-101 0 -157.5 -51.5t-56.5 -147.5q0 -87 57 -141t142 -54q96 0 168 36l24 -59q-83 -41 -197 -41q-122 0 -194.5 72.5t-72.5 184.5q0 116 80 189.5t201 73.5q107 0 176 -33zM324 672q26 0 41.5 -16.5t15.5 -40.5q0 -23 -16 -40t-41 -17
t-41 17t-16 40q0 24 15.5 40.5t41.5 16.5z" />
    <glyph glyph-name="Ccaron" unicode="&#x10c;" horiz-adv-x="648" 
d="M612 597l-31 -60q-92 62 -192 62q-120 0 -197 -77t-77 -196q0 -127 76.5 -198.5t196.5 -71.5q63 0 107.5 12.5t95.5 45.5l22 -66q-94 -61 -236 -61q-66 0 -125.5 20.5t-107.5 61t-76 107t-28 150.5q0 148 101.5 242.5t247.5 94.5q131 0 223 -66zM271 868l126 -81l126 81
l18 -43l-136 -113h-15l-137 113z" />
    <glyph glyph-name="ccaron" unicode="&#x10d;" horiz-adv-x="539" 
d="M492 477l-32 -57q-57 28 -138 28q-101 0 -157.5 -51.5t-56.5 -147.5q0 -87 57 -141t142 -54q96 0 168 36l24 -59q-83 -41 -197 -41q-122 0 -194.5 72.5t-72.5 184.5q0 116 80 189.5t201 73.5q107 0 176 -33zM204 709l109 -75l109 75l18 -35l-118 -119h-18l-118 119z" />
    <glyph glyph-name="Dcaron" unicode="&#x10e;" horiz-adv-x="693" 
d="M65 650h237q168 0 259.5 -84t91.5 -237q0 -157 -100.5 -243t-271.5 -86h-216v650zM140 586v-521h141q134 0 215 65t81 199q0 257 -275 257h-162zM183 868l126 -81l126 81l18 -43l-136 -113h-15l-137 113z" />
    <glyph glyph-name="dcaron" unicode="&#x10f;" horiz-adv-x="712" 
d="M470 730h72v-709q-108 -31 -247 -31q-121 0 -190.5 66t-69.5 193q0 116 75.5 188.5t191.5 72.5q94 0 168 -50v270zM470 73v314q-72 61 -160 61q-86 0 -143.5 -52t-57.5 -146q0 -98 56.5 -147t150.5 -49q88 0 154 19zM625 512l-19 36q58 23 58 71q-24 0 -38.5 14t-14.5 34
q0 21 13.5 36t38.5 15q59 0 59 -82q0 -42 -24.5 -75.5t-72.5 -48.5z" />
    <glyph glyph-name="Dcroat" unicode="&#x110;" horiz-adv-x="708" 
d="M80 650h237q168 0 259.5 -84t91.5 -237q0 -157 -100.5 -243t-271.5 -86h-216v301h-68v61h68v288zM155 587v-225h167v-61h-167v-236h141q134 0 215 65t81 199q0 258 -275 258h-162z" />
    <glyph glyph-name="dcroat" unicode="&#x111;" horiz-adv-x="607" 
d="M470 730h72v-85h77v-62h-77v-562q-108 -31 -247 -31q-120 0 -190 67.5t-70 194.5q0 116 72.5 187t188.5 71q101 0 174 -49v122h-146v62h146v85zM470 73v316q-70 59 -166 59q-86 0 -141 -50.5t-55 -144.5q0 -99 57 -149t151 -50q88 0 154 19z" />
    <glyph glyph-name="Emacron" unicode="&#x112;" horiz-adv-x="532" 
d="M65 0v650h407v-64h-332v-215h299v-64h-299v-242h347v-65h-422zM124 787h311v-63h-311v63z" />
    <glyph glyph-name="emacron" unicode="&#x113;" horiz-adv-x="571" 
d="M528 234h-420q5 -90 63.5 -135.5t145.5 -45.5q104 0 174 37l21 -63q-81 -37 -199 -37q-133 0 -205.5 69.5t-72.5 189.5q0 116 77 188.5t194 72.5q114 0 172 -56t58 -149q0 -39 -8 -71zM109 295h358q0 82 -40.5 117.5t-128.5 35.5q-72 0 -126.5 -40.5t-62.5 -112.5z
M153 641h312v-59h-312v59z" />
    <glyph glyph-name="Ebreve" unicode="&#x114;" horiz-adv-x="532" 
d="M65 0v650h407v-64h-332v-215h299v-64h-299v-242h347v-65h-422zM132 809l48 20q30 -58 101 -58t104 58l47 -20q-38 -99 -151 -99q-52 0 -92 27t-57 72z" />
    <glyph glyph-name="ebreve" unicode="&#x115;" horiz-adv-x="571" 
d="M528 234h-420q5 -90 63.5 -135.5t145.5 -45.5q104 0 174 37l21 -63q-81 -37 -199 -37q-133 0 -205.5 69.5t-72.5 189.5q0 116 77 188.5t194 72.5q114 0 172 -56t58 -149q0 -39 -8 -71zM109 295h358q0 82 -40.5 117.5t-128.5 35.5q-72 0 -126.5 -40.5t-62.5 -112.5z
M173 650l58 15q15 -55 74 -55t74 55l58 -15q-34 -96 -132 -96t-132 96z" />
    <glyph glyph-name="Edotaccent" unicode="&#x116;" horiz-adv-x="532" 
d="M65 0v650h407v-64h-332v-215h299v-64h-299v-242h347v-65h-422zM283 824q27 0 44 -17.5t17 -42.5t-16.5 -40.5t-44.5 -15.5q-26 0 -42.5 15.5t-16.5 40.5t16.5 42.5t42.5 17.5z" />
    <glyph glyph-name="edotaccent" unicode="&#x117;" horiz-adv-x="571" 
d="M528 234h-420q5 -90 63.5 -135.5t145.5 -45.5q104 0 174 37l21 -63q-81 -37 -199 -37q-133 0 -205.5 69.5t-72.5 189.5q0 116 77 188.5t194 72.5q114 0 172 -56t58 -149q0 -39 -8 -71zM109 295h358q0 82 -40.5 117.5t-128.5 35.5q-72 0 -126.5 -40.5t-62.5 -112.5z
M315 680q26 0 41.5 -16.5t15.5 -40.5q0 -23 -16 -40t-41 -17t-41 17t-16 40q0 24 15.5 40.5t41.5 16.5z" />
    <glyph glyph-name="Eogonek" unicode="&#x118;" horiz-adv-x="532" 
d="M65 0v650h407v-64h-332v-215h299v-64h-299v-242h347v-65q-48 -29 -48 -76q0 -49 58 -49q15 0 25 3l-13 -49q-14 -6 -38 -6q-40 0 -66.5 22.5t-26.5 60.5q0 29 13.5 55t36.5 39h-363z" />
    <glyph glyph-name="eogonek" unicode="&#x119;" horiz-adv-x="571" 
d="M528 234h-420q5 -90 63.5 -135.5t145.5 -45.5q104 0 174 37l21 -63q-45 -28 -45 -69q0 -46 47 -46q14 0 26 4l-14 -50q-15 -3 -29 -3q-40 0 -64 23.5t-24 57.5q0 33 20 56q-49 -10 -116 -10q-133 0 -205.5 69.5t-72.5 189.5q0 116 77 188.5t194 72.5q114 0 172 -56
t58 -149q0 -39 -8 -71zM109 295h358q0 82 -40.5 117.5t-128.5 35.5q-72 0 -126.5 -40.5t-62.5 -112.5z" />
    <glyph glyph-name="Ecaron" unicode="&#x11a;" horiz-adv-x="532" 
d="M65 0v650h407v-64h-332v-215h299v-64h-299v-242h347v-65h-422zM160 868l126 -81l126 81l18 -43l-136 -113h-15l-137 113z" />
    <glyph glyph-name="ecaron" unicode="&#x11b;" horiz-adv-x="571" 
d="M528 234h-420q5 -90 63.5 -135.5t145.5 -45.5q104 0 174 37l21 -63q-81 -37 -199 -37q-133 0 -205.5 69.5t-72.5 189.5q0 116 77 188.5t194 72.5q114 0 172 -56t58 -149q0 -39 -8 -71zM109 295h358q0 82 -40.5 117.5t-128.5 35.5q-72 0 -126.5 -40.5t-62.5 -112.5z
M200 709l109 -75l109 75l18 -35l-118 -119h-18l-118 119z" />
    <glyph glyph-name="Gcircumflex" unicode="&#x11c;" horiz-adv-x="698" 
d="M392 339h246v-275q-106 -77 -264 -77q-91 0 -165.5 38t-121.5 116t-47 184q0 148 100 243t245 95q139 0 240 -66l-32 -59q-89 61 -208 61q-122 0 -196 -77t-74 -197q0 -123 77 -198t192 -75q104 0 183 46v179h-175v62zM386 783l-126 -81l-18 43l137 113h15l136 -113
l-18 -43z" />
    <glyph glyph-name="gcircumflex" unicode="&#x11d;" horiz-adv-x="582" 
d="M569 510v-51h-129q72 -44 72 -123q0 -76 -58.5 -125t-160.5 -49q-82 0 -135 28q-46 -19 -46 -62q0 -29 24 -48.5t75 -19.5h132q90 0 166 -19q40 -52 40 -113q0 -52 -27 -89.5t-72 -56.5t-91.5 -27.5t-97.5 -8.5q-108 0 -166 41t-58 114q0 79 69 125q-56 27 -56 92
q0 66 65 105q-40 47 -40 113q0 80 59.5 127t166.5 47h268zM351 0h-123q-30 0 -68 5q-59 -29 -59 -93q0 -107 170 -107q33 0 65.5 5t68.5 17t58 37.5t22 60.5q0 34 -20 63q-56 12 -114 12zM140 336q0 -57 39.5 -87t113.5 -30q69 0 110.5 30t41.5 87q0 58 -42.5 89t-109.5 31
q-71 0 -112 -31.5t-41 -88.5zM403 555l-109 75l-109 -75l-18 35l118 119h18l118 -119z" />
    <glyph glyph-name="Gbreve" unicode="&#x11e;" horiz-adv-x="698" 
d="M392 339h246v-275q-106 -77 -264 -77q-91 0 -165.5 38t-121.5 116t-47 184q0 148 100 243t245 95q139 0 240 -66l-32 -59q-89 61 -208 61q-122 0 -196 -77t-74 -197q0 -123 77 -198t192 -75q104 0 183 46v179h-175v62zM233 819l48 20q30 -58 101 -58t104 58l47 -20
q-38 -99 -151 -99q-52 0 -92 27t-57 72z" />
    <glyph glyph-name="gbreve" unicode="&#x11f;" horiz-adv-x="582" 
d="M569 510v-51h-129q72 -44 72 -123q0 -76 -58.5 -125t-160.5 -49q-82 0 -135 28q-46 -19 -46 -62q0 -29 24 -48.5t75 -19.5h132q90 0 166 -19q40 -52 40 -113q0 -52 -27 -89.5t-72 -56.5t-91.5 -27.5t-97.5 -8.5q-108 0 -166 41t-58 114q0 79 69 125q-56 27 -56 92
q0 66 65 105q-40 47 -40 113q0 80 59.5 127t166.5 47h268zM351 0h-123q-30 0 -68 5q-59 -29 -59 -93q0 -107 170 -107q33 0 65.5 5t68.5 17t58 37.5t22 60.5q0 34 -20 63q-56 12 -114 12zM140 336q0 -57 39.5 -87t113.5 -30q69 0 110.5 30t41.5 87q0 58 -42.5 89t-109.5 31
q-71 0 -112 -31.5t-41 -88.5zM168 660l58 15q15 -55 74 -55t74 55l58 -15q-34 -96 -132 -96t-132 96z" />
    <glyph glyph-name="Gdotaccent" unicode="&#x120;" horiz-adv-x="698" 
d="M392 339h246v-275q-106 -77 -264 -77q-91 0 -165.5 38t-121.5 116t-47 184q0 148 100 243t245 95q139 0 240 -66l-32 -59q-89 61 -208 61q-122 0 -196 -77t-74 -197q0 -123 77 -198t192 -75q104 0 183 46v179h-175v62zM390 828q27 0 44 -17.5t17 -42.5t-16.5 -40.5
t-44.5 -15.5q-26 0 -42.5 15.5t-16.5 40.5t16.5 42.5t42.5 17.5z" />
    <glyph glyph-name="gdotaccent" unicode="&#x121;" horiz-adv-x="582" 
d="M569 510v-51h-129q72 -44 72 -123q0 -76 -58.5 -125t-160.5 -49q-82 0 -135 28q-46 -19 -46 -62q0 -29 24 -48.5t75 -19.5h132q90 0 166 -19q40 -52 40 -113q0 -52 -27 -89.5t-72 -56.5t-91.5 -27.5t-97.5 -8.5q-108 0 -166 41t-58 114q0 79 69 125q-56 27 -56 92
q0 66 65 105q-40 47 -40 113q0 80 59.5 127t166.5 47h268zM351 0h-123q-30 0 -68 5q-59 -29 -59 -93q0 -107 170 -107q33 0 65.5 5t68.5 17t58 37.5t22 60.5q0 34 -20 63q-56 12 -114 12zM140 336q0 -57 39.5 -87t113.5 -30q69 0 110.5 30t41.5 87q0 58 -42.5 89t-109.5 31
q-71 0 -112 -31.5t-41 -88.5zM288 670q26 0 41.5 -16.5t15.5 -40.5q0 -23 -16 -40t-41 -17t-41 17t-16 40q0 24 15.5 40.5t41.5 16.5z" />
    <glyph glyph-name="Gcommaaccent" unicode="&#x122;" horiz-adv-x="698" 
d="M392 339h246v-275q-106 -77 -264 -77q-91 0 -165.5 38t-121.5 116t-47 184q0 148 100 243t245 95q139 0 240 -66l-32 -59q-89 61 -208 61q-122 0 -196 -77t-74 -197q0 -123 77 -198t192 -75q104 0 183 46v179h-175v62zM349 -267l-20 37q57 23 57 68q-24 0 -37.5 13.5
t-13.5 35.5t13.5 36t37.5 14q62 0 62 -77q0 -42 -26.5 -76.5t-72.5 -50.5z" />
    <glyph glyph-name="gcommaaccent" unicode="&#x123;" horiz-adv-x="582" 
d="M569 510v-51h-129q72 -44 72 -123q0 -76 -58.5 -125t-160.5 -49q-82 0 -135 28q-46 -19 -46 -62q0 -29 24 -48.5t75 -19.5h132q90 0 166 -19q40 -52 40 -113q0 -52 -27 -89.5t-72 -56.5t-91.5 -27.5t-97.5 -8.5q-108 0 -166 41t-58 114q0 79 69 125q-56 27 -56 92
q0 66 65 105q-40 47 -40 113q0 80 59.5 127t166.5 47h268zM351 0h-123q-30 0 -68 5q-59 -29 -59 -93q0 -107 170 -107q33 0 65.5 5t68.5 17t58 37.5t22 60.5q0 34 -20 63q-56 12 -114 12zM140 336q0 -57 39.5 -87t113.5 -30q69 0 110.5 30t41.5 87q0 58 -42.5 89t-109.5 31
q-71 0 -112 -31.5t-41 -88.5zM327 770l19 -36q-58 -23 -58 -71q24 0 38.5 -14t14.5 -34q0 -21 -13.5 -36t-38.5 -15q-59 0 -59 82q0 42 24.5 75.5t72.5 48.5z" />
    <glyph glyph-name="Hcircumflex" unicode="&#x124;" horiz-adv-x="660" 
d="M520 650h75v-650h-75v308h-380v-308h-75v650h75v-278h380v278zM330 783l-126 -81l-18 43l137 113h15l136 -113l-18 -43z" />
    <glyph glyph-name="hcircumflex" unicode="&#x125;" horiz-adv-x="607" 
d="M65 730h72v-314q69 94 193 94q101 0 156.5 -56t55.5 -162v-292h-72v293q0 75 -35.5 115t-104.5 40q-67 0 -111.5 -26.5t-81.5 -84.5v-337h-72v730zM210 756l-109 75l-109 -75l-18 35l118 119h18l118 -119z" />
    <glyph glyph-name="Hbar" unicode="&#x126;" horiz-adv-x="660" 
d="M65 650h75v-105h380v105h75v-105h49v-62h-49v-483h-75v308h-380v-308h-75v483h-45v62h45v105zM140 372h380v111h-380v-111z" />
    <glyph glyph-name="hbar" unicode="&#x127;" horiz-adv-x="607" 
d="M65 730h72v-85h199v-62h-199v-167q69 94 193 94q101 0 156.5 -56t55.5 -162v-292h-72v293q0 75 -35.5 115t-104.5 40q-67 0 -111.5 -26.5t-81.5 -84.5v-337h-72v583h-65v62h65v85z" />
    <glyph glyph-name="Itilde" unicode="&#x128;" horiz-adv-x="205" 
d="M65 650h75v-650h-75v650zM-50 716l-21 48q46 41 106 41q38 0 74 -20q35 -19 69 -19q41 0 67 25l31 -36q-40 -49 -97 -49q-39 0 -78 21q-37 20 -70 20q-43 0 -81 -31z" />
    <glyph glyph-name="itilde" unicode="&#x129;" horiz-adv-x="202" 
d="M65 500h72v-500h-72v500zM-48 574l-20 44q44 45 105 45q43 0 75 -23q26 -20 62 -20q38 0 67 26l30 -35q-40 -50 -97 -50q-39 0 -74 22q-32 21 -69 21q-47 0 -79 -30z" />
    <glyph glyph-name="uni012A" unicode="&#x12a;" horiz-adv-x="205" 
d="M65 650h75v-650h-75v650zM-53 794h311v-63h-311v63z" />
    <glyph glyph-name="imacron" unicode="&#x12b;" horiz-adv-x="202" 
d="M65 500h72v-500h-72v500zM-55 641h312v-59h-312v59z" />
    <glyph glyph-name="Ibreve" unicode="&#x12c;" horiz-adv-x="205" 
d="M65 650h75v-650h-75v650zM-48 809l48 20q30 -58 101 -58t104 58l47 -20q-38 -99 -151 -99q-52 0 -92 27t-57 72z" />
    <glyph glyph-name="Iogonek" unicode="&#x12e;" horiz-adv-x="205" 
d="M65 650h75v-650q-48 -29 -48 -76q0 -49 58 -49q14 0 25 3l-13 -49q-14 -6 -38 -6q-40 0 -66.5 22.5t-26.5 60.5q0 29 13.5 55t36.5 39h-16v650z" />
    <glyph glyph-name="iogonek" unicode="&#x12f;" horiz-adv-x="202" 
d="M65 500h72v-500q-45 -28 -45 -69q0 -46 47 -46q14 0 26 4l-14 -50q-15 -3 -29 -3q-40 0 -64 23.5t-24 57.5q0 60 60 83h-29v500zM101 703q26 0 41.5 -16.5t15.5 -40.5q0 -23 -16 -40t-41 -17t-41 17t-16 40q0 24 15.5 40.5t41.5 16.5z" />
    <glyph glyph-name="Idotaccent" unicode="&#x130;" horiz-adv-x="205" 
d="M65 650h75v-650h-75v650zM101 834q27 0 44 -17.5t17 -42.5t-16.5 -40.5t-44.5 -15.5q-26 0 -42.5 15.5t-16.5 40.5t16.5 42.5t42.5 17.5z" />
    <glyph glyph-name="dotlessi" unicode="&#x131;" horiz-adv-x="202" 
d="M65 500h72v-500h-72v500z" />
    <glyph glyph-name="Jcircumflex" unicode="&#x134;" horiz-adv-x="215" 
d="M75 650h75v-640q0 -226 -215 -257l-25 64q87 15 126 57.5t39 136.5v639zM112 774l-126 -81l-18 43l137 113h15l136 -113l-18 -43z" />
    <glyph glyph-name="jcircumflex" unicode="&#x135;" horiz-adv-x="203" 
d="M66 500h72v-538q0 -197 -184 -210l-7 63q119 12 119 129v556zM210 555l-109 75l-109 -75l-18 35l118 119h18l118 -119z" />
    <glyph glyph-name="Kcommaaccent" unicode="&#x136;" horiz-adv-x="638" 
d="M65 650h74v-364l346 364h95l-257 -266l290 -384h-92l-249 337l-133 -129v-208h-74v650zM277 -208l-20 37q57 23 57 68q-24 0 -37.5 13.5t-13.5 35.5t13.5 36t37.5 14q62 0 62 -77q0 -42 -26.5 -76.5t-72.5 -50.5z" />
    <glyph glyph-name="kcommaaccent" unicode="&#x137;" horiz-adv-x="542" 
d="M65 730h72v-455l99 67l178 158h91l1 -8l-218 -188l234 -296l-2 -8h-83l-206 264l-94 -55v-209h-72v730zM243 -215l-19 36q58 23 58 71q-24 0 -38.5 14t-14.5 34q0 21 13.5 36t38.5 15q59 0 59 -82q0 -42 -24.5 -75.5t-72.5 -48.5z" />
    <glyph glyph-name="kgreenlandic" unicode="&#x138;" horiz-adv-x="566" 
d="M65 500h72v-248l278 248h92l2 -8l-230 -196l262 -288l-1 -8h-92l-221 253l-90 -68v-185h-72v500z" />
    <glyph glyph-name="Lacute" unicode="&#x139;" horiz-adv-x="499" 
d="M140 65h314v-65h-389v650h75v-585zM78 706l84 171l63 -38l-91 -133h-56z" />
    <glyph glyph-name="lacute" unicode="&#x13a;" horiz-adv-x="227" 
d="M65 730h72v-593q0 -40 17 -58.5t59 -20.5v-62q-14 -2 -24 -2q-124 0 -124 159v577zM74 777l86 170l63 -39l-97 -131h-52z" />
    <glyph glyph-name="Lcommaaccent" unicode="&#x13b;" horiz-adv-x="499" 
d="M140 65h314v-65h-389v650h75v-585zM222 -261l-20 37q57 23 57 68q-24 0 -37.5 13.5t-13.5 35.5t13.5 36t37.5 14q62 0 62 -77q0 -42 -26.5 -76.5t-72.5 -50.5z" />
    <glyph glyph-name="lcommaaccent" unicode="&#x13c;" horiz-adv-x="227" 
d="M65 730h72v-593q0 -40 17 -58.5t59 -20.5v-62q-14 -2 -24 -2q-124 0 -124 159v577zM93 -263l-19 36q58 23 58 71q-24 0 -38.5 14t-14.5 34q0 21 13.5 36t38.5 15q59 0 59 -82q0 -42 -24.5 -75.5t-72.5 -48.5z" />
    <glyph glyph-name="Lcaron" unicode="&#x13d;" horiz-adv-x="499" 
d="M140 65h314v-65h-389v650h75v-585zM320 435l-20 37q57 23 57 68q-24 0 -37.5 13.5t-13.5 35.5t13.5 36t37.5 14q62 0 62 -77q0 -42 -26.5 -76.5t-72.5 -50.5z" />
    <glyph glyph-name="lcaron" unicode="&#x13e;" horiz-adv-x="306" 
d="M65 730h72v-593q0 -40 17 -58.5t59 -20.5v-62q-14 -2 -24 -2q-124 0 -124 159v577zM225 519l-19 36q58 23 58 71q-24 0 -38.5 14t-14.5 34q0 21 13.5 36t38.5 15q59 0 59 -82q0 -42 -24.5 -75.5t-72.5 -48.5z" />
    <glyph glyph-name="Ldot" unicode="&#x13f;" horiz-adv-x="499" 
d="M140 65h314v-65h-389v650h75v-585zM334 404q27 0 43 -16.5t16 -41.5t-16 -41.5t-43 -16.5t-43 16.5t-16 41.5t16 41.5t43 16.5z" />
    <glyph glyph-name="ldot" unicode="&#x140;" horiz-adv-x="319" 
d="M65 730h72v-593q0 -40 17 -58.5t59 -20.5v-62q-14 -2 -24 -2q-124 0 -124 159v577zM253 395q27 0 43 -16.5t16 -41.5t-16 -41.5t-43 -16.5t-43 16.5t-16 41.5t16 41.5t43 16.5z" />
    <glyph glyph-name="Lslash" unicode="&#x141;" horiz-adv-x="527" 
d="M167 65h315v-65h-390v279l-61 -25l-21 50l82 33v313h75v-282l122 48l22 -51l-144 -57v-243z" />
    <glyph glyph-name="lslash" unicode="&#x142;" horiz-adv-x="278" 
d="M65 730h72v-323l106 38l17 -53l-123 -45v-210q0 -40 17 -58.5t59 -20.5v-62q-14 -2 -24 -2q-124 0 -124 159v168l-48 -18l-18 54l66 25v348z" />
    <glyph glyph-name="Nacute" unicode="&#x143;" horiz-adv-x="727" 
d="M65 650h80l450 -561l-4 199v362h71v-650h-83l-450 565l7 -230v-335h-71v650zM339 706l84 171l63 -38l-91 -133h-56z" />
    <glyph glyph-name="nacute" unicode="&#x144;" horiz-adv-x="609" 
d="M65 500h60l8 -90q66 100 202 100q101 0 155 -56t54 -162v-292h-72v293q0 155 -137 155q-69 0 -116 -27t-82 -84v-337h-72v500zM295 562l86 170l63 -39l-97 -131h-52z" />
    <glyph glyph-name="Ncommaaccent" unicode="&#x145;" horiz-adv-x="727" 
d="M65 650h80l450 -561l-4 199v362h71v-650h-83l-450 565l7 -230v-335h-71v650zM315 -205l-20 37q57 23 57 68q-24 0 -37.5 13.5t-13.5 35.5t13.5 36t37.5 14q62 0 62 -77q0 -42 -26.5 -76.5t-72.5 -50.5z" />
    <glyph glyph-name="ncommaaccent" unicode="&#x146;" horiz-adv-x="609" 
d="M65 500h60l8 -90q66 100 202 100q101 0 155 -56t54 -162v-292h-72v293q0 155 -137 155q-69 0 -116 -27t-82 -84v-337h-72v500zM271 -211l-19 36q58 23 58 71q-24 0 -38.5 14t-14.5 34q0 21 13.5 36t38.5 15q59 0 59 -82q0 -42 -24.5 -75.5t-72.5 -48.5z" />
    <glyph glyph-name="Ncaron" unicode="&#x147;" horiz-adv-x="727" 
d="M65 650h80l450 -561l-4 199v362h71v-650h-83l-450 565l7 -230v-335h-71v650zM241 858l126 -81l126 81l18 -43l-136 -113h-15l-137 113z" />
    <glyph glyph-name="ncaron" unicode="&#x148;" horiz-adv-x="609" 
d="M65 500h60l8 -90q66 100 202 100q101 0 155 -56t54 -162v-292h-72v293q0 155 -137 155q-69 0 -116 -27t-82 -84v-337h-72v500zM219 709l109 -75l109 75l18 -35l-118 -119h-18l-118 119z" />
    <glyph glyph-name="napostrophe" unicode="&#x149;" horiz-adv-x="663" 
d="M119 500h60l8 -90q66 100 202 100q101 0 155 -56t54 -162v-292h-72v293q0 155 -137 155q-69 0 -116 -27t-82 -84v-337h-72v500zM27 514l-19 36q58 23 58 71q-24 0 -38.5 14t-14.5 34q0 21 13.5 36t38.5 15q59 0 59 -82q0 -42 -24.5 -75.5t-72.5 -48.5z" />
    <glyph glyph-name="Omacron" unicode="&#x14c;" horiz-adv-x="776" 
d="M115 325q0 -124 79.5 -199t193.5 -75t193.5 75t79.5 199t-79.5 199t-193.5 75t-193.5 -75t-79.5 -199zM736 325q0 -149 -99.5 -243.5t-248.5 -94.5q-150 0 -249 94t-99 244q0 149 99.5 243.5t248.5 94.5q150 0 249 -94t99 -244zM233 787h311v-63h-311v63z" />
    <glyph glyph-name="omacron" unicode="&#x14d;" horiz-adv-x="624" 
d="M589 250q0 -117 -79 -188.5t-198 -71.5t-198 71.5t-79 188.5t79 188.5t198 71.5t198 -71.5t79 -188.5zM108 250q0 -90 56.5 -145t147.5 -55t147.5 55t56.5 145t-56.5 145t-147.5 55t-147.5 -55t-56.5 -145zM156 641h312v-59h-312v59z" />
    <glyph glyph-name="Obreve" unicode="&#x14e;" horiz-adv-x="776" 
d="M115 325q0 -124 79.5 -199t193.5 -75t193.5 75t79.5 199t-79.5 199t-193.5 75t-193.5 -75t-79.5 -199zM736 325q0 -149 -99.5 -243.5t-248.5 -94.5q-150 0 -249 94t-99 244q0 149 99.5 243.5t248.5 94.5q150 0 249 -94t99 -244zM238 819l48 20q30 -58 101 -58t104 58
l47 -20q-38 -99 -151 -99q-52 0 -92 27t-57 72z" />
    <glyph glyph-name="obreve" unicode="&#x14f;" horiz-adv-x="624" 
d="M589 250q0 -117 -79 -188.5t-198 -71.5t-198 71.5t-79 188.5t79 188.5t198 71.5t198 -71.5t79 -188.5zM108 250q0 -90 56.5 -145t147.5 -55t147.5 55t56.5 145t-56.5 145t-147.5 55t-147.5 -55t-56.5 -145zM180 660l58 15q15 -55 74 -55t74 55l58 -15q-34 -96 -132 -96
t-132 96z" />
    <glyph glyph-name="Ohungarumlaut" unicode="&#x150;" horiz-adv-x="776" 
d="M115 325q0 -124 79.5 -199t193.5 -75t193.5 75t79.5 199t-79.5 199t-193.5 75t-193.5 -75t-79.5 -199zM736 325q0 -149 -99.5 -243.5t-248.5 -94.5q-150 0 -249 94t-99 244q0 149 99.5 243.5t248.5 94.5q150 0 249 -94t99 -244zM306 712l48 174l66 -25l-64 -149h-50z
M405 712l77 164l62 -39l-87 -125h-52z" />
    <glyph glyph-name="ohungarumlaut" unicode="&#x151;" horiz-adv-x="624" 
d="M589 250q0 -117 -79 -188.5t-198 -71.5t-198 71.5t-79 188.5t79 188.5t198 71.5t198 -71.5t79 -188.5zM108 250q0 -90 56.5 -145t147.5 -55t147.5 55t56.5 145t-56.5 145t-147.5 55t-147.5 -55t-56.5 -145zM229 563l54 180l66 -23l-69 -157h-51zM330 563l87 170l60 -39
l-95 -131h-52z" />
    <glyph glyph-name="OE" unicode="&#x152;" horiz-adv-x="1070" 
d="M613 650h397v-64h-327v-215h294v-64h-294v-242h342v-65h-412v104q-88 -117 -246 -117q-144 0 -235.5 95.5t-91.5 242.5t91.5 242.5t235.5 95.5q79 0 144 -31t102 -87v105zM115 325q0 -126 72.5 -200t179.5 -74t179.5 74t72.5 200t-72.5 200t-179.5 74t-179.5 -74
t-72.5 -200z" />
    <glyph glyph-name="oe" unicode="&#x153;" horiz-adv-x="980" 
d="M936 234h-393q6 -89 56 -134.5t134 -45.5q54 0 90 7.5t78 28.5l22 -64q-46 -21 -87.5 -28.5t-108.5 -7.5q-146 0 -219 111q-34 -52 -90.5 -81.5t-124.5 -29.5q-116 0 -187 69.5t-71 190.5q0 119 71.5 189.5t186.5 70.5q148 0 215 -115q33 57 90 86t126 29q109 0 165 -55
t56 -144q0 -47 -9 -77zM107 250q0 -92 50 -145t136 -53t136 53t50 145q0 90 -51 144t-135 54q-86 0 -136 -53t-50 -145zM541 295h335q-2 82 -39 118t-124 36q-68 0 -116 -40.5t-56 -113.5z" />
    <glyph glyph-name="Racute" unicode="&#x154;" horiz-adv-x="622" 
d="M65 650h255q98 0 159.5 -48.5t61.5 -131.5q0 -57 -39.5 -104t-111.5 -66l197 -300h-91l-182 287h-174v-287h-75v650zM140 586v-234h166q72 0 116 30.5t44 87.5q0 116 -161 116h-165zM255 706l84 171l63 -38l-91 -133h-56z" />
    <glyph glyph-name="racute" unicode="&#x155;" horiz-adv-x="489" 
d="M65 500h61l6 -92q33 52 85 77t107 25q92 0 145 -66l-50 -46q-41 48 -107 48q-104 0 -175 -108v-338h-72v500zM274 562l86 170l63 -39l-97 -131h-52z" />
    <glyph glyph-name="Rcommaaccent" unicode="&#x156;" horiz-adv-x="622" 
d="M65 650h255q98 0 159.5 -48.5t61.5 -131.5q0 -57 -39.5 -104t-111.5 -66l197 -300h-91l-182 287h-174v-287h-75v650zM140 586v-234h166q72 0 116 30.5t44 87.5q0 116 -161 116h-165zM269 -205l-20 37q57 23 57 68q-24 0 -37.5 13.5t-13.5 35.5t13.5 36t37.5 14
q62 0 62 -77q0 -42 -26.5 -76.5t-72.5 -50.5z" />
    <glyph glyph-name="rcommaaccent" unicode="&#x157;" horiz-adv-x="489" 
d="M65 500h61l6 -92q33 52 85 77t107 25q92 0 145 -66l-50 -46q-41 48 -107 48q-104 0 -175 -108v-338h-72v500zM72 -255l-19 36q58 23 58 71q-24 0 -38.5 14t-14.5 34q0 21 13.5 36t38.5 15q59 0 59 -82q0 -42 -24.5 -75.5t-72.5 -48.5z" />
    <glyph glyph-name="Rcaron" unicode="&#x158;" horiz-adv-x="622" 
d="M65 650h255q98 0 159.5 -48.5t61.5 -131.5q0 -57 -39.5 -104t-111.5 -66l197 -300h-91l-182 287h-174v-287h-75v650zM140 586v-234h166q72 0 116 30.5t44 87.5q0 116 -161 116h-165zM163 868l126 -81l126 81l18 -43l-136 -113h-15l-137 113z" />
    <glyph glyph-name="rcaron" unicode="&#x159;" horiz-adv-x="489" 
d="M65 500h61l6 -92q33 52 85 77t107 25q92 0 145 -66l-50 -46q-41 48 -107 48q-104 0 -175 -108v-338h-72v500zM186 709l109 -75l109 75l18 -35l-118 -119h-18l-118 119z" />
    <glyph glyph-name="Sacute" unicode="&#x15a;" horiz-adv-x="563" 
d="M479 610l-32 -59q-78 49 -172 49q-70 0 -104 -31t-34 -73q0 -41 27 -67t87 -38l95 -20q172 -36 172 -192q0 -82 -64.5 -137t-184.5 -55q-69 0 -118.5 12t-105.5 41l26 68q96 -55 196 -55q92 0 134.5 34.5t42.5 90.5q0 55 -30 84.5t-101 44.5l-105 22q-64 13 -103 55
t-39 108q0 76 55.5 123.5t153.5 47.5q118 0 204 -53zM266 711l84 171l63 -38l-91 -133h-56z" />
    <glyph glyph-name="sacute" unicode="&#x15b;" horiz-adv-x="495" 
d="M428 481l-25 -60q-68 28 -149 28q-138 0 -138 -74q0 -38 34 -54.5t110 -26.5q195 -26 195 -157q0 -74 -61.5 -110.5t-173.5 -36.5q-105 0 -175 30l19 64q72 -31 152 -31q170 0 170 85q0 41 -34.5 61.5t-115.5 29.5q-190 21 -190 142q0 62 53.5 100.5t155.5 38.5
q98 0 173 -29zM240 562l86 170l63 -39l-97 -131h-52z" />
    <glyph glyph-name="Scircumflex" unicode="&#x15c;" horiz-adv-x="563" 
d="M479 610l-32 -59q-78 49 -172 49q-70 0 -104 -31t-34 -73q0 -41 27 -67t87 -38l95 -20q172 -36 172 -192q0 -82 -64.5 -137t-184.5 -55q-69 0 -118.5 12t-105.5 41l26 68q96 -55 196 -55q92 0 134.5 34.5t42.5 90.5q0 55 -30 84.5t-101 44.5l-105 22q-64 13 -103 55
t-39 108q0 76 55.5 123.5t153.5 47.5q118 0 204 -53zM296 783l-126 -81l-18 43l137 113h15l136 -113l-18 -43z" />
    <glyph glyph-name="scircumflex" unicode="&#x15d;" horiz-adv-x="495" 
d="M428 481l-25 -60q-68 28 -149 28q-138 0 -138 -74q0 -38 34 -54.5t110 -26.5q195 -26 195 -157q0 -74 -61.5 -110.5t-173.5 -36.5q-105 0 -175 30l19 64q72 -31 152 -31q170 0 170 85q0 41 -34.5 61.5t-115.5 29.5q-190 21 -190 142q0 62 53.5 100.5t155.5 38.5
q98 0 173 -29zM368 555l-109 75l-109 -75l-18 35l118 119h18l118 -119z" />
    <glyph glyph-name="Scedilla" unicode="&#x15e;" horiz-adv-x="563" 
d="M479 610l-32 -59q-78 49 -172 49q-70 0 -104 -31t-34 -73q0 -41 27 -67t87 -38l95 -20q172 -36 172 -192q0 -77 -58.5 -131t-166.5 -60l-5 -38q36 0 58.5 -23t22.5 -56q0 -50 -43.5 -86.5t-101.5 -46.5l-10 54q44 8 69 28t25 49q0 36 -43 36h-36l3 83q-101 6 -187 52
l26 68q96 -55 196 -55q92 0 134.5 34.5t42.5 90.5q0 55 -30 84.5t-101 44.5l-105 22q-64 13 -103 55t-39 108q0 76 55.5 123.5t153.5 47.5q118 0 204 -53z" />
    <glyph glyph-name="scedilla" unicode="&#x15f;" horiz-adv-x="495" 
d="M428 481l-25 -60q-68 28 -149 28q-139 0 -139 -74q0 -38 34.5 -54.5t110.5 -26.5q195 -26 195 -157q0 -138 -212 -146l-4 -36q32 0 53.5 -18.5t21.5 -45.5q0 -43 -35 -76t-102 -44l-10 49q85 13 85 63q0 29 -33 29h-31v79q-85 3 -143 29l19 64q72 -31 152 -31
q170 0 170 85q0 41 -34.5 61.5t-115.5 29.5q-190 21 -190 142q0 62 53.5 100.5t155.5 38.5q98 0 173 -29z" />
    <glyph glyph-name="Scaron" unicode="&#x160;" horiz-adv-x="563" 
d="M479 610l-32 -59q-78 49 -172 49q-70 0 -104 -31t-34 -73q0 -41 27 -67t87 -38l95 -20q172 -36 172 -192q0 -82 -64.5 -137t-184.5 -55q-69 0 -118.5 12t-105.5 41l26 68q96 -55 196 -55q92 0 134.5 34.5t42.5 90.5q0 55 -30 84.5t-101 44.5l-105 22q-64 13 -103 55
t-39 108q0 76 55.5 123.5t153.5 47.5q118 0 204 -53zM169 873l126 -81l126 81l18 -43l-136 -113h-15l-137 113z" />
    <glyph glyph-name="scaron" unicode="&#x161;" horiz-adv-x="495" 
d="M428 481l-25 -60q-68 28 -149 28q-138 0 -138 -74q0 -38 34 -54.5t110 -26.5q195 -26 195 -157q0 -74 -61.5 -110.5t-173.5 -36.5q-105 0 -175 30l19 64q72 -31 152 -31q170 0 170 85q0 41 -34.5 61.5t-115.5 29.5q-190 21 -190 142q0 62 53.5 100.5t155.5 38.5
q98 0 173 -29zM157 709l109 -75l109 75l18 -35l-118 -119h-18l-118 119z" />
    <glyph glyph-name="Tcommaaccent" unicode="&#x162;" horiz-adv-x="555" 
d="M40 586v64h475v-64h-200v-586h-75v586h-200zM238 -261l-20 37q57 23 57 68q-24 0 -37.5 13.5t-13.5 35.5t13.5 36t37.5 14q62 0 62 -77q0 -42 -26.5 -76.5t-72.5 -50.5z" />
    <glyph glyph-name="tcommaaccent" unicode="&#x163;" horiz-adv-x="431" 
d="M20 447v29l62 38l69 109l22 -3v-120h205l-3 -64l-202 7v-273q0 -116 105 -116q60 0 111 31l27 -57q-61 -38 -146 -38q-169 0 -169 179v267zM218 -264l-19 36q58 23 58 71q-24 0 -38.5 14t-14.5 34q0 21 13.5 36t38.5 15q59 0 59 -82q0 -42 -24.5 -75.5t-72.5 -48.5z" />
    <glyph glyph-name="Tcaron" unicode="&#x164;" horiz-adv-x="555" 
d="M40 586v64h475v-64h-200v-586h-75v586h-200zM151 868l126 -81l126 81l18 -43l-136 -113h-15l-137 113z" />
    <glyph glyph-name="tcaron" unicode="&#x165;" horiz-adv-x="431" 
d="M20 447v29l62 38l69 109l22 -3v-120h205l-3 -64l-202 7v-273q0 -116 105 -116q60 0 111 31l27 -57q-61 -38 -146 -38q-169 0 -169 179v267zM300 555l-19 36q58 23 58 71q-24 0 -38.5 14t-14.5 34q0 21 13.5 36t38.5 15q59 0 59 -82q0 -42 -24.5 -75.5t-72.5 -48.5z" />
    <glyph glyph-name="Utilde" unicode="&#x168;" horiz-adv-x="661" 
d="M60 650h75v-367q0 -115 51.5 -173.5t143.5 -58.5t144 58.5t52 173.5v367h75v-360q0 -152 -71.5 -227.5t-199.5 -75.5t-199 75t-71 228v360zM178 716l-21 48q46 41 106 41q38 0 74 -20q35 -19 69 -19q41 0 67 25l31 -36q-40 -49 -97 -49q-39 0 -78 21q-37 20 -70 20
q-43 0 -81 -31z" />
    <glyph glyph-name="utilde" unicode="&#x169;" horiz-adv-x="601" 
d="M65 500h72v-293q0 -74 34.5 -114.5t99.5 -40.5q68 0 112.5 27t80.5 85v336h72v-500h-60l-8 88q-71 -98 -197 -98q-206 0 -206 218v292zM155 574l-20 44q44 45 105 45q43 0 75 -23q26 -20 62 -20q38 0 67 26l30 -35q-40 -50 -97 -50q-39 0 -74 22q-32 21 -69 21
q-47 0 -79 -30z" />
    <glyph glyph-name="Umacron" unicode="&#x16a;" horiz-adv-x="661" 
d="M60 650h75v-367q0 -115 51.5 -173.5t143.5 -58.5t144 58.5t52 173.5v367h75v-360q0 -152 -71.5 -227.5t-199.5 -75.5t-199 75t-71 228v360zM175 787h311v-63h-311v63z" />
    <glyph glyph-name="umacron" unicode="&#x16b;" horiz-adv-x="601" 
d="M65 500h72v-293q0 -74 34.5 -114.5t99.5 -40.5q68 0 112.5 27t80.5 85v336h72v-500h-60l-8 88q-71 -98 -197 -98q-206 0 -206 218v292zM146 641h312v-59h-312v59z" />
    <glyph glyph-name="Ubreve" unicode="&#x16c;" horiz-adv-x="661" 
d="M60 650h75v-367q0 -115 51.5 -173.5t143.5 -58.5t144 58.5t52 173.5v367h75v-360q0 -152 -71.5 -227.5t-199.5 -75.5t-199 75t-71 228v360zM180 805l48 20q30 -58 101 -58t104 58l47 -20q-38 -99 -151 -99q-52 0 -92 27t-57 72z" />
    <glyph glyph-name="ubreve" unicode="&#x16d;" horiz-adv-x="601" 
d="M65 500h72v-293q0 -74 34.5 -114.5t99.5 -40.5q68 0 112.5 27t80.5 85v336h72v-500h-60l-8 88q-71 -98 -197 -98q-206 0 -206 218v292zM170 645l58 15q15 -55 74 -55t74 55l58 -15q-34 -96 -132 -96t-132 96z" />
    <glyph glyph-name="Uring" unicode="&#x16e;" horiz-adv-x="661" 
d="M60 650h75v-367q0 -115 51.5 -173.5t143.5 -58.5t144 58.5t52 173.5v367h75v-360q0 -152 -71.5 -227.5t-199.5 -75.5t-199 75t-71 228v360zM330 677q-47 0 -80.5 30.5t-33.5 75.5t33.5 75.5t80.5 30.5t80.5 -30.5t33.5 -75.5t-33.5 -75.5t-80.5 -30.5zM391 783
q0 25 -17 41.5t-44 16.5t-44 -16.5t-17 -41.5t17 -41.5t44 -16.5t44 16.5t17 41.5z" />
    <glyph glyph-name="uring" unicode="&#x16f;" horiz-adv-x="601" 
d="M65 500h72v-293q0 -74 34.5 -114.5t99.5 -40.5q68 0 112.5 27t80.5 85v336h72v-500h-60l-8 88q-71 -98 -197 -98q-206 0 -206 218v292zM302 550q-44 0 -74 27.5t-30 70.5t30 70.5t74 27.5t74 -27.5t30 -70.5t-30 -70.5t-74 -27.5zM302 595q25 0 39 14.5t14 38.5t-14 38.5
t-39 14.5t-39 -14.5t-14 -38.5t14 -38.5t39 -14.5z" />
    <glyph glyph-name="Uhungarumlaut" unicode="&#x170;" horiz-adv-x="661" 
d="M60 650h75v-367q0 -115 51.5 -173.5t143.5 -58.5t144 58.5t52 173.5v367h75v-360q0 -152 -71.5 -227.5t-199.5 -75.5t-199 75t-71 228v360zM245 699l48 174l66 -25l-64 -149h-50zM344 699l77 164l62 -39l-87 -125h-52z" />
    <glyph glyph-name="uhungarumlaut" unicode="&#x171;" horiz-adv-x="601" 
d="M65 500h72v-293q0 -74 34.5 -114.5t99.5 -40.5q68 0 112.5 27t80.5 85v336h72v-500h-60l-8 88q-71 -98 -197 -98q-206 0 -206 218v292zM217 563l54 180l66 -23l-69 -157h-51zM318 563l87 170l60 -39l-95 -131h-52z" />
    <glyph glyph-name="Uogonek" unicode="&#x172;" horiz-adv-x="661" 
d="M60 650h75v-367q0 -115 51.5 -173.5t143.5 -58.5t144 58.5t52 173.5v367h75v-360q0 -139 -59.5 -213.5t-167.5 -86.5q-42 -28 -42 -73q0 -49 58 -49q14 0 25 3l-13 -49q-14 -6 -38 -6q-40 0 -66.5 22.5t-26.5 60.5q0 57 44 88q-121 5 -188 80t-67 223v360z" />
    <glyph glyph-name="uogonek" unicode="&#x173;" horiz-adv-x="601" 
d="M65 500h72v-293q0 -74 34.5 -114.5t99.5 -40.5q68 0 112.5 27t80.5 85v336h72v-500q-45 -28 -45 -69q0 -46 47 -46q14 0 26 4l-14 -50q-15 -3 -29 -3q-40 0 -64 23.5t-24 57.5q0 60 60 83h-17l-8 88q-71 -98 -197 -98q-206 0 -206 218v292z" />
    <glyph glyph-name="Wcircumflex" unicode="&#x174;" horiz-adv-x="996" 
d="M339 0h-108l-211 650h82l182 -583h6l173 583h67l182 -583h6l181 583h77l-208 -650h-108l-159 516h-6zM498 780l-126 -81l-18 43l137 113h15l136 -113l-18 -43z" />
    <glyph glyph-name="wcircumflex" unicode="&#x175;" horiz-adv-x="848" 
d="M201 0l-171 500h77l142 -427h5l144 427h61l145 -427h5l134 427h75l-169 -500h-91l-128 380h-5l-130 -380h-94zM538 555l-109 75l-109 -75l-18 35l118 119h18l118 -119z" />
    <glyph glyph-name="Ycircumflex" unicode="&#x176;" horiz-adv-x="626" 
d="M25 650h84l203 -325h6l200 325h83l-250 -397v-253h-74v252zM313 776l-126 -81l-18 43l137 113h15l136 -113l-18 -43z" />
    <glyph glyph-name="ycircumflex" unicode="&#x177;" horiz-adv-x="596" 
d="M30 500h81l204 -424h6l165 424h80l-246 -599q-20 -48 -61.5 -75t-90.5 -27q-28 0 -57 11l12 59q18 -5 41 -5q75 0 102 78l17 49zM418 555l-109 75l-109 -75l-18 35l118 119h18l118 -119z" />
    <glyph glyph-name="Ydieresis" unicode="&#x178;" horiz-adv-x="626" 
d="M25 650h84l203 -325h6l200 325h83l-250 -397v-253h-74v252zM203 822q24 0 39 -14t15 -38q0 -23 -15 -37t-39 -14q-23 0 -37.5 14.5t-14.5 36.5q0 24 14.5 38t37.5 14zM423 822q22 0 37.5 -14.5t15.5 -37.5q0 -22 -15.5 -36.5t-37.5 -14.5t-38 14.5t-16 36.5
q0 23 15.5 37.5t38.5 14.5z" />
    <glyph glyph-name="Zacute" unicode="&#x179;" horiz-adv-x="605" 
d="M63 650h499v-59l-432 -526h440v-65h-535v55l439 532h-411v63zM281 706l84 171l63 -38l-91 -133h-56z" />
    <glyph glyph-name="zacute" unicode="&#x17a;" horiz-adv-x="538" 
d="M57 500h434v-48l-348 -390h350v-62h-448v48l345 391h-333v61zM231 562l86 170l63 -39l-97 -131h-52z" />
    <glyph glyph-name="Zdotaccent" unicode="&#x17b;" horiz-adv-x="605" 
d="M63 650h499v-59l-432 -526h440v-65h-535v55l439 532h-411v63zM309 818q27 0 44 -17.5t17 -42.5t-16.5 -40.5t-44.5 -15.5q-26 0 -42.5 15.5t-16.5 40.5t16.5 42.5t42.5 17.5z" />
    <glyph glyph-name="zdotaccent" unicode="&#x17c;" horiz-adv-x="538" 
d="M57 500h434v-48l-348 -390h350v-62h-448v48l345 391h-333v61zM277 665q26 0 41.5 -16.5t15.5 -40.5q0 -23 -16 -40t-41 -17t-41 17t-16 40q0 24 15.5 40.5t41.5 16.5z" />
    <glyph glyph-name="Zcaron" unicode="&#x17d;" horiz-adv-x="605" 
d="M63 650h499v-59l-432 -526h440v-65h-535v55l439 532h-411v63zM186 868l126 -81l126 81l18 -43l-136 -113h-15l-137 113z" />
    <glyph glyph-name="zcaron" unicode="&#x17e;" horiz-adv-x="538" 
d="M57 500h434v-48l-348 -390h350v-62h-448v48l345 391h-333v61zM164 709l109 -75l109 75l18 -35l-118 -119h-18l-118 119z" />
    <glyph glyph-name="longs" unicode="&#x17f;" horiz-adv-x="269" 
d="M65 0v534q0 87 53 141.5t140 54.5q83 0 148 -37l-30 -56q-49 29 -110 29q-129 0 -129 -129v-537h-72z" />
    <glyph glyph-name="florin" unicode="&#x192;" horiz-adv-x="361" 
d="M30 500h90v34q0 87 53 141.5t140 54.5q83 0 148 -37l-30 -56q-49 29 -110 29q-129 0 -129 -129v-37h158l-4 -62l-154 5v-417q0 -96 -46.5 -150.5t-137.5 -59.5l-7 63q119 12 119 129v429l-90 11v52z" />
    <glyph glyph-name="uni0200" unicode="&#x200;" horiz-adv-x="699" 
d="M306 650h88l280 -650h-79l-93 219h-309l-91 -219h-77zM341 573l-122 -292h257l-121 292h-14zM362 880l48 -174h-50l-64 149zM234 870l77 -164h-52l-87 125z" />
    <glyph glyph-name="uni0201" unicode="&#x201;" horiz-adv-x="602" 
d="M111 409l-19 60q96 41 205 41t160 -41t51 -130v-217q0 -40 14 -55t53 -16v-51q-27 -10 -55 -10q-31 0 -47.5 19.5t-20.5 66.5q-80 -86 -222 -86q-87 0 -130 39t-43 110q0 66 43 116q125 38 337 44v37q0 59 -32 85t-113 26q-90 0 -181 -38zM437 130v116q-169 -3 -280 -32
q-26 -30 -26 -69q0 -92 106 -92q122 0 200 77zM310 743l54 -180h-51l-69 157zM176 733l87 -170h-52l-95 131z" />
    <glyph glyph-name="uni0202" unicode="&#x202;" horiz-adv-x="699" 
d="M306 650h88l280 -650h-79l-93 219h-309l-91 -219h-77zM341 573l-122 -292h257l-121 292h-14zM349 773l-126 -81l-18 43l137 113h15l136 -113l-18 -43z" />
    <glyph glyph-name="uni0203" unicode="&#x203;" horiz-adv-x="602" 
d="M111 409l-19 60q96 41 205 41t160 -41t51 -130v-217q0 -40 14 -55t53 -16v-51q-27 -10 -55 -10q-31 0 -47.5 19.5t-20.5 66.5q-80 -86 -222 -86q-87 0 -130 39t-43 110q0 66 43 116q125 38 337 44v37q0 59 -32 85t-113 26q-90 0 -181 -38zM437 130v116q-169 -3 -280 -32
q-26 -30 -26 -69q0 -92 106 -92q122 0 200 77zM403 555l-109 75l-109 -75l-18 35l118 119h18l118 -119z" />
    <glyph glyph-name="uni0204" unicode="&#x204;" horiz-adv-x="532" 
d="M65 0v650h407v-64h-332v-215h299v-64h-299v-242h347v-65h-422zM312 880l48 -174h-50l-64 149zM184 870l77 -164h-52l-87 125z" />
    <glyph glyph-name="uni0205" unicode="&#x205;" horiz-adv-x="571" 
d="M528 234h-420q5 -90 63.5 -135.5t145.5 -45.5q104 0 174 37l21 -63q-81 -37 -199 -37q-133 0 -205.5 69.5t-72.5 189.5q0 116 77 188.5t194 72.5q114 0 172 -56t58 -149q0 -39 -8 -71zM109 295h358q0 82 -40.5 117.5t-128.5 35.5q-72 0 -126.5 -40.5t-62.5 -112.5z
M322 743l54 -180h-51l-69 157zM188 733l87 -170h-52l-95 131z" />
    <glyph glyph-name="uni0206" unicode="&#x206;" horiz-adv-x="532" 
d="M65 0v650h407v-64h-332v-215h299v-64h-299v-242h347v-65h-422zM275 788l-126 -81l-18 43l137 113h15l136 -113l-18 -43z" />
    <glyph glyph-name="uni0207" unicode="&#x207;" horiz-adv-x="571" 
d="M528 234h-420q5 -90 63.5 -135.5t145.5 -45.5q104 0 174 37l21 -63q-81 -37 -199 -37q-133 0 -205.5 69.5t-72.5 189.5q0 116 77 188.5t194 72.5q114 0 172 -56t58 -149q0 -39 -8 -71zM109 295h358q0 82 -40.5 117.5t-128.5 35.5q-72 0 -126.5 -40.5t-62.5 -112.5z
M416 555l-109 75l-109 -75l-18 35l118 119h18l118 -119z" />
    <glyph glyph-name="uni0208" unicode="&#x208;" horiz-adv-x="205" 
d="M65 650h75v-650h-75v650zM142 880l48 -174h-50l-64 149zM14 870l77 -164h-52l-87 125z" />
    <glyph glyph-name="uni0209" unicode="&#x209;" horiz-adv-x="202" 
d="M65 500h72v-500h-72v500zM127 743l54 -180h-51l-69 157zM-7 733l87 -170h-52l-95 131z" />
    <glyph glyph-name="uni020A" unicode="&#x20a;" horiz-adv-x="205" 
d="M65 650h75v-650h-75v650zM102 773l-126 -81l-18 43l137 113h15l136 -113l-18 -43z" />
    <glyph glyph-name="uni020B" unicode="&#x20b;" horiz-adv-x="202" 
d="M65 500h72v-500h-72v500zM210 555l-109 75l-109 -75l-18 35l118 119h18l118 -119z" />
    <glyph glyph-name="uni020C" unicode="&#x20c;" horiz-adv-x="776" 
d="M115 325q0 -124 79.5 -199t193.5 -75t193.5 75t79.5 199t-79.5 199t-193.5 75t-193.5 -75t-79.5 -199zM736 325q0 -149 -99.5 -243.5t-248.5 -94.5q-150 0 -249 94t-99 244q0 149 99.5 243.5t248.5 94.5q150 0 249 -94t99 -244zM404 890l48 -174h-50l-64 149zM276 880
l77 -164h-52l-87 125z" />
    <glyph glyph-name="uni020D" unicode="&#x20d;" horiz-adv-x="624" 
d="M589 250q0 -117 -79 -188.5t-198 -71.5t-198 71.5t-79 188.5t79 188.5t198 71.5t198 -71.5t79 -188.5zM108 250q0 -90 56.5 -145t147.5 -55t147.5 55t56.5 145t-56.5 145t-147.5 55t-147.5 -55t-56.5 -145zM332 743l54 -180h-51l-69 157zM198 733l87 -170h-52l-95 131z
" />
    <glyph glyph-name="uni020E" unicode="&#x20e;" horiz-adv-x="776" 
d="M115 325q0 -124 79.5 -199t193.5 -75t193.5 75t79.5 199t-79.5 199t-193.5 75t-193.5 -75t-79.5 -199zM736 325q0 -149 -99.5 -243.5t-248.5 -94.5q-150 0 -249 94t-99 244q0 149 99.5 243.5t248.5 94.5q150 0 249 -94t99 -244zM390 787l-126 -81l-18 43l137 113h15
l136 -113l-18 -43z" />
    <glyph glyph-name="uni020F" unicode="&#x20f;" horiz-adv-x="624" 
d="M589 250q0 -117 -79 -188.5t-198 -71.5t-198 71.5t-79 188.5t79 188.5t198 71.5t198 -71.5t79 -188.5zM108 250q0 -90 56.5 -145t147.5 -55t147.5 55t56.5 145t-56.5 145t-147.5 55t-147.5 -55t-56.5 -145zM428 555l-109 75l-109 -75l-18 35l118 119h18l118 -119z" />
    <glyph glyph-name="uni0210" unicode="&#x210;" horiz-adv-x="622" 
d="M65 650h255q98 0 159.5 -48.5t61.5 -131.5q0 -57 -39.5 -104t-111.5 -66l197 -300h-91l-182 287h-174v-287h-75v650zM140 586v-234h166q72 0 116 30.5t44 87.5q0 116 -161 116h-165zM313 880l48 -174h-50l-64 149zM185 870l77 -164h-52l-87 125z" />
    <glyph glyph-name="uni0211" unicode="&#x211;" horiz-adv-x="489" 
d="M65 500h61l6 -92q33 52 85 77t107 25q92 0 145 -66l-50 -46q-41 48 -107 48q-104 0 -175 -108v-338h-72v500zM315 743l54 -180h-51l-69 157zM181 733l87 -170h-52l-95 131z" />
    <glyph glyph-name="uni0212" unicode="&#x212;" horiz-adv-x="622" 
d="M65 650h255q98 0 159.5 -48.5t61.5 -131.5q0 -57 -39.5 -104t-111.5 -66l197 -300h-91l-182 287h-174v-287h-75v650zM140 586v-234h166q72 0 116 30.5t44 87.5q0 116 -161 116h-165zM297 786l-126 -81l-18 43l137 113h15l136 -113l-18 -43z" />
    <glyph glyph-name="uni0213" unicode="&#x213;" horiz-adv-x="489" 
d="M65 500h61l6 -92q33 52 85 77t107 25q92 0 145 -66l-50 -46q-41 48 -107 48q-104 0 -175 -108v-338h-72v500zM412 555l-109 75l-109 -75l-18 35l118 119h18l118 -119z" />
    <glyph glyph-name="uni0214" unicode="&#x214;" horiz-adv-x="661" 
d="M60 650h75v-367q0 -115 51.5 -173.5t143.5 -58.5t144 58.5t52 173.5v367h75v-360q0 -152 -71.5 -227.5t-199.5 -75.5t-199 75t-71 228v360zM369 868l48 -174h-50l-64 149zM241 858l77 -164h-52l-87 125z" />
    <glyph glyph-name="uni0215" unicode="&#x215;" horiz-adv-x="601" 
d="M65 500h72v-293q0 -74 34.5 -114.5t99.5 -40.5q68 0 112.5 27t80.5 85v336h72v-500h-60l-8 88q-71 -98 -197 -98q-206 0 -206 218v292zM320 736l54 -180h-51l-69 157zM186 726l87 -170h-52l-95 131z" />
    <glyph glyph-name="uni0216" unicode="&#x216;" horiz-adv-x="661" 
d="M60 650h75v-367q0 -115 51.5 -173.5t143.5 -58.5t144 58.5t52 173.5v367h75v-360q0 -152 -71.5 -227.5t-199.5 -75.5t-199 75t-71 228v360zM330 777l-126 -81l-18 43l137 113h15l136 -113l-18 -43z" />
    <glyph glyph-name="uni0217" unicode="&#x217;" horiz-adv-x="601" 
d="M65 500h72v-293q0 -74 34.5 -114.5t99.5 -40.5q68 0 112.5 27t80.5 85v336h72v-500h-60l-8 88q-71 -98 -197 -98q-206 0 -206 218v292zM409 555l-109 75l-109 -75l-18 35l118 119h18l118 -119z" />
    <glyph glyph-name="Scommaaccent" unicode="&#x218;" horiz-adv-x="563" 
d="M479 610l-32 -59q-78 49 -172 49q-70 0 -104 -31t-34 -73q0 -41 27 -67t87 -38l95 -20q172 -36 172 -192q0 -82 -64.5 -137t-184.5 -55q-69 0 -118.5 12t-105.5 41l26 68q96 -55 196 -55q92 0 134.5 34.5t42.5 90.5q0 55 -30 84.5t-101 44.5l-105 22q-64 13 -103 55
t-39 108q0 76 55.5 123.5t153.5 47.5q118 0 204 -53zM241 -262l-20 37q57 23 57 68q-24 0 -37.5 13.5t-13.5 35.5t13.5 36t37.5 14q62 0 62 -77q0 -42 -26.5 -76.5t-72.5 -50.5z" />
    <glyph glyph-name="scommaaccent" unicode="&#x219;" horiz-adv-x="495" 
d="M428 481l-25 -60q-68 28 -149 28q-138 0 -138 -74q0 -38 34 -54.5t110 -26.5q195 -26 195 -157q0 -74 -61.5 -110.5t-173.5 -36.5q-105 0 -175 30l19 64q72 -31 152 -31q170 0 170 85q0 41 -34.5 61.5t-115.5 29.5q-190 21 -190 142q0 62 53.5 100.5t155.5 38.5
q98 0 173 -29zM201 -262l-19 36q58 23 58 71q-24 0 -38.5 14t-14.5 34q0 21 13.5 36t38.5 15q59 0 59 -82q0 -42 -24.5 -75.5t-72.5 -48.5z" />
    <glyph glyph-name="uni021A" unicode="&#x21a;" horiz-adv-x="555" 
d="M40 586v64h475v-64h-200v-586h-75v586h-200zM236 -257l-20 37q57 23 57 68q-24 0 -37.5 13.5t-13.5 35.5t13.5 36t37.5 14q62 0 62 -77q0 -42 -26.5 -76.5t-72.5 -50.5z" />
    <glyph glyph-name="uni021B" unicode="&#x21b;" horiz-adv-x="431" 
d="M20 447v29l62 38l69 109l22 -3v-120h205l-3 -64l-202 7v-273q0 -116 105 -116q60 0 111 31l27 -57q-61 -38 -146 -38q-169 0 -169 179v267zM218 -264l-19 36q58 23 58 71q-24 0 -38.5 14t-14.5 34q0 21 13.5 36t38.5 15q59 0 59 -82q0 -42 -24.5 -75.5t-72.5 -48.5z" />
    <glyph glyph-name="dotlessj" unicode="&#x237;" horiz-adv-x="203" 
d="M66 500h72v-538q0 -197 -184 -210l-7 63q119 12 119 129v556z" />
    <glyph glyph-name="circumflex" unicode="&#x2c6;" horiz-adv-x="360" 
d="M289 555l-109 75l-109 -75l-18 35l118 119h18l118 -119z" />
    <glyph glyph-name="caron" unicode="&#x2c7;" horiz-adv-x="360" 
d="M71 709l109 -75l109 75l18 -35l-118 -119h-18l-118 119z" />
    <glyph glyph-name="uni02C9" unicode="&#x2c9;" horiz-adv-x="363" 
d="M0 641h363v-62h-363v62z" />
    <glyph glyph-name="breve" unicode="&#x2d8;" horiz-adv-x="366" 
d="M51 650l58 15q15 -55 74 -55t74 55l58 -15q-34 -96 -132 -96t-132 96z" />
    <glyph glyph-name="dotaccent" unicode="&#x2d9;" horiz-adv-x="233" 
d="M117 106q26 0 41.5 -16.5t15.5 -40.5q0 -23 -16 -40t-41 -17t-41 17t-16 40q0 24 15.5 40.5t41.5 16.5z" />
    <glyph glyph-name="ring" unicode="&#x2da;" horiz-adv-x="300" 
d="M150 557q-44 0 -74 27.5t-30 70.5t30 70.5t74 27.5t74 -27.5t30 -70.5t-30 -70.5t-74 -27.5zM150 602q25 0 39 14.5t14 38.5t-14 38.5t-39 14.5t-39 -14.5t-14 -38.5t14 -38.5t39 -14.5z" />
    <glyph glyph-name="ogonek" unicode="&#x2db;" horiz-adv-x="218" 
d="M120 5l26 -5q-45 -28 -45 -69q0 -46 47 -46q14 0 26 4l-14 -50q-15 -3 -29 -3q-40 0 -64 23.5t-24 57.5q0 33 21 56.5t56 31.5z" />
    <glyph glyph-name="tilde" unicode="&#x2dc;" horiz-adv-x="421" 
d="M61 574l-20 44q44 45 105 45q43 0 75 -23q26 -20 62 -20q38 0 67 26l30 -35q-40 -50 -97 -50q-39 0 -74 22q-32 21 -69 21q-47 0 -79 -30z" />
    <glyph glyph-name="hungarumlaut" unicode="&#x2dd;" horiz-adv-x="375" 
d="M56 563l54 180l66 -23l-69 -157h-51zM157 563l87 170l60 -39l-95 -131h-52z" />
    <glyph glyph-name="pi" unicode="&#x3c0;" horiz-adv-x="572" 
d="M6 500h489v-384q0 -35 13 -49t50 -15l-7 -54q-21 -5 -41 -5q-52 0 -70 33t-18 94v319h-269v-439h-73v433l-74 14v53z" />
    <glyph glyph-name="afii10023" unicode="&#x401;" horiz-adv-x="532" 
d="M65 0v650h407v-64h-332v-215h299v-64h-299v-242h347v-65h-422zM156 822q24 0 39 -14t15 -38q0 -23 -15 -37t-39 -14q-23 0 -37.5 14.5t-14.5 36.5q0 24 14.5 38t37.5 14zM376 822q22 0 37.5 -14.5t15.5 -37.5q0 -22 -15.5 -36.5t-37.5 -14.5t-38 14.5t-16 36.5
q0 23 15.5 37.5t38.5 14.5z" />
    <glyph glyph-name="afii10051" unicode="&#x402;" horiz-adv-x="765" 
d="M30 650h484v-62h-207v-210q78 87 192 87q101 0 156 -56t55 -160v-226q0 -92 -49 -155t-137 -83l-15 64q127 39 127 167v231q0 73 -34 114t-103 41q-115 0 -192 -98v-304h-74v588h-203v62z" />
    <glyph glyph-name="afii10052" unicode="&#x403;" horiz-adv-x="500" 
d="M65 650h400v-64h-325v-586h-75v650zM246 706l84 171l63 -38l-91 -133h-56z" />
    <glyph glyph-name="afii10053" unicode="&#x404;" horiz-adv-x="648" 
d="M468 373v-63h-353q5 -120 81 -187t192 -67q63 0 107.5 12.5t95.5 45.5l22 -66q-94 -61 -236 -61q-66 0 -125.5 20.5t-107.5 61t-76 107t-28 150.5q0 148 101.5 242.5t247.5 94.5q131 0 223 -66l-31 -60q-92 62 -192 62q-108 0 -182 -62.5t-89 -163.5h350z" />
    <glyph glyph-name="afii10054" unicode="&#x405;" horiz-adv-x="563" 
d="M479 610l-32 -59q-78 49 -172 49q-70 0 -104 -31t-34 -73q0 -41 27 -67t87 -38l95 -20q172 -36 172 -192q0 -82 -64.5 -137t-184.5 -55q-69 0 -118.5 12t-105.5 41l26 68q96 -55 196 -55q92 0 134.5 34.5t42.5 90.5q0 55 -30 84.5t-101 44.5l-105 22q-64 13 -103 55
t-39 108q0 76 55.5 123.5t153.5 47.5q118 0 204 -53z" />
    <glyph glyph-name="uni0406" unicode="&#x406;" horiz-adv-x="205" 
d="M65 650h75v-650h-75v650z" />
    <glyph glyph-name="afii10056" unicode="&#x407;" horiz-adv-x="205" 
d="M65 650h75v-650h-75v650zM-12 823q24 0 39 -14t15 -38q0 -23 -15 -37t-39 -14q-23 0 -37.5 14.5t-14.5 36.5q0 24 14.5 38t37.5 14zM208 823q22 0 37.5 -14.5t15.5 -37.5q0 -22 -15.5 -36.5t-37.5 -14.5t-38 14.5t-16 36.5q0 23 15.5 37.5t38.5 14.5z" />
    <glyph glyph-name="afii10057" unicode="&#x408;" horiz-adv-x="215" 
d="M75 650h75v-640q0 -226 -215 -257l-25 64q87 15 126 57.5t39 136.5v639z" />
    <glyph glyph-name="afii10058" unicode="&#x409;" horiz-adv-x="1066" 
d="M212 650h420v-249h158q109 0 175 -51t66 -149q0 -96 -66 -148.5t-175 -52.5h-233v586h-272v-161q0 -217 -55 -333q-54 -100 -149 -100q-41 0 -71 10l14 65q21 -7 51 -7q58 0 90 67q47 99 47 339v184zM632 337v-273h156q168 0 168 137q0 136 -170 136h-154z" />
    <glyph glyph-name="afii10059" unicode="&#x40a;" horiz-adv-x="1004" 
d="M65 650h75v-258h355v258h75v-258h158q110 0 175.5 -48t65.5 -145q0 -96 -66 -147.5t-175 -51.5h-233v328h-355v-328h-75v650zM570 328v-264h156q168 0 168 135q0 72 -43.5 100.5t-126.5 28.5h-154z" />
    <glyph glyph-name="afii10060" unicode="&#x40b;" horiz-adv-x="765" 
d="M30 650h484v-62h-207v-210q78 87 192 87q101 0 156 -56t55 -160v-249h-74v247q0 73 -34 114t-103 41q-115 0 -192 -98v-304h-74v588h-203v62z" />
    <glyph glyph-name="afii10061" unicode="&#x40c;" horiz-adv-x="634" 
d="M65 650h74v-245h158l109 175q49 80 130 80q30 0 59 -7l-13 -65q-16 3 -34 3q-52 0 -89 -58l-100 -156l245 -377h-86l-218 341h-161v-341h-74v650zM271 706l84 171l63 -38l-91 -133h-56z" />
    <glyph glyph-name="afii10062" unicode="&#x40e;" horiz-adv-x="658" 
d="M20 650h85l242 -529h7l205 529h79l-239 -605q-37 -94 -79 -135.5t-106 -41.5q-46 0 -83 19l19 61q26 -10 57 -10q37 0 62.5 21.5t43.5 69.5zM194 809l48 20q30 -58 101 -58t104 58l47 -20q-38 -99 -151 -99q-52 0 -92 27t-57 72z" />
    <glyph glyph-name="afii10145" unicode="&#x40f;" horiz-adv-x="646" 
d="M65 650h75v-586h366v586h75v-650h-220l-12 -145h-52l-12 145h-220v650z" />
    <glyph glyph-name="afii10017" unicode="&#x410;" horiz-adv-x="699" 
d="M306 650h88l280 -650h-79l-93 219h-309l-91 -219h-77zM341 573l-122 -292h257l-121 292h-14z" />
    <glyph glyph-name="afii10018" unicode="&#x411;" horiz-adv-x="573" 
d="M65 650h413v-64h-338v-191h153q113 0 179 -51t66 -147q0 -94 -66 -145.5t-176 -51.5h-231v650zM140 331v-267h142q93 0 136.5 31.5t43.5 101.5q0 73 -45.5 103.5t-137.5 30.5h-139z" />
    <glyph glyph-name="afii10019" unicode="&#x412;" horiz-adv-x="594" 
d="M65 650h226q94 0 153 -41t59 -123q0 -38 -17.5 -74t-49.5 -56v-4q54 -20 83.5 -61.5t29.5 -96.5q0 -86 -61.5 -140t-164.5 -54h-258v650zM139 314v-250h175q74 0 117.5 31.5t43.5 94.5q0 124 -152 124h-184zM139 589v-215h173q57 0 87 29.5t30 79.5q0 51 -34.5 78.5
t-95.5 27.5h-160z" />
    <glyph glyph-name="afii10020" unicode="&#x413;" horiz-adv-x="500" 
d="M65 650h400v-64h-325v-586h-75v650z" />
    <glyph glyph-name="afii10021" unicode="&#x414;" horiz-adv-x="725" 
d="M186 650h437v-585h72l-8 -210h-59l-12 145h-513l-16 -145h-57v210q48 15 81 57q75 97 75 323v205zM549 586h-290v-140q0 -274 -111 -381h401v521z" />
    <glyph glyph-name="afii10022" unicode="&#x415;" horiz-adv-x="532" 
d="M65 0v650h407v-64h-332v-215h299v-64h-299v-242h347v-65h-422z" />
    <glyph glyph-name="afii10024" unicode="&#x416;" horiz-adv-x="981" 
d="M453 650h74v-250h127l88 180q39 80 130 80q30 0 58 -7l-9 -65q-21 3 -32 3q-66 0 -94 -58l-79 -162l235 -371h-87l-209 337h-128v-337h-74v337h-128l-208 -337h-87l235 371l-79 162q-28 58 -96 58q-6 0 -30 -3l-9 64q28 8 58 8q90 0 129 -80l90 -180h125v250z" />
    <glyph glyph-name="afii10025" unicode="&#x417;" horiz-adv-x="554" 
d="M161 390h116q57 0 89 26.5t32 74.5q0 109 -141 109q-54 0 -92.5 -12t-78.5 -42l-30 52q81 65 204 65q96 0 154 -45t58 -123q0 -41 -20.5 -74.5t-58.5 -51.5v-4q55 -19 85.5 -64t30.5 -104q0 -93 -70.5 -151.5t-179.5 -58.5q-71 0 -121.5 13t-102.5 46l25 64
q86 -58 198 -58q77 0 126.5 37.5t49.5 105.5q0 133 -144 133h-129v62z" />
    <glyph glyph-name="afii10026" unicode="&#x418;" horiz-adv-x="699" 
d="M65 650h74v-545h6l415 545h74v-650h-74v535h-6l-410 -535h-79v650z" />
    <glyph glyph-name="afii10027" unicode="&#x419;" horiz-adv-x="699" 
d="M65 650h74v-545h6l415 545h74v-650h-74v535h-6l-410 -535h-79v650zM201 809l48 20q30 -58 101 -58t104 58l47 -20q-38 -99 -151 -99q-52 0 -92 27t-57 72z" />
    <glyph glyph-name="afii10028" unicode="&#x41a;" horiz-adv-x="634" 
d="M65 650h74v-245h158l109 175q49 80 130 80q30 0 59 -7l-13 -65q-16 3 -34 3q-52 0 -89 -58l-100 -156l245 -377h-86l-218 341h-161v-341h-74v650z" />
    <glyph glyph-name="afii10029" unicode="&#x41b;" horiz-adv-x="711" 
d="M212 650h434v-650h-75v586h-286v-161q0 -217 -55 -333q-54 -100 -149 -100q-41 0 -71 10l14 65q21 -7 51 -7q58 0 90 67q47 99 47 339v184z" />
    <glyph glyph-name="afii10030" unicode="&#x41c;" horiz-adv-x="760" 
d="M65 650h104l211 -312l212 312h103v-650h-74v369l2 199h-9l-223 -326h-27l-219 326h-8l1 -199v-369h-73v650z" />
    <glyph glyph-name="afii10031" unicode="&#x41d;" horiz-adv-x="660" 
d="M520 650h75v-650h-75v308h-380v-308h-75v650h75v-278h380v278z" />
    <glyph glyph-name="afii10032" unicode="&#x41e;" horiz-adv-x="776" 
d="M115 325q0 -124 79.5 -199t193.5 -75t193.5 75t79.5 199t-79.5 199t-193.5 75t-193.5 -75t-79.5 -199zM736 325q0 -149 -99.5 -243.5t-248.5 -94.5q-150 0 -249 94t-99 244q0 149 99.5 243.5t248.5 94.5q150 0 249 -94t99 -244z" />
    <glyph glyph-name="afii10033" unicode="&#x41f;" horiz-adv-x="642" 
d="M65 650h512v-650h-75v586h-362v-586h-75v650z" />
    <glyph glyph-name="afii10034" unicode="&#x420;" horiz-adv-x="578" 
d="M65 650h220q111 0 182 -53.5t71 -146.5q0 -96 -70 -150t-183 -54h-145v-246h-75v650zM140 586v-275h130q193 0 193 139q0 136 -193 136h-130z" />
    <glyph glyph-name="afii10035" unicode="&#x421;" horiz-adv-x="648" 
d="M612 597l-31 -60q-92 62 -192 62q-120 0 -197 -77t-77 -196q0 -127 76.5 -198.5t196.5 -71.5q63 0 107.5 12.5t95.5 45.5l22 -66q-94 -61 -236 -61q-66 0 -125.5 20.5t-107.5 61t-76 107t-28 150.5q0 148 101.5 242.5t247.5 94.5q131 0 223 -66z" />
    <glyph glyph-name="afii10036" unicode="&#x422;" horiz-adv-x="555" 
d="M40 586v64h475v-64h-200v-586h-75v586h-200z" />
    <glyph glyph-name="afii10037" unicode="&#x423;" horiz-adv-x="658" 
d="M20 650h85l242 -529h7l205 529h79l-239 -605q-37 -94 -79 -135.5t-106 -41.5q-46 0 -83 19l19 61q26 -10 57 -10q37 0 62.5 21.5t43.5 69.5z" />
    <glyph glyph-name="afii10038" unicode="&#x424;" horiz-adv-x="835" 
d="M380 663h74v-96q51 9 92 9q117 0 183 -69.5t66 -177.5q0 -107 -64.5 -176.5t-181.5 -69.5q-42 0 -95 9v-92h-74v92q-50 -9 -94 -9q-117 0 -181.5 69.5t-64.5 176.5q0 108 65.5 177.5t182.5 69.5q42 0 92 -9v96zM380 155v351q-49 8 -94 8q-79 0 -125.5 -49t-46.5 -136
t46 -135t126 -48q46 0 94 9zM454 506v-351q48 -9 95 -9q79 0 125.5 48t46.5 135t-46.5 136t-125.5 49q-46 0 -95 -8z" />
    <glyph glyph-name="afii10039" unicode="&#x425;" horiz-adv-x="674" 
d="M53 650h91l191 -269l191 269h88l-224 -306l254 -344h-93l-219 304l-215 -304h-87l249 345z" />
    <glyph glyph-name="afii10040" unicode="&#x426;" horiz-adv-x="686" 
d="M65 650h75v-586h366v586h75v-586h75l-8 -209h-56l-12 145h-515v650z" />
    <glyph glyph-name="afii10041" unicode="&#x427;" horiz-adv-x="616" 
d="M551 0h-75v215q-88 -13 -154 -13q-131 0 -201.5 62.5t-70.5 191.5v194h75v-186q0 -100 50 -146.5t167 -46.5q77 0 134 9v370h75v-650z" />
    <glyph glyph-name="afii10042" unicode="&#x428;" horiz-adv-x="919" 
d="M65 0v650h75v-586h282v586h75v-586h282v586h75v-650h-789z" />
    <glyph glyph-name="afii10043" unicode="&#x429;" horiz-adv-x="958" 
d="M65 0v650h75v-586h282v586h75v-586h282v586h75v-586h74l-8 -209h-56l-12 145h-787z" />
    <glyph glyph-name="afii10044" unicode="&#x42a;" horiz-adv-x="674" 
d="M20 650h208v-249h170q109 0 175 -51t66 -149q0 -96 -66 -148.5t-175 -52.5h-245v584l-133 9v57zM228 337v-273h168q168 0 168 137q0 136 -170 136h-166z" />
    <glyph glyph-name="afii10045" unicode="&#x42b;" horiz-adv-x="772" 
d="M632 0v650h75v-650h-75zM65 650h75v-249h170q109 0 175 -51t66 -149q0 -96 -66 -148.5t-175 -52.5h-245v650zM140 337v-273h168q168 0 168 137q0 136 -170 136h-166z" />
    <glyph glyph-name="afii10046" unicode="&#x42c;" horiz-adv-x="586" 
d="M65 650h75v-249h170q109 0 175 -51t66 -149q0 -96 -66 -148.5t-175 -52.5h-245v650zM140 337v-273h168q168 0 168 137q0 136 -170 136h-166z" />
    <glyph glyph-name="afii10047" unicode="&#x42d;" horiz-adv-x="648" 
d="M200 373h332q-12 100 -83.5 163t-178.5 63q-113 0 -203 -62l-32 59q97 67 235 67q150 0 244 -92t94 -245q0 -159 -97.5 -249t-234.5 -90q-142 0 -237 60l19 66q50 -32 97 -45.5t111 -13.5q112 0 186 67t81 189h-333v63z" />
    <glyph glyph-name="afii10048" unicode="&#x42e;" horiz-adv-x="953" 
d="M65 650h74v-276h123q15 128 103.5 208.5t220.5 80.5q144 0 235.5 -95.5t91.5 -242.5t-91.5 -242.5t-235.5 -95.5q-141 0 -231.5 91t-95.5 232h-120v-310h-74v650zM334 325q0 -126 72.5 -200t179.5 -74t179.5 74t72.5 200t-72.5 200t-179.5 74t-179.5 -74t-72.5 -200z" />
    <glyph glyph-name="afii10049" unicode="&#x42f;" horiz-adv-x="605" 
d="M540 650v-650h-75v264h-171l-177 -264h-87l193 273q-73 14 -118 64t-45 119q0 89 66.5 141.5t173.5 52.5h240zM465 587h-161q-77 0 -123.5 -32t-46.5 -99q0 -66 46.5 -97.5t125.5 -31.5h159v260z" />
    <glyph glyph-name="afii10065" unicode="&#x430;" horiz-adv-x="602" 
d="M111 409l-19 60q96 41 205 41t160 -41t51 -130v-217q0 -40 14 -55t53 -16v-51q-27 -10 -55 -10q-31 0 -47.5 19.5t-20.5 66.5q-80 -86 -222 -86q-87 0 -130 39t-43 110q0 66 43 116q125 38 337 44v37q0 59 -32 85t-113 26q-90 0 -181 -38zM437 130v116q-169 -3 -280 -32
q-26 -30 -26 -69q0 -92 106 -92q122 0 200 77z" />
    <glyph glyph-name="afii10066" unicode="&#x431;" horiz-adv-x="604" 
d="M510 733l42 -36q-47 -83 -147 -101l-126 -22q-69 -12 -115.5 -68.5t-59.5 -140.5h4q37 55 89 80t129 25q102 0 170 -64.5t68 -176.5q0 -109 -72.5 -174t-183.5 -65q-135 0 -201.5 81.5t-66.5 224.5q0 156 62 239t182 106l120 23q65 12 106 69zM119 231q0 -81 52.5 -129
t134.5 -48q84 0 135 47.5t51 127.5q0 84 -48 130.5t-136 46.5q-87 0 -138 -48t-51 -127z" />
    <glyph glyph-name="afii10067" unicode="&#x432;" horiz-adv-x="544" 
d="M65 500h238q73 0 121 -33.5t48 -96.5q0 -70 -59 -98v-4q41 -13 66 -45t25 -75q0 -68 -49.5 -108t-126.5 -40h-263v500zM136 228v-168h182q113 0 113 86q0 82 -106 82h-189zM136 440v-152h178q86 0 86 78q0 74 -90 74h-174z" />
    <glyph glyph-name="afii10068" unicode="&#x433;" horiz-adv-x="470" 
d="M65 500h365v-62h-293v-438h-72v500z" />
    <glyph glyph-name="afii10069" unicode="&#x434;" horiz-adv-x="615" 
d="M156 500h374v-438h65l-11 -188h-51l-11 126h-432l-17 -126h-53v188q74 43 105 119.5t31 190.5v128zM224 438v-98q0 -178 -111 -278h345v376h-234z" />
    <glyph glyph-name="afii10070" unicode="&#x435;" horiz-adv-x="571" 
d="M528 234h-420q5 -90 63.5 -135.5t145.5 -45.5q104 0 174 37l21 -63q-81 -37 -199 -37q-133 0 -205.5 69.5t-72.5 189.5q0 116 77 188.5t194 72.5q114 0 172 -56t58 -149q0 -39 -8 -71zM109 295h358q0 82 -40.5 117.5t-128.5 35.5q-72 0 -126.5 -40.5t-62.5 -112.5z" />
    <glyph glyph-name="afii10072" unicode="&#x436;" horiz-adv-x="859" 
d="M394 500h71v-194h115l72 134q36 68 109 68q27 0 52 -7l-13 -58q-13 3 -26 3q-44 0 -72 -49l-64 -118l191 -279h-83l-165 248h-116v-248h-71v248h-116l-165 -248h-83l191 279l-64 118q-28 49 -73 49q-12 0 -25 -3l-12 58q21 7 51 7q74 0 110 -68l71 -134h115v194z" />
    <glyph glyph-name="afii10073" unicode="&#x437;" horiz-adv-x="508" 
d="M74 412l-23 56q84 42 195 42q84 0 139 -32.5t55 -102.5q0 -64 -54 -94v-6q87 -33 87 -122q0 -73 -59 -118t-181 -45q-125 0 -208 46l27 58q74 -42 180 -42q81 0 124.5 27t43.5 75q0 88 -117 88h-143v59h134q95 0 95 72q0 37 -35.5 57t-99.5 20q-84 0 -160 -38z" />
    <glyph glyph-name="afii10074" unicode="&#x438;" horiz-adv-x="596" 
d="M65 500h71v-254l-3 -156l325 410h73v-500h-71v195l3 210l-323 -405h-75v500z" />
    <glyph glyph-name="afii10075" unicode="&#x439;" horiz-adv-x="596" 
d="M65 500h71v-254l-3 -156l325 410h73v-500h-71v195l3 210l-323 -405h-75v500zM166 650l58 15q15 -55 74 -55t74 55l58 -15q-34 -96 -132 -96t-132 96z" />
    <glyph glyph-name="afii10076" unicode="&#x43a;" horiz-adv-x="554" 
d="M65 500h72v-190h143l74 129q39 69 123 69q24 0 44 -7l-13 -63q-13 4 -33 4q-41 0 -70 -49l-65 -115l184 -278h-85l-160 248h-142v-248h-72v500z" />
    <glyph glyph-name="afii10077" unicode="&#x43b;" horiz-adv-x="612" 
d="M173 500h374v-500h-72v438h-233v-89q0 -122 -12.5 -194.5t-54.5 -117.5t-108 -45q-32 0 -57 11l9 55q13 -3 26 -3q49 0 76 27q31 31 41.5 96.5t10.5 181.5v140z" />
    <glyph glyph-name="afii10078" unicode="&#x43c;" horiz-adv-x="690" 
d="M65 500h85l195 -322l194 322h86v-500h-71v225l3 176h-6l-179 -298h-55l-180 298h-5l3 -148v-253h-70v500z" />
    <glyph glyph-name="afii10079" unicode="&#x43d;" horiz-adv-x="584" 
d="M65 500h72v-208h310v208h72v-500h-72v230h-310v-230h-72v500z" />
    <glyph glyph-name="afii10080" unicode="&#x43e;" horiz-adv-x="624" 
d="M589 250q0 -117 -79 -188.5t-198 -71.5t-198 71.5t-79 188.5t79 188.5t198 71.5t198 -71.5t79 -188.5zM108 250q0 -90 56.5 -145t147.5 -55t147.5 55t56.5 145t-56.5 145t-147.5 55t-147.5 -55t-56.5 -145z" />
    <glyph glyph-name="afii10081" unicode="&#x43f;" horiz-adv-x="577" 
d="M65 500h447v-500h-72v438h-303v-438h-72v500z" />
    <glyph glyph-name="afii10082" unicode="&#x440;" horiz-adv-x="597" 
d="M65 -230v711q106 29 221 29q133 0 204.5 -66t71.5 -190q0 -115 -68 -189.5t-189 -74.5q-53 0 -90.5 11.5t-77.5 43.5v-275h-72zM137 428v-307q74 -66 168 -66q82 0 133 53.5t51 145.5q0 97 -55 146t-151 49q-75 0 -146 -21z" />
    <glyph glyph-name="afii10083" unicode="&#x441;" horiz-adv-x="539" 
d="M492 477l-32 -57q-57 28 -138 28q-101 0 -157.5 -51.5t-56.5 -147.5q0 -87 57 -141t142 -54q96 0 168 36l24 -59q-83 -41 -197 -41q-122 0 -194.5 72.5t-72.5 184.5q0 116 80 189.5t201 73.5q107 0 176 -33z" />
    <glyph glyph-name="afii10084" unicode="&#x442;" horiz-adv-x="510" 
d="M219 438h-184v62h440v-62h-184v-438h-72v438z" />
    <glyph glyph-name="afii10085" unicode="&#x443;" horiz-adv-x="599" 
d="M497 500h82l-224 -585q-23 -59 -64 -88.5t-93 -29.5q-24 0 -43 5l8 61q58 0 85.5 16.5t46.5 62.5l23 58h-77l-210 500h84l175 -438h51z" />
    <glyph glyph-name="afii10086" unicode="&#x444;" horiz-adv-x="806" 
d="M368 720h71v-223q40 13 78 13q115 0 184.5 -68.5t69.5 -191.5q0 -116 -72.5 -188t-181.5 -72q-38 0 -78 13v-233h-71v233q-42 -13 -79 -13q-115 0 -184.5 68.5t-69.5 191.5q0 116 73 188t181 72q37 0 79 -13v223zM439 437v-374q36 -12 73 -12q86 0 136 51.5t50 147.5
t-50 147.5t-136 51.5q-37 0 -73 -12zM368 63v374q-36 12 -74 12q-86 0 -136 -51.5t-50 -147.5t50 -147.5t136 -51.5q38 0 74 12z" />
    <glyph glyph-name="afii10087" unicode="&#x445;" horiz-adv-x="553" 
d="M41 500h83l148 -211h6l149 211h86l-174 -237l189 -263h-86l-164 230h-6l-164 -230h-83l189 260z" />
    <glyph glyph-name="afii10088" unicode="&#x446;" horiz-adv-x="589" 
d="M65 500h72v-438h294v438h72v-438h66l-7 -188h-55l-8 126h-434v500z" />
    <glyph glyph-name="afii10089" unicode="&#x447;" horiz-adv-x="566" 
d="M50 500h72v-146q0 -144 150 -144q84 0 157 51v239h72v-500h-72v197q-76 -50 -166 -50q-101 0 -157 51.5t-56 149.5v152z" />
    <glyph glyph-name="afii10090" unicode="&#x448;" horiz-adv-x="816" 
d="M65 0v500h72v-440h235v440h72v-440h235v440h72v-500h-686z" />
    <glyph glyph-name="afii10091" unicode="&#x449;" horiz-adv-x="837" 
d="M65 500h72v-440h235v440h72v-440h235v440h72v-438h66l-7 -188h-55l-8 126h-682v500z" />
    <glyph glyph-name="afii10092" unicode="&#x44a;" horiz-adv-x="610" 
d="M25 500h193v-183q67 32 148 32q96 0 152.5 -43.5t56.5 -129.5q0 -87 -58 -131.5t-153 -44.5h-218v438l-121 6v56zM218 62h136q149 0 149 114q0 53 -34.5 82t-94.5 29q-92 0 -156 -30v-195z" />
    <glyph glyph-name="afii10093" unicode="&#x44b;" horiz-adv-x="707" 
d="M568 500h74v-500h-74v500zM65 500h72v-183q67 32 148 32q96 0 152.5 -43.5t56.5 -129.5q0 -87 -58 -131.5t-153 -44.5h-218v500zM137 62h136q149 0 149 114q0 53 -34.5 82t-94.5 29q-92 0 -156 -30v-195z" />
    <glyph glyph-name="afii10094" unicode="&#x44c;" horiz-adv-x="529" 
d="M65 500h72v-183q67 32 148 32q96 0 152.5 -43.5t56.5 -129.5q0 -87 -58 -131.5t-153 -44.5h-218v500zM137 62h136q149 0 149 114q0 53 -34.5 82t-94.5 29q-92 0 -156 -30v-195z" />
    <glyph glyph-name="afii10095" unicode="&#x44d;" horiz-adv-x="539" 
d="M159 295h274q-25 153 -196 153q-84 0 -160 -36l-27 56q87 42 194 42q130 0 197.5 -70t67.5 -185q0 -119 -77 -192t-206 -73q-105 0 -186 35l19 64q76 -35 160 -35q96 0 152.5 45.5t63.5 133.5h-276v62z" />
    <glyph glyph-name="afii10096" unicode="&#x44e;" horiz-adv-x="787" 
d="M65 500h71v-210h102q14 102 84 161t172 59q116 0 187 -69.5t71 -190.5q0 -119 -71.5 -189.5t-186.5 -70.5q-110 0 -179.5 63.5t-78.5 174.5h-100v-228h-71v500zM308 250q0 -90 51 -144t135 -54q86 0 136 53t50 145t-50 145t-136 53t-136 -53t-50 -145z" />
    <glyph glyph-name="afii10097" unicode="&#x44f;" horiz-adv-x="553" 
d="M488 0h-72v174q-74 -21 -173 -21l-98 -153h-86l113 167q-116 38 -116 158q0 86 63.5 130.5t160.5 44.5h208v-500zM416 438h-126q-76 0 -119 -28.5t-43 -86.5q0 -52 37 -80t98 -28q84 0 153 19v204z" />
    <glyph glyph-name="afii10071" unicode="&#x451;" horiz-adv-x="571" 
d="M528 234h-420q5 -90 63.5 -135.5t145.5 -45.5q104 0 174 37l21 -63q-81 -37 -199 -37q-133 0 -205.5 69.5t-72.5 189.5q0 116 77 188.5t194 72.5q114 0 172 -56t58 -149q0 -39 -8 -71zM109 295h358q0 82 -40.5 117.5t-128.5 35.5q-72 0 -126.5 -40.5t-62.5 -112.5z
M201 676q23 0 37.5 -13.5t14.5 -36.5q0 -22 -14 -36t-38 -14q-23 0 -37.5 14t-14.5 36q0 23 14.5 36.5t37.5 13.5zM422 676q23 0 37.5 -13.5t14.5 -36.5q0 -22 -14 -36t-38 -14q-23 0 -37.5 14t-14.5 36q0 23 14.5 36.5t37.5 13.5z" />
    <glyph glyph-name="afii10099" unicode="&#x452;" horiz-adv-x="611" 
d="M129 735l22 -3v-117h220l-3 -65l-217 8v-149q70 91 188 91q99 0 153 -56t54 -162v-253q0 -197 -184 -231l-16 61q66 17 97 56.5t31 108.5v259q0 74 -34.5 114.5t-100.5 40.5q-63 0 -107 -27t-81 -84v-327h-72v551l-79 11v29l63 39z" />
    <glyph glyph-name="afii10100" unicode="&#x453;" horiz-adv-x="470" 
d="M65 500h365v-62h-293v-438h-72v500zM238 562l86 170l63 -39l-97 -131h-52z" />
    <glyph glyph-name="afii10101" unicode="&#x454;" horiz-adv-x="539" 
d="M390 295v-62h-282q6 -81 62.5 -130t136.5 -49q96 0 168 36l24 -59q-83 -41 -197 -41q-122 0 -194.5 72.5t-72.5 184.5q0 116 80 189.5t201 73.5q107 0 176 -33l-32 -57q-57 28 -138 28q-88 0 -143 -39t-68 -114h279z" />
    <glyph glyph-name="afii10102" unicode="&#x455;" horiz-adv-x="495" 
d="M428 481l-25 -60q-68 28 -149 28q-138 0 -138 -74q0 -38 34 -54.5t110 -26.5q195 -26 195 -157q0 -74 -61.5 -110.5t-173.5 -36.5q-105 0 -175 30l19 64q72 -31 152 -31q170 0 170 85q0 41 -34.5 61.5t-115.5 29.5q-190 21 -190 142q0 62 53.5 100.5t155.5 38.5
q98 0 173 -29z" />
    <glyph glyph-name="afii10103" unicode="&#x456;" horiz-adv-x="202" 
d="M65 500h72v-500h-72v500zM101 713q26 0 41.5 -16.5t15.5 -40.5q0 -23 -16 -40t-41 -17t-41 17t-16 40q0 24 15.5 40.5t41.5 16.5z" />
    <glyph glyph-name="afii10104" unicode="&#x457;" horiz-adv-x="202" 
d="M65 500h72v-500h-72v500zM-9 676q23 0 37.5 -13.5t14.5 -36.5q0 -22 -14 -36t-38 -14q-23 0 -37.5 14t-14.5 36q0 23 14.5 36.5t37.5 13.5zM212 676q23 0 37.5 -13.5t14.5 -36.5q0 -22 -14 -36t-38 -14q-23 0 -37.5 14t-14.5 36q0 23 14.5 36.5t37.5 13.5z" />
    <glyph glyph-name="afii10105" unicode="&#x458;" horiz-adv-x="203" 
d="M66 500h72v-538q0 -96 -46.5 -150.5t-137.5 -59.5l-7 63q119 12 119 129v556zM102 713q26 0 41.5 -16.5t15.5 -40.5q0 -23 -16 -40t-41 -17t-41 17t-16 40q0 24 15.5 40.5t41.5 16.5z" />
    <glyph glyph-name="afii10106" unicode="&#x459;" horiz-adv-x="899" 
d="M173 500h354v-183q59 32 135 32q91 0 146.5 -44t55.5 -129q0 -87 -58 -131.5t-153 -44.5h-198v438h-213v-89q0 -122 -12.5 -194.5t-54.5 -117.5t-108 -45q-32 0 -57 11l9 55q13 -3 26 -3q49 0 76 27q31 31 41.5 96.5t10.5 181.5v140zM527 62h116q149 0 149 114
q0 53 -33.5 82t-88.5 29q-84 0 -143 -29v-196z" />
    <glyph glyph-name="afii10107" unicode="&#x45a;" horiz-adv-x="871" 
d="M65 500h72v-208h290v208h72v-183q58 32 135 32q91 0 146.5 -44t55.5 -129q0 -87 -58 -131.5t-153 -44.5h-198v230h-290v-230h-72v500zM499 62h116q149 0 149 114q0 53 -33.5 82t-88.5 29q-84 0 -143 -29v-196z" />
    <glyph glyph-name="afii10108" unicode="&#x45b;" horiz-adv-x="611" 
d="M129 735l22 -3v-117h220l-3 -65l-217 8v-149q70 91 188 91q99 0 153 -56t54 -162v-282h-72v283q0 74 -34.5 114.5t-100.5 40.5q-63 0 -107 -27t-81 -84v-327h-72v551l-79 11v29l63 39z" />
    <glyph glyph-name="afii10109" unicode="&#x45c;" horiz-adv-x="554" 
d="M65 500h72v-190h143l74 129q39 69 123 69q24 0 44 -7l-13 -63q-13 4 -33 4q-41 0 -70 -49l-65 -115l184 -278h-85l-160 248h-142v-248h-72v500zM251 562l86 170l63 -39l-97 -131h-52z" />
    <glyph glyph-name="afii10110" unicode="&#x45e;" horiz-adv-x="599" 
d="M497 500h82l-224 -585q-23 -59 -64 -88.5t-93 -29.5q-24 0 -43 5l8 61q58 0 85.5 16.5t46.5 62.5l23 58h-77l-210 500h84l175 -438h51zM168 650l58 15q15 -55 74 -55t74 55l58 -15q-34 -96 -132 -96t-132 96z" />
    <glyph glyph-name="afii10193" unicode="&#x45f;" horiz-adv-x="579" 
d="M65 500h72v-438h305v438h72v-500h-188l-10 -126h-53l-10 126h-188v500z" />
    <glyph glyph-name="afii10050" unicode="&#x490;" horiz-adv-x="500" 
d="M65 650h331l7 103h56l6 -167h-325v-586h-75v650z" />
    <glyph glyph-name="afii10098" unicode="&#x491;" horiz-adv-x="473" 
d="M65 500h299l8 91h55l6 -153h-296v-438h-72v500z" />
    <glyph glyph-name="endash" unicode="&#x2013;" horiz-adv-x="579" 
d="M80 303h419v-64h-419v64z" />
    <glyph glyph-name="emdash" unicode="&#x2014;" horiz-adv-x="832" 
d="M90 303h652v-64h-652v64z" />
    <glyph glyph-name="quoteleft" unicode="&#x2018;" horiz-adv-x="204" 
d="M135 696l29 -33q-33 -13 -48 -29.5t-15 -42.5q24 0 35.5 -13t11.5 -31q0 -20 -12.5 -34t-37.5 -14q-28 0 -43 21.5t-15 55.5q0 37 25 70.5t70 49.5z" />
    <glyph glyph-name="quoteright" unicode="&#x2019;" horiz-adv-x="204" 
d="M69 447l-29 33q33 13 48 29.5t15 42.5q-24 0 -35.5 13t-11.5 31q0 20 12.5 34t37.5 14q28 0 43 -21.5t15 -55.5q0 -37 -25 -70.5t-70 -49.5z" />
    <glyph glyph-name="quotesinglbase" unicode="&#x201a;" horiz-adv-x="204" 
d="M69 -105l-29 33q33 13 48 29.5t15 42.5q-24 0 -35.5 13t-11.5 31q0 20 12.5 34t37.5 14q28 0 43 -21.5t15 -55.5q0 -37 -25 -70.5t-70 -49.5z" />
    <glyph glyph-name="quotedblleft" unicode="&#x201c;" horiz-adv-x="336" 
d="M272 696l29 -33q-33 -13 -48 -29.5t-15 -42.5q24 0 35.5 -13t11.5 -31q0 -20 -12.5 -34t-37.5 -14q-28 0 -43 21.5t-15 55.5q0 37 25 70.5t70 49.5zM130 696l29 -33q-33 -13 -48 -29.5t-15 -42.5q24 0 35.5 -13t11.5 -31q0 -20 -12.5 -34t-37.5 -14q-28 0 -43 21.5
t-15 55.5q0 37 25 70.5t70 49.5z" />
    <glyph glyph-name="quotedblright" unicode="&#x201d;" horiz-adv-x="336" 
d="M64 447l-29 33q33 13 48 29.5t15 42.5q-24 0 -35.5 13t-11.5 31q0 20 12.5 34t37.5 14q28 0 43 -21.5t15 -55.5q0 -37 -25 -70.5t-70 -49.5zM206 447l-29 33q33 13 48 29.5t15 42.5q-24 0 -35.5 13t-11.5 31q0 20 12.5 34t37.5 14q28 0 43 -21.5t15 -55.5
q0 -37 -25 -70.5t-70 -49.5z" />
    <glyph glyph-name="quotedblbase" unicode="&#x201e;" horiz-adv-x="336" 
d="M64 -105l-29 33q33 13 48 29.5t15 42.5q-24 0 -35.5 13t-11.5 31q0 20 12.5 34t37.5 14q28 0 43 -21.5t15 -55.5q0 -37 -25 -70.5t-70 -49.5zM206 -105l-29 33q33 13 48 29.5t15 42.5q-24 0 -35.5 13t-11.5 31q0 20 12.5 34t37.5 14q28 0 43 -21.5t15 -55.5
q0 -37 -25 -70.5t-70 -49.5z" />
    <glyph glyph-name="dagger" unicode="&#x2020;" horiz-adv-x="365" 
d="M148 535l51 13l18 -7v-61l-9 -62l61 11h71v-46l-8 -14h-62l-62 9l8 -67v-230l-11 -94l-36 -15l-19 9v329l7 68l-60 -9h-72v42l7 18h63l62 -11l-9 62v55z" />
    <glyph glyph-name="daggerdbl" unicode="&#x2021;" horiz-adv-x="365" 
d="M148 535l51 13l18 -7v-61l-9 -62l61 11h71v-46l-8 -14h-62l-62 9l8 -64l-9 -60l62 10h66v-46l-8 -14h-57l-62 9l8 -66v-66l-11 -94l-40 -15l-15 9v166l7 66l-61 -9h-71v43l7 17h63l62 -10l-7 62l7 62l-60 -9h-67v42l8 18h57l62 -11l-9 61v56z" />
    <glyph glyph-name="bullet" unicode="&#x2022;" horiz-adv-x="255" 
d="M196 311q0 -29 -19 -48.5t-49 -19.5t-49 19.5t-19 48.5t19 48.5t49 19.5t49 -19.5t19 -48.5z" />
    <glyph glyph-name="onedotenleader" unicode="&#x2024;" horiz-adv-x="218" 
d="M109 108q27 0 43 -16.5t16 -41.5t-16 -41.5t-43 -16.5t-43 16.5t-16 41.5t16 41.5t43 16.5z" />
    <glyph glyph-name="twodotenleader" unicode="&#x2025;" horiz-adv-x="412" 
d="M109 108q27 0 43 -16.5t16 -41.5t-16 -41.5t-43 -16.5t-43 16.5t-16 41.5t16 41.5t43 16.5zM303 108q27 0 43 -16.5t16 -41.5t-16 -41.5t-43 -16.5t-43 16.5t-16 41.5t16 41.5t43 16.5z" />
    <glyph glyph-name="ellipsis" unicode="&#x2026;" horiz-adv-x="600" 
d="M109 108q27 0 43 -16.5t16 -41.5t-16 -41.5t-43 -16.5t-43 16.5t-16 41.5t16 41.5t43 16.5zM300 108q27 0 43 -16.5t16 -41.5t-16 -41.5t-43 -16.5t-43 16.5t-16 41.5t16 41.5t43 16.5zM491 108q27 0 43 -16.5t16 -41.5t-16 -41.5t-43 -16.5t-43 16.5t-16 41.5t16 41.5
t43 16.5z" />
    <glyph glyph-name="perthousand" unicode="&#x2030;" horiz-adv-x="1040" 
d="M506 511l47 -32l-348 -497l-48 31zM176 236q-62 0 -104 39.5t-42 97.5t42 97.5t104 39.5t104 -39.5t42 -97.5t-42 -97.5t-104 -39.5zM176 291q39 0 62.5 22.5t23.5 59.5t-23.5 59.5t-62.5 22.5t-62.5 -22.5t-23.5 -59.5t23.5 -59.5t62.5 -22.5zM546 -10q-62 0 -104 39.5
t-42 97.5t42 97.5t104 39.5t104 -39.5t42 -97.5t-42 -97.5t-104 -39.5zM546 45q39 0 62.5 22.5t23.5 59.5t-23.5 59.5t-62.5 22.5t-62.5 -22.5t-23.5 -59.5t23.5 -59.5t62.5 -22.5zM864 -10q-62 0 -104 39.5t-42 97.5t42 97.5t104 39.5t104 -39.5t42 -97.5t-42 -97.5
t-104 -39.5zM864 45q39 0 62.5 22.5t23.5 59.5t-23.5 59.5t-62.5 22.5t-62.5 -22.5t-23.5 -59.5t23.5 -59.5t62.5 -22.5z" />
    <glyph glyph-name="guilsinglleft" unicode="&#x2039;" horiz-adv-x="314" 
d="M249 440l30 -48l-156 -136l156 -140l-30 -50l-209 171v33z" />
    <glyph glyph-name="guilsinglright" unicode="&#x203a;" horiz-adv-x="314" 
d="M70 440l209 -171v-33l-209 -170l-30 48l156 136l-156 140z" />
    <glyph glyph-name="exclamdbl" unicode="&#x203c;" horiz-adv-x="405" 
d="M65 679h79l-10 -509h-59zM104 108q27 0 43 -16.5t16 -41.5t-16 -41.5t-43 -16.5t-43 16.5t-16 41.5t16 41.5t43 16.5zM262 679h79l-10 -509h-59zM301 108q27 0 43 -16.5t16 -41.5t-16 -41.5t-43 -16.5t-43 16.5t-16 41.5t16 41.5t43 16.5z" />
    <glyph glyph-name="fraction" unicode="&#x2044;" horiz-adv-x="293" 
d="M300 654l54 -27l-361 -650l-50 28z" />
    <glyph glyph-name="zerosuperior" unicode="&#x2070;" horiz-adv-x="441" 
d="M93 559q0 -60 34 -96t93 -36q58 0 91 35.5t33 96.5t-33.5 97.5t-90.5 36.5q-58 0 -92.5 -37t-34.5 -97zM411 559q0 -79 -51.5 -136t-139.5 -57q-89 0 -139.5 56.5t-50.5 136.5t51.5 138t138.5 58q86 0 138.5 -58.5t52.5 -137.5z" />
    <glyph glyph-name="foursuperior" unicode="&#x2074;" horiz-adv-x="377" 
d="M255 750l52 -5v-245h40v-61h-40v-64h-63v64h-216l-8 49zM244 653l-138 -153h138v153z" />
    <glyph glyph-name="fivesuperior" unicode="&#x2075;" horiz-adv-x="340" 
d="M54 745h232v-61h-177l-3 -79q31 10 69 10q58 0 96.5 -31.5t38.5 -88.5q0 -62 -42.5 -95.5t-107.5 -33.5q-89 0 -140 38l31 51q48 -33 105 -33q45 0 70 19t25 54q0 65 -88 65q-45 0 -90 -14l-26 6z" />
    <glyph glyph-name="sixsuperior" unicode="&#x2076;" horiz-adv-x="361" 
d="M92 535q2 -49 24 -79.5t64 -30.5q87 0 87 68q0 69 -75 69q-56 0 -100 -27zM286 754l4 -57q-92 -1 -138.5 -26.5t-58.5 -88.5q42 38 108 38q55 0 92.5 -32t37.5 -95t-42 -95t-109 -32q-72 0 -111 50t-39 133q0 202 256 205z" />
    <glyph glyph-name="sevensuperior" unicode="&#x2077;" horiz-adv-x="322" 
d="M25 745h274v-45l-166 -325h-69l162 312h-201v58z" />
    <glyph glyph-name="eightsuperior" unicode="&#x2078;" horiz-adv-x="380" 
d="M157 555q-59 -8 -59 -67q0 -65 92 -65q40 0 66.5 16.5t26.5 47.5q0 22 -10.5 36t-32 20.5t-38.5 8.5t-45 3zM218 605q41 11 41 48q0 45 -68 45q-30 0 -49 -11t-19 -33q0 -47 95 -49zM90 583q-30 23 -30 70q0 49 38 74.5t93 25.5q54 0 92 -25.5t38 -72.5q0 -41 -37 -68
q35 -18 49 -40.5t14 -55.5q0 -63 -44 -94t-113 -31q-72 0 -114.5 31t-42.5 92q0 62 57 94z" />
    <glyph glyph-name="ninesuperior" unicode="&#x2079;" horiz-adv-x="362" 
d="M270 585q0 51 -22 81t-64 30q-86 0 -86 -68q0 -35 21.5 -53t59.5 -18q48 0 91 28zM80 366l-5 58q175 6 195 109q-47 -32 -99 -32q-56 0 -96 32.5t-40 93.5t42.5 94t106.5 33q73 0 111.5 -49t38.5 -132q0 -101 -65.5 -153t-188.5 -54z" />
    <glyph glyph-name="parenleftsuperior" unicode="&#x207d;" horiz-adv-x="157" 
d="M96 791l44 -22q-45 -89 -45 -207q0 -108 47 -202l-47 -22q-60 98 -60 224q0 130 61 229z" />
    <glyph glyph-name="parenrightsuperior" unicode="&#x207e;" horiz-adv-x="157" 
d="M15 767l46 24q61 -99 61 -228q0 -128 -61 -226l-45 23q45 84 45 203q0 115 -46 204z" />
    <glyph glyph-name="zeroinferior" unicode="&#x2080;" horiz-adv-x="441" 
d="M93 114q0 -60 34 -96t93 -36q58 0 91 35.5t33 96.5t-33.5 97.5t-90.5 36.5q-58 0 -92.5 -37t-34.5 -97zM411 114q0 -79 -51.5 -136t-139.5 -57q-89 0 -139.5 56.5t-50.5 136.5t51.5 138t138.5 58q86 0 138.5 -58.5t52.5 -137.5z" />
    <glyph glyph-name="oneinferior" unicode="&#x2081;" horiz-adv-x="222" 
d="M20 239l118 64l34 -4v-369h-63v287l-75 -19z" />
    <glyph glyph-name="twoinferior" unicode="&#x2082;" horiz-adv-x="331" 
d="M295 -9v-61h-265v62l159 116q49 35 49 80q0 59 -77 59q-54 0 -101 -43l-35 48q63 57 141 57q61 0 98 -33t37 -87q0 -71 -54 -111l-122 -87h170z" />
    <glyph glyph-name="threeinferior" unicode="&#x2083;" horiz-adv-x="350" 
d="M262 137q54 -29 54 -90t-44 -93.5t-110 -32.5q-82 0 -137 40l25 50q48 -33 108 -33q43 0 71 17t28 50q0 30 -17 44t-60 14h-78v54h69q33 0 49 10t16 36q0 49 -72 49q-51 0 -94 -29l-31 43q55 43 131 43q48 0 86.5 -26t38.5 -72q0 -52 -33 -74z" />
    <glyph glyph-name="fourinferior" unicode="&#x2084;" horiz-adv-x="377" 
d="M255 305l52 -5v-245h40v-61h-40v-64h-63v64h-216l-8 49zM244 208l-138 -153h138v153z" />
    <glyph glyph-name="fiveinferior" unicode="&#x2085;" horiz-adv-x="340" 
d="M54 300h232v-61h-177l-3 -79q31 10 69 10q58 0 96.5 -31.5t38.5 -88.5q0 -62 -42.5 -95.5t-107.5 -33.5q-89 0 -140 38l31 51q48 -33 105 -33q45 0 70 19t25 54q0 65 -88 65q-45 0 -90 -14l-26 6z" />
    <glyph glyph-name="sixinferior" unicode="&#x2086;" horiz-adv-x="361" 
d="M92 90q2 -49 24 -79.5t64 -30.5q87 0 87 68q0 69 -75 69q-56 0 -100 -27zM286 309l4 -57q-92 -1 -138.5 -26.5t-58.5 -88.5q42 38 108 38q55 0 92.5 -32t37.5 -95t-42 -95t-109 -32q-72 0 -111 50t-39 133q0 202 256 205z" />
    <glyph glyph-name="seveninferior" unicode="&#x2087;" horiz-adv-x="322" 
d="M25 300h274v-45l-166 -325h-69l162 312h-201v58z" />
    <glyph glyph-name="eightinferior" unicode="&#x2088;" horiz-adv-x="380" 
d="M157 110q-59 -8 -59 -67q0 -65 92 -65q40 0 66.5 16.5t26.5 47.5q0 22 -10.5 36t-32 20.5t-38.5 8.5t-45 3zM218 160q41 11 41 48q0 45 -68 45q-30 0 -49 -11t-19 -33q0 -47 95 -49zM90 138q-30 22 -30 70q0 49 38 74.5t93 25.5q54 0 92 -25.5t38 -72.5q0 -41 -37 -68
q35 -18 49 -40.5t14 -55.5q0 -63 -44 -94t-113 -31q-72 0 -114.5 31t-42.5 92q0 62 57 94z" />
    <glyph glyph-name="nineinferior" unicode="&#x2089;" horiz-adv-x="362" 
d="M270 140q0 51 -22 81t-64 30q-86 0 -86 -68q0 -35 21.5 -53t59.5 -18q48 0 91 28zM80 -79l-5 58q175 6 195 109q-47 -32 -99 -32q-56 0 -96 32.5t-40 93.5t42.5 94t106.5 33q73 0 111.5 -49t38.5 -132q0 -101 -65.5 -153t-188.5 -54z" />
    <glyph glyph-name="parenleftinferior" unicode="&#x208d;" horiz-adv-x="157" 
d="M96 346l44 -22q-45 -89 -45 -207q0 -108 47 -202l-47 -22q-60 98 -60 224q0 130 61 229z" />
    <glyph glyph-name="parenrightinferior" unicode="&#x208e;" horiz-adv-x="157" 
d="M15 322l46 24q61 -99 61 -228q0 -128 -61 -226l-45 23q45 84 45 203q0 115 -46 204z" />
    <glyph glyph-name="Euro" unicode="&#x20ac;" horiz-adv-x="652" 
d="M29 284h414l-4 -60h-282q23 -86 87 -127.5t155 -41.5q107 0 192 53l26 -62q-86 -59 -227 -59q-111 0 -197.5 60.5t-111.5 176.5h-56zM38 392h50q30 100 116.5 158t195.5 58q118 0 206 -61l-32 -59q-77 57 -174 57q-88 0 -150 -39t-90 -114h288l-4 -59h-410z" />
    <glyph glyph-name="afii61352" unicode="&#x2116;" horiz-adv-x="1024" 
d="M745 193h234v-57h-234v57zM999 389q0 -57 -38.5 -94t-98.5 -37t-98.5 37t-38.5 94t38.5 94t98.5 37t98.5 -37t38.5 -94zM783 389q0 -35 21 -56t58 -21t58 21t21 56t-21 56t-58 21t-58 -21t-21 -56zM65 650h80l450 -561l-4 199v362h71v-650h-83l-450 565l7 -230v-335h-71
v650z" />
    <glyph glyph-name="trademark" unicode="&#x2122;" horiz-adv-x="618" 
d="M30 650h213v-41h-84v-216h-45v216h-84v41zM289 650h52l93 -129l93 129h51v-257h-45v197l-89 -126h-22l-91 126v-197h-42v257z" />
    <glyph glyph-name="Omega" unicode="&#x2126;" horiz-adv-x="764" 
d="M458 0v60q93 46 139.5 117t46.5 156q0 120 -76 193t-186 73t-186 -73t-76 -193q0 -85 46.5 -156t139.5 -117v-60h-248v62h131q-72 48 -108 120t-36 151q0 143 95 236.5t242 93.5t242 -93.5t95 -236.5q0 -79 -36 -151t-108 -120h131v-62h-248z" />
    <glyph glyph-name="estimated" unicode="&#x212e;" horiz-adv-x="627" 
d="M575 242h-441q4 -104 52 -169q60 -36 150 -36q107 0 206 59l21 -49q-90 -57 -233 -57q-134 0 -212 70t-78 189q0 115 82 188t201 73q118 0 189.5 -58t71.5 -149q0 -39 -9 -61zM134 284h361q-2 90 -36 153q-56 32 -146 32q-77 0 -125 -35q-48 -60 -54 -150z" />
    <glyph glyph-name="arrowleft" unicode="&#x2190;" horiz-adv-x="747" 
d="M702 307v-64h-542l93 -92l-48 -32l-160 147v16l160 149l48 -32l-93 -92h542z" />
    <glyph glyph-name="arrowup" unicode="&#x2191;" horiz-adv-x="417" 
d="M243 0h-69v535l-92 -93l-32 48l149 160h21l147 -160l-32 -48l-92 93v-535z" />
    <glyph glyph-name="arrowright" unicode="&#x2192;" horiz-adv-x="747" 
d="M45 243v64h542l-93 92l48 32l160 -149v-16l-160 -147l-48 32l93 92h-542z" />
    <glyph glyph-name="arrowdown" unicode="&#x2193;" horiz-adv-x="417" 
d="M174 650h69v-558l92 93l32 -48l-149 -160h-21l-147 160l32 48l92 -93v558z" />
    <glyph glyph-name="partialdiff" unicode="&#x2202;" horiz-adv-x="621" 
d="M146 628l17 65q63 -2 119 -12t112.5 -33t97 -57.5t66 -91.5t25.5 -129q0 -199 -104 -300q-82 -80 -216 -80q-99 0 -161 59t-62 158q0 108 75 180t195 72q69 0 120.5 -24t75.5 -67h8q-5 256 -368 260zM273 53q90 0 152 55.5t62 138.5q0 67 -48 108t-128 41q-90 0 -143 -50
t-53 -138q0 -71 41 -113t117 -42z" />
    <glyph glyph-name="Delta" unicode="&#x2206;" horiz-adv-x="641" 
d="M282 650h89l235 -608v-42h-571v42zM318 571l-197 -506h399l-192 506h-10z" />
    <glyph glyph-name="product" unicode="&#x220f;" horiz-adv-x="510" 
d="M65 664h380v-724h-74v661h-231v-661h-75v724z" />
    <glyph glyph-name="summation" unicode="&#x2211;" horiz-adv-x="535" 
d="M65 650h410v-64h-313l230 -223v-33l-254 -264h352v-66h-435v73l256 274l-246 241v62z" />
    <glyph glyph-name="minus" unicode="&#x2212;" horiz-adv-x="372" 
d="M40 363h292v-64h-292v64z" />
    <glyph glyph-name="radical" unicode="&#x221a;" horiz-adv-x="472" 
d="M15 500h80l125 -425h13l145 665h164l-8 -62h-93l-154 -678h-120z" />
    <glyph glyph-name="infinity" unicode="&#x221e;" horiz-adv-x="619" 
d="M276 322q-45 88 -107 88q-85 0 -85 -86q0 -37 21 -60t54 -23q38 0 65 18.5t52 62.5zM304 272q-59 -88 -145 -88q-60 0 -97 39t-37 100q0 68 40.5 106t94.5 38q49 0 83 -22t68 -73q61 95 149 95q61 0 97.5 -39t36.5 -101q0 -68 -40.5 -105.5t-94.5 -37.5q-89 0 -155 88z
M343 326q22 -44 46.5 -64.5t60.5 -20.5q39 0 62.5 21.5t23.5 63.5q0 39 -20.5 61.5t-56.5 22.5q-68 0 -116 -84z" />
    <glyph glyph-name="integral" unicode="&#x222b;" horiz-adv-x="203" 
d="M238 751l7 -65q-60 -5 -83.5 -29t-23.5 -85v-523q0 -95 -42 -141t-132 -51l-7 65q61 5 84.5 29.5t23.5 85.5v522q0 96 41.5 141.5t131.5 50.5z" />
    <glyph glyph-name="approxequal" unicode="&#x2248;" horiz-adv-x="414" 
d="M61 232l-21 51q42 42 104 42q39 0 69 -20q32 -20 63 -20q40 0 68 25l30 -41q-43 -50 -97 -50q-36 0 -73 22q-33 20 -66 20q-47 0 -77 -29zM61 370l-21 50q42 43 104 43q37 0 69 -21q31 -19 63 -19q40 0 68 24l30 -41q-42 -49 -97 -49q-40 0 -73 21q-34 21 -66 21
q-47 0 -77 -29z" />
    <glyph glyph-name="notequal" unicode="&#x2260;" horiz-adv-x="370" 
d="M118 172l15 59h-93v64h110l20 75h-130v64h146l19 70l54 -14l-15 -56h86v-64h-103l-19 -75h122v-64h-139l-19 -73z" />
    <glyph glyph-name="lessequal" unicode="&#x2264;" horiz-adv-x="321" 
d="M236 521l42 -39l-160 -130l168 -115l-45 -42l-204 136v33zM51 258l191 -128l-43 -41l-164 112z" />
    <glyph glyph-name="greaterequal" unicode="&#x2265;" horiz-adv-x="321" 
d="M85 521l199 -157v-33l-204 -136l-45 42l168 115l-160 130zM270 258l16 -57l-164 -112l-43 41z" />
    <glyph glyph-name="triagup" unicode="&#x25b2;" horiz-adv-x="666" 
d="M65 166l268 243l268 -242v-14h-536v13z" />
    <glyph glyph-name="triagrt" unicode="&#x25ba;" horiz-adv-x="360" 
d="M76 506l244 -257l-243 -257h-12v514h11z" />
    <glyph glyph-name="triagdn" unicode="&#x25bc;" horiz-adv-x="666" 
d="M601 344l-268 -243l-268 242v14h536v-13z" />
    <glyph glyph-name="triaglf" unicode="&#x25c4;" horiz-adv-x="360" 
d="M284 -8l-244 257l243 257h12v-514h-11z" />
    <glyph glyph-name="lozenge" unicode="&#x25ca;" horiz-adv-x="556" 
d="M320 -114h-85l-195 386v41l196 377h85l195 -377v-41zM269 606l-161 -312l161 -323h18l159 320l-159 315h-18z" />
    <glyph glyph-name="Acute" horiz-adv-x="264" 
d="M64 706l84 171l63 -38l-91 -133h-56z" />
    <glyph glyph-name="Breve" horiz-adv-x="382" 
d="M41 809l48 20q30 -58 101 -58t104 58l47 -20q-38 -99 -151 -99q-52 0 -92 27t-57 72z" />
    <glyph glyph-name="Caron" horiz-adv-x="360" 
d="M54 868l126 -81l126 81l18 -43l-136 -113h-15l-137 113z" />
    <glyph glyph-name="Cedilla" horiz-adv-x="269" 
d="M80 0l62 4l-7 -54q36 0 58.5 -23t22.5 -56q0 -50 -43.5 -86.5t-101.5 -46.5l-10 54q44 8 69 28t25 49q0 36 -43 36h-36z" />
    <glyph glyph-name="Circumflex" horiz-adv-x="360" 
d="M180 783l-126 -81l-18 43l137 113h15l136 -113l-18 -43z" />
    <glyph glyph-name="Dieresis" horiz-adv-x="453" 
d="M116 822q24 0 39 -14t15 -38q0 -23 -15 -37t-39 -14q-23 0 -37.5 14.5t-14.5 36.5q0 24 14.5 38t37.5 14zM336 822q22 0 37.5 -14.5t15.5 -37.5q0 -22 -15.5 -36.5t-37.5 -14.5t-38 14.5t-16 36.5q0 23 15.5 37.5t38.5 14.5z" />
    <glyph glyph-name="Dotaccent" horiz-adv-x="230" 
d="M116 109q27 0 44 -17.5t17 -42.5t-16.5 -40.5t-44.5 -15.5q-26 0 -42.5 15.5t-16.5 40.5t16.5 42.5t42.5 17.5z" />
    <glyph glyph-name="Euro.taboldstyle" 
d="M44 173v57h381v-57h-251q25 -58 75 -89.5t114 -31.5q86 0 165 41l24 -59q-87 -44 -195 -44q-93 0 -161.5 51t-96.5 132h-55zM44 271v57h56q28 83 102 132.5t169 49.5q96 0 169 -39l-25 -52q-62 31 -137 31q-154 0 -207 -122h254v-57h-381z" />
    <glyph glyph-name="Grave" horiz-adv-x="264" 
d="M117 877l84 -171h-56l-91 133z" />
    <glyph glyph-name="Hungarumlaut" horiz-adv-x="375" 
d="M67 706l48 174l66 -25l-64 -149h-50zM166 706l77 164l62 -39l-87 -125h-52z" />
    <glyph glyph-name="Imacron" horiz-adv-x="205" 
d="M65 650h75v-650h-75v650zM-53 790h311v-63h-311v63z" />
    <glyph glyph-name="Macron" horiz-adv-x="421" 
d="M55 787h311v-63h-311v63z" />
    <glyph glyph-name="Ogonek" horiz-adv-x="218" 
d="M108 5l44 -5q-48 -29 -48 -76q0 -49 58 -49q14 0 25 3l-13 -49q-14 -6 -38 -6q-40 0 -66.5 22.5t-26.5 60.5q0 34 17.5 61t47.5 38z" />
    <glyph glyph-name="Ring" horiz-adv-x="330" 
d="M165 682q-47 0 -80.5 30.5t-33.5 75.5t33.5 75.5t80.5 30.5t80.5 -30.5t33.5 -75.5t-33.5 -75.5t-80.5 -30.5zM226 788q0 25 -17 41.5t-44 16.5t-44 -16.5t-17 -41.5t17 -41.5t44 -16.5t44 16.5t17 41.5z" />
    <glyph glyph-name="Tilde" horiz-adv-x="422" 
d="M61 716l-21 48q46 41 106 41q38 0 74 -20q35 -19 69 -19q41 0 67 25l31 -36q-40 -49 -97 -49q-40 0 -78 21q-37 20 -70 20q-43 0 -81 -31z" />
    <glyph glyph-name="a.sc" horiz-adv-x="631" 
d="M270 560h92l244 -560h-75l-73 167h-287l-72 -167h-74zM309 495l-113 -265h237l-111 265h-13z" />
    <glyph glyph-name="aacute.sc" horiz-adv-x="631" 
d="M270 560h92l244 -560h-75l-73 167h-287l-72 -167h-74zM309 495l-113 -265h237l-111 265h-13zM300 626l84 171l63 -38l-91 -133h-56z" />
    <glyph glyph-name="abreve.sc" horiz-adv-x="631" 
d="M270 560h92l244 -560h-75l-73 167h-287l-72 -167h-74zM309 495l-113 -265h237l-111 265h-13zM171 729l48 20q30 -58 101 -58t104 58l47 -20q-38 -99 -151 -99q-52 0 -92 27t-57 72z" />
    <glyph glyph-name="acircumflex.sc" horiz-adv-x="631" 
d="M270 560h92l244 -560h-75l-73 167h-287l-72 -167h-74zM309 495l-113 -265h237l-111 265h-13zM315 683l-126 -81l-18 43l137 113h15l136 -113l-18 -43z" />
    <glyph glyph-name="adieresis.sc" horiz-adv-x="631" 
d="M270 560h92l244 -560h-75l-73 167h-287l-72 -167h-74zM309 495l-113 -265h237l-111 265h-13zM205 742q24 0 39 -14t15 -38q0 -23 -15 -37t-39 -14q-23 0 -37.5 14.5t-14.5 36.5q0 24 14.5 38t37.5 14zM425 742q22 0 37.5 -14.5t15.5 -37.5q0 -22 -15.5 -36.5t-37.5 -14.5
t-38 14.5t-16 36.5q0 23 15.5 37.5t38.5 14.5z" />
    <glyph glyph-name="ae.sc" horiz-adv-x="875" 
d="M367 560h447v-63h-285v-171h260v-62h-260v-201h306v-63h-377v112h-291l-70 -112h-87zM403 497l-204 -322h259v322h-55z" />
    <glyph glyph-name="afii10055" horiz-adv-x="205" 
d="M65 650h75v-650h-75v650z" />
    <glyph glyph-name="afii10065.sc" horiz-adv-x="631" 
d="M270 560h92l244 -560h-75l-73 167h-287l-72 -167h-74zM309 495l-113 -265h237l-111 265h-13z" />
    <glyph glyph-name="afii10066.sc" horiz-adv-x="516" 
d="M65 560h360v-62h-287v-150h125q100 0 159 -46t59 -129q0 -81 -59.5 -127t-155.5 -46h-201v560zM138 286v-224h117q82 0 117.5 27t35.5 84q0 113 -156 113h-114z" />
    <glyph glyph-name="afii10067.sc" horiz-adv-x="517" 
d="M65 560h212q72 0 120.5 -38.5t48.5 -106.5q0 -32 -17 -62.5t-47 -46.5v-5q45 -18 70 -55.5t25 -85.5q0 -73 -53.5 -116.5t-128.5 -43.5h-230v560zM137 263v-202h134q66 0 99.5 22t33.5 78q0 102 -115 102h-152zM137 500v-179h128q108 0 108 89q0 90 -118 90h-118z" />
    <glyph glyph-name="afii10068.sc" horiz-adv-x="451" 
d="M65 560h351v-63h-277v-497h-74v560z" />
    <glyph glyph-name="afii10069.sc" horiz-adv-x="679" 
d="M186 560h390v-497h63l-7 -199h-55l-9 136h-451l-14 -136h-56v199q70 32 103 104q36 79 36 218v175zM256 497v-112q0 -119 -26 -201q-25 -78 -75 -121h348v434h-247z" />
    <glyph glyph-name="afii10070.sc" horiz-adv-x="488" 
d="M65 0v560h371v-63h-298v-173h272v-62h-272v-199h310v-63h-383z" />
    <glyph glyph-name="afii10071.sc" horiz-adv-x="488" 
d="M65 0v560h371v-63h-298v-173h272v-62h-272v-199h310v-63h-383zM144 742q24 0 39 -14t15 -38q0 -23 -15 -37t-39 -14q-23 0 -37.5 14.5t-14.5 36.5q0 24 14.5 38t37.5 14zM364 742q22 0 37.5 -14.5t15.5 -37.5q0 -22 -15.5 -36.5t-37.5 -14.5t-38 14.5t-16 36.5
q0 23 15.5 37.5t38.5 14.5z" />
    <glyph glyph-name="afii10072.sc" horiz-adv-x="849" 
d="M389 560h72v-213h97l87 153q39 68 112 68q26 0 53 -8l-13 -60q-14 2 -21 2q-28 0 -45.5 -9.5t-32.5 -35.5l-82 -140l208 -317h-83l-185 285h-95v-285h-72v285h-95l-185 -285h-84l209 317l-84 140q-17 28 -31.5 36.5t-42.5 8.5q-10 0 -24 -2l-13 60q29 8 56 8
q70 0 109 -68l88 -153h97v213z" />
    <glyph glyph-name="afii10073.sc" horiz-adv-x="518" 
d="M167 330h95q52 0 79.5 24t27.5 67q0 39 -30.5 63.5t-93.5 24.5q-80 0 -144 -43l-31 49q72 55 177 55q91 0 143 -39.5t52 -105.5q0 -83 -78 -117v-4q49 -15 77.5 -51.5t28.5 -84.5q0 -82 -60 -130t-163 -48q-69 0 -113.5 12.5t-88.5 41.5l26 58q80 -48 169 -48
q156 0 156 112q0 102 -123 102h-106v62z" />
    <glyph glyph-name="afii10074.sc" horiz-adv-x="634" 
d="M65 560h73v-450l364 450h67v-560h-73v448l-364 -448h-67v560z" />
    <glyph glyph-name="afii10075.sc" horiz-adv-x="634" 
d="M65 560h73v-450l364 450h67v-560h-73v448l-364 -448h-67v560zM167 729l48 20q30 -58 101 -58t104 58l47 -20q-38 -99 -151 -99q-52 0 -92 27t-57 72z" />
    <glyph glyph-name="afii10076.sc" horiz-adv-x="566" 
d="M65 560h74v-211h119l101 151q46 68 119 68q29 0 50 -5l-13 -60q-7 1 -27 1q-45 0 -75 -44l-96 -140l229 -320h-85l-203 287h-119v-287h-74v560z" />
    <glyph glyph-name="afii10077.sc" horiz-adv-x="660" 
d="M197 560h398v-560h-73v497h-254v-125q0 -181 -54 -291q-22 -44 -59 -66.5t-80 -22.5q-41 0 -62 8l12 63q16 -4 40 -4q63 0 88 53q44 93 44 296v152z" />
    <glyph glyph-name="afii10078.sc" horiz-adv-x="700" 
d="M65 560h91l194 -272l195 272h90v-560h-70v468h-5l-199 -274h-24l-197 274h-5v-468h-70v560z" />
    <glyph glyph-name="afii10079.sc" horiz-adv-x="617" 
d="M65 560h74v-236h339v236h74v-560h-74v261h-339v-261h-74v560z" />
    <glyph glyph-name="afii10080.sc" horiz-adv-x="678" 
d="M638 280q0 -128 -84.5 -209t-214.5 -81t-214.5 81t-84.5 209t84.5 209t214.5 81t214.5 -81t84.5 -209zM114 280q0 -109 64.5 -167.5t160.5 -58.5t160.5 58.5t64.5 167.5t-64.5 167.5t-160.5 58.5t-160.5 -58.5t-64.5 -167.5z" />
    <glyph glyph-name="afii10081.sc" horiz-adv-x="619" 
d="M65 560h489v-560h-74v497h-341v-497h-74v560z" />
    <glyph glyph-name="afii10082.sc" horiz-adv-x="523" 
d="M65 560h222q90 0 145.5 -48t55.5 -125q0 -84 -57.5 -130.5t-149.5 -46.5h-142v-210h-74v560zM139 497v-224h134q141 0 141 114q0 56 -35.5 83t-113.5 27h-126z" />
    <glyph glyph-name="afii10083.sc" horiz-adv-x="570" 
d="M534 513l-32 -56q-61 48 -165 48q-106 0 -164.5 -61.5t-58.5 -162.5q0 -105 63 -165t163 -60q98 0 175 46l20 -61q-83 -51 -204 -51q-57 0 -108.5 17.5t-92.5 52t-65.5 91.5t-24.5 130q0 128 87 208.5t214 80.5q113 0 193 -57z" />
    <glyph glyph-name="afii10084.sc" horiz-adv-x="498" 
d="M35 560h428v-63h-177v-497h-74v497h-177v63z" />
    <glyph glyph-name="afii10085.sc" horiz-adv-x="607" 
d="M20 560h82l216 -457h10l182 457h77l-221 -536q-33 -80 -71 -117.5t-94 -37.5q-38 0 -66 16l10 61q24 -9 46 -9q36 0 58.5 15.5t37.5 57.5z" />
    <glyph glyph-name="afii10086.sc" horiz-adv-x="777" 
d="M353 570h72v-74q46 10 88 10q102 0 163 -63t61 -157q0 -95 -61 -158t-163 -63q-38 0 -88 15v-80h-72v80q-52 -15 -90 -15q-101 0 -162 62.5t-61 158.5q0 94 61 157t162 63q36 0 90 -9v73zM353 136v302q-45 9 -91 9q-70 0 -109.5 -42.5t-39.5 -118.5q0 -75 41.5 -117.5
t107.5 -42.5q50 0 91 10zM425 438v-302q40 -10 90 -10q68 0 108.5 42.5t40.5 117.5q0 76 -38.5 118.5t-110.5 42.5q-55 0 -90 -9z" />
    <glyph glyph-name="afii10087.sc" horiz-adv-x="612" 
d="M45 560h90l170 -233l171 233h87l-203 -270l222 -290h-92l-186 253l-186 -253h-88l220 291z" />
    <glyph glyph-name="afii10088.sc" horiz-adv-x="626" 
d="M65 0v560h74v-497h324v497h74v-497h59l-7 -199h-55l-9 136h-460z" />
    <glyph glyph-name="afii10089.sc" horiz-adv-x="561" 
d="M496 0h-74v182q-86 -14 -140 -14q-106 0 -174 58t-68 186v148h74v-147q0 -95 45 -138.5t158 -43.5q48 0 105 12v317h74v-560z" />
    <glyph glyph-name="afii10090.sc" horiz-adv-x="849" 
d="M65 560h73v-497h250v497h73v-497h250v497h73v-560h-719v560z" />
    <glyph glyph-name="afii10091.sc" horiz-adv-x="873" 
d="M65 560h73v-497h250v497h73v-497h250v497h73v-497h59l-7 -199h-55l-9 136h-707v560z" />
    <glyph glyph-name="afii10092.sc" horiz-adv-x="614" 
d="M25 560h189v-214h170q78 0 134 -46.5t56 -126.5q0 -77 -58 -125t-134 -48h-242v497l-115 5v58zM214 283v-220h147q139 0 139 111q0 62 -38 85.5t-103 23.5h-145z" />
    <glyph glyph-name="afii10093.sc" horiz-adv-x="718" 
d="M579 0v560h74v-560h-74zM65 560h74v-214h170q78 0 134 -46.5t56 -126.5q0 -77 -58 -125t-134 -48h-242v560zM139 283v-220h147q139 0 139 111q0 62 -38 85.5t-103 23.5h-145z" />
    <glyph glyph-name="afii10094.sc" horiz-adv-x="539" 
d="M65 560h74v-214h170q78 0 134 -46.5t56 -126.5q0 -77 -58 -125t-134 -48h-242v560zM139 283v-220h147q139 0 139 111q0 62 -38 85.5t-103 23.5h-145z" />
    <glyph glyph-name="afii10095.sc" horiz-adv-x="575" 
d="M158 321h303q-10 88 -68 137.5t-155 49.5t-168 -46l-29 51q79 57 193 57q139 0 220.5 -77t81.5 -211q0 -137 -83.5 -214.5t-206.5 -77.5q-71 0 -117 10.5t-94 39.5l20 62q79 -49 183 -49q99 0 158 54t66 151h-304v63z" />
    <glyph glyph-name="afii10096.sc" horiz-adv-x="880" 
d="M65 560h71v-238h122q16 115 96 181.5t195 66.5q128 0 209.5 -78t81.5 -211q0 -132 -81.5 -211.5t-209.5 -79.5t-206 74t-86 198h-121v-262h-71v560zM330 281q0 -106 61.5 -167t157.5 -61t156.5 60t60.5 168q0 109 -60.5 167.5t-156.5 58.5q-98 0 -158.5 -58.5
t-60.5 -167.5z" />
    <glyph glyph-name="afii10097.sc" horiz-adv-x="560" 
d="M495 560v-560h-72v228h-138l-169 -228h-86l179 232q-64 11 -104 56.5t-40 109.5q0 71 55.5 116.5t142.5 45.5h232zM423 497h-138q-73 0 -109.5 -23t-36.5 -76q0 -107 136 -107h148v206z" />
    <glyph glyph-name="afii10098.sc" horiz-adv-x="461" 
d="M65 560h291l11 93h52l7 -156h-287v-497h-74v560z" />
    <glyph glyph-name="afii10099.sc" horiz-adv-x="723" 
d="M35 560h454v-63h-199v-150q76 48 167 48q97 0 151.5 -53.5t54.5 -147.5v-148q0 -85 -34.5 -139t-90.5 -72l-34 52q85 47 85 158v142q0 76 -35.5 110.5t-105.5 34.5q-91 0 -158 -46v-286h-74v497h-181v63z" />
    <glyph glyph-name="afii10100.sc" horiz-adv-x="451" 
d="M65 560h351v-63h-277v-497h-74v560zM230 626l84 171l63 -38l-91 -133h-56z" />
    <glyph glyph-name="afii10101.sc" horiz-adv-x="570" 
d="M429 319v-60h-315q7 -96 69.5 -149.5t156.5 -53.5q98 0 175 46l20 -61q-83 -51 -204 -51q-57 0 -108.5 17.5t-92.5 52t-65.5 91.5t-24.5 130q0 128 87 208.5t214 80.5q113 0 193 -57l-32 -56q-61 48 -165 48q-96 0 -153 -50.5t-68 -135.5h313z" />
    <glyph glyph-name="afii10102.sc" horiz-adv-x="505" 
d="M430 523l-31 -56q-64 41 -150 41q-59 0 -88.5 -22.5t-29.5 -58.5q0 -35 19.5 -53.5t61.5 -29.5l92 -24q77 -20 116.5 -58t39.5 -108q0 -72 -55 -118t-158 -46q-118 0 -197 46l26 64q45 -26 83.5 -36.5t91.5 -10.5q141 0 141 100q0 43 -25 65t-86 37l-100 25
q-56 14 -87 51.5t-31 93.5q0 65 49.5 105t133.5 40q110 0 184 -47z" />
    <glyph glyph-name="afii10103.sc" horiz-adv-x="204" 
d="M65 560h74v-560h-74v560z" />
    <glyph glyph-name="afii10104.sc" horiz-adv-x="204" 
d="M65 560h74v-560h-74v560zM-8 742q24 0 39 -14t15 -38q0 -23 -15 -37t-39 -14q-23 0 -37.5 14.5t-14.5 36.5q0 24 14.5 38t37.5 14zM212 742q22 0 37.5 -14.5t15.5 -37.5q0 -22 -15.5 -36.5t-37.5 -14.5t-38 14.5t-16 36.5q0 23 15.5 37.5t38.5 14.5z" />
    <glyph glyph-name="afii10105.sc" horiz-adv-x="207" 
d="M68 560h74v-556q0 -94 -52.5 -161t-150.5 -80l-20 65q149 27 149 183v549z" />
    <glyph glyph-name="afii10106.sc" horiz-adv-x="932" 
d="M197 560h358v-214h147q78 0 134 -46.5t56 -126.5q0 -77 -58 -125t-134 -48h-218v497h-214v-125q0 -181 -54 -291q-22 -44 -59 -66.5t-80 -22.5q-41 0 -62 8l12 63q16 -4 40 -4q63 0 88 53q44 93 44 296v152zM555 283v-220h124q139 0 139 111q0 62 -38 85.5t-103 23.5
h-122z" />
    <glyph glyph-name="afii10107.sc" horiz-adv-x="882" 
d="M65 560h73v-214h294v214h73v-214h147q78 0 134 -46.5t56 -126.5q0 -77 -58 -125t-134 -48h-218v285h-294v-285h-73v560zM505 283v-220h124q139 0 139 111q0 62 -38 85.5t-103 23.5h-122z" />
    <glyph glyph-name="afii10108.sc" horiz-adv-x="723" 
d="M35 560h454v-63h-199v-150q76 48 167 48q97 0 151.5 -53.5t54.5 -147.5v-194h-74v187q0 76 -35.5 110.5t-105.5 34.5q-91 0 -158 -46v-286h-74v497h-181v63z" />
    <glyph glyph-name="afii10109.sc" horiz-adv-x="566" 
d="M65 560h74v-211h119l101 151q46 68 119 68q29 0 50 -5l-13 -60q-7 1 -27 1q-45 0 -75 -44l-96 -140l229 -320h-85l-203 287h-119v-287h-74v560zM247 626l84 171l63 -38l-91 -133h-56z" />
    <glyph glyph-name="afii10110.sc" horiz-adv-x="607" 
d="M20 560h82l216 -457h10l182 457h77l-221 -536q-33 -80 -71 -117.5t-94 -37.5q-38 0 -66 16l10 61q24 -9 46 -9q36 0 58.5 15.5t37.5 57.5zM165 719l48 20q30 -58 101 -58t104 58l47 -20q-38 -99 -151 -99q-52 0 -92 27t-57 72z" />
    <glyph glyph-name="afii10193.sc" horiz-adv-x="609" 
d="M279 -136l-10 136h-204v560h74v-498h331v498h74v-560h-204l-9 -136h-52z" />
    <glyph glyph-name="agrave.sc" horiz-adv-x="631" 
d="M270 560h92l244 -560h-75l-73 167h-287l-72 -167h-74zM309 495l-113 -265h237l-111 265h-13zM253 797l84 -171h-56l-91 133z" />
    <glyph glyph-name="amacron.sc" horiz-adv-x="631" 
d="M270 560h92l244 -560h-75l-73 167h-287l-72 -167h-74zM309 495l-113 -265h237l-111 265h-13zM160 707h311v-63h-311v63z" />
    <glyph glyph-name="aogonek.sc" horiz-adv-x="631" 
d="M270 560h92l244 -560q-48 -29 -48 -76q0 -49 58 -49q14 0 25 3l-13 -49q-14 -6 -38 -6q-40 0 -66.5 22.5t-26.5 60.5q0 66 53 94h-19l-73 167h-287l-72 -167h-74zM309 495l-113 -265h237l-111 265h-13z" />
    <glyph glyph-name="aring.sc" horiz-adv-x="631" 
d="M270 560h92l244 -560h-75l-73 167h-287l-72 -167h-74zM309 495l-113 -265h237l-111 265h-13zM315 602q-47 0 -80.5 30.5t-33.5 75.5t33.5 75.5t80.5 30.5t80.5 -30.5t33.5 -75.5t-33.5 -75.5t-80.5 -30.5zM376 708q0 25 -17 41.5t-44 16.5t-44 -16.5t-17 -41.5t17 -41.5
t44 -16.5t44 16.5t17 41.5z" />
    <glyph glyph-name="atilde.sc" horiz-adv-x="631" 
d="M270 560h92l244 -560h-75l-73 167h-287l-72 -167h-74zM309 495l-113 -265h237l-111 265h-13zM163 636l-21 48q46 41 106 41q38 0 74 -20q35 -19 69 -19q41 0 67 25l31 -36q-40 -49 -97 -49q-40 0 -78 21q-37 20 -70 20q-43 0 -81 -31z" />
    <glyph glyph-name="b.sc" horiz-adv-x="517" 
d="M65 560h212q72 0 120.5 -38.5t48.5 -106.5q0 -32 -17 -62.5t-47 -46.5v-5q45 -18 70 -55.5t25 -85.5q0 -73 -53.5 -116.5t-128.5 -43.5h-230v560zM137 263v-202h134q66 0 99.5 22t33.5 78q0 102 -115 102h-152zM137 500v-179h128q108 0 108 89q0 90 -118 90h-118z" />
    <glyph glyph-name="c.sc" horiz-adv-x="570" 
d="M534 513l-32 -56q-61 48 -165 48q-106 0 -164.5 -61.5t-58.5 -162.5q0 -105 63 -165t163 -60q98 0 175 46l20 -61q-83 -51 -204 -51q-57 0 -108.5 17.5t-92.5 52t-65.5 91.5t-24.5 130q0 128 87 208.5t214 80.5q113 0 193 -57z" />
    <glyph glyph-name="cacute.sc" horiz-adv-x="570" 
d="M534 513l-32 -56q-61 48 -165 48q-106 0 -164.5 -61.5t-58.5 -162.5q0 -105 63 -165t163 -60q98 0 175 46l20 -61q-83 -51 -204 -51q-57 0 -108.5 17.5t-92.5 52t-65.5 91.5t-24.5 130q0 128 87 208.5t214 80.5q113 0 193 -57zM302 626l84 171l63 -38l-91 -133h-56z" />
    <glyph glyph-name="cb.liga" horiz-adv-x="1167" 
d="M492 477l-32 -57q-57 28 -138 28q-101 0 -157.5 -51.5t-56.5 -147.5q0 -87 57 -141t142 -54q96 0 168 36l24 -59q-83 -41 -197 -41q-122 0 -194.5 72.5t-72.5 184.5q0 116 80 189.5t201 73.5q36 0 68 -3q-22 37 -22 86q0 68 49 109t128 41q84 0 157 -28v-256
q81 51 189 51q119 0 183 -63.5t64 -187.5q0 -122 -82.5 -195.5t-212.5 -73.5q-121 0 -213 49v630q-39 14 -82 14q-115 0 -115 -87q0 -43 13.5 -68.5t51.5 -50.5zM696 393v-309q63 -30 142 -30q101 0 161 54.5t60 151.5q0 93 -46.5 141t-136.5 48q-100 0 -180 -56z" />
    <glyph glyph-name="ccaron.sc" horiz-adv-x="570" 
d="M534 513l-32 -56q-61 48 -165 48q-106 0 -164.5 -61.5t-58.5 -162.5q0 -105 63 -165t163 -60q98 0 175 46l20 -61q-83 -51 -204 -51q-57 0 -108.5 17.5t-92.5 52t-65.5 91.5t-24.5 130q0 128 87 208.5t214 80.5q113 0 193 -57zM207 788l126 -81l126 81l18 -43l-136 -113
h-15l-137 113z" />
    <glyph glyph-name="ccedilla.sc" horiz-adv-x="570" 
d="M534 513l-32 -56q-61 48 -165 48q-106 0 -164.5 -61.5t-58.5 -162.5q0 -105 63 -165t163 -60q98 0 175 46l20 -61q-80 -49 -196 -51l-5 -40q36 0 58.5 -23t22.5 -56q0 -50 -43.5 -86.5t-101.5 -46.5l-10 54q44 8 69 28t25 49q0 36 -43 36h-36l3 89q-104 15 -171 88
t-67 199q0 128 87 208.5t214 80.5q113 0 193 -57z" />
    <glyph glyph-name="ccircumflex.sc" horiz-adv-x="570" 
d="M534 513l-32 -56q-61 48 -165 48q-106 0 -164.5 -61.5t-58.5 -162.5q0 -105 63 -165t163 -60q98 0 175 46l20 -61q-83 -51 -204 -51q-57 0 -108.5 17.5t-92.5 52t-65.5 91.5t-24.5 130q0 128 87 208.5t214 80.5q113 0 193 -57zM332 693l-126 -81l-18 43l137 113h15
l136 -113l-18 -43z" />
    <glyph glyph-name="cdotaccent.sc" horiz-adv-x="570" 
d="M534 513l-32 -56q-61 48 -165 48q-106 0 -164.5 -61.5t-58.5 -162.5q0 -105 63 -165t163 -60q98 0 175 46l20 -61q-83 -51 -204 -51q-57 0 -108.5 17.5t-92.5 52t-65.5 91.5t-24.5 130q0 128 87 208.5t214 80.5q113 0 193 -57zM338 735q27 0 44 -17.5t17 -42.5
t-16.5 -40.5t-44.5 -15.5q-26 0 -42.5 15.5t-16.5 40.5t16.5 42.5t42.5 17.5z" />
    <glyph glyph-name="cent.taboldstyle" 
d="M520 477l-32 -57q-57 28 -138 28q-101 0 -157.5 -51.5t-56.5 -147.5q0 -87 57 -141t142 -54q96 0 168 36l24 -59q-67 -33 -152 -39v-75h-64v74q-114 6 -181 77t-67 179t69 179t179 82v69h64v-68q82 -3 145 -32z" />
    <glyph glyph-name="centoldstyle" horiz-adv-x="539" 
d="M492 477l-32 -57q-57 28 -138 28q-101 0 -157.5 -51.5t-56.5 -147.5q0 -87 57 -141t142 -54q96 0 168 36l24 -59q-67 -33 -152 -39v-75h-64v74q-114 6 -181 77t-67 179t69 179t179 82v69h64v-68q82 -3 145 -32z" />
    <glyph glyph-name="ch.liga" horiz-adv-x="1166" 
d="M492 477l-32 -57q-57 28 -138 28q-101 0 -157.5 -51.5t-56.5 -147.5q0 -87 57 -141t142 -54q96 0 168 36l24 -59q-83 -41 -197 -41q-122 0 -194.5 72.5t-72.5 184.5q0 116 80 189.5t201 73.5q36 0 68 -3q-22 37 -22 86q0 68 49 109t128 41q84 0 157 -28v-299
q69 94 193 94q101 0 156.5 -56t55.5 -162v-292h-72v293q0 75 -35.5 115t-104.5 40q-67 0 -111.5 -26.5t-81.5 -84.5v-337h-72v669q-39 14 -82 14q-115 0 -115 -87q0 -43 13.5 -68.5t51.5 -50.5z" />
    <glyph glyph-name="ck.liga" horiz-adv-x="1101" 
d="M973 500h91l1 -8l-218 -188l234 -296l-2 -8h-83l-206 264l-94 -55v-209h-72v669q-39 14 -82 14q-115 0 -115 -87q0 -43 13.5 -68.5t51.5 -50.5l-32 -57q-57 28 -138 28q-101 0 -157.5 -51.5t-56.5 -147.5q0 -87 57 -141t142 -54q96 0 168 36l24 -59q-83 -41 -197 -41
q-122 0 -194.5 72.5t-72.5 184.5q0 116 80 189.5t201 73.5q36 0 68 -3q-22 37 -22 86q0 68 49 109t128 41q84 0 157 -28v-440l99 67z" />
    <glyph glyph-name="comma.denominator" horiz-adv-x="139" 
d="M60 -82l-34 19q30 28 33 58q-34 7 -34 44q0 20 12 32.5t31 12.5q46 0 46 -57q0 -64 -54 -109z" />
    <glyph glyph-name="comma.numerator" horiz-adv-x="139" 
d="M60 198l-34 19q30 28 33 58q-34 7 -34 44q0 20 12 32.5t31 12.5q46 0 46 -57q0 -64 -54 -109z" />
    <glyph glyph-name="commaaccent" horiz-adv-x="231" 
d="M75 -107l-19 36q58 23 58 71q-24 0 -38.5 14t-14.5 34q0 21 13.5 36t38.5 15q59 0 59 -82q0 -42 -24.5 -75.5t-72.5 -48.5z" />
    <glyph glyph-name="commaaccent.cap" horiz-adv-x="231" 
d="M75 -105l-20 37q57 23 57 68q-24 0 -37.5 13.5t-13.5 35.5t13.5 36t37.5 14q62 0 62 -77q0 -42 -26.5 -76.5t-72.5 -50.5z" />
    <glyph glyph-name="commainferior" horiz-adv-x="139" 
d="M60 -152l-34 19q30 28 33 58q-34 7 -34 44q0 20 12 32.5t31 12.5q46 0 46 -57q0 -64 -54 -109z" />
    <glyph glyph-name="commasuperior" horiz-adv-x="139" 
d="M60 293l-34 19q30 28 33 58q-34 7 -34 44q0 20 12 32.5t31 12.5q46 0 46 -57q0 -64 -54 -109z" />
    <glyph glyph-name="ct.liga" horiz-adv-x="978" 
d="M926 500l-4 -65l-202 8v-277q0 -112 108 -112q57 0 109 31l26 -57q-56 -38 -143 -38q-172 0 -172 175v269l-70 13v25q86 39 86 118q0 47 -32 72t-90 25q-54 0 -84.5 -25.5t-30.5 -70.5q0 -35 16.5 -69.5t48.5 -44.5l-32 -57q-57 28 -138 28q-101 0 -157.5 -51.5
t-56.5 -147.5q0 -87 57 -141t142 -54q96 0 168 36l24 -59q-83 -41 -197 -41q-122 0 -194.5 72.5t-72.5 184.5q0 116 80 189.5t201 73.5q36 0 66 -3q-22 39 -22 87q0 66 54.5 107.5t130.5 41.5q83 0 134 -42t51 -105q0 -54 -26 -96h222z" />
    <glyph glyph-name="currency.taboldstyle" 
d="M156 455l48 -52q45 27 91 27q51 0 91 -27l46 51l44 -42l-50 -46q28 -43 28 -88q0 -39 -28 -87l48 -47l-41 -42l-46 52q-45 -28 -92 -28q-49 0 -92 26l-47 -51l-41 44l48 45q-26 40 -26 88q0 49 26 89l-48 47zM397 278q0 42 -29.5 69t-72.5 27q-44 0 -73 -26.5t-29 -69.5
t29.5 -70t72.5 -27t72.5 27t29.5 70z" />
    <glyph glyph-name="d.sc" horiz-adv-x="612" 
d="M65 560h196q139 0 225 -72.5t86 -203.5q0 -135 -86.5 -209.5t-225.5 -74.5h-195v560zM138 497v-433h132q104 0 166.5 55.5t62.5 164.5q0 106 -63 159.5t-173 53.5h-125z" />
    <glyph glyph-name="dblGrave" horiz-adv-x="375" 
d="M257 880l48 -174h-50l-64 149zM129 870l77 -164h-52l-87 125z" />
    <glyph glyph-name="dblgrave" horiz-adv-x="375" 
d="M250 743l54 -180h-51l-69 157zM116 733l87 -170h-52l-95 131z" />
    <glyph glyph-name="dcaron.sc" horiz-adv-x="612" 
d="M65 560h196q139 0 225 -72.5t86 -203.5q0 -135 -86.5 -209.5t-225.5 -74.5h-195v560zM138 497v-433h132q104 0 166.5 55.5t62.5 164.5q0 106 -63 159.5t-173 53.5h-125zM141 788l126 -81l126 81l18 -43l-136 -113h-15l-137 113z" />
    <glyph glyph-name="dcroat.sc" horiz-adv-x="612" 
d="M12 317h53v243h196q139 0 225 -72.5t86 -203.5q0 -135 -86.5 -209.5t-225.5 -74.5h-195v258h-53v59zM138 497v-180h159v-59h-159v-194h132q104 0 166.5 55.5t62.5 164.5q0 106 -63 159.5t-173 53.5h-125z" />
    <glyph glyph-name="dollar.taboldstyle" 
d="M261 577h64v-67q85 -3 153 -29l-25 -60q-68 28 -149 28q-141 0 -141 -71q0 -38 36 -56t111 -28q195 -26 195 -157q0 -128 -180 -144v-76h-64v73q-100 2 -166 30l19 64q72 -31 152 -31q170 0 170 85q0 41 -34.5 61.5t-115.5 29.5q-190 21 -190 142q0 54 42 91t123 45v70z
" />
    <glyph glyph-name="dollaroldstyle" horiz-adv-x="495" 
d="M211 577h64v-67q85 -3 153 -29l-25 -60q-68 28 -149 28q-141 0 -141 -71q0 -38 36 -56t111 -28q195 -26 195 -157q0 -128 -180 -144v-76h-64v73q-100 2 -166 30l19 64q72 -31 152 -31q170 0 170 85q0 41 -34.5 61.5t-115.5 29.5q-190 21 -190 142q0 54 42 91t123 45v70z
" />
    <glyph glyph-name="dotlessi.sc" horiz-adv-x="204" 
d="M65 560h74v-560h-74v560z" />
    <glyph glyph-name="dotlessj.sc" horiz-adv-x="207" 
d="M68 560h74v-556q0 -94 -52.5 -161t-150.5 -80l-20 65q149 27 149 183v549z" />
    <glyph glyph-name="e.sc" horiz-adv-x="488" 
d="M65 0v560h371v-63h-298v-173h272v-62h-272v-199h310v-63h-383z" />
    <glyph glyph-name="eacute.sc" horiz-adv-x="488" 
d="M65 0v560h371v-63h-298v-173h272v-62h-272v-199h310v-63h-383zM231 626l84 171l63 -38l-91 -133h-56z" />
    <glyph glyph-name="ebreve.sc" horiz-adv-x="488" 
d="M65 0v560h371v-63h-298v-173h272v-62h-272v-199h310v-63h-383zM114 729l48 20q30 -58 101 -58t104 58l47 -20q-38 -99 -151 -99q-52 0 -92 27t-57 72z" />
    <glyph glyph-name="ecaron.sc" horiz-adv-x="488" 
d="M65 0v560h371v-63h-298v-173h272v-62h-272v-199h310v-63h-383zM145 788l126 -81l126 81l18 -43l-136 -113h-15l-137 113z" />
    <glyph glyph-name="ecircumflex.sc" horiz-adv-x="488" 
d="M65 0v560h371v-63h-298v-173h272v-62h-272v-199h310v-63h-383zM261 703l-126 -81l-18 43l137 113h15l136 -113l-18 -43z" />
    <glyph glyph-name="edieresis.sc" horiz-adv-x="488" 
d="M65 0v560h371v-63h-298v-173h272v-62h-272v-199h310v-63h-383zM151 742q24 0 39 -14t15 -38q0 -23 -15 -37t-39 -14q-23 0 -37.5 14.5t-14.5 36.5q0 24 14.5 38t37.5 14zM371 742q22 0 37.5 -14.5t15.5 -37.5q0 -22 -15.5 -36.5t-37.5 -14.5t-38 14.5t-16 36.5
q0 23 15.5 37.5t38.5 14.5z" />
    <glyph glyph-name="edotaccent.sc" horiz-adv-x="488" 
d="M65 0v560h371v-63h-298v-173h272v-62h-272v-199h310v-63h-383zM272 731q27 0 44 -17.5t17 -42.5t-16.5 -40.5t-44.5 -15.5q-26 0 -42.5 15.5t-16.5 40.5t16.5 42.5t42.5 17.5z" />
    <glyph glyph-name="egrave.sc" horiz-adv-x="488" 
d="M65 0v560h371v-63h-298v-173h272v-62h-272v-199h310v-63h-383zM218 797l84 -171h-56l-91 133z" />
    <glyph glyph-name="eight.denominator" horiz-adv-x="380" 
d="M157 180q-59 -8 -59 -67q0 -65 92 -65q40 0 66.5 16.5t26.5 47.5q0 22 -10.5 36t-32 20.5t-38.5 8.5t-45 3zM218 230q41 11 41 48q0 45 -68 45q-30 0 -49 -11t-19 -33q0 -47 95 -49zM90 208q-30 22 -30 70q0 49 38 74.5t93 25.5q54 0 92 -25.5t38 -72.5q0 -41 -37 -68
q35 -18 49 -40.5t14 -55.5q0 -63 -44 -94t-113 -31q-72 0 -114.5 31t-42.5 92q0 62 57 94z" />
    <glyph glyph-name="eight.fitted" 
d="M179 355v4q-36 17 -60 54t-24 80q0 78 55.5 124t145.5 46q85 0 142 -42.5t57 -120.5q0 -48 -24 -84.5t-58 -54.5v-4q53 -20 85 -65t32 -101q0 -96 -63.5 -150t-170.5 -54q-120 0 -178 54t-58 145q0 56 33 102.5t86 66.5zM296 382q61 0 93 30t32 83q0 50 -31 78.5
t-94 28.5t-95 -28.5t-32 -78.5q0 -48 33 -80.5t94 -32.5zM296 319q-76 0 -118.5 -33.5t-42.5 -99.5q0 -62 38.5 -98.5t122.5 -36.5q78 0 118.5 37.5t40.5 97.5q0 133 -159 133z" />
    <glyph glyph-name="eight.numerator" horiz-adv-x="380" 
d="M157 460q-59 -8 -59 -67q0 -65 92 -65q40 0 66.5 16.5t26.5 47.5q0 22 -10.5 36t-32 20.5t-38.5 8.5t-45 3zM218 510q41 11 41 48q0 45 -68 45q-30 0 -49 -11t-19 -33q0 -47 95 -49zM90 488q-30 22 -30 70q0 49 38 74.5t93 25.5q54 0 92 -25.5t38 -72.5q0 -41 -37 -68
q35 -18 49 -40.5t14 -55.5q0 -63 -44 -94t-113 -31q-72 0 -114.5 31t-42.5 92q0 62 57 94z" />
    <glyph glyph-name="eight.taboldstyle" 
d="M182 355v4q-36 17 -60 54t-24 80q0 78 55.5 124t145.5 46q85 0 142 -42.5t57 -120.5q0 -48 -24 -84.5t-58 -54.5v-4q53 -20 85 -65t32 -101q0 -96 -63.5 -150t-170.5 -54q-120 0 -178 54t-58 145q0 56 33 102.5t86 66.5zM299 382q61 0 93 30t32 83q0 50 -31 78.5
t-94 28.5t-95 -28.5t-32 -78.5q0 -48 33 -80.5t94 -32.5zM299 319q-76 0 -118.5 -33.5t-42.5 -99.5q0 -62 38.5 -98.5t122.5 -36.5q78 0 118.5 37.5t40.5 97.5q0 133 -159 133z" />
    <glyph glyph-name="eightoldstyle" horiz-adv-x="570" 
d="M169 355v4q-36 17 -60 54t-24 80q0 78 55.5 124t145.5 46q85 0 142 -42.5t57 -120.5q0 -48 -24 -84.5t-58 -54.5v-4q53 -20 85 -65t32 -101q0 -96 -63.5 -150t-170.5 -54q-120 0 -178 54t-58 145q0 56 33 102.5t86 66.5zM286 382q61 0 93 30t32 83q0 50 -31 78.5
t-94 28.5t-95 -28.5t-32 -78.5q0 -48 33 -80.5t94 -32.5zM286 319q-76 0 -118.5 -33.5t-42.5 -99.5q0 -62 38.5 -98.5t122.5 -36.5q78 0 118.5 37.5t40.5 97.5q0 133 -159 133z" />
    <glyph glyph-name="emacron.sc" horiz-adv-x="488" 
d="M65 0v560h371v-63h-298v-173h272v-62h-272v-199h310v-63h-383zM101 707h311v-63h-311v63z" />
    <glyph glyph-name="eogonek.sc" horiz-adv-x="488" 
d="M65 0v560h371v-63h-298v-173h272v-62h-272v-199h310v-63q-48 -29 -48 -76q0 -49 58 -49q14 0 25 3l-13 -49q-13 -6 -38 -6q-40 0 -66.5 22.5t-26.5 60.5q0 66 53 94h-327z" />
    <glyph glyph-name="eth.sc" horiz-adv-x="612" 
d="M12 317h53v243h196q139 0 225 -72.5t86 -203.5q0 -135 -86.5 -209.5t-225.5 -74.5h-195v258h-53v59zM138 497v-180h159v-59h-159v-194h132q104 0 166.5 55.5t62.5 164.5q0 106 -63 159.5t-173 53.5h-125z" />
    <glyph glyph-name="f.sc" horiz-adv-x="456" 
d="M65 560h351v-63h-278v-187h255v-62h-255v-248h-73v560z" />
    <glyph glyph-name="five.denominator" horiz-adv-x="340" 
d="M54 370h232v-61h-177l-3 -79q31 10 69 10q58 0 96.5 -31.5t38.5 -88.5q0 -62 -42.5 -95.5t-107.5 -33.5q-89 0 -140 38l31 51q48 -33 105 -33q45 0 70 19t25 54q0 65 -88 65q-45 0 -90 -14l-26 6z" />
    <glyph glyph-name="five.fitted" 
d="M105 650h376v-66h-304v-186q59 13 116 13q100 0 162 -56t62 -152q0 -93 -67 -154.5t-186 -61.5q-65 0 -112.5 15t-94.5 50l37 59q77 -58 167 -58q86 0 133.5 41.5t47.5 108.5q0 143 -176 143q-45 0 -74.5 -7t-71.5 -26l-15 6v331z" />
    <glyph glyph-name="five.numerator" horiz-adv-x="340" 
d="M54 650h232v-61h-177l-3 -79q31 10 69 10q58 0 96.5 -31.5t38.5 -88.5q0 -62 -42.5 -95.5t-107.5 -33.5q-89 0 -140 38l31 51q48 -33 105 -33q45 0 70 19t25 54q0 65 -88 65q-45 0 -90 -14l-26 6z" />
    <glyph glyph-name="five.taboldstyle" 
d="M109 510h364v-67h-294v-191q52 20 123 20q99 0 153 -59t54 -135q0 -105 -79 -164t-189 -59q-107 0 -172 26l22 63q64 -21 146 -21q93 0 145.5 41t52.5 112q0 63 -40 97t-112 34q-82 0 -158 -33l-16 4v332z" />
    <glyph glyph-name="fiveoldstyle" horiz-adv-x="545" 
d="M85 510h364v-67h-294v-191q52 20 123 20q99 0 153 -59t54 -135q0 -105 -79 -164t-189 -59q-107 0 -172 26l22 63q64 -21 146 -21q93 0 145.5 41t52.5 112q0 63 -40 97t-112 34q-82 0 -158 -33l-16 4v332z" />
    <glyph glyph-name="florin.taboldstyle" 
d="M136 500h90v34q0 87 53 141.5t140 54.5q83 0 148 -37l-30 -56q-49 29 -110 29q-129 0 -129 -129v-37h158l-4 -62l-154 5v-417q0 -96 -46.5 -150.5t-137.5 -59.5l-7 63q119 12 119 129v429l-90 11v52z" />
    <glyph glyph-name="four.denominator" horiz-adv-x="377" 
d="M255 375l52 -5v-245h40v-61h-40v-64h-63v64h-216l-8 49zM244 278l-138 -153h138v153z" />
    <glyph glyph-name="four.fitted" 
d="M380 655l92 -5v-437h76l-9 -66h-67v-147h-74v147h-356v56zM398 213v350l-9 1l-253 -351h262z" />
    <glyph glyph-name="four.numerator" horiz-adv-x="377" 
d="M255 655l52 -5v-245h40v-61h-40v-64h-63v64h-216l-8 49zM244 558l-138 -153h138v153z" />
    <glyph glyph-name="four.taboldstyle" 
d="M387 516l91 -6v-434h75l-8 -64h-67v-147h-73v147h-360v62zM405 76v341l-12 1l-258 -342h270z" />
    <glyph glyph-name="fouroldstyle" horiz-adv-x="588" 
d="M377 516l91 -6v-434h75l-8 -64h-67v-147h-73v147h-360v62zM395 76v341l-12 1l-258 -342h270z" />
    <glyph glyph-name="g.sc" horiz-adv-x="625" 
d="M355 310h215v-259q-58 -33 -113 -47t-128 -14q-121 0 -205 74.5t-84 216.5q0 129 87.5 209t216.5 80q127 0 208 -57l-32 -57q-74 50 -180 50t-166 -61.5t-60 -163.5q0 -106 62 -166t162 -60q92 0 162 35v161h-145v59z" />
    <glyph glyph-name="gbreve.sc" horiz-adv-x="625" 
d="M355 310h215v-259q-58 -33 -113 -47t-128 -14q-121 0 -205 74.5t-84 216.5q0 129 87.5 209t216.5 80q127 0 208 -57l-32 -57q-74 50 -180 50t-166 -61.5t-60 -163.5q0 -106 62 -166t162 -60q92 0 162 35v161h-145v59zM194 729l48 20q30 -58 101 -58t104 58l47 -20
q-38 -99 -151 -99q-52 0 -92 27t-57 72z" />
    <glyph glyph-name="gcircumflex.sc" horiz-adv-x="625" 
d="M355 310h215v-259q-58 -33 -113 -47t-128 -14q-121 0 -205 74.5t-84 216.5q0 129 87.5 209t216.5 80q127 0 208 -57l-32 -57q-74 50 -180 50t-166 -61.5t-60 -163.5q0 -106 62 -166t162 -60q92 0 162 35v161h-145v59zM349 693l-126 -81l-18 43l137 113h15l136 -113
l-18 -43z" />
    <glyph glyph-name="gcommaaccent.sc" horiz-adv-x="625" 
d="M355 310h215v-259q-58 -33 -113 -47t-128 -14q-121 0 -205 74.5t-84 216.5q0 129 87.5 209t216.5 80q127 0 208 -57l-32 -57q-74 50 -180 50t-166 -61.5t-60 -163.5q0 -106 62 -166t162 -60q92 0 162 35v161h-145v59zM311 -265l-20 37q57 23 57 68q-24 0 -37.5 13.5
t-13.5 35.5t13.5 36t37.5 14q62 0 62 -77q0 -42 -26.5 -76.5t-72.5 -50.5z" />
    <glyph glyph-name="gdotaccent.sc" horiz-adv-x="625" 
d="M355 310h215v-259q-58 -33 -113 -47t-128 -14q-121 0 -205 74.5t-84 216.5q0 129 87.5 209t216.5 80q127 0 208 -57l-32 -57q-74 50 -180 50t-166 -61.5t-60 -163.5q0 -106 62 -166t162 -60q92 0 162 35v161h-145v59zM351 732q27 0 44 -17.5t17 -42.5t-16.5 -40.5
t-44.5 -15.5q-26 0 -42.5 15.5t-16.5 40.5t16.5 42.5t42.5 17.5z" />
    <glyph glyph-name="germandbls.sc" horiz-adv-x="988" 
d="M440 523l-31 -56q-64 41 -150 41q-59 0 -88.5 -22.5t-29.5 -58.5q0 -35 19.5 -53.5t61.5 -29.5l92 -24q77 -20 116.5 -58t39.5 -108q0 -72 -55 -118t-158 -46q-118 0 -197 46l26 64q45 -26 83.5 -36.5t91.5 -10.5q141 0 141 100q0 43 -25 65t-86 37l-100 25
q-56 14 -87 51.5t-31 93.5q0 65 49.5 105t133.5 40q110 0 184 -47zM913 523l-31 -56q-64 41 -150 41q-59 0 -88.5 -22.5t-29.5 -58.5q0 -35 19.5 -53.5t61.5 -29.5l92 -24q77 -20 116.5 -58t39.5 -108q0 -72 -55 -118t-158 -46q-118 0 -197 46l26 64q45 -26 83.5 -36.5
t91.5 -10.5q141 0 141 100q0 43 -25 65t-86 37l-100 25q-56 14 -87 51.5t-31 93.5q0 65 49.5 105t133.5 40q110 0 184 -47z" />
    <glyph glyph-name="h.sc" horiz-adv-x="617" 
d="M65 560h74v-236h339v236h74v-560h-74v261h-339v-261h-74v560z" />
    <glyph glyph-name="hbar.sc" horiz-adv-x="617" 
d="M65 560h74v-82h339v82h74v-82h45v-61h-45v-417h-74v261h-339v-261h-74v417h-45v61h45v82zM139 324h339v93h-339v-93z" />
    <glyph glyph-name="hcircumflex.sc" horiz-adv-x="617" 
d="M65 560h74v-236h339v236h74v-560h-74v261h-339v-261h-74v560zM308 703l-126 -81l-18 43l137 113h15l136 -113l-18 -43z" />
    <glyph glyph-name="hyphen.denominator" horiz-adv-x="252" 
d="M35 218h182v-60h-182v60z" />
    <glyph glyph-name="hyphen.numerator" horiz-adv-x="252" 
d="M35 498h182v-60h-182v60z" />
    <glyph glyph-name="hypheninferior" horiz-adv-x="252" 
d="M35 148h182v-60h-182v60z" />
    <glyph glyph-name="hyphensuperior" horiz-adv-x="252" 
d="M35 593h182v-60h-182v60z" />
    <glyph glyph-name="i.sc" horiz-adv-x="204" 
d="M65 560h74v-560h-74v560z" />
    <glyph glyph-name="iacute.sc" horiz-adv-x="204" 
d="M65 560h74v-560h-74v560zM83 626l84 171l63 -38l-91 -133h-56z" />
    <glyph glyph-name="icircumflex.sc" horiz-adv-x="204" 
d="M65 560h74v-560h-74v560zM102 693l-126 -81l-18 43l137 113h15l136 -113l-18 -43z" />
    <glyph glyph-name="idieresis.sc" horiz-adv-x="204" 
d="M65 560h74v-560h-74v560zM-8 742q24 0 39 -14t15 -38q0 -23 -15 -37t-39 -14q-23 0 -37.5 14.5t-14.5 36.5q0 24 14.5 38t37.5 14zM212 742q22 0 37.5 -14.5t15.5 -37.5q0 -22 -15.5 -36.5t-37.5 -14.5t-38 14.5t-16 36.5q0 23 15.5 37.5t38.5 14.5z" />
    <glyph glyph-name="igrave.sc" horiz-adv-x="204" 
d="M65 560h74v-560h-74v560zM56 797l84 -171h-56l-91 133z" />
    <glyph glyph-name="imacron.sc" horiz-adv-x="204" 
d="M65 560h74v-560h-74v560zM-53 707h311v-63h-311v63z" />
    <glyph glyph-name="iogonek.sc" horiz-adv-x="204" 
d="M65 560h74v-560q-48 -29 -48 -76q0 -49 58 -49q15 0 25 3l-13 -49q-14 -6 -38 -6q-40 0 -66.5 22.5t-26.5 60.5q0 66 53 94h-18v560z" />
    <glyph glyph-name="itilde.sc" horiz-adv-x="204" 
d="M65 560h74v-560h-74v560zM-41 636l-21 48q46 41 106 41q38 0 74 -20q35 -19 69 -19q41 0 67 25l31 -36q-40 -49 -97 -49q-40 0 -78 21q-37 20 -70 20q-43 0 -81 -31z" />
    <glyph glyph-name="j.sc" horiz-adv-x="207" 
d="M68 560h74v-556q0 -94 -52.5 -161t-150.5 -80l-20 65q149 27 149 183v549z" />
    <glyph glyph-name="jcircumflex.sc" horiz-adv-x="207" 
d="M68 560h74v-556q0 -94 -52.5 -161t-150.5 -80l-20 65q149 27 149 183v549zM105 693l-126 -81l-18 43l137 113h15l136 -113l-18 -43z" />
    <glyph glyph-name="k.sc" horiz-adv-x="582" 
d="M65 560h73v-295l288 295h96l-213 -217l253 -343h-92l-214 296l-118 -110v-186h-73v560z" />
    <glyph glyph-name="kcommaaccent.sc" horiz-adv-x="582" 
d="M65 560h73v-295l288 295h96l-213 -217l253 -343h-92l-214 296l-118 -110v-186h-73v560zM250 -218l-20 37q57 23 57 68q-24 0 -37.5 13.5t-13.5 35.5t13.5 36t37.5 14q62 0 62 -77q0 -42 -26.5 -76.5t-72.5 -50.5z" />
    <glyph glyph-name="kgreenlandic.sc" horiz-adv-x="582" 
d="M65 560h73v-295l288 295h96l-213 -217l253 -343h-92l-214 296l-118 -110v-186h-73v560z" />
    <glyph glyph-name="l.sc" horiz-adv-x="466" 
d="M65 560h74v-497h292v-63h-366v560z" />
    <glyph glyph-name="lacute.sc" horiz-adv-x="466" 
d="M65 560h74v-497h292v-63h-366v560zM83 626l84 171l63 -38l-91 -133h-56z" />
    <glyph glyph-name="lcaron.sc" horiz-adv-x="466" 
d="M65 560h74v-497h292v-63h-366v560zM336 351l-20 37q57 23 57 68q-24 0 -37.5 13.5t-13.5 35.5t13.5 36t37.5 14q62 0 62 -77q0 -42 -26.5 -76.5t-72.5 -50.5z" />
    <glyph glyph-name="lcommaaccent.sc" horiz-adv-x="466" 
d="M65 560h74v-497h292v-63h-366v560zM230 -255l-20 37q57 23 57 68q-24 0 -37.5 13.5t-13.5 35.5t13.5 36t37.5 14q62 0 62 -77q0 -42 -26.5 -76.5t-72.5 -50.5z" />
    <glyph glyph-name="ldot.sc" horiz-adv-x="466" 
d="M65 560h74v-497h292v-63h-366v560zM345 380q27 0 44 -17.5t17 -42.5t-16.5 -40.5t-44.5 -15.5q-26 0 -42.5 15.5t-16.5 40.5t16.5 42.5t42.5 17.5z" />
    <glyph glyph-name="lslash.sc" horiz-adv-x="466" 
d="M65 560h74v-245l126 48l15 -54l-141 -53v-193h292v-63h-366v229l-41 -15l-15 53l56 21v272z" />
    <glyph glyph-name="m.sc" horiz-adv-x="700" 
d="M65 560h91l194 -272l195 272h90v-560h-70v468h-5l-199 -274h-24l-197 274h-5v-468h-70v560z" />
    <glyph glyph-name="n.sc" horiz-adv-x="665" 
d="M65 560h84l385 -476l-4 165v311h70v-560h-87l-382 476l4 -186v-290h-70v560z" />
    <glyph glyph-name="nacute.sc" horiz-adv-x="665" 
d="M65 560h84l385 -476l-4 165v311h70v-560h-87l-382 476l4 -186v-290h-70v560zM302 626l84 171l63 -38l-91 -133h-56z" />
    <glyph glyph-name="ncaron.sc" horiz-adv-x="665" 
d="M65 560h84l385 -476l-4 165v311h70v-560h-87l-382 476l4 -186v-290h-70v560zM209 778l126 -81l126 81l18 -43l-136 -113h-15l-137 113z" />
    <glyph glyph-name="ncommaaccent.sc" horiz-adv-x="665" 
d="M65 560h84l385 -476l-4 165v311h70v-560h-87l-382 476l4 -186v-290h-70v560zM283 -217l-20 37q57 23 57 68q-24 0 -37.5 13.5t-13.5 35.5t13.5 36t37.5 14q62 0 62 -77q0 -42 -26.5 -76.5t-72.5 -50.5z" />
    <glyph glyph-name="nine.denominator" horiz-adv-x="362" 
d="M270 210q0 51 -22 81t-64 30q-86 0 -86 -68q0 -35 21.5 -53t59.5 -18q48 0 91 28zM80 -9l-5 58q175 6 195 109q-47 -32 -99 -32q-56 0 -96 32.5t-40 93.5t42.5 94t106.5 33q73 0 111.5 -49t38.5 -132q0 -101 -65.5 -153t-188.5 -54z" />
    <glyph glyph-name="nine.fitted" 
d="M129 -13l-8 67q144 3 236.5 71.5t96.5 193.5q-78 -71 -189 -71q-89 0 -146.5 56.5t-57.5 151.5q0 105 66 156t161 51q111 0 175 -76t64 -242q0 -173 -109.5 -264t-288.5 -94zM453 387q0 213 -171 213q-146 0 -146 -142q0 -69 36.5 -106.5t106.5 -37.5q98 0 174 73z" />
    <glyph glyph-name="nine.numerator" horiz-adv-x="362" 
d="M270 490q0 51 -22 81t-64 30q-86 0 -86 -68q0 -35 21.5 -53t59.5 -18q48 0 91 28zM80 271l-5 58q175 6 195 109q-47 -32 -99 -32q-56 0 -96 32.5t-40 93.5t42.5 94t106.5 33q73 0 111.5 -49t38.5 -132q0 -101 -65.5 -153t-188.5 -54z" />
    <glyph glyph-name="nine.taboldstyle" 
d="M128 -143l-7 68q315 10 337 245q-73 -69 -186 -69q-92 0 -149.5 56.5t-57.5 151.5q0 105 66.5 158t160.5 53q113 0 175 -80t62 -240q0 -87 -31.5 -154t-87.5 -107t-127 -60.5t-155 -21.5zM455 237q0 111 -46 165.5t-122 54.5q-71 0 -109 -38.5t-38 -109.5
q0 -67 37 -104.5t105 -37.5q100 0 173 70z" />
    <glyph glyph-name="nineoldstyle" horiz-adv-x="563" 
d="M118 -143l-7 68q315 10 337 245q-73 -69 -186 -69q-92 0 -149.5 56.5t-57.5 151.5q0 105 66.5 158t160.5 53q113 0 175 -80t62 -240q0 -87 -31.5 -154t-87.5 -107t-127 -60.5t-155 -21.5zM445 237q0 111 -46 165.5t-122 54.5q-71 0 -109 -38.5t-38 -109.5
q0 -67 37 -104.5t105 -37.5q100 0 173 70z" />
    <glyph glyph-name="ntilde.sc" horiz-adv-x="665" 
d="M65 560h84l385 -476l-4 165v311h70v-560h-87l-382 476l4 -186v-290h-70v560zM185 636l-21 48q46 41 106 41q38 0 74 -20q35 -19 69 -19q41 0 67 25l31 -36q-40 -49 -97 -49q-40 0 -78 21q-37 20 -70 20q-43 0 -81 -31z" />
    <glyph glyph-name="numbersign.taboldstyle" 
d="M211 470l60 -4l-11 -103h97l12 107l59 -4l-11 -103h108l-2 -58h-112l-9 -80h113l-2 -58h-117l-10 -100l-62 5l9 95h-95l-12 -100l-60 5l10 95h-93l2 58h99l8 80h-98l2 58h102zM254 305l-9 -80h97l7 80h-95z" />
    <glyph glyph-name="o.sc" horiz-adv-x="678" 
d="M638 280q0 -128 -84.5 -209t-214.5 -81t-214.5 81t-84.5 209t84.5 209t214.5 81t214.5 -81t84.5 -209zM114 280q0 -109 64.5 -167.5t160.5 -58.5t160.5 58.5t64.5 167.5t-64.5 167.5t-160.5 58.5t-160.5 -58.5t-64.5 -167.5z" />
    <glyph glyph-name="oacute.sc" horiz-adv-x="678" 
d="M638 280q0 -128 -84.5 -209t-214.5 -81t-214.5 81t-84.5 209t84.5 209t214.5 81t214.5 -81t84.5 -209zM114 280q0 -109 64.5 -167.5t160.5 -58.5t160.5 58.5t64.5 167.5t-64.5 167.5t-160.5 58.5t-160.5 -58.5t-64.5 -167.5zM314 626l84 171l63 -38l-91 -133h-56z" />
    <glyph glyph-name="obreve.sc" horiz-adv-x="678" 
d="M638 280q0 -128 -84.5 -209t-214.5 -81t-214.5 81t-84.5 209t84.5 209t214.5 81t214.5 -81t84.5 -209zM114 280q0 -109 64.5 -167.5t160.5 -58.5t160.5 58.5t64.5 167.5t-64.5 167.5t-160.5 58.5t-160.5 -58.5t-64.5 -167.5zM189 729l48 20q30 -58 101 -58t104 58l47 -20
q-38 -99 -151 -99q-52 0 -92 27t-57 72z" />
    <glyph glyph-name="ocircumflex.sc" horiz-adv-x="678" 
d="M638 280q0 -128 -84.5 -209t-214.5 -81t-214.5 81t-84.5 209t84.5 209t214.5 81t214.5 -81t84.5 -209zM114 280q0 -109 64.5 -167.5t160.5 -58.5t160.5 58.5t64.5 167.5t-64.5 167.5t-160.5 58.5t-160.5 -58.5t-64.5 -167.5zM339 693l-126 -81l-18 43l137 113h15
l136 -113l-18 -43z" />
    <glyph glyph-name="odieresis.sc" horiz-adv-x="678" 
d="M638 280q0 -128 -84.5 -209t-214.5 -81t-214.5 81t-84.5 209t84.5 209t214.5 81t214.5 -81t84.5 -209zM114 280q0 -109 64.5 -167.5t160.5 -58.5t160.5 58.5t64.5 167.5t-64.5 167.5t-160.5 58.5t-160.5 -58.5t-64.5 -167.5zM229 742q24 0 39 -14t15 -38q0 -23 -15 -37
t-39 -14q-23 0 -37.5 14.5t-14.5 36.5q0 24 14.5 38t37.5 14zM449 742q22 0 37.5 -14.5t15.5 -37.5q0 -22 -15.5 -36.5t-37.5 -14.5t-38 14.5t-16 36.5q0 23 15.5 37.5t38.5 14.5z" />
    <glyph glyph-name="oe.sc" horiz-adv-x="961" 
d="M542 560h367v-63h-300v-172h274v-62h-274v-200h312v-63h-379v90q-42 -54 -93 -77t-123 -23q-128 0 -207 80t-79 210t79 210t207 80q143 0 216 -93v83zM114 280q0 -108 58.5 -167t153.5 -59q97 0 157.5 58.5t60.5 168.5t-60.5 167.5t-157.5 57.5q-96 0 -154 -58t-58 -168z
" />
    <glyph glyph-name="ograve.sc" horiz-adv-x="678" 
d="M638 280q0 -128 -84.5 -209t-214.5 -81t-214.5 81t-84.5 209t84.5 209t214.5 81t214.5 -81t84.5 -209zM114 280q0 -109 64.5 -167.5t160.5 -58.5t160.5 58.5t64.5 167.5t-64.5 167.5t-160.5 58.5t-160.5 -58.5t-64.5 -167.5zM283 797l84 -171h-56l-91 133z" />
    <glyph glyph-name="ohungarumlaut.sc" horiz-adv-x="678" 
d="M638 280q0 -128 -84.5 -209t-214.5 -81t-214.5 81t-84.5 209t84.5 209t214.5 81t214.5 -81t84.5 -209zM114 280q0 -109 64.5 -167.5t160.5 -58.5t160.5 58.5t64.5 167.5t-64.5 167.5t-160.5 58.5t-160.5 -58.5t-64.5 -167.5zM264 626l48 174l66 -25l-64 -149h-50z
M363 626l77 164l62 -39l-87 -125h-52z" />
    <glyph glyph-name="omacron.sc" horiz-adv-x="678" 
d="M638 280q0 -128 -84.5 -209t-214.5 -81t-214.5 81t-84.5 209t84.5 209t214.5 81t214.5 -81t84.5 -209zM114 280q0 -109 64.5 -167.5t160.5 -58.5t160.5 58.5t64.5 167.5t-64.5 167.5t-160.5 58.5t-160.5 -58.5t-64.5 -167.5zM184 707h311v-63h-311v63z" />
    <glyph glyph-name="one.denominator" horiz-adv-x="222" 
d="M20 309l118 64l34 -4v-369h-63v287l-75 -19z" />
    <glyph glyph-name="one.fitted" 
d="M325 651l56 -2v-586h123v-63h-351v63h153v501l-152 -56l-21 55z" />
    <glyph glyph-name="one.numerator" horiz-adv-x="222" 
d="M20 589l118 64l34 -4v-369h-63v287l-75 -19z" />
    <glyph glyph-name="one.taboldstyle" 
d="M307 509l55 -2v-445h123v-62h-354v62h161v363l-156 -51l-16 53z" />
    <glyph glyph-name="oneoldstyle" horiz-adv-x="308" 
d="M188 511l55 -1v-510h-74v424l-117 -52l-17 53z" />
    <glyph glyph-name="oslash.sc" horiz-adv-x="678" 
d="M507 582l55 -37l-28 -40q104 -83 104 -225q0 -128 -84.5 -209t-214.5 -81q-76 0 -141 30l-31 -44l-52 34l29 43q-104 83 -104 227q0 128 84.5 209t214.5 81q74 0 139 -30zM496 450l-261 -375q48 -21 104 -21q96 0 160.5 58.5t64.5 167.5t-68 170zM182 109l259 377
q-48 20 -102 20q-96 0 -160.5 -58.5t-64.5 -167.5q0 -111 68 -171z" />
    <glyph glyph-name="otilde.sc" horiz-adv-x="678" 
d="M638 280q0 -128 -84.5 -209t-214.5 -81t-214.5 81t-84.5 209t84.5 209t214.5 81t214.5 -81t84.5 -209zM114 280q0 -109 64.5 -167.5t160.5 -58.5t160.5 58.5t64.5 167.5t-64.5 167.5t-160.5 58.5t-160.5 -58.5t-64.5 -167.5zM187 636l-21 48q46 41 106 41q38 0 74 -20
q35 -19 69 -19q41 0 67 25l31 -36q-40 -49 -97 -49q-40 0 -78 21q-37 20 -70 20q-43 0 -81 -31z" />
    <glyph glyph-name="p.sc" horiz-adv-x="523" 
d="M65 560h222q90 0 145.5 -48t55.5 -125q0 -84 -57.5 -130.5t-149.5 -46.5h-142v-210h-74v560zM139 497v-224h134q141 0 141 114q0 56 -35.5 83t-113.5 27h-126z" />
    <glyph glyph-name="parenleft.denominator" horiz-adv-x="157" 
d="M96 416l44 -22q-45 -88 -45 -207q0 -108 47 -202l-47 -22q-60 98 -60 224q0 130 61 229z" />
    <glyph glyph-name="parenleft.numerator" horiz-adv-x="157" 
d="M96 696l44 -22q-45 -88 -45 -207q0 -108 47 -202l-47 -22q-60 98 -60 224q0 130 61 229z" />
    <glyph glyph-name="parenright.denominator" horiz-adv-x="157" 
d="M15 392l46 24q61 -99 61 -228q0 -128 -61 -226l-45 23q45 84 45 203q0 115 -46 204z" />
    <glyph glyph-name="parenright.numerator" horiz-adv-x="157" 
d="M15 672l46 24q61 -99 61 -228q0 -128 -61 -226l-45 23q45 84 45 203q0 115 -46 204z" />
    <glyph glyph-name="percent" horiz-adv-x="722" 
d="M506 511l47 -32l-348 -497l-48 31zM176 236q-62 0 -104 39.5t-42 97.5t42 97.5t104 39.5t104 -39.5t42 -97.5t-42 -97.5t-104 -39.5zM176 291q39 0 62.5 22.5t23.5 59.5t-23.5 59.5t-62.5 22.5t-62.5 -22.5t-23.5 -59.5t23.5 -59.5t62.5 -22.5zM546 -10q-62 0 -104 39.5
t-42 97.5t42 97.5t104 39.5t104 -39.5t42 -97.5t-42 -97.5t-104 -39.5zM546 45q39 0 62.5 22.5t23.5 59.5t-23.5 59.5t-62.5 22.5t-62.5 -22.5t-23.5 -59.5t23.5 -59.5t62.5 -22.5z" />
    <glyph glyph-name="period.denominator" horiz-adv-x="140" 
d="M70 84q21 0 33 -12.5t12 -32.5q0 -21 -12 -33.5t-33 -12.5t-33 12.5t-12 33.5q0 20 12 32.5t33 12.5z" />
    <glyph glyph-name="period.numerator" horiz-adv-x="140" 
d="M70 364q21 0 33 -12.5t12 -32.5q0 -21 -12 -33.5t-33 -12.5t-33 12.5t-12 33.5q0 20 12 32.5t33 12.5z" />
    <glyph glyph-name="periodinferior" horiz-adv-x="140" 
d="M70 14q21 0 33 -12.5t12 -32.5q0 -21 -12 -33.5t-33 -12.5t-33 12.5t-12 33.5q0 20 12 32.5t33 12.5z" />
    <glyph glyph-name="periodsuperior" horiz-adv-x="140" 
d="M70 459q21 0 33 -12.5t12 -32.5q0 -21 -12 -33.5t-33 -12.5t-33 12.5t-12 33.5q0 20 12 32.5t33 12.5z" />
    <glyph glyph-name="q.sc" horiz-adv-x="678" 
d="M600 -47l-22 -67l-353 122q-85 30 -135 103.5t-50 168.5q0 128 84.5 209t214.5 81t214.5 -81t84.5 -209q0 -104 -56.5 -178t-151.5 -100zM114 280q0 -109 64.5 -167.5t160.5 -58.5t160.5 58.5t64.5 167.5t-64.5 167.5t-160.5 58.5t-160.5 -58.5t-64.5 -167.5z" />
    <glyph glyph-name="r.sc" horiz-adv-x="538" 
d="M65 560h222q89 0 142 -42t53 -114q0 -114 -129 -156l165 -248h-86l-154 240h-140v-240h-73v560zM138 497v-195h146q125 0 125 102q0 48 -32 70.5t-99 22.5h-140z" />
    <glyph glyph-name="racute.sc" horiz-adv-x="538" 
d="M65 560h222q89 0 142 -42t53 -114q0 -114 -129 -156l165 -248h-86l-154 240h-140v-240h-73v560zM138 497v-195h146q125 0 125 102q0 48 -32 70.5t-99 22.5h-140zM224 626l84 171l63 -38l-91 -133h-56z" />
    <glyph glyph-name="rcaron.sc" horiz-adv-x="538" 
d="M65 560h222q89 0 142 -42t53 -114q0 -114 -129 -156l165 -248h-86l-154 240h-140v-240h-73v560zM138 497v-195h146q125 0 125 102q0 48 -32 70.5t-99 22.5h-140zM138 788l126 -81l126 81l18 -43l-136 -113h-15l-137 113z" />
    <glyph glyph-name="rcommaaccent.sc" horiz-adv-x="538" 
d="M65 560h222q89 0 142 -42t53 -114q0 -114 -129 -156l165 -248h-86l-154 240h-140v-240h-73v560zM138 497v-195h146q125 0 125 102q0 48 -32 70.5t-99 22.5h-140zM243 -216l-20 37q57 23 57 68q-24 0 -37.5 13.5t-13.5 35.5t13.5 36t37.5 14q62 0 62 -77
q0 -42 -26.5 -76.5t-72.5 -50.5z" />
    <glyph glyph-name="rupiah" horiz-adv-x="576" 
d="M85 595h217q108 0 171 -42.5t63 -132.5q0 -91 -65 -136.5t-169 -45.5h-142v-73h173v-63h-173v-102h-75v102h-63v63h63v73h-63v63h63v294zM160 532v-231h133q82 0 126 27t44 92q0 112 -170 112h-133z" />
    <glyph glyph-name="s.sc" horiz-adv-x="505" 
d="M430 523l-31 -56q-64 41 -150 41q-59 0 -88.5 -22.5t-29.5 -58.5q0 -35 19.5 -53.5t61.5 -29.5l92 -24q77 -20 116.5 -58t39.5 -108q0 -72 -55 -118t-158 -46q-118 0 -197 46l26 64q45 -26 83.5 -36.5t91.5 -10.5q141 0 141 100q0 43 -25 65t-86 37l-100 25
q-56 14 -87 51.5t-31 93.5q0 65 49.5 105t133.5 40q110 0 184 -47z" />
    <glyph glyph-name="sacute.sc" horiz-adv-x="505" 
d="M430 523l-31 -56q-64 41 -150 41q-59 0 -88.5 -22.5t-29.5 -58.5q0 -35 19.5 -53.5t61.5 -29.5l92 -24q77 -20 116.5 -58t39.5 -108q0 -72 -55 -118t-158 -46q-118 0 -197 46l26 64q45 -26 83.5 -36.5t91.5 -10.5q141 0 141 100q0 43 -25 65t-86 37l-100 25
q-56 14 -87 51.5t-31 93.5q0 65 49.5 105t133.5 40q110 0 184 -47zM220 626l84 171l63 -38l-91 -133h-56z" />
    <glyph glyph-name="sb.liga" horiz-adv-x="1103" 
d="M428 478l-25 -57q-68 28 -149 28q-141 0 -141 -71q0 -38 36 -56t111 -28q195 -26 195 -157q0 -74 -61.5 -110.5t-173.5 -36.5q-105 0 -175 30l19 64q72 -31 152 -31q170 0 170 85q0 41 -34.5 61.5t-115.5 29.5q-190 21 -190 142q0 62 53.5 100.5t155.5 38.5q38 0 65 -4
q-22 38 -22 87q0 68 49 109t128 41q84 0 157 -28v-256q81 51 189 51q119 0 183 -63.5t64 -187.5q0 -122 -82.5 -195.5t-212.5 -73.5q-121 0 -213 49v630q-39 14 -82 14q-115 0 -115 -87q0 -43 13.5 -68t51.5 -50zM632 393v-309q63 -30 142 -30q101 0 161 54.5t60 151.5
q0 93 -46.5 141t-136.5 48q-100 0 -180 -56z" />
    <glyph glyph-name="scaron.sc" horiz-adv-x="505" 
d="M430 523l-31 -56q-64 41 -150 41q-59 0 -88.5 -22.5t-29.5 -58.5q0 -35 19.5 -53.5t61.5 -29.5l92 -24q77 -20 116.5 -58t39.5 -108q0 -72 -55 -118t-158 -46q-118 0 -197 46l26 64q45 -26 83.5 -36.5t91.5 -10.5q141 0 141 100q0 43 -25 65t-86 37l-100 25
q-56 14 -87 51.5t-31 93.5q0 65 49.5 105t133.5 40q110 0 184 -47zM143 788l126 -81l126 81l18 -43l-136 -113h-15l-137 113z" />
    <glyph glyph-name="scedilla.sc" horiz-adv-x="505" 
d="M430 523l-31 -56q-64 41 -150 41q-59 0 -88.5 -22.5t-29.5 -58.5q0 -35 19.5 -53.5t61.5 -29.5l92 -24q77 -20 116.5 -58t39.5 -108q0 -71 -53.5 -117t-153.5 -47l-5 -39q36 0 58.5 -23t22.5 -56q0 -50 -43.5 -86.5t-101.5 -46.5l-10 54q44 8 69 28t25 49q0 36 -43 36
h-36l3 86q-81 8 -142 44l26 64q45 -26 83.5 -36.5t91.5 -10.5q141 0 141 100q0 43 -25 65t-86 37l-100 25q-56 14 -87 51.5t-31 93.5q0 65 49.5 105t133.5 40q110 0 184 -47z" />
    <glyph glyph-name="scircumflex.sc" horiz-adv-x="505" 
d="M430 523l-31 -56q-64 41 -150 41q-59 0 -88.5 -22.5t-29.5 -58.5q0 -35 19.5 -53.5t61.5 -29.5l92 -24q77 -20 116.5 -58t39.5 -108q0 -72 -55 -118t-158 -46q-118 0 -197 46l26 64q45 -26 83.5 -36.5t91.5 -10.5q141 0 141 100q0 43 -25 65t-86 37l-100 25
q-56 14 -87 51.5t-31 93.5q0 65 49.5 105t133.5 40q110 0 184 -47zM258 693l-126 -81l-18 43l137 113h15l136 -113l-18 -43z" />
    <glyph glyph-name="scommaaccent.sc" horiz-adv-x="505" 
d="M430 523l-31 -56q-64 41 -150 41q-59 0 -88.5 -22.5t-29.5 -58.5q0 -35 19.5 -53.5t61.5 -29.5l92 -24q77 -20 116.5 -58t39.5 -108q0 -72 -55 -118t-158 -46q-118 0 -197 46l26 64q45 -26 83.5 -36.5t91.5 -10.5q141 0 141 100q0 43 -25 65t-86 37l-100 25
q-56 14 -87 51.5t-31 93.5q0 65 49.5 105t133.5 40q110 0 184 -47zM205 -263l-20 37q57 23 57 68q-24 0 -37.5 13.5t-13.5 35.5t13.5 36t37.5 14q62 0 62 -77q0 -42 -26.5 -76.5t-72.5 -50.5z" />
    <glyph glyph-name="seven.denominator" horiz-adv-x="322" 
d="M25 370h274v-45l-166 -325h-69l162 312h-201v58z" />
    <glyph glyph-name="seven.fitted" 
d="M85 650h417v-52l-261 -598h-83l260 584h-333v66z" />
    <glyph glyph-name="seven.numerator" horiz-adv-x="322" 
d="M25 650h274v-45l-166 -325h-69l162 312h-201v58z" />
    <glyph glyph-name="seven.taboldstyle" 
d="M87 510h427v-50l-276 -595h-80l271 578h-342v67z" />
    <glyph glyph-name="sevenoldstyle" horiz-adv-x="522" 
d="M45 510h427v-50l-276 -595h-80l271 578h-342v67z" />
    <glyph glyph-name="sh.liga" horiz-adv-x="1102" 
d="M428 479l-25 -58q-68 28 -149 28q-141 0 -141 -71q0 -38 36 -56t111 -28q195 -26 195 -157q0 -74 -61.5 -110.5t-173.5 -36.5q-105 0 -175 30l19 64q72 -31 152 -31q170 0 170 85q0 41 -34.5 61.5t-115.5 29.5q-190 21 -190 142q0 62 53.5 100.5t155.5 38.5q38 0 65 -4
q-22 38 -22 87q0 68 49 109t128 41q84 0 157 -28v-299q69 94 193 94q101 0 156.5 -56t55.5 -162v-292h-72v293q0 75 -35.5 115t-104.5 40q-67 0 -111.5 -26.5t-81.5 -84.5v-337h-72v669q-39 14 -82 14q-115 0 -115 -87q0 -43 13.5 -67.5t51.5 -49.5z" />
    <glyph glyph-name="six.denominator" horiz-adv-x="361" 
d="M92 160q2 -49 24 -79.5t64 -30.5q87 0 87 68q0 69 -75 69q-56 0 -100 -27zM286 379l4 -57q-92 -1 -138.5 -26.5t-58.5 -88.5q42 38 108 38q55 0 92.5 -32t37.5 -95t-42 -95t-109 -32q-72 0 -111 50t-39 133q0 202 256 205z" />
    <glyph glyph-name="six.fitted" 
d="M447 662l8 -64q-142 -2 -231 -65t-89 -196q69 69 187 69q88 0 145.5 -55.5t57.5 -149.5q0 -103 -64.5 -158.5t-157.5 -55.5q-115 0 -179 81.5t-64 242.5q0 88 29.5 155.5t82.5 109.5t122.5 63.5t152.5 22.5zM136 269q0 -101 44 -159t121 -58q69 0 109 39t40 110
q0 139 -143 139q-100 0 -171 -71z" />
    <glyph glyph-name="six.numerator" horiz-adv-x="361" 
d="M92 440q2 -49 24 -79.5t64 -30.5q87 0 87 68q0 69 -75 69q-56 0 -100 -27zM286 659l4 -57q-92 -1 -138.5 -26.5t-58.5 -88.5q42 38 108 38q55 0 92.5 -32t37.5 -95t-42 -95t-109 -32q-72 0 -111 50t-39 133q0 202 256 205z" />
    <glyph glyph-name="six.taboldstyle" 
d="M462 650l4 -63q-319 -13 -319 -254q74 73 183 73q89 0 147.5 -56t58.5 -152q0 -104 -69 -157.5t-163 -53.5q-108 0 -170 81.5t-62 242.5q0 69 20.5 125.5t56 95t85 65.5t106.5 39.5t122 13.5zM147 270q0 -112 45 -164.5t117 -52.5q75 0 114 36.5t39 108.5q0 69 -37 107
t-107 38q-95 0 -171 -73z" />
    <glyph glyph-name="sixoldstyle" horiz-adv-x="549" 
d="M435 650l4 -63q-319 -13 -319 -254q74 73 183 73q89 0 147.5 -56t58.5 -152q0 -104 -69 -157.5t-163 -53.5q-108 0 -170 81.5t-62 242.5q0 69 20.5 125.5t56 95t85 65.5t106.5 39.5t122 13.5zM120 270q0 -112 45 -164.5t117 -52.5q75 0 114 36.5t39 108.5q0 69 -37 107
t-107 38q-95 0 -171 -73z" />
    <glyph glyph-name="sk.liga" horiz-adv-x="1037" 
d="M632 715v-440l99 67l178 158h91l1 -8l-218 -188l234 -296l-2 -8h-83l-206 264l-94 -55v-209h-72v669q-39 14 -82 14q-115 0 -115 -87q0 -43 13.5 -67.5t51.5 -49.5l-25 -58q-68 28 -149 28q-141 0 -141 -71q0 -38 36 -56t111 -28q195 -26 195 -157q0 -74 -61.5 -110.5
t-173.5 -36.5q-105 0 -175 30l19 64q72 -31 152 -31q170 0 170 85q0 41 -34.5 61.5t-115.5 29.5q-190 21 -190 142q0 62 53.5 100.5t155.5 38.5q38 0 65 -4q-22 38 -22 87q0 68 49 109t128 41q84 0 157 -28z" />
    <glyph glyph-name="st.liga" horiz-adv-x="913" 
d="M427 477l-24 -56q-68 28 -149 28q-141 0 -141 -71q0 -38 36 -56t111 -28q195 -26 195 -157q0 -74 -61.5 -110.5t-173.5 -36.5q-105 0 -175 30l19 64q72 -31 152 -31q170 0 170 85q0 41 -34.5 61.5t-115.5 29.5q-190 21 -190 142q0 62 53.5 100.5t155.5 38.5q38 0 63 -4
q-23 38 -23 88q0 66 54.5 107.5t130.5 41.5q83 0 134 -42t51 -105q0 -54 -26 -96h222l-4 -65l-202 8v-277q0 -112 108 -112q57 0 109 31l26 -57q-56 -38 -143 -38q-172 0 -172 175v269l-70 13v25q86 39 86 118q0 47 -32 72t-90 25q-54 0 -84.5 -25.5t-30.5 -70.5
q0 -42 14 -68.5t51 -45.5z" />
    <glyph glyph-name="t.sc" horiz-adv-x="498" 
d="M35 560h428v-63h-177v-497h-74v497h-177v63z" />
    <glyph glyph-name="tcaron.sc" horiz-adv-x="498" 
d="M35 560h428v-63h-177v-497h-74v497h-177v63zM122 788l126 -81l126 81l18 -43l-136 -113h-15l-137 113z" />
    <glyph glyph-name="tcommaaccent.sc" horiz-adv-x="498" 
d="M35 560h428v-63h-177v-497h-74v497h-177v63zM213 -256l-20 37q57 23 57 68q-24 0 -37.5 13.5t-13.5 35.5t13.5 36t37.5 14q62 0 62 -77q0 -42 -26.5 -76.5t-72.5 -50.5z" />
    <glyph glyph-name="thorn.sc" horiz-adv-x="538" 
d="M65 570h73v-81h153q90 0 148.5 -54t58.5 -132q0 -86 -61.5 -139.5t-151.5 -53.5h-147v-110h-73v570zM138 426v-253h143q67 0 105 33.5t38 96.5q0 123 -155 123h-131z" />
    <glyph glyph-name="three.denominator" horiz-adv-x="350" 
d="M262 207q54 -29 54 -90t-44 -93.5t-110 -32.5q-82 0 -137 40l25 50q48 -33 108 -33q43 0 71 17t28 50q0 30 -17 44t-60 14h-78v54h69q33 0 49 10t16 36q0 49 -72 49q-51 0 -94 -29l-31 43q55 43 131 43q48 0 86.5 -26t38.5 -72q0 -52 -33 -74z" />
    <glyph glyph-name="three.fitted" 
d="M197 391h92q52 0 84 29.5t32 74.5q0 49 -34.5 76.5t-87.5 27.5q-87 0 -159 -54l-34 56q80 62 196 62q86 0 140 -44.5t54 -114.5q0 -41 -20 -77.5t-57 -56.5v-6q54 -17 84.5 -59t30.5 -105q0 -91 -63 -152t-175 -61q-70 0 -120.5 17.5t-97.5 56.5l36 58q79 -65 180 -65
q77 0 121 39.5t44 104.5q0 130 -148 130h-98v63z" />
    <glyph glyph-name="three.numerator" horiz-adv-x="350" 
d="M262 487q54 -29 54 -90t-44 -93.5t-110 -32.5q-82 0 -137 40l25 50q48 -33 108 -33q43 0 71 17t28 50q0 30 -17 44t-60 14h-78v54h69q33 0 49 10t16 36q0 49 -72 49q-51 0 -94 -29l-31 43q55 43 131 43q48 0 86.5 -26t38.5 -72q0 -52 -33 -74z" />
    <glyph glyph-name="three.taboldstyle" 
d="M191 255h98q54 0 83 25.5t29 70.5q0 51 -32.5 78t-92.5 27q-81 0 -155 -50l-29 52q80 62 192 62q85 0 137.5 -44t52.5 -114q0 -89 -73 -129v-4q109 -37 109 -154q0 -107 -78.5 -163.5t-196.5 -56.5q-89 0 -160 26l21 63q59 -21 142 -21q89 0 143 40t54 110q0 64 -35 91
t-104 27h-105v64z" />
    <glyph glyph-name="threeoldstyle" horiz-adv-x="530" 
d="M161 255h98q54 0 83 25.5t29 70.5q0 51 -32.5 78t-92.5 27q-81 0 -155 -50l-29 52q80 62 192 62q85 0 137.5 -44t52.5 -114q0 -89 -73 -129v-4q109 -37 109 -154q0 -107 -78.5 -163.5t-196.5 -56.5q-89 0 -160 26l21 63q59 -21 142 -21q89 0 143 40t54 110q0 64 -35 91
t-104 27h-105v64z" />
    <glyph glyph-name="two.denominator" horiz-adv-x="331" 
d="M295 61v-61h-265v62l159 116q49 35 49 80q0 59 -77 59q-54 0 -101 -43l-35 48q63 57 141 57q61 0 98 -33t37 -87q0 -71 -54 -111l-122 -87h170z" />
    <glyph glyph-name="two.fitted" 
d="M89 0v67l228 221q57 56 84.5 100t27.5 90q0 58 -38.5 89t-101.5 31q-98 0 -176 -59l-36 59q50 36 100 50.5t118 14.5q96 0 153.5 -49t57.5 -135q0 -110 -123 -226l-187 -178v-6h311v-69h-418z" />
    <glyph glyph-name="two.numerator" horiz-adv-x="331" 
d="M295 341v-61h-265v62l159 116q49 35 49 80q0 59 -77 59q-54 0 -101 -43l-35 48q63 57 141 57q61 0 98 -33t37 -87q0 -71 -54 -111l-122 -87h170z" />
    <glyph glyph-name="two.taboldstyle" 
d="M106 71l231 147q62 39 83 67t21 71q0 100 -130 100q-82 0 -175 -61l-29 57q94 68 207 68q96 0 148 -43.5t52 -118.5q0 -54 -28.5 -96.5t-91.5 -82.5l-167 -105v-7h285v-67h-406v71z" />
    <glyph glyph-name="twooldstyle" horiz-adv-x="528" 
d="M60 71l231 147q62 39 83 67t21 71q0 100 -130 100q-82 0 -175 -61l-29 57q94 68 207 68q96 0 148 -43.5t52 -118.5q0 -54 -28.5 -96.5t-91.5 -82.5l-167 -105v-7h285v-67h-406v71z" />
    <glyph glyph-name="u.sc" horiz-adv-x="612" 
d="M65 560h74v-331q0 -84 45 -130.5t122 -46.5q75 0 121 47t46 130v331h74v-320q0 -120 -65.5 -185.5t-175.5 -65.5t-175.5 63t-65.5 183v325z" />
    <glyph glyph-name="uacute.sc" horiz-adv-x="612" 
d="M65 560h74v-331q0 -84 45 -130.5t122 -46.5q75 0 121 47t46 130v331h74v-320q0 -120 -65.5 -185.5t-175.5 -65.5t-175.5 63t-65.5 183v325zM275 616l84 171l63 -38l-91 -133h-56z" />
    <glyph glyph-name="ubreve.sc" horiz-adv-x="612" 
d="M65 560h74v-331q0 -84 45 -130.5t122 -46.5q75 0 121 47t46 130v331h74v-320q0 -120 -65.5 -185.5t-175.5 -65.5t-175.5 63t-65.5 183v325zM156 719l48 20q30 -58 101 -58t104 58l47 -20q-38 -99 -151 -99q-52 0 -92 27t-57 72z" />
    <glyph glyph-name="ucircumflex.sc" horiz-adv-x="612" 
d="M65 560h74v-331q0 -84 45 -130.5t122 -46.5q75 0 121 47t46 130v331h74v-320q0 -120 -65.5 -185.5t-175.5 -65.5t-175.5 63t-65.5 183v325zM306 703l-126 -81l-18 43l137 113h15l136 -113l-18 -43z" />
    <glyph glyph-name="udieresis.sc" horiz-adv-x="612" 
d="M65 560h74v-331q0 -84 45 -130.5t122 -46.5q75 0 121 47t46 130v331h74v-320q0 -120 -65.5 -185.5t-175.5 -65.5t-175.5 63t-65.5 183v325zM196 742q24 0 39 -14t15 -38q0 -23 -15 -37t-39 -14q-23 0 -37.5 14.5t-14.5 36.5q0 24 14.5 38t37.5 14zM416 742
q22 0 37.5 -14.5t15.5 -37.5q0 -22 -15.5 -36.5t-37.5 -14.5t-38 14.5t-16 36.5q0 23 15.5 37.5t38.5 14.5z" />
    <glyph glyph-name="ugrave.sc" horiz-adv-x="612" 
d="M65 560h74v-331q0 -84 45 -130.5t122 -46.5q75 0 121 47t46 130v331h74v-320q0 -120 -65.5 -185.5t-175.5 -65.5t-175.5 63t-65.5 183v325zM257 787l84 -171h-56l-91 133z" />
    <glyph glyph-name="uhungarumlaut.sc" horiz-adv-x="612" 
d="M65 560h74v-331q0 -84 45 -130.5t122 -46.5q75 0 121 47t46 130v331h74v-320q0 -120 -65.5 -185.5t-175.5 -65.5t-175.5 63t-65.5 183v325zM225 616l48 174l66 -25l-64 -149h-50zM324 616l77 164l62 -39l-87 -125h-52z" />
    <glyph glyph-name="umacron.sc" horiz-adv-x="612" 
d="M65 560h74v-331q0 -84 45 -130.5t122 -46.5q75 0 121 47t46 130v331h74v-320q0 -120 -65.5 -185.5t-175.5 -65.5t-175.5 63t-65.5 183v325zM151 707h311v-63h-311v63z" />
    <glyph glyph-name="uni0201.sc" horiz-adv-x="631" 
d="M270 560h92l244 -560h-75l-73 167h-287l-72 -167h-74zM309 495l-113 -265h237l-111 265h-13zM337 800l48 -174h-50l-64 149zM209 790l77 -164h-52l-87 125z" />
    <glyph glyph-name="uni0203.sc" horiz-adv-x="631" 
d="M270 560h92l244 -560h-75l-73 167h-287l-72 -167h-74zM309 495l-113 -265h237l-111 265h-13zM317 693l-126 -81l-18 43l137 113h15l136 -113l-18 -43z" />
    <glyph glyph-name="uni0205.sc" horiz-adv-x="488" 
d="M65 0v560h371v-63h-298v-173h272v-62h-272v-199h310v-63h-383zM296 800l48 -174h-50l-64 149zM168 790l77 -164h-52l-87 125z" />
    <glyph glyph-name="uni0207.sc" horiz-adv-x="488" 
d="M65 0v560h371v-63h-298v-173h272v-62h-272v-199h310v-63h-383zM263 703l-126 -81l-18 43l137 113h15l136 -113l-18 -43z" />
    <glyph glyph-name="uni0209.sc" horiz-adv-x="204" 
d="M65 560h74v-560h-74v560zM139 800l48 -174h-50l-64 149zM11 790l77 -164h-52l-87 125z" />
    <glyph glyph-name="uni020B.sc" horiz-adv-x="204" 
d="M65 560h74v-560h-74v560zM102 693l-126 -81l-18 43l137 113h15l136 -113l-18 -43z" />
    <glyph glyph-name="uni020D.sc" horiz-adv-x="678" 
d="M638 280q0 -128 -84.5 -209t-214.5 -81t-214.5 81t-84.5 209t84.5 209t214.5 81t214.5 -81t84.5 -209zM114 280q0 -109 64.5 -167.5t160.5 -58.5t160.5 58.5t64.5 167.5t-64.5 167.5t-160.5 58.5t-160.5 -58.5t-64.5 -167.5zM367 800l48 -174h-50l-64 149zM239 790
l77 -164h-52l-87 125z" />
    <glyph glyph-name="uni020F.sc" horiz-adv-x="678" 
d="M638 280q0 -128 -84.5 -209t-214.5 -81t-214.5 81t-84.5 209t84.5 209t214.5 81t214.5 -81t84.5 -209zM114 280q0 -109 64.5 -167.5t160.5 -58.5t160.5 58.5t64.5 167.5t-64.5 167.5t-160.5 58.5t-160.5 -58.5t-64.5 -167.5zM340 693l-126 -81l-18 43l137 113h15
l136 -113l-18 -43z" />
    <glyph glyph-name="uni0211.sc" horiz-adv-x="538" 
d="M65 560h222q89 0 142 -42t53 -114q0 -114 -129 -156l165 -248h-86l-154 240h-140v-240h-73v560zM138 497v-195h146q125 0 125 102q0 48 -32 70.5t-99 22.5h-140zM287 800l48 -174h-50l-64 149zM159 790l77 -164h-52l-87 125z" />
    <glyph glyph-name="uni0213.sc" horiz-adv-x="538" 
d="M65 560h222q89 0 142 -42t53 -114q0 -114 -129 -156l165 -248h-86l-154 240h-140v-240h-73v560zM138 497v-195h146q125 0 125 102q0 48 -32 70.5t-99 22.5h-140zM261 703l-126 -81l-18 43l137 113h15l136 -113l-18 -43z" />
    <glyph glyph-name="uni0215.sc" horiz-adv-x="612" 
d="M65 560h74v-331q0 -84 45 -130.5t122 -46.5q75 0 121 47t46 130v331h74v-320q0 -120 -65.5 -185.5t-175.5 -65.5t-175.5 63t-65.5 183v325zM338 790l48 -174h-50l-64 149zM210 780l77 -164h-52l-87 125z" />
    <glyph glyph-name="uni0217.sc" horiz-adv-x="612" 
d="M65 560h74v-331q0 -84 45 -130.5t122 -46.5q75 0 121 47t46 130v331h74v-320q0 -120 -65.5 -185.5t-175.5 -65.5t-175.5 63t-65.5 183v325zM306 703l-126 -81l-18 43l137 113h15l136 -113l-18 -43z" />
    <glyph glyph-name="uni021B.sc" horiz-adv-x="498" 
d="M35 560h428v-63h-177v-497h-74v497h-177v63zM205 -264l-20 37q57 23 57 68q-24 0 -37.5 13.5t-13.5 35.5t13.5 36t37.5 14q62 0 62 -77q0 -42 -26.5 -76.5t-72.5 -50.5z" />
    <glyph glyph-name="uogonek.sc" horiz-adv-x="612" 
d="M65 560h74v-331q0 -84 45 -130.5t122 -46.5q75 0 121 47t46 130v331h74v-320q0 -107 -53 -171t-144 -77q-35 -25 -35 -68q0 -49 58 -49q15 0 25 3l-13 -49q-14 -6 -38 -6q-40 0 -66.5 22.5t-26.5 60.5q0 53 38 83q-104 4 -165.5 67t-61.5 179v325z" />
    <glyph glyph-name="uring.sc" horiz-adv-x="612" 
d="M65 560h74v-331q0 -84 45 -130.5t122 -46.5q75 0 121 47t46 130v331h74v-320q0 -120 -65.5 -185.5t-175.5 -65.5t-175.5 63t-65.5 183v325zM306 592q-47 0 -80.5 30.5t-33.5 75.5t33.5 75.5t80.5 30.5t80.5 -30.5t33.5 -75.5t-33.5 -75.5t-80.5 -30.5zM367 698
q0 25 -17 41.5t-44 16.5t-44 -16.5t-17 -41.5t17 -41.5t44 -16.5t44 16.5t17 41.5z" />
    </font>
</defs>
</svg>
