<?xml version="1.0" standalone="no"?>
<!DOCTYPE svg PUBLIC "-//W3C//DTD SVG 1.1//EN" "http://www.w3.org/Graphics/SVG/1.1/DTD/svg11.dtd" >
<svg xmlns="http://www.w3.org/2000/svg" xmlns:xlink="http://www.w3.org/1999/xlink" version="1.1">
<metadata>
Created by FontForge 20201107 at Fri Jan 18 01:43:55 2013
 By 
Copyright (c) 2012 by Glenjan. All rights reserved.
</metadata>
<defs>
<font id="IdealistSans" horiz-adv-x="590" >
  <font-face 
    font-family="Idealist Sans"
    font-weight="400"
    font-stretch="normal"
    units-per-em="1000"
    panose-1="0 0 0 0 0 0 0 0 0 0"
    ascent="750"
    descent="-250"
    x-height="500"
    cap-height="650"
    bbox="-79 -278 6315 1009"
    underline-thickness="50"
    underline-position="-200"
    unicode-range="U+0020-25CA"
  />
<missing-glyph horiz-adv-x="510" 
d="M105 400h328l-328 -284l109 190z" />
    <glyph glyph-name="germandbls" unicode="&#x17f;s" horiz-adv-x="635" 
d="M65 0v541q0 82 66.5 135.5t166.5 53.5q97 0 142.5 -45.5t45.5 -112.5q0 -98 -100 -139q-35 -15 -49 -29t-14 -37q0 -50 92 -68q97 -18 142.5 -55t45.5 -101q0 -75 -59.5 -114t-158.5 -39q-54 0 -89 7t-78 27l24 76q73 -35 143 -35t100 19t30 60q0 29 -30 45t-96 29
q-155 29 -155 146q0 52 27 80.5t74 47.5q69 28 69 81q0 39 -29 58.5t-75 19.5q-73 0 -107.5 -31.5t-34.5 -85.5v-534h-93z" />
    <glyph glyph-name="fb.liga" unicode="fb" horiz-adv-x="999" 
d="M20 500h87v33q0 86 57 141.5t147 55.5q116 0 207 -70v-194q73 44 172 44q122 0 185.5 -64.5t63.5 -190.5q0 -119 -83.5 -192t-212.5 -73q-69 0 -116.5 12t-101.5 41v573q-46 34 -112 34q-113 0 -113 -114v-36h152l-4 -77l-148 5v-428h-93v423l-87 12v65zM518 388v-293
q59 -27 126 -27q93 0 147 48.5t54 139.5q0 90 -39.5 134.5t-123.5 44.5q-97 0 -164 -47z" />
    <glyph glyph-name="ff.liga" unicode="ff" horiz-adv-x="671" 
d="M20 500h87v33q0 87 53.5 142t142.5 55q99 0 172 -48q53 48 134 48q93 0 161 -43l-45 -73q-51 36 -104 36q-114 0 -114 -114v-36h153l-4 -77l-149 5v-428h-93v421l-214 8v-429h-93v423l-87 12v65zM200 500h214v33q0 45 13 78q-49 39 -114 39q-113 0 -113 -114v-36z" />
    <glyph glyph-name="ffi.liga" unicode="ffi" horiz-adv-x="855" 
d="M697 0v422l-190 7v-429h-93v421l-214 8v-429h-93v423l-87 12v65h87v33q0 87 53.5 142t142.5 55q99 0 172 -48q53 48 134 48q95 0 161 -43l-45 -73q-51 36 -104 36q-114 0 -114 -114v-36h283v-500h-93zM200 500h214v33q0 45 13 78q-49 39 -114 39q-113 0 -113 -114v-36z
" />
    <glyph glyph-name="ffj.liga" unicode="ffj" horiz-adv-x="855" 
d="M20 500h87v33q0 87 53.5 142t142.5 55q99 0 172 -48q53 48 134 48q95 0 161 -43l-45 -72q-52 35 -104 35q-114 0 -114 -114v-36h283v-529q0 -101 -52 -156.5t-149 -57.5l-7 79q59 4 86.5 32t27.5 86v468l-189 7v-429h-93v421l-214 8v-429h-93v423l-87 12v65zM200 500h214
v33q0 45 13 78q-49 39 -114 39q-113 0 -113 -114v-36z" />
    <glyph glyph-name="fh.liga" unicode="fh" horiz-adv-x="966" 
d="M20 500h87v33q0 86 57 141.5t147 55.5q116 0 207 -70v-232q66 82 181 82q103 0 155 -56t52 -163v-291h-93v292q0 142 -114 142q-108 0 -181 -88v-346h-93v616q-46 34 -112 34q-113 0 -113 -114v-36h152l-4 -77l-148 5v-428h-93v423l-87 12v65z" />
    <glyph glyph-name="fi.liga" unicode="fi" horiz-adv-x="547" 
d="M20 500h87v33q0 87 52.5 142t141.5 55q95 0 161 -43l-45 -73q-51 36 -104 36q-113 0 -113 -114v-36h282v-500h-93v422l-189 7v-429h-93v423l-87 12v65z" />
    <glyph glyph-name="fj.liga" unicode="fj" horiz-adv-x="547" 
d="M20 500h87v33q0 87 52.5 142t141.5 55q97 0 161 -43l-45 -71q-50 34 -104 34q-113 0 -113 -114v-36h282v-529q0 -101 -51.5 -156.5t-148.5 -57.5l-7 79q59 4 86.5 32t27.5 86v468l-189 7v-429h-93v423l-87 12v65z" />
    <glyph glyph-name="fk.liga" unicode="fk" horiz-adv-x="940" 
d="M518 660v-368l80 53l174 155h109l2 -10l-217 -189l227 -293l-3 -8h-105l-190 255l-77 -43v-212h-92v616q-48 34 -113 34q-113 0 -113 -114v-36h152l-4 -77l-148 5v-428h-93v423l-87 12v65h87v33q0 86 57 141.5t147 55.5q116 0 207 -70z" />
    <glyph glyph-name="fl.liga" unicode="fl" horiz-adv-x="602" 
d="M20 500h87v33q0 86 57 141.5t147 55.5q116 0 207 -70v-516q0 -39 14.5 -51.5t59.5 -12.5v-85q-8 -1 -24 -1q-76 0 -109.5 42t-33.5 122v458q-46 34 -112 34q-113 0 -113 -114v-36h152l-4 -77l-148 5v-428h-93v423l-87 12v65z" />
    <glyph glyph-name="ft.liga" unicode="ft" horiz-adv-x="731" 
d="M683 500l-3 -77l-196 8v-262q0 -54 25 -79.5t68 -25.5q58 0 114 35l30 -67q-59 -42 -154 -42q-86 0 -131.5 45.5t-45.5 132.5v256l-190 8v-432h-93v423l-87 12v65h87v33q0 87 53 142t142 55q85 0 135 -40t50 -100q0 -54 -20 -90h216zM200 500h113q90 0 90 80
q0 33 -25 51.5t-68 18.5q-59 0 -84.5 -29t-25.5 -85v-36z" />
    <glyph glyph-name="ii.liga" unicode="i&#x457;" horiz-adv-x="446" 
d="M65 500h93v-500h-93v500zM223 691q29 0 45.5 -16.5t16.5 -43.5q0 -26 -17 -43t-45 -17q-27 0 -44.5 17.5t-17.5 42.5q0 26 17 43t45 17zM416 691q29 0 45.5 -16.5t16.5 -43.5q0 -26 -17 -43t-45 -17q-27 0 -44.5 17.5t-17.5 42.5q0 26 17 43t45 17zM288 500h93v-500h-93
v500zM30 691q29 0 45.5 -16.5t16.5 -43.5q0 -26 -17 -43t-45 -17q-27 0 -44.5 17.5t-17.5 42.5q0 26 17 43t45 17z" />
    <glyph glyph-name="lsb.liga" unicode="&#x17f;b" horiz-adv-x="901" 
d="M65 0v535q0 87 53.5 141t143.5 54t158 -43v-221q73 44 172 44q122 0 185.5 -64.5t63.5 -190.5q0 -119 -83.5 -192t-212.5 -73q-69 0 -116.5 12t-101.5 41v600q-24 7 -56 7q-113 0 -113 -114v-536h-93zM420 388v-293q59 -27 126 -27q93 0 147 48.5t54 139.5
q0 90 -39.5 134.5t-123.5 44.5q-97 0 -164 -47z" />
    <glyph glyph-name="lsh.liga" unicode="&#x17f;h" horiz-adv-x="868" 
d="M65 0v535q0 87 53.5 141t143.5 54t158 -43v-259q66 82 181 82q103 0 155 -56t52 -163v-291h-93v292q0 142 -114 142q-108 0 -181 -88v-346h-93v643q-24 7 -56 7q-113 0 -113 -114v-536h-93z" />
    <glyph glyph-name="lsi.liga" unicode="&#x17f;i" horiz-adv-x="454" 
d="M296 0v500h93v-500h-93zM65 0v533q0 87 53 142t142 55q93 0 161 -43l-45 -71q-46 34 -104 34q-114 0 -114 -114v-536h-93z" />
    <glyph glyph-name="lsj.liga" unicode="&#x17f;j" horiz-adv-x="454" 
d="M65 0v533q0 87 53 142t142 55q93 0 161 -43l-45 -74q-47 37 -107 37t-85.5 -29t-25.5 -85v-536h-93zM295 500h94v-529q0 -101 -52 -156.5t-149 -57.5l-7 79q59 4 86.5 32t27.5 86v546z" />
    <glyph glyph-name="lsk.liga" unicode="&#x17f;k" horiz-adv-x="842" 
d="M674 500h109l2 -10l-217 -189l227 -293l-3 -8h-105l-190 255l-77 -43v-212h-92v643q-24 7 -57 7q-113 0 -113 -114v-536h-93v535q0 87 53.5 141t143.5 54t158 -43v-395l80 53z" />
    <glyph glyph-name="lsl.liga" unicode="&#x17f;l" horiz-adv-x="503" 
d="M65 0v535q0 87 53.5 141t143.5 54t158 -43v-543q0 -39 14 -51.5t59 -12.5v-84q-16 -2 -24 -2q-76 0 -108.5 42t-32.5 122v485q-24 7 -57 7q-113 0 -113 -114v-536h-93z" />
    <glyph glyph-name="lsls.liga" unicode="&#x17f;&#x17f;" horiz-adv-x="505" 
d="M65 0v533q0 89 54.5 143t144.5 54q78 0 130 -30q47 30 111 30q93 0 161 -43l-45 -70q-49 33 -104 33q-114 0 -114 -114v-536h-93v533q0 57 25 104q-31 13 -63 13q-114 0 -114 -114v-536h-93z" />
    <glyph glyph-name="lslsi.liga" unicode="&#x17f;&#x17f;i" horiz-adv-x="709" 
d="M65 0v533q0 89 54.5 143t144.5 54q78 0 130 -30q47 30 111 30q93 0 161 -43l-45 -70q-44 33 -104 33q-114 0 -114 -114v-536h-93v533q0 57 25 104q-31 13 -63 13q-114 0 -114 -114v-536h-93zM551 0v500h93v-500h-93z" />
    <glyph glyph-name="lslsj.liga" unicode="&#x17f;&#x17f;j" horiz-adv-x="709" 
d="M65 0v533q0 89 54.5 143t144.5 54q78 0 130 -30q47 30 111 30q93 0 161 -43l-35 -74q-47 37 -114 37q-114 0 -114 -114v-536h-93v533q0 57 25 104q-31 13 -63 13q-114 0 -114 -114v-536h-93zM550 500h94v-529q0 -101 -52 -156.5t-149 -57.5l-7 79q59 4 86.5 32t27.5 86
v546z" />
    <glyph glyph-name="lst.liga" unicode="&#x17f;t" horiz-adv-x="711" 
d="M107 0v533q0 88 49.5 142.5t137.5 54.5q84 0 131.5 -39.5t47.5 -100.5q0 -50 -25 -90h215l-3 -77l-196 8v-262q0 -54 25 -79.5t68 -25.5q58 0 114 35l30 -67q-59 -42 -154 -42q-86 0 -131.5 45.5t-45.5 132.5v255l-68 11v35q87 28 87 111q0 33 -22.5 51.5t-64.5 18.5
q-58 0 -80 -29.5t-22 -87.5v-533h-93z" />
    <glyph glyph-name=".notdef" horiz-adv-x="510" 
d="M105 400h328l-328 -284l109 190z" />
    <glyph glyph-name=".null" horiz-adv-x="0" 
 />
    <glyph glyph-name="nonmarkingreturn" horiz-adv-x="333" 
 />
    <glyph glyph-name="space" unicode=" " horiz-adv-x="286" 
 />
    <glyph glyph-name="exclam" unicode="!" horiz-adv-x="225" 
d="M65 679h95l-13 -509h-69zM112 121q31 0 49 -18.5t18 -47.5t-17.5 -46t-49.5 -17q-31 0 -48.5 17t-17.5 46t17.5 47.5t48.5 18.5z" />
    <glyph glyph-name="quotedbl" unicode="&#x22;" horiz-adv-x="298" 
d="M46 473l-1 177h86l-20 -183zM168 463l-1 187h86l-20 -193z" />
    <glyph glyph-name="numbersign" unicode="#" horiz-adv-x="524" 
d="M167 530l71 -6l-10 -99h77l11 105l72 -6l-10 -99h106l-3 -65h-109l-7 -73h110l-3 -64h-112l-11 -97l-71 5l9 92h-76l-11 -97l-72 5l9 92h-97l3 64h100l8 73h-102l3 65h103zM223 360l-7 -73h77l7 73h-77z" />
    <glyph glyph-name="dollar" unicode="$" horiz-adv-x="543" 
d="M231 673h85v-68q76 -7 140 -49l-37 -69q-72 45 -158 45q-62 0 -85 -21t-23 -57q0 -55 78 -78l90 -27q170 -50 170 -187q0 -68 -45.5 -113.5t-129.5 -57.5v-74h-85v71q-103 4 -188 52l25 79q91 -50 191 -50q141 0 141 87q0 47 -24.5 69.5t-85.5 39.5l-97 27
q-60 17 -94.5 59.5t-34.5 100.5q0 66 43.5 106.5t123.5 47.5v67z" />
    <glyph glyph-name="uni0025" unicode="%" horiz-adv-x="717" 
d="M501 512l56 -38l-348 -496l-57 37zM179 231q-62 0 -105.5 39.5t-43.5 99.5t43 100t106 40q61 0 105 -41t44 -99q0 -60 -44 -99.5t-105 -39.5zM179 294q33 0 55.5 20.5t22.5 55.5t-21.5 56t-56.5 21q-36 0 -57.5 -21.5t-21.5 -55.5t22 -55t57 -21zM538 -10
q-62 0 -105.5 39.5t-43.5 99.5t43 100t106 40q61 0 105 -41t44 -99q0 -60 -44 -99.5t-105 -39.5zM538 53q33 0 55.5 20.5t22.5 55.5t-21.5 56t-56.5 21q-36 0 -57.5 -21.5t-21.5 -55.5t22 -55t57 -21z" />
    <glyph glyph-name="ampersand" unicode="&#x26;" horiz-adv-x="714" 
d="M441 431h217l5 -71h-51q-1 -79 -12 -128t-41 -100q58 -52 126 -61l-26 -79q-52 7 -84.5 22.5t-68.5 49.5q-48 -41 -97 -59t-114 -18q-111 0 -183 58t-72 155q0 57 32 104t84 74q-52 43 -52 115q0 61 58 101.5t147 40.5q108 0 193 -52l-39 -69q-66 46 -154 46
q-57 0 -87 -19t-30 -52q0 -39 32 -68l267 -237q34 68 34 168l-90 15zM445 117l-240 211q-74 -36 -74 -122q0 -62 46 -103t114 -41q95 0 154 55z" />
    <glyph glyph-name="quotesingle" unicode="'" horiz-adv-x="174" 
d="M46 463l-1 187h89l-20 -193z" />
    <glyph glyph-name="parenleft" unicode="(" horiz-adv-x="247" 
d="M149 708l68 -33q-83 -169 -83 -362t83 -362l-68 -33q-109 154 -109 395t109 395z" />
    <glyph glyph-name="parenright" unicode=")" horiz-adv-x="247" 
d="M30 675l68 33q109 -154 109 -395t-109 -395l-68 33q83 169 83 362t-83 362z" />
    <glyph glyph-name="asterisk" unicode="*" horiz-adv-x="309" 
d="M147 596l39 74q33 -7 55 -32l-42 -70l81 -12q0 -37 -16 -59l-73 14l10 -84q-15 -6 -37 -6q-14 0 -24 3l-10 82l-75 -39q-23 31 -23 58l71 31l-59 59q14 24 47 39z" />
    <glyph glyph-name="plus" unicode="+" horiz-adv-x="422" 
d="M170 497h82v-130h130v-76h-130v-130h-82v130h-130v76h130v130z" />
    <glyph glyph-name="comma" unicode="," horiz-adv-x="231" 
d="M70 -113l-28 43q65 25 65 70q-28 0 -42.5 15.5t-14.5 38.5t14.5 40.5t45.5 17.5q34 0 52.5 -25t18.5 -63q0 -41 -29 -80.5t-82 -56.5z" />
    <glyph glyph-name="hyphen" unicode="-" horiz-adv-x="381" 
d="M40 303h301v-76h-301v76z" />
    <glyph glyph-name="period" unicode="." horiz-adv-x="233" 
d="M116 121q31 0 49 -18.5t18 -47.5t-17.5 -46t-49.5 -17q-31 0 -48.5 17t-17.5 46t17.5 47.5t48.5 18.5z" />
    <glyph glyph-name="slash" unicode="/" horiz-adv-x="302" 
d="M2 -11l241 697l77 -25l-243 -697z" />
    <glyph glyph-name="zero" unicode="0" horiz-adv-x="720" 
d="M680 325q0 -149 -90 -243.5t-230 -94.5t-230 94.5t-90 243.5t90 243.5t230 94.5t230 -94.5t90 -243.5zM136 325q0 -121 62.5 -189.5t161.5 -68.5t161.5 68.5t62.5 189.5t-62.5 190t-161.5 69t-161.5 -69t-62.5 -190z" />
    <glyph glyph-name="one" unicode="1" horiz-adv-x="315" 
d="M183 651l67 -1v-650h-93v545l-103 -52l-25 69z" />
    <glyph glyph-name="two" unicode="2" horiz-adv-x="548" 
d="M70 0v76l224 219q58 57 82.5 93.5t24.5 80.5q0 54 -34.5 83t-91.5 29q-101 0 -174 -59l-45 71q52 38 103.5 54t120.5 16q96 0 153.5 -51.5t57.5 -140.5q0 -104 -123 -222l-169 -160v-4h299v-85h-428z" />
    <glyph glyph-name="three" unicode="3" horiz-adv-x="545" 
d="M163 395h100q47 0 75.5 27.5t28.5 69.5q0 44 -31.5 68.5t-78.5 24.5q-50 0 -86 -11.5t-72 -41.5l-41 65q84 66 202 66q88 0 143.5 -45.5t55.5 -116.5q0 -42 -19.5 -78t-58.5 -53v-4q52 -19 83 -61t31 -103q0 -91 -65.5 -153t-175.5 -62q-143 0 -224 77l44 77
q44 -40 83.5 -56.5t90.5 -16.5q67 0 111 36t44 96t-37 89t-98 29h-105v77z" />
    <glyph glyph-name="four" unicode="4" horiz-adv-x="580" 
d="M362 656l111 -6v-425h74l-10 -83h-64v-142h-93v142h-345v68zM380 225v311l-7 1l-226 -312h233z" />
    <glyph glyph-name="five" unicode="5" horiz-adv-x="559" 
d="M83 650h386v-81h-297v-167q54 11 104 11q102 0 165 -56.5t63 -152.5q0 -94 -68 -155.5t-188 -61.5q-68 0 -116 15.5t-97 54.5l42 76q45 -36 80.5 -50t87.5 -14q84 0 125 35.5t41 99.5q0 129 -161 129q-79 0 -154 -27l-13 5v339z" />
    <glyph glyph-name="six" unicode="6" horiz-adv-x="561" 
d="M440 662l8 -80q-134 0 -222 -59t-88 -176q70 62 170 62q90 0 149 -57t59 -152q0 -55 -20.5 -97.5t-55 -67t-75 -36.5t-85.5 -12q-110 0 -173 81.5t-63 240.5q0 172 112 262.5t284 90.5zM140 272q0 -204 155 -204q61 0 94 33.5t33 98.5q0 63 -33 97t-95 34q-89 0 -154 -59
z" />
    <glyph glyph-name="seven" unicode="7" horiz-adv-x="511" 
d="M45 650h426v-58l-256 -592h-103l254 566h-321v84z" />
    <glyph glyph-name="eight" unicode="8" horiz-adv-x="567" 
d="M157 349v4q-33 17 -55.5 52.5t-22.5 78.5q0 80 56.5 129.5t148.5 49.5q86 0 145 -46t59 -126q0 -47 -24 -84.5t-54 -51.5v-4q52 -20 82 -62t30 -98q0 -97 -64 -150.5t-174 -53.5q-121 0 -180 54t-59 145q0 57 30.5 100.5t81.5 62.5zM284 383q54 0 82.5 27.5t28.5 75.5
q0 46 -27 75.5t-84 29.5q-56 0 -84 -29t-28 -76q0 -44 29 -73.5t83 -29.5zM284 311q-68 0 -106.5 -32.5t-38.5 -92.5q0 -56 35 -90t110 -34q70 0 106.5 34.5t36.5 89.5q0 60 -36.5 92.5t-106.5 32.5z" />
    <glyph glyph-name="nine" unicode="9" horiz-adv-x="561" 
d="M110 -13l-8 81q137 0 227.5 60.5t94.5 170.5q-66 -59 -172 -59q-90 0 -149 57t-59 152q0 107 67 160t164 53q113 0 177.5 -78t64.5 -244q0 -174 -112.5 -263.5t-294.5 -89.5zM422 381q0 100 -39.5 152t-113.5 52q-131 0 -131 -134q0 -63 32.5 -96.5t95.5 -33.5
q92 0 156 60z" />
    <glyph glyph-name="colon" unicode=":" horiz-adv-x="233" 
d="M116 121q31 0 49 -18.5t18 -47.5t-17.5 -46t-49.5 -17q-31 0 -48.5 17t-17.5 46t17.5 47.5t48.5 18.5zM116 472q31 0 49 -18.5t18 -47.5t-17.5 -46t-49.5 -17q-31 0 -48.5 17t-17.5 46t17.5 47.5t48.5 18.5z" />
    <glyph glyph-name="semicolon" unicode=";" horiz-adv-x="233" 
d="M70 -113l-28 43q65 25 65 70q-28 0 -42.5 15.5t-14.5 38.5t14.5 40.5t45.5 17.5q34 0 52.5 -25t18.5 -63q0 -41 -29 -80.5t-82 -56.5zM116 472q31 0 49 -18.5t18 -47.5t-17.5 -46t-49.5 -17q-31 0 -48.5 17t-17.5 46t17.5 47.5t48.5 18.5z" />
    <glyph glyph-name="less" unicode="&#x3c;" horiz-adv-x="332" 
d="M234 503l58 -47l-160 -133l160 -132l-58 -48l-199 161v38z" />
    <glyph glyph-name="equal" unicode="=" horiz-adv-x="383" 
d="M40 298h303v-74h-303v74zM40 440h303v-74h-303v74z" />
    <glyph glyph-name="greater" unicode="&#x3e;" horiz-adv-x="332" 
d="M93 503l199 -161v-38l-199 -161l-58 47l160 133l-160 132z" />
    <glyph glyph-name="question" unicode="?" horiz-adv-x="537" 
d="M203 170q-14 28 -14 67q0 52 33.5 83t86.5 51q50 19 74.5 46.5t24.5 73.5q0 51 -40 82.5t-111 31.5q-110 0 -184 -76l-48 63q93 90 239 90q105 0 168.5 -52t63.5 -149q0 -47 -26 -88t-76 -67q-12 -6 -35.5 -16.5t-35.5 -17t-26.5 -17.5t-21 -27t-6.5 -37v-41h-66z
M236 121q31 0 49 -18.5t18 -47.5t-17.5 -46t-49.5 -17q-31 0 -48.5 17t-17.5 46t17.5 47.5t48.5 18.5z" />
    <glyph glyph-name="at" unicode="@" horiz-adv-x="769" 
d="M496 136q-47 -59 -128 -59q-76 0 -120 47.5t-44 124.5q0 69 50.5 118t128.5 49q59 0 105 -34l24 24l35 -7v-187q0 -60 48 -60q57 0 57 111t-71 175t-181 64q-119 0 -198 -68.5t-79 -185.5q0 -116 71 -183.5t186 -67.5q130 0 212 46l24 -70q-108 -48 -236 -48
q-146 0 -243 84.5t-97 238.5q0 145 103.5 236t256.5 91q140 0 236.5 -85t96.5 -227q0 -81 -38 -127.5t-106 -46.5q-67 0 -93 47zM474 192v134q-31 25 -86 25q-49 0 -76.5 -27.5t-27.5 -75.5t23 -74.5t67 -26.5q64 0 100 45z" />
    <glyph glyph-name="A" unicode="A" horiz-adv-x="707" 
d="M301 650h105l278 -650h-99l-85 197h-299l-81 -197h-98zM347 558l-115 -283h238l-114 283h-9z" />
    <glyph glyph-name="B" unicode="B" horiz-adv-x="601" 
d="M65 650h227q98 0 160 -42.5t62 -130.5q0 -81 -66 -120v-4q111 -55 111 -168q0 -86 -67 -135.5t-163 -49.5h-264v650zM159 306v-229h161q64 0 104.5 26t40.5 84t-37 88.5t-100 30.5h-169zM159 574v-194h148q54 0 84 25.5t30 68.5q0 50 -31.5 75t-87.5 25h-143z" />
    <glyph glyph-name="C" unicode="C" horiz-adv-x="660" 
d="M622 591l-38 -73q-91 67 -193 67q-115 0 -185.5 -73t-70.5 -186q0 -121 72 -188t183 -67q62 0 107 13.5t97 49.5l28 -82q-94 -65 -242 -65q-67 0 -127 21t-108 61t-76.5 106.5t-28.5 150.5q0 148 102.5 242.5t248.5 94.5q133 0 231 -72z" />
    <glyph glyph-name="D" unicode="D" horiz-adv-x="700" 
d="M65 650h241q165 0 259.5 -87t94.5 -242q0 -154 -103 -237.5t-271 -83.5h-221v650zM160 572v-493h134q125 0 198 58.5t73 183.5q0 129 -68 190t-191 61h-146z" />
    <glyph glyph-name="E" unicode="E" horiz-adv-x="541" 
d="M65 0v650h419v-79h-323v-194h290v-78h-290v-220h337v-79h-433z" />
    <glyph glyph-name="F" unicode="F" horiz-adv-x="539" 
d="M65 650h419v-77h-323v-199h290v-77h-290v-297h-96v650z" />
    <glyph glyph-name="G" unicode="G" horiz-adv-x="700" 
d="M383 347h262v-280q-107 -80 -268 -80q-145 0 -241 89.5t-96 248.5q0 148 101 243t247 95q145 0 244 -72l-38 -73q-90 66 -206 66q-115 0 -184 -73t-69 -186q0 -116 71.5 -186t180.5 -70q99 0 166 37v166h-170v75z" />
    <glyph glyph-name="H" unicode="H" horiz-adv-x="669" 
d="M509 650h95v-650h-95v303h-349v-303h-95v650h95v-270h349v270z" />
    <glyph glyph-name="I" unicode="I" horiz-adv-x="225" 
d="M65 650h95v-650h-95v650z" />
    <glyph glyph-name="J" unicode="J" horiz-adv-x="244" 
d="M85 650h94v-632q0 -126 -59.5 -185.5t-168.5 -75.5l-30 78q89 14 126.5 51t37.5 135v629z" />
    <glyph glyph-name="K" unicode="K" horiz-adv-x="635" 
d="M65 650h96v-341l313 341h119l-252 -265l279 -385h-113l-229 320l-117 -111v-209h-96v650z" />
    <glyph glyph-name="L" unicode="L" horiz-adv-x="504" 
d="M161 80h306v-80h-402v650h96v-570z" />
    <glyph glyph-name="M" unicode="M" horiz-adv-x="761" 
d="M65 650h117l198 -296l202 296h114v-650h-92v368l2 164h-9l-199 -291h-39l-197 291h-8l1 -164v-368h-90v650z" />
    <glyph glyph-name="N" unicode="N" horiz-adv-x="734" 
d="M65 650h99l417 -531l-3 170v361h91v-650h-102l-418 533l6 -198v-335h-90v650z" />
    <glyph glyph-name="O" unicode="O" horiz-adv-x="780" 
d="M740 325q0 -148 -100.5 -243t-249.5 -95t-249.5 95t-100.5 243t100.5 243t249.5 95t249.5 -95t100.5 -243zM136 325q0 -120 73 -189.5t181 -69.5t181 69.5t73 189.5t-73 189.5t-181 69.5t-181 -69.5t-73 -189.5z" />
    <glyph glyph-name="P" unicode="P" horiz-adv-x="594" 
d="M65 650h226q113 0 185 -55t72 -150q0 -97 -70.5 -151t-186.5 -54h-131v-240h-95v650zM160 573v-256h118q87 0 131 30t44 98q0 128 -175 128h-118z" />
    <glyph glyph-name="Q" unicode="Q" horiz-adv-x="780" 
d="M722 -33l-24 -86l-393 112q-118 34 -191.5 121.5t-73.5 210.5q0 148 100.5 243t249.5 95t249.5 -95t100.5 -243q0 -110 -63 -194.5t-164 -119.5zM136 325q0 -120 73 -189.5t181 -69.5t181 69.5t73 189.5t-73 189.5t-181 69.5t-181 -69.5t-73 -189.5z" />
    <glyph glyph-name="R" unicode="R" horiz-adv-x="631" 
d="M65 650h265q100 0 163 -49.5t63 -134.5q0 -60 -37 -106t-106 -64l188 -296h-111l-174 279h-156v-279h-95v650zM160 573v-217h156q66 0 105.5 28.5t39.5 81.5q0 52 -38.5 79.5t-107.5 27.5h-155z" />
    <glyph glyph-name="S" unicode="S" horiz-adv-x="574" 
d="M493 606l-40 -75q-75 54 -172 54q-68 0 -96.5 -27t-28.5 -66q0 -74 103 -95l93 -19q84 -17 131.5 -67.5t47.5 -130.5q0 -85 -69 -139t-187 -54q-71 0 -121.5 13t-109.5 45l32 87q99 -61 197 -61q80 0 123 30t43 78q0 52 -27.5 78.5t-92.5 38.5l-102 19
q-70 13 -110.5 61.5t-40.5 111.5q0 79 57 127t158 48q66 0 114.5 -12.5t97.5 -44.5z" />
    <glyph glyph-name="T" unicode="T" horiz-adv-x="544" 
d="M30 574v76h484v-76h-194v-574h-96v574h-194z" />
    <glyph glyph-name="U" unicode="U" horiz-adv-x="680" 
d="M65 650h95v-379q0 -102 47 -155t133 -53t133 53t47 155v379h95v-372q0 -145 -72.5 -218t-202.5 -73t-202.5 73t-72.5 218v372z" />
    <glyph glyph-name="V" unicode="V" horiz-adv-x="679" 
d="M398 0h-116l-257 650h105l211 -562h4l208 562h101z" />
    <glyph glyph-name="W" unicode="W" horiz-adv-x="1009" 
d="M358 0h-127l-206 650h103l169 -555h4l162 555h85l171 -555h4l165 555h96l-205 -650h-128l-144 483h-4z" />
    <glyph glyph-name="X" unicode="X" horiz-adv-x="682" 
d="M48 650h114l178 -257l182 257h107l-226 -307l254 -343h-115l-205 289l-204 -289h-108l249 343z" />
    <glyph glyph-name="Y" unicode="Y" horiz-adv-x="646" 
d="M25 650h106l192 -313h4l190 313h104l-250 -401v-249h-94v247z" />
    <glyph glyph-name="Z" unicode="Z" horiz-adv-x="617" 
d="M64 650h509v-68l-417 -503h425v-79h-544v65l420 508h-393v77z" />
    <glyph glyph-name="bracketleft" unicode="[" horiz-adv-x="253" 
d="M144 663v-681h74v-73h-163v826h163v-72h-74z" />
    <glyph glyph-name="backslash" unicode="\" horiz-adv-x="302" 
d="M59 686l243 -697l-77 -25l-241 697z" />
    <glyph glyph-name="bracketright" unicode="]" horiz-adv-x="253" 
d="M129 -18v681h-74v72h163v-826h-163v73h74z" />
    <glyph glyph-name="asciicircum" unicode="^" horiz-adv-x="375" 
d="M176 663h24l140 -150l-28 -63l-125 119l-125 -118l-27 62z" />
    <glyph glyph-name="underscore" unicode="_" horiz-adv-x="363" 
d="M0 -37h363v-71h-363v71z" />
    <glyph glyph-name="grave" unicode="`" horiz-adv-x="267" 
d="M123 746l94 -183h-64l-103 136z" />
    <glyph glyph-name="a" unicode="a" horiz-adv-x="602" 
d="M99 392l-20 74q106 44 213 44q111 0 163.5 -41.5t52.5 -132.5v-209q0 -36 12.5 -48.5t49.5 -12.5v-66q-31 -10 -66 -10q-30 0 -48.5 21.5t-21.5 60.5q-69 -82 -206 -82q-86 0 -132.5 40.5t-46.5 112.5q0 65 47 119q125 39 322 43v28q0 53 -29 76.5t-101 23.5
q-94 0 -189 -41zM418 132v106q-156 -3 -255 -30q-20 -24 -20 -60q0 -40 25.5 -61t72.5 -21q101 0 177 66z" />
    <glyph glyph-name="b" unicode="b" horiz-adv-x="619" 
d="M65 730h93v-264q73 44 172 44q122 0 185.5 -64.5t63.5 -190.5q0 -119 -83.5 -192t-212.5 -73q-69 0 -116.5 12t-101.5 41v687zM158 388v-293q59 -27 126 -27q93 0 147 48.5t54 139.5q0 90 -39.5 134.5t-123.5 44.5q-97 0 -164 -47z" />
    <glyph glyph-name="c" unicode="c" horiz-adv-x="548" 
d="M510 472l-39 -69q-63 33 -138 33q-94 0 -146.5 -48.5t-52.5 -138.5q0 -81 53.5 -132t130.5 -51q94 0 170 42l28 -73q-83 -45 -203 -45q-123 0 -198 72.5t-75 184.5q0 116 83 189.5t204 73.5q111 0 183 -38z" />
    <glyph glyph-name="d" unicode="d" horiz-adv-x="619" 
d="M461 730h93v-712q-108 -28 -251 -28q-122 0 -192.5 67.5t-70.5 194.5q0 116 73.5 187t190.5 71q98 0 157 -38v258zM461 81v306q-63 48 -149 48q-79 0 -128.5 -47t-49.5 -135q0 -93 52 -140.5t137 -47.5q77 0 138 16z" />
    <glyph glyph-name="e" unicode="e" horiz-adv-x="587" 
d="M538 227h-402q5 -78 58.5 -119t131.5 -41q103 0 173 39l27 -76q-49 -23 -93.5 -31.5t-112.5 -8.5q-133 0 -206.5 69.5t-73.5 189.5q0 116 77.5 188.5t195.5 72.5q115 0 174.5 -56.5t59.5 -150.5q0 -43 -9 -76zM134 299h323q-1 73 -37 104.5t-117 31.5q-65 0 -114 -35.5
t-55 -100.5z" />
    <glyph glyph-name="f" unicode="f" horiz-adv-x="364" 
d="M20 500h87v33q0 87 53 142t142 55q93 0 161 -43l-39 -70q-51 33 -110 33q-114 0 -114 -114v-36h153l-4 -77l-149 5v-428h-93v423l-87 12v65z" />
    <glyph glyph-name="g" unicode="g" horiz-adv-x="582" 
d="M567 510v-66h-111q55 -44 55 -111q0 -77 -59.5 -126.5t-163.5 -49.5q-79 0 -131 26q-14 -6 -23.5 -21.5t-9.5 -29.5q0 -25 20.5 -41.5t64.5 -16.5h128q91 0 166 -19q44 -50 44 -117q0 -52 -27 -90t-72.5 -57.5t-92.5 -28t-98 -8.5q-110 0 -168.5 40.5t-58.5 117.5
q0 73 67 115q-27 13 -42 39t-15 54q0 32 16.5 61t45.5 45q-36 42 -36 107q0 82 61 129.5t169 47.5h271zM345 -2h-120q-40 0 -64 5q-47 -28 -47 -76q0 -100 153 -100q30 0 60 4.5t62.5 15.5t53 34t20.5 54t-16 54q-42 9 -102 9zM151 333q0 -51 35.5 -78t101.5 -27
q62 0 99.5 26.5t37.5 78.5q0 53 -38 80.5t-99 27.5q-64 0 -100.5 -28.5t-36.5 -79.5z" />
    <glyph glyph-name="h" unicode="h" horiz-adv-x="610" 
d="M65 730h93v-302q66 82 181 82q103 0 155 -56t52 -163v-291h-93v292q0 142 -114 142q-108 0 -181 -88v-346h-93v730z" />
    <glyph glyph-name="i" unicode="i" horiz-adv-x="223" 
d="M65 500h93v-500h-93v500zM112 716q30 0 47.5 -18t17.5 -45q0 -26 -17.5 -44.5t-47.5 -18.5t-47.5 18.5t-17.5 44.5q0 27 17.5 45t47.5 18z" />
    <glyph glyph-name="j" unicode="j" horiz-adv-x="233" 
d="M74 500h94v-529q0 -101 -52 -156.5t-149 -57.5l-7 79q59 4 86.5 32t27.5 86v546zM121 716q30 0 47.5 -18t17.5 -45q0 -26 -17.5 -44.5t-47.5 -18.5t-47.5 18.5t-17.5 44.5q0 27 17.5 45t47.5 18z" />
    <glyph glyph-name="k" unicode="k" horiz-adv-x="559" 
d="M65 730h92v-438l80 53l174 155h109l2 -10l-217 -189l227 -293l-3 -8h-105l-190 255l-77 -43v-212h-92v730z" />
    <glyph glyph-name="l" unicode="l" horiz-adv-x="240" 
d="M65 730h92v-582q0 -37 16 -52.5t57 -15.5v-84q-16 -2 -24 -2q-76 0 -108.5 42t-32.5 122v572z" />
    <glyph glyph-name="m" unicode="m" horiz-adv-x="961" 
d="M65 500h81l6 -79q68 89 177 89q129 0 175 -90q76 90 190 90q202 0 202 -219v-291h-93v292q0 70 -24.5 106t-84.5 36q-55 0 -94 -20.5t-74 -64.5q5 -30 5 -58v-291h-93v292q0 70 -24.5 106t-84.5 36q-57 0 -96 -21.5t-75 -67.5v-345h-93v500z" />
    <glyph glyph-name="n" unicode="n" horiz-adv-x="611" 
d="M65 500h81l6 -79q68 89 187 89q103 0 155 -56t52 -163v-291h-93v292q0 142 -114 142q-112 0 -181 -89v-345h-93v500z" />
    <glyph glyph-name="o" unicode="o" horiz-adv-x="638" 
d="M598 250q0 -117 -80 -188.5t-199 -71.5t-199 71.5t-80 188.5t80 188.5t199 71.5t199 -71.5t80 -188.5zM131 250q0 -86 50.5 -136.5t137.5 -50.5t137.5 50.5t50.5 136.5t-50.5 136.5t-137.5 50.5t-137.5 -50.5t-50.5 -136.5z" />
    <glyph glyph-name="p" unicode="p" horiz-adv-x="609" 
d="M65 -230v711q118 29 227 29q133 0 205 -69t72 -192q0 -118 -65.5 -188.5t-190.5 -70.5q-95 0 -155 47v-267h-93zM158 418v-295q64 -55 155 -55q76 0 119.5 48t43.5 133q0 92 -48.5 140t-135.5 48q-76 0 -134 -19z" />
    <glyph glyph-name="q" unicode="q" horiz-adv-x="614" 
d="M549 -230h-93v264q-69 -44 -169 -44q-121 0 -184 67t-63 194q0 118 83.5 188.5t207.5 70.5q119 0 218 -53v-687zM456 114v293q-54 27 -126 27q-94 0 -145.5 -46t-51.5 -136q0 -182 162 -182q92 0 161 44z" />
    <glyph glyph-name="r" unicode="r" horiz-adv-x="491" 
d="M65 500h81l6 -79q68 89 174 89q52 0 87 -16t67 -56l-63 -57q-41 51 -101 51q-54 0 -89.5 -21t-68.5 -68v-343h-93v500z" />
    <glyph glyph-name="s" unicode="s" horiz-adv-x="502" 
d="M435 479l-29 -72q-67 31 -151 31q-63 0 -94 -18t-31 -48q0 -35 31 -49.5t102 -21.5q98 -10 147.5 -47t49.5 -111q0 -76 -63 -114.5t-175 -38.5q-103 0 -182 34l23 76q74 -35 155 -35q155 0 155 79q0 37 -29.5 53t-107.5 24q-99 10 -146.5 44t-47.5 100q0 63 55 104
t159 41q99 0 179 -31z" />
    <glyph glyph-name="t" unicode="t" horiz-adv-x="434" 
d="M15 434v35l68 43l73 113l31 -5v-120h199l-3 -77l-196 9v-263q0 -54 25 -79.5t68 -25.5q58 0 114 35l30 -67q-59 -42 -154 -42q-86 0 -131.5 45.5t-45.5 132.5v255z" />
    <glyph glyph-name="u" unicode="u" horiz-adv-x="604" 
d="M65 500h93v-292q0 -70 25 -106t86 -36q108 0 177 89v345h93v-500h-81l-6 79q-68 -89 -183 -89q-204 0 -204 219v291z" />
    <glyph glyph-name="v" unicode="v" horiz-adv-x="605" 
d="M25 500h101l174 -421h4l180 421h96l-228 -500h-108z" />
    <glyph glyph-name="w" unicode="w" horiz-adv-x="862" 
d="M193 0l-168 500h96l134 -413h8l133 413h76l137 -413h8l127 413h93l-168 -500h-121l-112 344h-6l-113 -344h-124z" />
    <glyph glyph-name="x" unicode="x" horiz-adv-x="588" 
d="M46 500h109l135 -200h4l145 200h103l-176 -238l192 -262h-110l-154 220h-4l-156 -220h-104l193 261z" />
    <glyph glyph-name="y" unicode="y" horiz-adv-x="599" 
d="M25 500h103l193 -402h4l149 402h100l-246 -596q-20 -48 -63 -75.5t-94 -27.5q-30 0 -66 13l14 72q22 -5 39 -5q37 0 62 15.5t41 54.5l18 45z" />
    <glyph glyph-name="z" unicode="z" horiz-adv-x="543" 
d="M53 500h442v-55l-335 -373h337v-72h-455v56l332 372h-321v72z" />
    <glyph glyph-name="braceleft" unicode="{" horiz-adv-x="301" 
d="M271 735v-72h-33q-50 0 -50 -55v-185q0 -34 -13.5 -62t-37.5 -37v-4q23 -9 37 -35.5t14 -59.5v-189q0 -54 50 -54h33v-73h-42q-59 0 -94.5 34.5t-35.5 95.5v206q0 40 -40 40h-29v74h29q40 0 40 40v206q0 62 35 96t95 34h42z" />
    <glyph glyph-name="bar" unicode="|" horiz-adv-x="237" 
d="M75 686h87v-796h-87v796z" />
    <glyph glyph-name="braceright" unicode="}" horiz-adv-x="301" 
d="M30 -89v73h33q50 0 50 54v185q0 34 13.5 62t37.5 37v4q-23 9 -37 35.5t-14 59.5v189q0 55 -50 55h-33v72h42q59 0 94.5 -34.5t35.5 -95.5v-206q0 -40 40 -40h29v-74h-29q-40 0 -40 -40v-206q0 -62 -35 -96t-95 -34h-42z" />
    <glyph glyph-name="asciitilde" unicode="~" horiz-adv-x="445" 
d="M58 273l-28 62q47 50 119 50q37 0 79.5 -19.5t69.5 -19.5q43 0 73 31l41 -50q-26 -31 -51.5 -44.5t-63.5 -13.5q-30 0 -79 21.5t-75 21.5q-55 0 -85 -39z" />
    <glyph glyph-name="exclamdown" unicode="&#xa1;" horiz-adv-x="225" 
d="M160 -29h-95l13 509h69zM113 529q-31 0 -49 18.5t-18 47.5t17.5 46t49.5 17q31 0 48.5 -17t17.5 -46t-17.5 -47.5t-48.5 -18.5z" />
    <glyph glyph-name="cent" unicode="&#xa2;" horiz-adv-x="548" 
d="M510 472l-39 -69q-63 33 -138 33q-94 0 -146.5 -48.5t-52.5 -138.5q0 -81 53.5 -132t130.5 -51q94 0 170 42l28 -73q-68 -37 -157 -43v-75h-84v75q-107 11 -171 81.5t-64 173.5q0 102 66 172.5t169 86.5v71h84v-68q88 -4 151 -37z" />
    <glyph glyph-name="currency" unicode="&#xa4;" horiz-adv-x="448" 
d="M90 462l47 -52q37 22 86 22t86 -22l48 51l56 -54l-50 -47q25 -41 25 -83q0 -41 -25 -82l49 -47l-55 -55l-47 52q-37 -23 -87 -23q-49 0 -87 22l-47 -52l-54 56l49 46q-25 42 -25 83q0 42 25 84l-49 48zM311 277q0 37 -26 61t-62 24t-61.5 -24t-25.5 -61t26 -61.5
t61 -24.5q36 0 62 24.5t26 61.5z" />
    <glyph glyph-name="yen" unicode="&#xa5;" horiz-adv-x="630" 
d="M25 595h105l183 -291h7l182 291h103l-193 -287h71v-65h-332v65h69zM151 206h332v-65h-120v-141h-94v141h-118v65z" />
    <glyph glyph-name="brokenbar" unicode="&#xa6;" horiz-adv-x="237" 
d="M75 686h87v-363h-87v363zM75 263h87v-373h-87v373z" />
    <glyph glyph-name="section" unicode="&#xa7;" horiz-adv-x="516" 
d="M430 647l-42 -68q-53 36 -124 36q-97 0 -97 -64q0 -21 14.5 -34.5t29 -18t43.5 -11.5l63 -15q154 -36 154 -148q0 -40 -20.5 -74.5t-56.5 -54.5q45 -37 45 -102q0 -47 -31.5 -79t-74 -44.5t-92.5 -12.5q-107 0 -182 39l25 78q67 -40 156 -40q111 0 111 65
q0 30 -20.5 44.5t-63.5 24.5l-81 20q-141 35 -141 146q0 82 80 127q-46 34 -46 89q0 66 54.5 103t128.5 37q94 0 168 -43zM290 395l-106 24q-29 -15 -41 -32t-12 -43q0 -34 22 -50.5t73 -29.5l109 -27q50 23 50 77q0 36 -22.5 52.5t-72.5 28.5z" />
    <glyph glyph-name="dieresis" unicode="&#xa8;" horiz-adv-x="406" 
d="M91 681q29 0 45.5 -16.5t16.5 -43.5q0 -25 -16.5 -41.5t-45.5 -16.5q-27 0 -44 16.5t-17 41.5q0 27 17 43.5t44 16.5zM314 681q29 0 45.5 -16.5t16.5 -43.5q0 -25 -16.5 -41.5t-45.5 -16.5q-27 0 -44 16.5t-17 41.5q0 27 16.5 43.5t44.5 16.5z" />
    <glyph glyph-name="copyright" unicode="&#xa9;" horiz-adv-x="761" 
d="M513 450l-36 -57q-34 24 -85 24q-52 0 -81 -27.5t-29 -77.5q0 -48 31 -76.5t76 -28.5q55 0 103 30l23 -62q-60 -36 -126 -36q-84 0 -136 47.5t-52 125.5q0 80 55.5 126t138.5 46q65 0 118 -34zM721 313q0 -144 -96.5 -235t-242.5 -91t-244 90t-98 236t98 236t244 90
t242.5 -91t96.5 -235zM125 313q0 -122 73.5 -188.5t183.5 -66.5t184 66.5t74 188.5t-74 188.5t-184 66.5t-183.5 -66.5t-73.5 -188.5z" />
    <glyph glyph-name="ordfeminine" unicode="&#xaa;" horiz-adv-x="395" 
d="M68 578l-19 56q64 29 136 29q146 0 146 -111v-128q0 -23 7.5 -31t31.5 -8v-47q-20 -7 -47 -7q-20 0 -32.5 14t-12.5 39q-55 -53 -136 -53q-55 0 -83.5 26t-28.5 72q0 44 35 79q75 26 199 26v16q0 32 -17 43t-64 11q-60 0 -115 -26zM264 432v51q-97 0 -151 -17
q-12 -13 -12 -34q0 -41 52 -41q64 0 111 41z" />
    <glyph glyph-name="guillemotleft" unicode="&#xab;" horiz-adv-x="459" 
d="M214 416l38 -58l-112 -99l112 -105l-38 -58l-174 141v38zM386 426l38 -58l-112 -109l112 -115l-38 -58l-174 154v38z" />
    <glyph glyph-name="logicalnot" unicode="&#xac;" horiz-adv-x="390" 
d="M40 372h310l-7 -180h-68l-8 104h-227v76z" />
    <glyph glyph-name="uni00AD" unicode="&#xad;" horiz-adv-x="381" 
d="M40 303h301v-76h-301v76z" />
    <glyph glyph-name="registered" unicode="&#xae;" horiz-adv-x="437" 
d="M218 291q-78 0 -130.5 51t-52.5 128q0 76 52.5 128t130.5 52q77 0 130 -51.5t53 -128.5t-53 -128t-130 -51zM350 470q0 62 -36 98t-96 36q-62 0 -97 -36t-35 -98q0 -61 35 -97.5t97 -36.5q60 0 96 36.5t36 97.5zM259 458l38 -82h-45l-33 72h-28v-72h-42v192h70
q32 0 53 -14.5t21 -45.5q0 -36 -34 -50zM191 531v-46h28q31 0 31 23t-25 23h-34z" />
    <glyph glyph-name="macron" unicode="&#xaf;" horiz-adv-x="392" 
d="M44 642h314v-70h-314v70z" />
    <glyph glyph-name="degree" unicode="&#xb0;" horiz-adv-x="369" 
d="M334 521q0 -62 -42.5 -102t-107.5 -40q-64 0 -106.5 40t-42.5 102t42.5 102t106.5 40q65 0 107.5 -40t42.5 -102zM110 521q0 -37 20 -56t54 -19q35 0 55 19t20 56t-20 56t-55 19q-34 0 -54 -19t-20 -56z" />
    <glyph glyph-name="plusminus" unicode="&#xb1;" horiz-adv-x="422" 
d="M170 572h82v-130h130v-76h-130v-130h-82v130h-130v76h130v130zM61 187h301v-76h-301v76z" />
    <glyph glyph-name="twosuperior" unicode="&#xb2;" horiz-adv-x="332" 
d="M296 437v-62h-271v61l157 119q49 36 49 78q0 57 -72 57q-55 0 -102 -44l-34 51q58 57 141 57q62 0 100 -32.5t38 -87.5q0 -70 -56 -111l-117 -86h167z" />
    <glyph glyph-name="threesuperior" unicode="&#xb3;" horiz-adv-x="357" 
d="M262 582q60 -27 60 -90q0 -62 -45.5 -94t-112.5 -32q-49 0 -79 9t-60 33l24 55q51 -39 111 -39q41 0 67 17.5t26 50.5q0 28 -16.5 40t-54.5 12h-83v58h74q30 0 45 10t15 35q0 47 -67 47q-54 0 -95 -31l-33 47q53 44 134 44q49 0 88.5 -25.5t39.5 -72.5q0 -51 -38 -74z
" />
    <glyph glyph-name="acute" unicode="&#xb4;" horiz-adv-x="264" 
d="M54 563l94 183l73 -47l-103 -136h-64z" />
    <glyph glyph-name="mu" unicode="&#xb5;" horiz-adv-x="604" 
d="M158 -230l-93 1v729h92v-302q0 -68 25 -100t87 -32q108 0 177 89v345h93v-500h-71l-16 79q-68 -89 -183 -89q-75 0 -118 40l7 -129v-131z" />
    <glyph glyph-name="paragraph" unicode="&#xb6;" horiz-adv-x="384" 
d="M349 650l-12 -84l-74 8h-25q-121 0 -121 -74q0 -75 73 -75q54 0 75 52l52 -4v-440q0 -97 -29.5 -160.5t-94.5 -106.5l-57 53q52 44 72 88t20 106v342q-21 -8 -50 -8q-68 0 -108 40.5t-40 106.5q0 70 56.5 113t134.5 43h128z" />
    <glyph glyph-name="periodcentered" unicode="&#xb7;" horiz-adv-x="233" 
d="M116 310q31 0 49 -18.5t18 -47.5t-17.5 -46t-49.5 -17q-31 0 -48.5 17t-17.5 46t17.5 47.5t48.5 18.5z" />
    <glyph glyph-name="cedilla" unicode="&#xb8;" horiz-adv-x="236" 
d="M63 6l70 4l-5 -54q32 0 50.5 -15.5t18.5 -44.5q0 -39 -33.5 -75t-109.5 -53l-12 64q87 7 87 55q0 25 -30 25h-36v94z" />
    <glyph glyph-name="onesuperior" unicode="&#xb9;" horiz-adv-x="226" 
d="M17 683l120 65l39 -5v-368h-71v284l-71 -19z" />
    <glyph glyph-name="ordmasculine" unicode="&#xba;" horiz-adv-x="408" 
d="M378 497q0 -72 -49.5 -119t-124.5 -47t-124.5 47t-49.5 119t49.5 119t124.5 47t124.5 -47t49.5 -119zM105 497q0 -48 29 -74.5t70 -26.5t70 26.5t29 74.5t-29 74.5t-70 26.5t-70 -26.5t-29 -74.5z" />
    <glyph glyph-name="guillemotright" unicode="&#xbb;" horiz-adv-x="459" 
d="M250 416l174 -141v-38l-174 -141l-38 58l112 99l-112 105zM78 426l174 -154v-38l-174 -148l-38 58l112 109l-112 115z" />
    <glyph glyph-name="questiondown" unicode="&#xbf;" horiz-adv-x="468" 
d="M265 480q14 -28 14 -67q0 -52 -33.5 -83t-86.5 -51q-50 -19 -74.5 -46.5t-24.5 -73.5q0 -51 40 -82.5t111 -31.5q110 0 184 76l48 -63q-93 -90 -239 -90q-105 0 -168.5 52t-63.5 149q0 47 26 88t76 67q12 6 35.5 16.5t35.5 17t26.5 17.5t21 27t6.5 37v41h66zM232 529
q-31 0 -49 18.5t-18 47.5t17.5 46t49.5 17q31 0 48.5 -17t17.5 -46t-17.5 -47.5t-48.5 -18.5z" />
    <glyph glyph-name="Agrave" unicode="&#xc0;" horiz-adv-x="707" 
d="M301 650h105l278 -650h-99l-85 197h-299l-81 -197h-98zM347 558l-115 -283h238l-114 283h-9zM290 881l89 -183h-69l-98 136z" />
    <glyph glyph-name="Aacute" unicode="&#xc1;" horiz-adv-x="707" 
d="M301 650h105l278 -650h-99l-85 197h-299l-81 -197h-98zM347 558l-115 -283h238l-114 283h-9zM327 698l89 183l78 -47l-98 -136h-69z" />
    <glyph glyph-name="Acircumflex" unicode="&#xc2;" horiz-adv-x="707" 
d="M301 650h105l278 -650h-99l-85 197h-299l-81 -197h-98zM347 558l-115 -283h238l-114 283h-9zM485 681l-132 86l-132 -86l-21 54l141 119h23l142 -119z" />
    <glyph glyph-name="Atilde" unicode="&#xc3;" horiz-adv-x="707" 
d="M301 650h105l278 -650h-99l-85 197h-299l-81 -197h-98zM347 558l-115 -283h238l-114 283h-9zM200 699l-28 66q45 45 117 45q33 0 72.5 -18.5t64.5 -18.5q40 0 68 29l41 -48q-43 -55 -108 -55q-31 0 -76 19.5t-68 19.5q-49 0 -83 -39z" />
    <glyph glyph-name="Adieresis" unicode="&#xc4;" horiz-adv-x="707" 
d="M301 650h105l278 -650h-99l-85 197h-299l-81 -197h-98zM347 558l-115 -283h238l-114 283h-9zM243 828q30 0 47 -16.5t17 -44.5q0 -26 -17 -43t-47 -17q-29 0 -45.5 17t-16.5 43q0 27 16.5 44t45.5 17zM462 828q29 0 46 -17t17 -44q0 -26 -17 -43t-46 -17t-46 17t-17 43
q0 27 17 44t46 17z" />
    <glyph glyph-name="Aring" unicode="&#xc5;" horiz-adv-x="707" 
d="M301 650h105l278 -650h-99l-85 197h-299l-81 -197h-98zM347 558l-115 -283h238l-114 283h-9zM353 674q-52 0 -84.5 31.5t-32.5 80.5q0 47 33.5 79t83.5 32t83.5 -32t33.5 -79q0 -49 -33 -80.5t-84 -31.5zM409 786q0 24 -16 39.5t-40 15.5t-40.5 -15.5t-16.5 -39.5
t16.5 -40t40.5 -16t40 16t16 40z" />
    <glyph glyph-name="AE" unicode="&#xc6;" horiz-adv-x="951" 
d="M405 650h489v-79h-323v-194h290v-78h-290v-220h337v-79h-433v140h-272l-86 -140h-102zM448 564l-203 -345h230v345h-27z" />
    <glyph glyph-name="Ccedilla" unicode="&#xc7;" horiz-adv-x="660" 
d="M622 591l-38 -73q-91 67 -193 67q-115 0 -185.5 -73t-70.5 -186q0 -121 72 -188t183 -67q121 0 220 75l12 -94q-87 -60 -220 -65l-4 -35q34 0 53.5 -18.5t19.5 -51.5q0 -51 -46.5 -83t-107.5 -43l-13 61q95 16 95 63q0 27 -36 27h-33l3 83q-126 14 -209.5 100t-83.5 236
q0 148 102.5 242.5t248.5 94.5q133 0 231 -72z" />
    <glyph glyph-name="Egrave" unicode="&#xc8;" horiz-adv-x="541" 
d="M65 0v650h419v-79h-323v-194h290v-78h-290v-220h337v-79h-433zM235 881l89 -183h-69l-98 136z" />
    <glyph glyph-name="Eacute" unicode="&#xc9;" horiz-adv-x="541" 
d="M65 0v650h419v-79h-323v-194h290v-78h-290v-220h337v-79h-433zM240 698l89 183l78 -47l-98 -136h-69z" />
    <glyph glyph-name="Ecircumflex" unicode="&#xca;" horiz-adv-x="541" 
d="M65 0v650h419v-79h-323v-194h290v-78h-290v-220h337v-79h-433zM417 691l-132 86l-132 -86l-21 54l141 119h23l142 -119z" />
    <glyph glyph-name="Edieresis" unicode="&#xcb;" horiz-adv-x="541" 
d="M65 0v650h419v-79h-323v-194h290v-78h-290v-220h337v-79h-433zM171 828q30 0 47 -16.5t17 -44.5q0 -26 -17 -43t-47 -17q-29 0 -45.5 17t-16.5 43q0 27 16.5 44t45.5 17zM390 828q29 0 46 -17t17 -44q0 -26 -17 -43t-46 -17t-46 17t-17 43q0 27 17 44t46 17z" />
    <glyph glyph-name="Igrave" unicode="&#xcc;" horiz-adv-x="225" 
d="M65 650h95v-650h-95v650zM59 881l89 -183h-69l-98 136z" />
    <glyph glyph-name="Iacute" unicode="&#xcd;" horiz-adv-x="225" 
d="M65 650h95v-650h-95v650zM80 698l89 183l78 -47l-98 -136h-69z" />
    <glyph glyph-name="Icircumflex" unicode="&#xce;" horiz-adv-x="225" 
d="M65 650h95v-650h-95v650zM244 681l-132 86l-132 -86l-21 54l141 119h23l142 -119z" />
    <glyph glyph-name="Idieresis" unicode="&#xcf;" horiz-adv-x="225" 
d="M65 650h95v-650h-95v650zM2 828q30 0 47 -16.5t17 -44.5q0 -26 -17 -43t-47 -17q-29 0 -45.5 17t-16.5 43q0 27 16.5 44t45.5 17zM221 828q29 0 46 -17t17 -44q0 -26 -17 -43t-46 -17t-46 17t-17 43q0 27 17 44t46 17z" />
    <glyph glyph-name="Eth" unicode="&#xd0;" horiz-adv-x="706" 
d="M71 650h241q165 0 259.5 -87t94.5 -242q0 -154 -103 -237.5t-271 -83.5h-221v294h-66v75h66v281zM166 572v-203h163v-75h-163v-215h134q125 0 198 58.5t73 183.5q0 129 -68 190t-191 61h-146z" />
    <glyph glyph-name="Ntilde" unicode="&#xd1;" horiz-adv-x="734" 
d="M65 650h99l417 -531l-3 170v361h91v-650h-102l-418 533l6 -198v-335h-90v650zM214 699l-28 66q45 45 117 45q33 0 72.5 -18.5t64.5 -18.5q40 0 68 29l41 -48q-43 -55 -108 -55q-31 0 -76 19.5t-68 19.5q-48 0 -83 -39z" />
    <glyph glyph-name="Ograve" unicode="&#xd2;" horiz-adv-x="780" 
d="M740 325q0 -148 -100.5 -243t-249.5 -95t-249.5 95t-100.5 243t100.5 243t249.5 95t249.5 -95t100.5 -243zM136 325q0 -120 73 -189.5t181 -69.5t181 69.5t73 189.5t-73 189.5t-181 69.5t-181 -69.5t-73 -189.5zM331 886l89 -183h-69l-98 136z" />
    <glyph glyph-name="Oacute" unicode="&#xd3;" horiz-adv-x="780" 
d="M740 325q0 -148 -100.5 -243t-249.5 -95t-249.5 95t-100.5 243t100.5 243t249.5 95t249.5 -95t100.5 -243zM136 325q0 -120 73 -189.5t181 -69.5t181 69.5t73 189.5t-73 189.5t-181 69.5t-181 -69.5t-73 -189.5zM352 703l89 183l78 -47l-98 -136h-69z" />
    <glyph glyph-name="Ocircumflex" unicode="&#xd4;" horiz-adv-x="780" 
d="M740 325q0 -148 -100.5 -243t-249.5 -95t-249.5 95t-100.5 243t100.5 243t249.5 95t249.5 -95t100.5 -243zM136 325q0 -120 73 -189.5t181 -69.5t181 69.5t73 189.5t-73 189.5t-181 69.5t-181 -69.5t-73 -189.5zM522 691l-132 86l-132 -86l-21 54l141 119h23l142 -119z
" />
    <glyph glyph-name="Otilde" unicode="&#xd5;" horiz-adv-x="780" 
d="M740 325q0 -148 -100.5 -243t-249.5 -95t-249.5 95t-100.5 243t100.5 243t249.5 95t249.5 -95t100.5 -243zM136 325q0 -120 73 -189.5t181 -69.5t181 69.5t73 189.5t-73 189.5t-181 69.5t-181 -69.5t-73 -189.5zM237 699l-28 66q45 45 117 45q33 0 72.5 -18.5t64.5 -18.5
q40 0 68 29l41 -48q-43 -55 -108 -55q-31 0 -76 19.5t-68 19.5q-48 0 -83 -39z" />
    <glyph glyph-name="Odieresis" unicode="&#xd6;" horiz-adv-x="780" 
d="M740 325q0 -148 -100.5 -243t-249.5 -95t-249.5 95t-100.5 243t100.5 243t249.5 95t249.5 -95t100.5 -243zM136 325q0 -120 73 -189.5t181 -69.5t181 69.5t73 189.5t-73 189.5t-181 69.5t-181 -69.5t-73 -189.5zM280 828q30 0 47 -16.5t17 -44.5q0 -26 -17 -43t-47 -17
q-29 0 -45.5 17t-16.5 43q0 27 16.5 44t45.5 17zM499 828q29 0 46 -17t17 -44q0 -26 -17 -43t-46 -17t-46 17t-17 43q0 27 17 44t46 17z" />
    <glyph glyph-name="multiply" unicode="&#xd7;" horiz-adv-x="382" 
d="M88 475l103 -102l103 102l53 -53l-102 -103l102 -103l-53 -53l-103 102l-103 -102l-53 53l102 103l-102 103z" />
    <glyph glyph-name="Oslash" unicode="&#xd8;" horiz-adv-x="780" 
d="M611 671l72 -44l-46 -57q103 -97 103 -245t-100.5 -243t-249.5 -95q-103 0 -184 46l-46 -57l-70 44l50 62q-100 97 -100 243q0 148 100.5 243t249.5 95q97 0 179 -44zM582 502l-324 -404q59 -32 132 -32q108 0 181 69.5t73 189.5q0 105 -62 177zM195 151l322 402
q-59 31 -127 31q-108 0 -181 -69.5t-73 -189.5q0 -105 59 -174z" />
    <glyph glyph-name="Ugrave" unicode="&#xd9;" horiz-adv-x="680" 
d="M65 650h95v-379q0 -102 47 -155t133 -53t133 53t47 155v379h95v-372q0 -145 -72.5 -218t-202.5 -73t-202.5 73t-72.5 218v372zM293 881l89 -183h-69l-98 136z" />
    <glyph glyph-name="Uacute" unicode="&#xda;" horiz-adv-x="680" 
d="M65 650h95v-379q0 -102 47 -155t133 -53t133 53t47 155v379h95v-372q0 -145 -72.5 -218t-202.5 -73t-202.5 73t-72.5 218v372zM291 698l89 183l78 -47l-98 -136h-69z" />
    <glyph glyph-name="Ucircumflex" unicode="&#xdb;" horiz-adv-x="680" 
d="M65 650h95v-379q0 -102 47 -155t133 -53t133 53t47 155v379h95v-372q0 -145 -72.5 -218t-202.5 -73t-202.5 73t-72.5 218v372zM472 691l-132 86l-132 -86l-21 54l141 119h23l142 -119z" />
    <glyph glyph-name="Udieresis" unicode="&#xdc;" horiz-adv-x="680" 
d="M65 650h95v-379q0 -102 47 -155t133 -53t133 53t47 155v379h95v-372q0 -145 -72.5 -218t-202.5 -73t-202.5 73t-72.5 218v372zM230 828q30 0 47 -16.5t17 -44.5q0 -26 -17 -43t-47 -17q-29 0 -45.5 17t-16.5 43q0 27 16.5 44t45.5 17zM449 828q29 0 46 -17t17 -44
q0 -26 -17 -43t-46 -17t-46 17t-17 43q0 27 17 44t46 17z" />
    <glyph glyph-name="Yacute" unicode="&#xdd;" horiz-adv-x="646" 
d="M25 650h106l192 -313h4l190 313h104l-250 -401v-249h-94v247zM287 698l89 183l78 -47l-98 -136h-69z" />
    <glyph glyph-name="Thorn" unicode="&#xde;" 
d="M65 663h95v-112h128q113 0 182.5 -54.5t69.5 -150.5q0 -98 -68.5 -151.5t-183.5 -53.5h-128v-141h-95v663zM160 474v-256h115q86 0 128 30t42 98q0 128 -170 128h-115z" />
    <glyph glyph-name="agrave" unicode="&#xe0;" horiz-adv-x="602" 
d="M99 392l-20 74q106 44 213 44q111 0 163.5 -41.5t52.5 -132.5v-209q0 -36 12.5 -48.5t49.5 -12.5v-66q-31 -10 -66 -10q-30 0 -48.5 21.5t-21.5 60.5q-69 -82 -206 -82q-86 0 -132.5 40.5t-46.5 112.5q0 65 47 119q125 39 322 43v28q0 53 -29 76.5t-101 23.5
q-94 0 -189 -41zM418 132v106q-156 -3 -255 -30q-20 -24 -20 -60q0 -40 25.5 -61t72.5 -21q101 0 177 66zM237 746l94 -183h-64l-103 136z" />
    <glyph glyph-name="aacute" unicode="&#xe1;" horiz-adv-x="602" 
d="M99 392l-20 74q106 44 213 44q111 0 163.5 -41.5t52.5 -132.5v-209q0 -36 12.5 -48.5t49.5 -12.5v-66q-31 -10 -66 -10q-30 0 -48.5 21.5t-21.5 60.5q-69 -82 -206 -82q-86 0 -132.5 40.5t-46.5 112.5q0 65 47 119q125 39 322 43v28q0 53 -29 76.5t-101 23.5
q-94 0 -189 -41zM418 132v106q-156 -3 -255 -30q-20 -24 -20 -60q0 -40 25.5 -61t72.5 -21q101 0 177 66zM258 563l94 183l73 -47l-103 -136h-64z" />
    <glyph glyph-name="acircumflex" unicode="&#xe2;" horiz-adv-x="602" 
d="M99 392l-20 74q106 44 213 44q111 0 163.5 -41.5t52.5 -132.5v-209q0 -36 12.5 -48.5t49.5 -12.5v-66q-31 -10 -66 -10q-30 0 -48.5 21.5t-21.5 60.5q-69 -82 -206 -82q-86 0 -132.5 40.5t-46.5 112.5q0 65 47 119q125 39 322 43v28q0 53 -29 76.5t-101 23.5
q-94 0 -189 -41zM418 132v106q-156 -3 -255 -30q-20 -24 -20 -60q0 -40 25.5 -61t72.5 -21q101 0 177 66zM399 545l-112 77l-112 -77l-23 48l123 125h23l124 -125z" />
    <glyph glyph-name="atilde" unicode="&#xe3;" horiz-adv-x="602" 
d="M99 392l-20 74q106 44 213 44q111 0 163.5 -41.5t52.5 -132.5v-209q0 -36 12.5 -48.5t49.5 -12.5v-66q-31 -10 -66 -10q-30 0 -48.5 21.5t-21.5 60.5q-69 -82 -206 -82q-86 0 -132.5 40.5t-46.5 112.5q0 65 47 119q125 39 322 43v28q0 53 -29 76.5t-101 23.5
q-94 0 -189 -41zM418 132v106q-156 -3 -255 -30q-20 -24 -20 -60q0 -40 25.5 -61t72.5 -21q101 0 177 66zM140 565l-28 60q44 48 114 48q35 0 72.5 -19.5t61.5 -19.5q38 0 68 31l41 -46q-46 -56 -108 -56q-31 0 -74.5 20.5t-66.5 20.5q-48 0 -80 -39z" />
    <glyph glyph-name="adieresis" unicode="&#xe4;" horiz-adv-x="602" 
d="M99 392l-20 74q106 44 213 44q111 0 163.5 -41.5t52.5 -132.5v-209q0 -36 12.5 -48.5t49.5 -12.5v-66q-31 -10 -66 -10q-30 0 -48.5 21.5t-21.5 60.5q-69 -82 -206 -82q-86 0 -132.5 40.5t-46.5 112.5q0 65 47 119q125 39 322 43v28q0 53 -29 76.5t-101 23.5
q-94 0 -189 -41zM418 132v106q-156 -3 -255 -30q-20 -24 -20 -60q0 -40 25.5 -61t72.5 -21q101 0 177 66zM184 681q29 0 45.5 -16.5t16.5 -43.5q0 -25 -16.5 -41.5t-45.5 -16.5q-27 0 -44 16.5t-17 41.5q0 27 17 43.5t44 16.5zM407 681q29 0 45.5 -16.5t16.5 -43.5
q0 -25 -16.5 -41.5t-45.5 -16.5q-27 0 -44 16.5t-17 41.5q0 27 16.5 43.5t44.5 16.5z" />
    <glyph glyph-name="aring" unicode="&#xe5;" horiz-adv-x="602" 
d="M99 392l-20 74q106 44 213 44q111 0 163.5 -41.5t52.5 -132.5v-209q0 -36 12.5 -48.5t49.5 -12.5v-66q-31 -10 -66 -10q-30 0 -48.5 21.5t-21.5 60.5q-69 -82 -206 -82q-86 0 -132.5 40.5t-46.5 112.5q0 65 47 119q125 39 322 43v28q0 53 -29 76.5t-101 23.5
q-94 0 -189 -41zM418 132v106q-156 -3 -255 -30q-20 -24 -20 -60q0 -40 25.5 -61t72.5 -21q101 0 177 66zM294 549q-45 0 -77 27.5t-32 75.5q0 45 32 74t77 29q43 0 76 -28t33 -75q0 -49 -31.5 -76t-77.5 -27zM294 603q22 0 37 13t15 36q0 21 -14.5 34.5t-37.5 13.5
q-21 0 -36.5 -13.5t-15.5 -34.5t14.5 -35t37.5 -14z" />
    <glyph glyph-name="ae" unicode="&#xe6;" horiz-adv-x="945" 
d="M99 392l-20 74q97 44 213 44q153 0 190 -82q76 82 191 82t174.5 -56.5t59.5 -150.5q0 -43 -9 -76h-393q5 -77 55 -118t126 -41q58 0 93.5 7.5t80.5 30.5l28 -77q-47 -23 -93 -31t-115 -8q-138 0 -210 86q-95 -86 -246 -86q-86 0 -130.5 40.5t-44.5 112.5q0 64 47 118
q125 43 321 43v29q0 53 -28.5 76.5t-100.5 23.5q-95 0 -189 -41zM417 125v113q-145 0 -253 -30q-20 -21 -20 -60q0 -80 97 -80q103 0 176 57zM503 299h315q-1 72 -38.5 104t-116.5 32q-64 0 -109 -35.5t-51 -100.5z" />
    <glyph glyph-name="ccedilla" unicode="&#xe7;" horiz-adv-x="548" 
d="M510 472l-39 -69q-63 33 -138 33q-94 0 -146.5 -48.5t-52.5 -138.5q0 -81 53.5 -132t130.5 -51q94 0 170 42l28 -73q-77 -42 -181 -45l-3 -34q32 0 50.5 -15.5t18.5 -44.5q0 -39 -33.5 -75t-109.5 -53l-12 64q87 7 87 55q0 25 -30 25h-36v81q-104 13 -165.5 83.5
t-61.5 170.5q0 116 83 189.5t204 73.5q111 0 183 -38z" />
    <glyph glyph-name="egrave" unicode="&#xe8;" horiz-adv-x="587" 
d="M538 227h-402q5 -78 58.5 -119t131.5 -41q103 0 173 39l27 -76q-49 -23 -93.5 -31.5t-112.5 -8.5q-133 0 -206.5 69.5t-73.5 189.5q0 116 77.5 188.5t195.5 72.5q115 0 174.5 -56.5t59.5 -150.5q0 -43 -9 -76zM134 299h323q-1 73 -37 104.5t-117 31.5q-65 0 -114 -35.5
t-55 -100.5zM250 746l94 -183h-64l-103 136z" />
    <glyph glyph-name="eacute" unicode="&#xe9;" horiz-adv-x="587" 
d="M538 227h-402q5 -78 58.5 -119t131.5 -41q103 0 173 39l27 -76q-49 -23 -93.5 -31.5t-112.5 -8.5q-133 0 -206.5 69.5t-73.5 189.5q0 116 77.5 188.5t195.5 72.5q115 0 174.5 -56.5t59.5 -150.5q0 -43 -9 -76zM134 299h323q-1 73 -37 104.5t-117 31.5q-65 0 -114 -35.5
t-55 -100.5zM287 563l94 183l73 -47l-103 -136h-64z" />
    <glyph glyph-name="ecircumflex" unicode="&#xea;" horiz-adv-x="587" 
d="M538 227h-402q5 -78 58.5 -119t131.5 -41q103 0 173 39l27 -76q-49 -23 -93.5 -31.5t-112.5 -8.5q-133 0 -206.5 69.5t-73.5 189.5q0 116 77.5 188.5t195.5 72.5q115 0 174.5 -56.5t59.5 -150.5q0 -43 -9 -76zM134 299h323q-1 73 -37 104.5t-117 31.5q-65 0 -114 -35.5
t-55 -100.5zM431 545l-112 77l-112 -77l-23 48l123 125h23l124 -125z" />
    <glyph glyph-name="edieresis" unicode="&#xeb;" horiz-adv-x="587" 
d="M538 227h-402q5 -78 58.5 -119t131.5 -41q103 0 173 39l27 -76q-49 -23 -93.5 -31.5t-112.5 -8.5q-133 0 -206.5 69.5t-73.5 189.5q0 116 77.5 188.5t195.5 72.5q115 0 174.5 -56.5t59.5 -150.5q0 -43 -9 -76zM134 299h323q-1 73 -37 104.5t-117 31.5q-65 0 -114 -35.5
t-55 -100.5zM205 681q29 0 45.5 -16.5t16.5 -43.5q0 -25 -16.5 -41.5t-45.5 -16.5q-27 0 -44 16.5t-17 41.5q0 27 17 43.5t44 16.5zM428 681q29 0 45.5 -16.5t16.5 -43.5q0 -25 -16.5 -41.5t-45.5 -16.5q-27 0 -44 16.5t-17 41.5q0 27 16.5 43.5t44.5 16.5z" />
    <glyph glyph-name="igrave" unicode="&#xec;" horiz-adv-x="223" 
d="M65 500h93v-500h-93v500zM57 746l94 -183h-64l-103 136z" />
    <glyph glyph-name="iacute" unicode="&#xed;" horiz-adv-x="223" 
d="M65 500h93v-500h-93v500zM78 563l94 183l73 -47l-103 -136h-64z" />
    <glyph glyph-name="icircumflex" unicode="&#xee;" horiz-adv-x="223" 
d="M65 500h93v-500h-93v500zM223 545l-112 77l-112 -77l-23 48l123 125h23l124 -125z" />
    <glyph glyph-name="idieresis" unicode="&#xef;" horiz-adv-x="223" 
d="M65 500h93v-500h-93v500zM-1 681q29 0 45.5 -16.5t16.5 -43.5q0 -25 -16.5 -41.5t-45.5 -16.5q-27 0 -44 16.5t-17 41.5q0 27 17 43.5t44 16.5zM222 681q29 0 45.5 -16.5t16.5 -43.5q0 -25 -16.5 -41.5t-45.5 -16.5q-27 0 -44 16.5t-17 41.5q0 27 16.5 43.5t44.5 16.5z
" />
    <glyph glyph-name="eth" unicode="&#xf0;" horiz-adv-x="607" 
d="M190 538l41 65q-56 13 -135 14l5 76q87 0 174 -22l53 86l65 -29l-49 -79q100 -42 161.5 -131.5t61.5 -227.5q0 -150 -77 -230q-67 -70 -191 -70q-113 0 -186 66.5t-73 183.5q0 98 73 164t174 66q61 0 112 -23.5t79 -67.5h6q-42 148 -182 203l-47 -73zM469 230
q0 73 -46 119.5t-124 46.5q-80 0 -123.5 -42.5t-43.5 -120.5q0 -79 44 -124t123 -45q78 0 124 44t46 122z" />
    <glyph glyph-name="ntilde" unicode="&#xf1;" horiz-adv-x="611" 
d="M65 500h81l6 -79q68 89 187 89q103 0 155 -56t52 -163v-291h-93v292q0 142 -114 142q-112 0 -181 -89v-345h-93v500zM164 565l-28 60q44 48 114 48q35 0 72.5 -19.5t61.5 -19.5q38 0 68 31l41 -46q-46 -56 -108 -56q-31 0 -74.5 20.5t-66.5 20.5q-48 0 -80 -39z" />
    <glyph glyph-name="ograve" unicode="&#xf2;" horiz-adv-x="638" 
d="M598 250q0 -117 -80 -188.5t-199 -71.5t-199 71.5t-80 188.5t80 188.5t199 71.5t199 -71.5t80 -188.5zM131 250q0 -86 50.5 -136.5t137.5 -50.5t137.5 50.5t50.5 136.5t-50.5 136.5t-137.5 50.5t-137.5 -50.5t-50.5 -136.5zM249 746l94 -183h-64l-103 136z" />
    <glyph glyph-name="oacute" unicode="&#xf3;" horiz-adv-x="638" 
d="M598 250q0 -117 -80 -188.5t-199 -71.5t-199 71.5t-80 188.5t80 188.5t199 71.5t199 -71.5t80 -188.5zM131 250q0 -86 50.5 -136.5t137.5 -50.5t137.5 50.5t50.5 136.5t-50.5 136.5t-137.5 50.5t-137.5 -50.5t-50.5 -136.5zM288 563l94 183l73 -47l-103 -136h-64z" />
    <glyph glyph-name="ocircumflex" unicode="&#xf4;" horiz-adv-x="638" 
d="M598 250q0 -117 -80 -188.5t-199 -71.5t-199 71.5t-80 188.5t80 188.5t199 71.5t199 -71.5t80 -188.5zM131 250q0 -86 50.5 -136.5t137.5 -50.5t137.5 50.5t50.5 136.5t-50.5 136.5t-137.5 50.5t-137.5 -50.5t-50.5 -136.5zM431 545l-112 77l-112 -77l-23 48l123 125h23
l124 -125z" />
    <glyph glyph-name="otilde" unicode="&#xf5;" horiz-adv-x="638" 
d="M598 250q0 -117 -80 -188.5t-199 -71.5t-199 71.5t-80 188.5t80 188.5t199 71.5t199 -71.5t80 -188.5zM131 250q0 -86 50.5 -136.5t137.5 -50.5t137.5 50.5t50.5 136.5t-50.5 136.5t-137.5 50.5t-137.5 -50.5t-50.5 -136.5zM169 565l-28 60q44 48 114 48q35 0 72.5 -19.5
t61.5 -19.5q38 0 68 31l41 -46q-46 -56 -108 -56q-31 0 -74.5 20.5t-66.5 20.5q-48 0 -80 -39z" />
    <glyph glyph-name="odieresis" unicode="&#xf6;" horiz-adv-x="638" 
d="M598 250q0 -117 -80 -188.5t-199 -71.5t-199 71.5t-80 188.5t80 188.5t199 71.5t199 -71.5t80 -188.5zM131 250q0 -86 50.5 -136.5t137.5 -50.5t137.5 50.5t50.5 136.5t-50.5 136.5t-137.5 50.5t-137.5 -50.5t-50.5 -136.5zM207 681q29 0 45.5 -16.5t16.5 -43.5
q0 -25 -16.5 -41.5t-45.5 -16.5q-27 0 -44 16.5t-17 41.5q0 27 17 43.5t44 16.5zM430 681q29 0 45.5 -16.5t16.5 -43.5q0 -25 -16.5 -41.5t-45.5 -16.5q-27 0 -44 16.5t-17 41.5q0 27 16.5 43.5t44.5 16.5z" />
    <glyph glyph-name="divide" unicode="&#xf7;" horiz-adv-x="381" 
d="M190 237q31 0 49 -18.5t18 -47.5t-17.5 -46t-49.5 -17q-31 0 -48.5 17t-17.5 46t17.5 47.5t48.5 18.5zM40 367h300v-76h-300v76zM190 550q31 0 49 -18.5t18 -47.5t-17.5 -46t-49.5 -17q-31 0 -48.5 17t-17.5 46t17.5 47.5t48.5 18.5z" />
    <glyph glyph-name="oslash" unicode="&#xf8;" horiz-adv-x="638" 
d="M456 543l77 -25l-37 -62q102 -74 102 -206q0 -117 -80 -188.5t-199 -71.5q-49 0 -91 12l-29 -49l-75 25l32 55q-116 73 -116 217q0 117 80 188.5t199 71.5q57 0 107 -18zM196 100l192 327q-35 10 -69 10q-87 0 -137.5 -50.5t-50.5 -136.5q0 -100 65 -150zM456 387
l-189 -319q27 -5 52 -5q87 0 137.5 50.5t50.5 136.5t-51 137z" />
    <glyph glyph-name="ugrave" unicode="&#xf9;" horiz-adv-x="604" 
d="M65 500h93v-292q0 -70 25 -106t86 -36q108 0 177 89v345h93v-500h-81l-6 79q-68 -89 -183 -89q-204 0 -204 219v291zM241 746l94 -183h-64l-103 136z" />
    <glyph glyph-name="uacute" unicode="&#xfa;" horiz-adv-x="604" 
d="M65 500h93v-292q0 -70 25 -106t86 -36q108 0 177 89v345h93v-500h-81l-6 79q-68 -89 -183 -89q-204 0 -204 219v291zM257 563l94 183l73 -47l-103 -136h-64z" />
    <glyph glyph-name="ucircumflex" unicode="&#xfb;" horiz-adv-x="604" 
d="M65 500h93v-292q0 -70 25 -106t86 -36q108 0 177 89v345h93v-500h-81l-6 79q-68 -89 -183 -89q-204 0 -204 219v291zM414 545l-112 77l-112 -77l-23 48l123 125h23l124 -125z" />
    <glyph glyph-name="udieresis" unicode="&#xfc;" horiz-adv-x="604" 
d="M65 500h93v-292q0 -70 25 -106t86 -36q108 0 177 89v345h93v-500h-81l-6 79q-68 -89 -183 -89q-204 0 -204 219v291zM190 681q29 0 45.5 -16.5t16.5 -43.5q0 -25 -16.5 -41.5t-45.5 -16.5q-27 0 -44 16.5t-17 41.5q0 27 17 43.5t44 16.5zM413 681q29 0 45.5 -16.5
t16.5 -43.5q0 -25 -16.5 -41.5t-45.5 -16.5q-27 0 -44 16.5t-17 41.5q0 27 16.5 43.5t44.5 16.5z" />
    <glyph glyph-name="yacute" unicode="&#xfd;" horiz-adv-x="599" 
d="M25 500h103l193 -402h4l149 402h100l-246 -596q-20 -48 -63 -75.5t-94 -27.5q-30 0 -66 13l14 72q22 -5 39 -5q37 0 62 15.5t41 54.5l18 45zM271 563l94 183l73 -47l-103 -136h-64z" />
    <glyph glyph-name="thorn" unicode="&#xfe;" horiz-adv-x="609" 
d="M65 730h93v-238q62 18 134 18q133 0 205 -69t72 -192q0 -118 -65.5 -188.5t-190.5 -70.5q-52 0 -86.5 11.5t-68.5 40.5v-272h-93v960zM158 417v-298q61 -51 154 -51q76 0 120 48t44 133q0 92 -48 139.5t-135 47.5q-77 0 -135 -19z" />
    <glyph glyph-name="ydieresis" unicode="&#xff;" horiz-adv-x="599" 
d="M25 500h103l193 -402h4l149 402h100l-246 -596q-20 -48 -63 -75.5t-94 -27.5q-30 0 -66 13l14 72q22 -5 39 -5q37 0 62 15.5t41 54.5l18 45zM197 681q29 0 45.5 -16.5t16.5 -43.5q0 -25 -16.5 -41.5t-45.5 -16.5q-27 0 -44 16.5t-17 41.5q0 27 17 43.5t44 16.5zM420 681
q29 0 45.5 -16.5t16.5 -43.5q0 -25 -16.5 -41.5t-45.5 -16.5q-27 0 -44 16.5t-17 41.5q0 27 16.5 43.5t44.5 16.5z" />
    <glyph glyph-name="Amacron" unicode="&#x100;" horiz-adv-x="707" 
d="M301 650h105l278 -650h-99l-85 197h-299l-81 -197h-98zM347 558l-115 -283h238l-114 283h-9zM190 784h326v-73h-326v73z" />
    <glyph glyph-name="amacron" unicode="&#x101;" horiz-adv-x="602" 
d="M99 392l-20 74q106 44 213 44q111 0 163.5 -41.5t52.5 -132.5v-209q0 -36 12.5 -48.5t49.5 -12.5v-66q-31 -10 -66 -10q-30 0 -48.5 21.5t-21.5 60.5q-69 -82 -206 -82q-86 0 -132.5 40.5t-46.5 112.5q0 65 47 119q125 39 322 43v28q0 53 -29 76.5t-101 23.5
q-94 0 -189 -41zM418 132v106q-156 -3 -255 -30q-20 -24 -20 -60q0 -40 25.5 -61t72.5 -21q101 0 177 66zM136 642h314v-70h-314v70z" />
    <glyph glyph-name="Abreve" unicode="&#x102;" horiz-adv-x="707" 
d="M301 650h105l278 -650h-99l-85 197h-299l-81 -197h-98zM347 558l-115 -283h238l-114 283h-9zM197 802l60 27q27 -59 96 -59q68 0 97 59l60 -27q-16 -51 -57.5 -78t-99.5 -27q-57 0 -99 27.5t-57 77.5z" />
    <glyph glyph-name="abreve" unicode="&#x103;" horiz-adv-x="602" 
d="M99 392l-20 74q106 44 213 44q111 0 163.5 -41.5t52.5 -132.5v-209q0 -36 12.5 -48.5t49.5 -12.5v-66q-31 -10 -66 -10q-30 0 -48.5 21.5t-21.5 60.5q-69 -82 -206 -82q-86 0 -132.5 40.5t-46.5 112.5q0 65 47 119q125 39 322 43v28q0 53 -29 76.5t-101 23.5
q-94 0 -189 -41zM418 132v106q-156 -3 -255 -30q-20 -24 -20 -60q0 -40 25.5 -61t72.5 -21q101 0 177 66zM160 666l70 13q12 -51 68 -51t68 51l70 -13q-12 -53 -50 -81t-88 -28t-88 28t-50 81z" />
    <glyph glyph-name="Aogonek" unicode="&#x104;" horiz-adv-x="707" 
d="M304 650h100l278 -650q-54 -28 -54 -72t49 -44q16 0 31 5l-16 -65q-17 -4 -37 -4q-47 0 -75.5 24t-28.5 63q0 27 14.5 53t42.5 40h-23l-85 197h-300l-80 -197h-95zM345 558l-115 -283h240l-114 283h-11z" />
    <glyph glyph-name="aogonek" unicode="&#x105;" horiz-adv-x="602" 
d="M99 392l-20 74q106 44 213 44q111 0 163.5 -41.5t52.5 -132.5v-209q0 -36 12.5 -48.5t49.5 -12.5v-66q-49 -24 -49 -67q0 -37 44 -37q14 0 29 4l-17 -65q-16 -4 -34 -4q-48 0 -71 22.5t-23 60.5q0 48 45 79q-55 11 -60 79q-69 -82 -206 -82q-86 0 -132.5 40.5
t-46.5 112.5q0 65 47 119q125 39 322 43v28q0 53 -29 76.5t-101 23.5q-94 0 -189 -41zM418 132v106q-156 -3 -255 -30q-20 -24 -20 -60q0 -40 25.5 -61t72.5 -21q101 0 177 66z" />
    <glyph glyph-name="Cacute" unicode="&#x106;" horiz-adv-x="660" 
d="M622 591l-38 -73q-91 67 -193 67q-115 0 -185.5 -73t-70.5 -186q0 -121 72 -188t183 -67q62 0 107 13.5t97 49.5l28 -82q-94 -65 -242 -65q-67 0 -127 21t-108 61t-76.5 106.5t-28.5 150.5q0 148 102.5 242.5t248.5 94.5q133 0 231 -72zM351 698l89 183l78 -47l-98 -136
h-69z" />
    <glyph glyph-name="cacute" unicode="&#x107;" horiz-adv-x="548" 
d="M510 472l-39 -69q-63 33 -138 33q-94 0 -146.5 -48.5t-52.5 -138.5q0 -81 53.5 -132t130.5 -51q94 0 170 42l28 -73q-83 -45 -203 -45q-123 0 -198 72.5t-75 184.5q0 116 83 189.5t204 73.5q111 0 183 -38zM291 563l94 183l73 -47l-103 -136h-64z" />
    <glyph glyph-name="Ccircumflex" unicode="&#x108;" horiz-adv-x="660" 
d="M622 591l-38 -73q-91 67 -193 67q-115 0 -185.5 -73t-70.5 -186q0 -121 72 -188t183 -67q62 0 107 13.5t97 49.5l28 -82q-94 -65 -242 -65q-67 0 -127 21t-108 61t-76.5 106.5t-28.5 150.5q0 148 102.5 242.5t248.5 94.5q133 0 231 -72zM523 691l-132 86l-132 -86l-21 54
l141 119h23l142 -119z" />
    <glyph glyph-name="ccircumflex" unicode="&#x109;" horiz-adv-x="548" 
d="M510 472l-39 -69q-63 33 -138 33q-94 0 -146.5 -48.5t-52.5 -138.5q0 -81 53.5 -132t130.5 -51q94 0 170 42l28 -73q-83 -45 -203 -45q-123 0 -198 72.5t-75 184.5q0 116 83 189.5t204 73.5q111 0 183 -38zM441 544l-112 77l-112 -77l-23 48l123 125h23l124 -125z" />
    <glyph glyph-name="Cdotaccent" unicode="&#x10a;" horiz-adv-x="660" 
d="M622 591l-38 -73q-91 67 -193 67q-115 0 -185.5 -73t-70.5 -186q0 -121 72 -188t183 -67q62 0 107 13.5t97 49.5l28 -82q-94 -65 -242 -65q-67 0 -127 21t-108 61t-76.5 106.5t-28.5 150.5q0 148 102.5 242.5t248.5 94.5q133 0 231 -72zM397 840q31 0 49 -18.5t18 -47.5
t-17.5 -46t-49.5 -17q-31 0 -48.5 17t-17.5 46t17.5 47.5t48.5 18.5z" />
    <glyph glyph-name="cdotaccent" unicode="&#x10b;" horiz-adv-x="548" 
d="M510 472l-39 -69q-63 33 -138 33q-94 0 -146.5 -48.5t-52.5 -138.5q0 -81 53.5 -132t130.5 -51q94 0 170 42l28 -73q-83 -45 -203 -45q-123 0 -198 72.5t-75 184.5q0 116 83 189.5t204 73.5q111 0 183 -38zM336 685q31 0 49 -18.5t18 -47.5t-17.5 -46t-49.5 -17
q-31 0 -48.5 17t-17.5 46t17.5 47.5t48.5 18.5z" />
    <glyph glyph-name="Ccaron" unicode="&#x10c;" horiz-adv-x="660" 
d="M622 591l-38 -73q-91 67 -193 67q-115 0 -185.5 -73t-70.5 -186q0 -121 72 -188t183 -67q62 0 107 13.5t97 49.5l28 -82q-94 -65 -242 -65q-67 0 -127 21t-108 61t-76.5 106.5t-28.5 150.5q0 148 102.5 242.5t248.5 94.5q133 0 231 -72zM263 864l132 -86l132 86l21 -54
l-141 -119h-23l-142 119z" />
    <glyph glyph-name="ccaron" unicode="&#x10d;" horiz-adv-x="548" 
d="M216 723l112 -77l112 77l23 -48l-123 -125h-23l-124 125zM510 472l-39 -69q-63 33 -138 33q-94 0 -146.5 -48.5t-52.5 -138.5q0 -81 53.5 -132t130.5 -51q94 0 170 42l28 -73q-83 -45 -203 -45q-123 0 -198 72.5t-75 184.5q0 116 83 189.5t204 73.5q111 0 183 -38z" />
    <glyph glyph-name="Dcaron" unicode="&#x10e;" horiz-adv-x="700" 
d="M65 650h241q165 0 259.5 -87t94.5 -242q0 -154 -103 -237.5t-271 -83.5h-221v650zM160 572v-493h134q125 0 198 58.5t73 183.5q0 129 -68 190t-191 61h-146zM180 864l132 -86l132 86l21 -54l-141 -119h-23l-142 119z" />
    <glyph glyph-name="dcaron" unicode="&#x10f;" horiz-adv-x="712" 
d="M461 730h93v-712q-108 -28 -251 -28q-122 0 -192.5 67.5t-70.5 194.5q0 116 73.5 187t190.5 71q98 0 157 -38v258zM461 81v306q-63 48 -149 48q-79 0 -128.5 -47t-49.5 -135q0 -93 52 -140.5t137 -47.5q77 0 138 16zM632 506l-25 43q62 28 62 70q-28 0 -42.5 15.5
t-14.5 38.5t14.5 40.5t45.5 17.5q34 0 52.5 -25t18.5 -63q0 -41 -29 -80.5t-82 -56.5z" />
    <glyph glyph-name="Dcroat" unicode="&#x110;" horiz-adv-x="706" 
d="M71 650h241q165 0 259.5 -87t94.5 -242q0 -154 -103 -237.5t-271 -83.5h-221v294h-66v75h66v281zM166 572v-203h163v-75h-163v-215h134q125 0 198 58.5t73 183.5q0 129 -68 190t-191 61h-146z" />
    <glyph glyph-name="dcroat" unicode="&#x111;" horiz-adv-x="619" 
d="M461 730h93v-85h72v-73h-72v-554q-108 -28 -251 -28q-122 0 -192.5 67.5t-70.5 194.5q0 116 73.5 187t190.5 71q53 0 87 -9.5t70 -33.5v105h-132v73h132v85zM461 83v307q-74 45 -149 45q-79 0 -128.5 -47t-49.5 -135q0 -93 52 -140.5t137 -47.5q61 0 138 18z" />
    <glyph glyph-name="Emacron" unicode="&#x112;" horiz-adv-x="541" 
d="M65 0v650h419v-79h-323v-194h290v-78h-290v-220h337v-79h-433zM115 784h326v-73h-326v73z" />
    <glyph glyph-name="emacron" unicode="&#x113;" horiz-adv-x="587" 
d="M538 227h-402q5 -78 58.5 -119t131.5 -41q103 0 173 39l27 -76q-49 -23 -93.5 -31.5t-112.5 -8.5q-133 0 -206.5 69.5t-73.5 189.5q0 116 77.5 188.5t195.5 72.5q115 0 174.5 -56.5t59.5 -150.5q0 -43 -9 -76zM134 299h323q-1 73 -37 104.5t-117 31.5q-65 0 -114 -35.5
t-55 -100.5zM152 642h314v-70h-314v70z" />
    <glyph glyph-name="Ebreve" unicode="&#x114;" horiz-adv-x="541" 
d="M65 0v650h419v-79h-323v-194h290v-78h-290v-220h337v-79h-433zM127 802l60 27q27 -59 96 -59q68 0 97 59l60 -27q-16 -51 -57.5 -78t-99.5 -27q-57 0 -99 27.5t-57 77.5z" />
    <glyph glyph-name="ebreve" unicode="&#x115;" horiz-adv-x="587" 
d="M538 227h-402q5 -78 58.5 -119t131.5 -41q103 0 173 39l27 -76q-49 -23 -93.5 -31.5t-112.5 -8.5q-133 0 -206.5 69.5t-73.5 189.5q0 116 77.5 188.5t195.5 72.5q115 0 174.5 -56.5t59.5 -150.5q0 -43 -9 -76zM134 299h323q-1 73 -37 104.5t-117 31.5q-65 0 -114 -35.5
t-55 -100.5zM172 656l70 13q12 -51 68 -51t68 51l70 -13q-12 -53 -50 -81t-88 -28t-88 28t-50 81z" />
    <glyph glyph-name="Edotaccent" unicode="&#x116;" horiz-adv-x="541" 
d="M65 0v650h419v-79h-323v-194h290v-78h-290v-220h337v-79h-433zM283 826q31 0 49 -18.5t18 -47.5t-17.5 -46t-49.5 -17q-31 0 -48.5 17t-17.5 46t17.5 47.5t48.5 18.5z" />
    <glyph glyph-name="edotaccent" unicode="&#x117;" horiz-adv-x="587" 
d="M538 227h-402q5 -78 58.5 -119t131.5 -41q103 0 173 39l27 -76q-49 -23 -93.5 -31.5t-112.5 -8.5q-133 0 -206.5 69.5t-73.5 189.5q0 116 77.5 188.5t195.5 72.5q115 0 174.5 -56.5t59.5 -150.5q0 -43 -9 -76zM134 299h323q-1 73 -37 104.5t-117 31.5q-65 0 -114 -35.5
t-55 -100.5zM314 689q31 0 49 -18.5t18 -47.5t-17.5 -46t-49.5 -17q-31 0 -48.5 17t-17.5 46t17.5 47.5t48.5 18.5z" />
    <glyph glyph-name="Eogonek" unicode="&#x118;" horiz-adv-x="541" 
d="M65 0v650h419v-79h-323v-194h290v-78h-290v-220h337v-79q-54 -28 -54 -72t49 -44q16 0 31 5l-16 -65q-17 -4 -37 -4q-47 0 -75.5 24t-28.5 63q0 27 14.5 53t42.5 40h-359z" />
    <glyph glyph-name="eogonek" unicode="&#x119;" horiz-adv-x="587" 
d="M538 227h-402q5 -78 58.5 -119t131.5 -41q103 0 173 39l27 -76q-49 -20 -49 -67q0 -37 44 -37q14 0 29 4l-17 -65q-16 -4 -34 -4q-48 0 -71 22.5t-23 60.5q0 28 15 53q-41 -7 -100 -7q-133 0 -206.5 69.5t-73.5 189.5q0 116 77.5 188.5t195.5 72.5q115 0 174.5 -56.5
t59.5 -150.5q0 -43 -9 -76zM134 299h323q-1 73 -37 104.5t-117 31.5q-65 0 -114 -35.5t-55 -100.5z" />
    <glyph glyph-name="Ecaron" unicode="&#x11a;" horiz-adv-x="541" 
d="M65 0v650h419v-79h-323v-194h290v-78h-290v-220h337v-79h-433zM153 864l132 -86l132 86l21 -54l-141 -119h-23l-142 119z" />
    <glyph glyph-name="ecaron" unicode="&#x11b;" horiz-adv-x="587" 
d="M538 227h-402q5 -78 58.5 -119t131.5 -41q103 0 173 39l27 -76q-49 -23 -93.5 -31.5t-112.5 -8.5q-133 0 -206.5 69.5t-73.5 189.5q0 116 77.5 188.5t195.5 72.5q115 0 174.5 -56.5t59.5 -150.5q0 -43 -9 -76zM134 299h323q-1 73 -37 104.5t-117 31.5q-65 0 -114 -35.5
t-55 -100.5zM204 723l112 -77l112 77l23 -48l-123 -125h-23l-124 125z" />
    <glyph glyph-name="Gcircumflex" unicode="&#x11c;" horiz-adv-x="700" 
d="M383 347h262v-280q-107 -80 -268 -80q-145 0 -241 89.5t-96 248.5q0 148 101 243t247 95q145 0 244 -72l-38 -73q-90 66 -206 66q-115 0 -184 -73t-69 -186q0 -116 71.5 -186t180.5 -70q99 0 166 37v166h-170v75zM514 691l-132 86l-132 -86l-21 54l141 119h23l142 -119z
" />
    <glyph glyph-name="gcircumflex" unicode="&#x11d;" horiz-adv-x="582" 
d="M567 510v-66h-111q55 -44 55 -111q0 -77 -59.5 -126.5t-163.5 -49.5q-79 0 -131 26q-14 -6 -23.5 -21.5t-9.5 -29.5q0 -25 20.5 -41.5t64.5 -16.5h128q91 0 166 -19q44 -50 44 -117q0 -52 -27 -90t-72.5 -57.5t-92.5 -28t-98 -8.5q-110 0 -168.5 40.5t-58.5 117.5
q0 73 67 115q-27 13 -42 39t-15 54q0 32 16.5 61t45.5 45q-36 42 -36 107q0 82 61 129.5t169 47.5h271zM345 -2h-120q-40 0 -64 5q-47 -28 -47 -76q0 -100 153 -100q30 0 60 4.5t62.5 15.5t53 34t20.5 54t-16 54q-42 9 -102 9zM151 333q0 -51 35.5 -78t101.5 -27
q62 0 99.5 26.5t37.5 78.5q0 53 -38 80.5t-99 27.5q-64 0 -100.5 -28.5t-36.5 -79.5zM406 545l-112 77l-112 -77l-23 48l123 125h23l124 -125z" />
    <glyph glyph-name="Gbreve" unicode="&#x11e;" horiz-adv-x="700" 
d="M383 347h262v-280q-107 -80 -268 -80q-145 0 -241 89.5t-96 248.5q0 148 101 243t247 95q145 0 244 -72l-38 -73q-90 66 -206 66q-115 0 -184 -73t-69 -186q0 -116 71.5 -186t180.5 -70q99 0 166 37v166h-170v75zM228 812l60 27q27 -59 96 -59q68 0 97 59l60 -27
q-16 -51 -57.5 -78t-99.5 -27q-57 0 -99 27.5t-57 77.5z" />
    <glyph glyph-name="gbreve" unicode="&#x11f;" horiz-adv-x="582" 
d="M567 510v-66h-111q55 -44 55 -111q0 -77 -59.5 -126.5t-163.5 -49.5q-79 0 -131 26q-14 -6 -23.5 -21.5t-9.5 -29.5q0 -25 20.5 -41.5t64.5 -16.5h128q91 0 166 -19q44 -50 44 -117q0 -52 -27 -90t-72.5 -57.5t-92.5 -28t-98 -8.5q-110 0 -168.5 40.5t-58.5 117.5
q0 73 67 115q-27 13 -42 39t-15 54q0 32 16.5 61t45.5 45q-36 42 -36 107q0 82 61 129.5t169 47.5h271zM345 -2h-120q-40 0 -64 5q-47 -28 -47 -76q0 -100 153 -100q30 0 60 4.5t62.5 15.5t53 34t20.5 54t-16 54q-42 9 -102 9zM151 333q0 -51 35.5 -78t101.5 -27
q62 0 99.5 26.5t37.5 78.5q0 53 -38 80.5t-99 27.5q-64 0 -100.5 -28.5t-36.5 -79.5zM162 666l70 13q12 -51 68 -51t68 51l70 -13q-12 -53 -50 -81t-88 -28t-88 28t-50 81z" />
    <glyph glyph-name="Gdotaccent" unicode="&#x120;" horiz-adv-x="700" 
d="M383 347h262v-280q-107 -80 -268 -80q-145 0 -241 89.5t-96 248.5q0 148 101 243t247 95q145 0 244 -72l-38 -73q-90 66 -206 66q-115 0 -184 -73t-69 -186q0 -116 71.5 -186t180.5 -70q99 0 166 37v166h-170v75zM393 840q31 0 49 -18.5t18 -47.5t-17.5 -46t-49.5 -17
q-31 0 -48.5 17t-17.5 46t17.5 47.5t48.5 18.5z" />
    <glyph glyph-name="gdotaccent" unicode="&#x121;" horiz-adv-x="582" 
d="M567 510v-66h-111q55 -44 55 -111q0 -77 -59.5 -126.5t-163.5 -49.5q-79 0 -131 26q-14 -6 -23.5 -21.5t-9.5 -29.5q0 -25 20.5 -41.5t64.5 -16.5h128q91 0 166 -19q44 -50 44 -117q0 -52 -27 -90t-72.5 -57.5t-92.5 -28t-98 -8.5q-110 0 -168.5 40.5t-58.5 117.5
q0 73 67 115q-27 13 -42 39t-15 54q0 32 16.5 61t45.5 45q-36 42 -36 107q0 82 61 129.5t169 47.5h271zM345 -2h-120q-40 0 -64 5q-47 -28 -47 -76q0 -100 153 -100q30 0 60 4.5t62.5 15.5t53 34t20.5 54t-16 54q-42 9 -102 9zM151 333q0 -51 35.5 -78t101.5 -27
q62 0 99.5 26.5t37.5 78.5q0 53 -38 80.5t-99 27.5q-64 0 -100.5 -28.5t-36.5 -79.5zM287 685q31 0 49 -18.5t18 -47.5t-17.5 -46t-49.5 -17q-31 0 -48.5 17t-17.5 46t17.5 47.5t48.5 18.5z" />
    <glyph glyph-name="Gcommaaccent" unicode="&#x122;" horiz-adv-x="700" 
d="M383 347h262v-280q-107 -80 -268 -80q-145 0 -241 89.5t-96 248.5q0 148 101 243t247 95q145 0 244 -72l-38 -73q-90 66 -206 66q-115 0 -184 -73t-69 -186q0 -116 71.5 -186t180.5 -70q99 0 166 37v166h-170v75zM354 -275l-25 45q62 24 62 68q-28 0 -42.5 15.5
t-14.5 38.5t14.5 40.5t45.5 17.5q34 0 52.5 -25t18.5 -63q0 -41 -29 -80.5t-82 -56.5z" />
    <glyph glyph-name="gcommaaccent" unicode="&#x123;" horiz-adv-x="582" 
d="M567 510v-66h-111q55 -44 55 -111q0 -77 -59.5 -126.5t-163.5 -49.5q-79 0 -131 26q-14 -6 -23.5 -21.5t-9.5 -29.5q0 -25 20.5 -41.5t64.5 -16.5h128q91 0 166 -19q44 -50 44 -117q0 -52 -27 -90t-72.5 -57.5t-92.5 -28t-98 -8.5q-110 0 -168.5 40.5t-58.5 117.5
q0 73 67 115q-27 13 -42 39t-15 54q0 32 16.5 61t45.5 45q-36 42 -36 107q0 82 61 129.5t169 47.5h271zM345 -2h-120q-40 0 -64 5q-47 -28 -47 -76q0 -100 153 -100q30 0 60 4.5t62.5 15.5t53 34t20.5 54t-16 54q-42 9 -102 9zM151 333q0 -51 35.5 -78t101.5 -27
q62 0 99.5 26.5t37.5 78.5q0 53 -38 80.5t-99 27.5q-64 0 -100.5 -28.5t-36.5 -79.5zM332 776l25 -43q-62 -28 -62 -70q28 0 42.5 -15.5t14.5 -38.5t-14.5 -40.5t-45.5 -17.5q-34 0 -52.5 25t-18.5 63q0 41 29 80.5t82 56.5z" />
    <glyph glyph-name="Hcircumflex" unicode="&#x124;" horiz-adv-x="669" 
d="M509 650h95v-650h-95v303h-349v-303h-95v650h95v-270h349v270zM466 691l-132 86l-132 -86l-21 54l141 119h23l142 -119z" />
    <glyph glyph-name="hcircumflex" unicode="&#x125;" horiz-adv-x="610" 
d="M65 730h93v-302q66 82 181 82q103 0 155 -56t52 -163v-291h-93v292q0 142 -114 142q-108 0 -181 -88v-346h-93v730zM219 746l-112 77l-112 -77l-23 48l123 125h23l124 -125z" />
    <glyph glyph-name="Hbar" unicode="&#x126;" horiz-adv-x="669" 
d="M65 650h95v-102h349v102h95v-102h45v-70h-45v-478h-95v303h-349v-303h-95v478h-45v70h45v102zM160 478v-98h349v98h-349z" />
    <glyph glyph-name="hbar" unicode="&#x127;" horiz-adv-x="621" 
d="M76 730h93v-85h175v-73h-175v-144q66 82 181 82q103 0 155 -56t52 -163v-291h-93v292q0 142 -114 142q-108 0 -181 -88v-346h-93v572h-76v73h76v85z" />
    <glyph glyph-name="Itilde" unicode="&#x128;" horiz-adv-x="225" 
d="M65 650h95v-650h-95v650zM-41 699l-28 66q45 45 117 45q33 0 72.5 -18.5t64.5 -18.5q40 0 68 29l41 -48q-43 -55 -108 -55q-31 0 -76 19.5t-68 19.5q-48 0 -83 -39z" />
    <glyph glyph-name="itilde" unicode="&#x129;" horiz-adv-x="223" 
d="M65 500h93v-500h-93v500zM-38 565l-28 60q44 48 114 48q35 0 72.5 -19.5t61.5 -19.5q38 0 68 31l41 -46q-46 -56 -108 -56q-31 0 -74.5 20.5t-66.5 20.5q-48 0 -80 -39z" />
    <glyph glyph-name="uni012A" unicode="&#x12a;" horiz-adv-x="225" 
d="M65 650h95v-650h-95v650zM-50 791h326v-73h-326v73z" />
    <glyph glyph-name="imacron" unicode="&#x12b;" horiz-adv-x="223" 
d="M65 500h93v-500h-93v500zM-46 642h314v-70h-314v70z" />
    <glyph glyph-name="Ibreve" unicode="&#x12c;" horiz-adv-x="225" 
d="M65 650h95v-650h-95v650zM-44 802l60 27q27 -59 96 -59q68 0 97 59l60 -27q-16 -51 -57.5 -78t-99.5 -27q-57 0 -99 27.5t-57 77.5z" />
    <glyph glyph-name="Iogonek" unicode="&#x12e;" horiz-adv-x="225" 
d="M65 650h95v-650q-54 -28 -54 -72t49 -44q16 0 31 5l-16 -65q-17 -4 -37 -4q-47 0 -75.5 24t-28.5 63q0 27 14.5 53t42.5 40h-21v650z" />
    <glyph glyph-name="iogonek" unicode="&#x12f;" horiz-adv-x="223" 
d="M65 500h93v-500q-49 -24 -49 -67q0 -37 44 -37q14 0 29 4l-17 -65q-16 -4 -34 -4q-48 0 -71 22.5t-23 60.5q0 25 13.5 49t38.5 37h-24v500zM112 706q30 0 47.5 -18t17.5 -45q0 -26 -17.5 -44.5t-47.5 -18.5t-47.5 18.5t-17.5 44.5q0 27 17.5 45t47.5 18z" />
    <glyph glyph-name="Idotaccent" unicode="&#x130;" horiz-adv-x="225" 
d="M65 650h95v-650h-95v650zM116 841q31 0 49 -18.5t18 -47.5t-17.5 -46t-49.5 -17q-31 0 -48.5 17t-17.5 46t17.5 47.5t48.5 18.5z" />
    <glyph glyph-name="dotlessi" unicode="&#x131;" horiz-adv-x="223" 
d="M65 500h93v-500h-93v500z" />
    <glyph glyph-name="Jcircumflex" unicode="&#x134;" horiz-adv-x="244" 
d="M85 650h94v-632q0 -126 -59.5 -185.5t-168.5 -75.5l-30 78q89 14 126.5 51t37.5 135v629zM265 682l-132 86l-132 -86l-21 54l141 119h23l142 -119z" />
    <glyph glyph-name="jcircumflex" unicode="&#x135;" horiz-adv-x="233" 
d="M74 500h94v-529q0 -101 -52 -156.5t-149 -57.5l-7 79q59 4 86.5 32t27.5 86v546zM233 545l-112 77l-112 -77l-23 48l123 125h23l124 -125z" />
    <glyph glyph-name="Kcommaaccent" unicode="&#x136;" horiz-adv-x="634" 
d="M65 650h96v-341l313 341h119l-252 -265l279 -385h-113l-229 320l-117 -111v-209h-96v650zM262 -216l-25 45q62 24 62 68q-28 0 -42.5 15.5t-14.5 38.5t14.5 40.5t45.5 17.5q34 0 52.5 -25t18.5 -63q0 -41 -29 -80.5t-82 -56.5z" />
    <glyph glyph-name="kcommaaccent" unicode="&#x137;" horiz-adv-x="579" 
d="M65 730h92v-438l80 53l174 155h109l2 -10l-217 -189l227 -293l-3 -8h-105l-190 255l-77 -43v-212h-92v730zM248 -243l-25 43q62 28 62 70q-28 0 -42.5 15.5t-14.5 38.5t14.5 40.5t45.5 17.5q34 0 52.5 -25t18.5 -63q0 -41 -29 -80.5t-82 -56.5z" />
    <glyph glyph-name="kgreenlandic" unicode="&#x138;" horiz-adv-x="579" 
d="M65 500h93v-224l254 224h110l4 -9l-231 -194l264 -289l-2 -8h-111l-216 246l-72 -60v-186h-93v500z" />
    <glyph glyph-name="Lacute" unicode="&#x139;" horiz-adv-x="504" 
d="M161 80h306v-80h-402v650h96v-570zM78 698l89 183l78 -47l-98 -136h-69z" />
    <glyph glyph-name="lacute" unicode="&#x13a;" horiz-adv-x="240" 
d="M65 730h92v-582q0 -37 16 -52.5t57 -15.5v-84q-16 -2 -24 -2q-76 0 -108.5 42t-32.5 122v572zM74 773l94 183l73 -47l-103 -136h-64z" />
    <glyph glyph-name="Lcommaaccent" unicode="&#x13b;" horiz-adv-x="504" 
d="M161 80h306v-80h-402v650h96v-570zM217 -269l-25 45q62 24 62 68q-28 0 -42.5 15.5t-14.5 38.5t14.5 40.5t45.5 17.5q34 0 52.5 -25t18.5 -63q0 -41 -29 -80.5t-82 -56.5z" />
    <glyph glyph-name="lcommaaccent" unicode="&#x13c;" horiz-adv-x="240" 
d="M65 730h92v-582q0 -37 16 -52.5t57 -15.5v-84q-16 -2 -24 -2q-76 0 -108.5 42t-32.5 122v572zM103 -269l-25 43q62 28 62 70q-28 0 -42.5 15.5t-14.5 38.5t14.5 40.5t45.5 17.5q34 0 52.5 -25t18.5 -63q0 -41 -29 -80.5t-82 -56.5z" />
    <glyph glyph-name="Lcaron" unicode="&#x13d;" horiz-adv-x="504" 
d="M161 80h306v-80h-402v650h96v-570zM315 427l-25 45q62 24 62 68q-28 0 -42.5 15.5t-14.5 38.5t14.5 40.5t45.5 17.5q34 0 52.5 -25t18.5 -63q0 -41 -29 -80.5t-82 -56.5z" />
    <glyph glyph-name="lcaron" unicode="&#x13e;" horiz-adv-x="336" 
d="M65 730h92v-582q0 -37 16 -52.5t57 -15.5v-84q-16 -2 -24 -2q-76 0 -108.5 42t-32.5 122v572zM240 513l-25 43q62 28 62 70q-28 0 -42.5 15.5t-14.5 38.5t14.5 40.5t45.5 17.5q34 0 52.5 -25t18.5 -63q0 -41 -29 -80.5t-82 -56.5z" />
    <glyph glyph-name="Ldot" unicode="&#x13f;" horiz-adv-x="504" 
d="M161 80h306v-80h-402v650h96v-570zM351 417q31 0 49 -18.5t18 -47.5t-17.5 -46t-49.5 -17q-31 0 -48.5 17t-17.5 46t17.5 47.5t48.5 18.5z" />
    <glyph glyph-name="ldot" unicode="&#x140;" horiz-adv-x="344" 
d="M65 730h92v-582q0 -37 16 -52.5t57 -15.5v-84q-16 -2 -24 -2q-76 0 -108.5 42t-32.5 122v572zM270 397q31 0 49 -18.5t18 -47.5t-17.5 -46t-49.5 -17q-31 0 -48.5 17t-17.5 46t17.5 47.5t48.5 18.5z" />
    <glyph glyph-name="Lslash" unicode="&#x141;" horiz-adv-x="521" 
d="M178 80h306v-80h-402v267l-56 -22l-26 65l82 32v308h96v-270l114 45l26 -65l-140 -55v-225z" />
    <glyph glyph-name="lslash" unicode="&#x142;" horiz-adv-x="278" 
d="M65 730h92v-310l99 36l17 -69l-116 -42v-197q0 -37 16 -52.5t57 -15.5v-84q-16 -2 -24 -2q-76 0 -108.5 42t-32.5 122v154l-46 -16l-17 68l63 23v343z" />
    <glyph glyph-name="Nacute" unicode="&#x143;" horiz-adv-x="734" 
d="M65 650h99l417 -531l-3 170v361h91v-650h-102l-418 533l6 -198v-335h-90v650zM329 698l89 183l78 -47l-98 -136h-69z" />
    <glyph glyph-name="nacute" unicode="&#x144;" horiz-adv-x="611" 
d="M65 500h81l6 -79q68 89 187 89q103 0 155 -56t52 -163v-291h-93v292q0 142 -114 142q-112 0 -181 -89v-345h-93v500zM305 563l94 183l73 -47l-103 -136h-64z" />
    <glyph glyph-name="Ncommaaccent" unicode="&#x145;" horiz-adv-x="734" 
d="M65 650h99l417 -531l-3 170v361h91v-650h-102l-418 533l6 -198v-335h-90v650zM310 -223l-25 45q62 24 62 68q-28 0 -42.5 15.5t-14.5 38.5t14.5 40.5t45.5 17.5q34 0 52.5 -25t18.5 -63q0 -41 -29 -80.5t-82 -56.5z" />
    <glyph glyph-name="ncommaaccent" unicode="&#x146;" horiz-adv-x="611" 
d="M65 500h81l6 -79q68 89 187 89q103 0 155 -56t52 -163v-291h-93v292q0 142 -114 142q-112 0 -181 -89v-345h-93v500zM266 -227l-25 43q62 28 62 70q-28 0 -42.5 15.5t-14.5 38.5t14.5 40.5t45.5 17.5q34 0 52.5 -25t18.5 -63q0 -41 -29 -80.5t-82 -56.5z" />
    <glyph glyph-name="Ncaron" unicode="&#x147;" horiz-adv-x="734" 
d="M65 650h99l417 -531l-3 170v361h91v-650h-102l-418 533l6 -198v-335h-90v650zM235 864l132 -86l132 86l21 -54l-141 -119h-23l-142 119z" />
    <glyph glyph-name="ncaron" unicode="&#x148;" horiz-adv-x="611" 
d="M65 500h81l6 -79q68 89 187 89q103 0 155 -56t52 -163v-291h-93v292q0 142 -114 142q-112 0 -181 -89v-345h-93v500zM229 723l112 -77l112 77l23 -48l-123 -125h-23l-124 125z" />
    <glyph glyph-name="napostrophe" unicode="&#x149;" horiz-adv-x="693" 
d="M147 500h81l6 -79q68 89 187 89q103 0 155 -56t52 -163v-291h-93v292q0 142 -114 142q-112 0 -181 -89v-345h-93v500zM40 515l-25 43q62 28 62 70q-28 0 -42.5 15.5t-14.5 38.5t14.5 40.5t45.5 17.5q34 0 52.5 -25t18.5 -63q0 -41 -29 -80.5t-82 -56.5z" />
    <glyph glyph-name="Omacron" unicode="&#x14c;" horiz-adv-x="780" 
d="M740 325q0 -148 -100.5 -243t-249.5 -95t-249.5 95t-100.5 243t100.5 243t249.5 95t249.5 -95t100.5 -243zM136 325q0 -120 73 -189.5t181 -69.5t181 69.5t73 189.5t-73 189.5t-181 69.5t-181 -69.5t-73 -189.5zM227 784h326v-73h-326v73z" />
    <glyph glyph-name="omacron" unicode="&#x14d;" horiz-adv-x="638" 
d="M598 250q0 -117 -80 -188.5t-199 -71.5t-199 71.5t-80 188.5t80 188.5t199 71.5t199 -71.5t80 -188.5zM131 250q0 -86 50.5 -136.5t137.5 -50.5t137.5 50.5t50.5 136.5t-50.5 136.5t-137.5 50.5t-137.5 -50.5t-50.5 -136.5zM162 642h314v-70h-314v70z" />
    <glyph glyph-name="Obreve" unicode="&#x14e;" horiz-adv-x="780" 
d="M740 325q0 -148 -100.5 -243t-249.5 -95t-249.5 95t-100.5 243t100.5 243t249.5 95t249.5 -95t100.5 -243zM136 325q0 -120 73 -189.5t181 -69.5t181 69.5t73 189.5t-73 189.5t-181 69.5t-181 -69.5t-73 -189.5zM234 812l60 27q27 -59 96 -59q68 0 97 59l60 -27
q-16 -51 -57.5 -78t-99.5 -27q-57 0 -99 27.5t-57 77.5z" />
    <glyph glyph-name="obreve" unicode="&#x14f;" horiz-adv-x="638" 
d="M598 250q0 -117 -80 -188.5t-199 -71.5t-199 71.5t-80 188.5t80 188.5t199 71.5t199 -71.5t80 -188.5zM131 250q0 -86 50.5 -136.5t137.5 -50.5t137.5 50.5t50.5 136.5t-50.5 136.5t-137.5 50.5t-137.5 -50.5t-50.5 -136.5zM181 666l70 13q12 -51 68 -51t68 51l70 -13
q-12 -53 -50 -81t-88 -28t-88 28t-50 81z" />
    <glyph glyph-name="Ohungarumlaut" unicode="&#x150;" horiz-adv-x="780" 
d="M740 325q0 -148 -100.5 -243t-249.5 -95t-249.5 95t-100.5 243t100.5 243t249.5 95t249.5 -95t100.5 -243zM136 325q0 -120 73 -189.5t181 -69.5t181 69.5t73 189.5t-73 189.5t-181 69.5t-181 -69.5t-73 -189.5zM294 704l51 189l82 -30l-69 -159h-64zM399 704l84 179
l76 -47l-93 -132h-67z" />
    <glyph glyph-name="ohungarumlaut" unicode="&#x151;" horiz-adv-x="638" 
d="M598 250q0 -117 -80 -188.5t-199 -71.5t-199 71.5t-80 188.5t80 188.5t199 71.5t199 -71.5t80 -188.5zM131 250q0 -86 50.5 -136.5t137.5 -50.5t137.5 50.5t50.5 136.5t-50.5 136.5t-137.5 50.5t-137.5 -50.5t-50.5 -136.5zM228 563l51 183l82 -30l-69 -153h-64zM333 563
l84 173l76 -47l-93 -126h-67z" />
    <glyph glyph-name="OE" unicode="&#x152;" horiz-adv-x="1070" 
d="M603 650h410v-79h-319v-194h286v-78h-286v-220h333v-79h-424v89q-89 -102 -233 -102q-147 0 -238.5 94t-91.5 244t91.5 244t238.5 94q141 0 233 -101v88zM136 325q0 -122 64 -190.5t170 -68.5t170 68.5t64 190.5t-64 190.5t-170 68.5t-170 -68.5t-64 -190.5z" />
    <glyph glyph-name="oe" unicode="&#x153;" horiz-adv-x="1008" 
d="M961 227h-392q5 -77 54.5 -118t125.5 -41q57 0 92 7.5t81 30.5l27 -76q-81 -40 -206 -40q-155 0 -221 104q-72 -104 -213 -104q-118 0 -193.5 71t-75.5 189t75.5 189t193.5 71q150 0 214 -106q60 106 213 106q115 0 174.5 -56.5t59.5 -150.5q0 -43 -9 -76zM131 250
q0 -88 46 -137.5t132 -49.5t132 49.5t46 137.5t-46 137.5t-132 49.5t-132 -49.5t-46 -137.5zM567 299h311q-1 72 -37 104t-115 32q-64 0 -108.5 -35.5t-50.5 -100.5z" />
    <glyph glyph-name="Racute" unicode="&#x154;" horiz-adv-x="636" 
d="M65 650h265q100 0 163 -49.5t63 -134.5q0 -60 -37 -106t-106 -64l188 -296h-111l-174 279h-156v-279h-95v650zM160 573v-217h156q66 0 105.5 28.5t39.5 81.5q0 52 -38.5 79.5t-107.5 27.5h-155zM245 698l89 183l78 -47l-98 -136h-69z" />
    <glyph glyph-name="racute" unicode="&#x155;" horiz-adv-x="491" 
d="M65 500h81l6 -79q68 89 174 89q52 0 87 -16t67 -56l-63 -57q-41 51 -101 51q-54 0 -89.5 -21t-68.5 -68v-343h-93v500zM264 563l94 183l73 -47l-103 -136h-64z" />
    <glyph glyph-name="Rcommaaccent" unicode="&#x156;" horiz-adv-x="636" 
d="M65 650h265q100 0 163 -49.5t63 -134.5q0 -60 -37 -106t-106 -64l188 -296h-111l-174 279h-156v-279h-95v650zM160 573v-217h156q66 0 105.5 28.5t39.5 81.5q0 52 -38.5 79.5t-107.5 27.5h-155zM274 -223l-25 45q62 24 62 68q-28 0 -42.5 15.5t-14.5 38.5t14.5 40.5
t45.5 17.5q34 0 52.5 -25t18.5 -63q0 -41 -29 -80.5t-82 -56.5z" />
    <glyph glyph-name="rcommaaccent" unicode="&#x157;" horiz-adv-x="491" 
d="M65 500h81l6 -79q68 89 174 89q52 0 87 -16t67 -56l-63 -57q-41 51 -101 51q-54 0 -89.5 -21t-68.5 -68v-343h-93v500zM77 -271l-25 43q62 28 62 70q-28 0 -42.5 15.5t-14.5 38.5t14.5 40.5t45.5 17.5q34 0 52.5 -25t18.5 -63q0 -41 -29 -80.5t-82 -56.5z" />
    <glyph glyph-name="Rcaron" unicode="&#x158;" horiz-adv-x="636" 
d="M65 650h265q100 0 163 -49.5t63 -134.5q0 -60 -37 -106t-106 -64l188 -296h-111l-174 279h-156v-279h-95v650zM160 573v-217h156q66 0 105.5 28.5t39.5 81.5q0 52 -38.5 79.5t-107.5 27.5h-155zM157 864l132 -86l132 86l21 -54l-141 -119h-23l-142 119z" />
    <glyph glyph-name="rcaron" unicode="&#x159;" horiz-adv-x="491" 
d="M65 500h81l6 -79q68 89 174 89q52 0 87 -16t67 -56l-63 -57q-41 51 -101 51q-54 0 -89.5 -21t-68.5 -68v-343h-93v500zM183 723l112 -77l112 77l23 -48l-123 -125h-23l-124 125z" />
    <glyph glyph-name="Sacute" unicode="&#x15a;" horiz-adv-x="574" 
d="M493 606l-40 -75q-75 54 -172 54q-68 0 -96.5 -27t-28.5 -66q0 -74 103 -95l93 -19q84 -17 131.5 -67.5t47.5 -130.5q0 -85 -69 -139t-187 -54q-71 0 -121.5 13t-109.5 45l32 87q99 -61 197 -61q80 0 123 30t43 78q0 52 -27.5 78.5t-92.5 38.5l-102 19
q-70 13 -110.5 61.5t-40.5 111.5q0 79 57 127t158 48q66 0 114.5 -12.5t97.5 -44.5zM256 703l89 183l78 -47l-98 -136h-69z" />
    <glyph glyph-name="sacute" unicode="&#x15b;" horiz-adv-x="502" 
d="M435 479l-29 -72q-67 31 -151 31q-63 0 -94 -18t-31 -48q0 -35 31 -49.5t102 -21.5q98 -10 147.5 -47t49.5 -111q0 -76 -63 -114.5t-175 -38.5q-103 0 -182 34l23 76q74 -35 155 -35q155 0 155 79q0 37 -29.5 53t-107.5 24q-99 10 -146.5 44t-47.5 100q0 63 55 104
t159 41q99 0 179 -31zM225 563l94 183l73 -47l-103 -136h-64z" />
    <glyph glyph-name="Scircumflex" unicode="&#x15c;" horiz-adv-x="574" 
d="M493 606l-40 -75q-75 54 -172 54q-68 0 -96.5 -27t-28.5 -66q0 -74 103 -95l93 -19q84 -17 131.5 -67.5t47.5 -130.5q0 -85 -69 -139t-187 -54q-71 0 -121.5 13t-109.5 45l32 87q99 -61 197 -61q80 0 123 30t43 78q0 52 -27.5 78.5t-92.5 38.5l-102 19
q-70 13 -110.5 61.5t-40.5 111.5q0 79 57 127t158 48q66 0 114.5 -12.5t97.5 -44.5zM425 691l-132 86l-132 -86l-21 54l141 119h23l142 -119z" />
    <glyph glyph-name="scircumflex" unicode="&#x15d;" horiz-adv-x="502" 
d="M435 479l-29 -72q-67 31 -151 31q-63 0 -94 -18t-31 -48q0 -35 31 -49.5t102 -21.5q98 -10 147.5 -47t49.5 -111q0 -76 -63 -114.5t-175 -38.5q-103 0 -182 34l23 76q74 -35 155 -35q155 0 155 79q0 37 -29.5 53t-107.5 24q-99 10 -146.5 44t-47.5 100q0 63 55 104
t159 41q99 0 179 -31zM366 545l-112 77l-112 -77l-23 48l123 125h23l124 -125z" />
    <glyph glyph-name="Scedilla" unicode="&#x15e;" horiz-adv-x="574" 
d="M493 606l-40 -75q-75 54 -172 54q-68 0 -96.5 -27t-28.5 -66q0 -74 103 -95l93 -19q84 -17 131.5 -67.5t47.5 -130.5q0 -79 -60 -132t-165 -60l-4 -36q34 0 53.5 -18.5t19.5 -51.5q0 -51 -46.5 -83t-107.5 -43l-13 61q95 16 95 63q0 27 -36 27h-33l3 81q-100 5 -193 57
l32 87q99 -61 197 -61q80 0 123 30t43 78q0 52 -27.5 78.5t-92.5 38.5l-102 19q-70 13 -110.5 61.5t-40.5 111.5q0 79 57 127t158 48q66 0 114.5 -12.5t97.5 -44.5z" />
    <glyph glyph-name="scedilla" unicode="&#x15f;" horiz-adv-x="502" 
d="M435 479l-29 -72q-67 31 -151 31q-63 0 -94 -18t-31 -48q0 -36 32.5 -49.5t100.5 -20.5q99 -10 148 -46.5t49 -112.5q0 -71 -55.5 -109t-154.5 -43l-3 -35q32 0 50.5 -15.5t18.5 -44.5q0 -39 -33.5 -75t-109.5 -53l-12 64q87 7 87 55q0 25 -30 25h-36v79q-74 4 -142 33
l23 76q74 -35 155 -35q155 0 155 79q0 39 -28.5 53.5t-108.5 22.5q-100 10 -147 43.5t-47 101.5q0 63 55 104t159 41q99 0 179 -31z" />
    <glyph glyph-name="Scaron" unicode="&#x160;" horiz-adv-x="574" 
d="M493 606l-40 -75q-75 54 -172 54q-68 0 -96.5 -27t-28.5 -66q0 -74 103 -95l93 -19q84 -17 131.5 -67.5t47.5 -130.5q0 -85 -69 -139t-187 -54q-71 0 -121.5 13t-109.5 45l32 87q99 -61 197 -61q80 0 123 30t43 78q0 52 -27.5 78.5t-92.5 38.5l-102 19
q-70 13 -110.5 61.5t-40.5 111.5q0 79 57 127t158 48q66 0 114.5 -12.5t97.5 -44.5zM153 869l132 -86l132 86l21 -54l-141 -119h-23l-142 119z" />
    <glyph glyph-name="scaron" unicode="&#x161;" horiz-adv-x="502" 
d="M435 479l-29 -72q-67 31 -151 31q-63 0 -94 -18t-31 -48q0 -35 31 -49.5t102 -21.5q98 -10 147.5 -47t49.5 -111q0 -76 -63 -114.5t-175 -38.5q-103 0 -182 34l23 76q74 -35 155 -35q155 0 155 79q0 37 -29.5 53t-107.5 24q-99 10 -146.5 44t-47.5 100q0 63 55 104
t159 41q99 0 179 -31zM139 723l112 -77l112 77l23 -48l-123 -125h-23l-124 125z" />
    <glyph glyph-name="Tcommaaccent" unicode="&#x162;" horiz-adv-x="544" 
d="M30 574v76h484v-76h-194v-574h-96v574h-194zM234 -269l-25 45q62 24 62 68q-28 0 -42.5 15.5t-14.5 38.5t14.5 40.5t45.5 17.5q34 0 52.5 -25t18.5 -63q0 -41 -29 -80.5t-82 -56.5z" />
    <glyph glyph-name="tcommaaccent" unicode="&#x163;" horiz-adv-x="434" 
d="M15 434v35l68 43l73 113l31 -5v-120h199l-3 -77l-196 9v-263q0 -54 25 -79.5t68 -25.5q58 0 114 35l30 -67q-59 -42 -154 -42q-86 0 -131.5 45.5t-45.5 132.5v255zM223 -270l-25 43q62 28 62 70q-28 0 -42.5 15.5t-14.5 38.5t14.5 40.5t45.5 17.5q34 0 52.5 -25t18.5 -63
q0 -41 -29 -80.5t-82 -56.5z" />
    <glyph glyph-name="Tcaron" unicode="&#x164;" horiz-adv-x="544" 
d="M30 574v76h484v-76h-194v-574h-96v574h-194zM140 864l132 -86l132 86l21 -54l-141 -119h-23l-142 119z" />
    <glyph glyph-name="tcaron" unicode="&#x165;" horiz-adv-x="434" 
d="M15 434v35l68 43l73 113l31 -5v-120h199l-3 -77l-196 9v-263q0 -54 25 -79.5t68 -25.5q58 0 114 35l30 -67q-59 -42 -154 -42q-86 0 -131.5 45.5t-45.5 132.5v255zM295 549l-25 43q62 28 62 70q-28 0 -42.5 15.5t-14.5 38.5t14.5 40.5t45.5 17.5q34 0 52.5 -25t18.5 -63
q0 -41 -29 -80.5t-82 -56.5z" />
    <glyph glyph-name="Utilde" unicode="&#x168;" horiz-adv-x="680" 
d="M65 650h95v-379q0 -102 47 -155t133 -53t133 53t47 155v379h95v-372q0 -145 -72.5 -218t-202.5 -73t-202.5 73t-72.5 218v372zM187 699l-28 66q45 45 117 45q33 0 72.5 -18.5t64.5 -18.5q40 0 68 29l41 -48q-43 -55 -108 -55q-31 0 -76 19.5t-68 19.5q-48 0 -83 -39z" />
    <glyph glyph-name="utilde" unicode="&#x169;" horiz-adv-x="604" 
d="M65 500h93v-292q0 -70 25 -106t86 -36q108 0 177 89v345h93v-500h-81l-6 79q-68 -89 -183 -89q-204 0 -204 219v291zM152 565l-28 60q44 48 114 48q35 0 72.5 -19.5t61.5 -19.5q38 0 68 31l41 -46q-46 -56 -108 -56q-31 0 -74.5 20.5t-66.5 20.5q-48 0 -80 -39z" />
    <glyph glyph-name="Umacron" unicode="&#x16a;" horiz-adv-x="680" 
d="M65 650h95v-379q0 -102 47 -155t133 -53t133 53t47 155v379h95v-372q0 -145 -72.5 -218t-202.5 -73t-202.5 73t-72.5 218v372zM177 784h326v-73h-326v73z" />
    <glyph glyph-name="umacron" unicode="&#x16b;" horiz-adv-x="604" 
d="M65 500h93v-292q0 -70 25 -106t86 -36q108 0 177 89v345h93v-500h-81l-6 79q-68 -89 -183 -89q-204 0 -204 219v291zM145 642h314v-70h-314v70z" />
    <glyph glyph-name="Ubreve" unicode="&#x16c;" horiz-adv-x="680" 
d="M65 650h95v-379q0 -102 47 -155t133 -53t133 53t47 155v379h95v-372q0 -145 -72.5 -218t-202.5 -73t-202.5 73t-72.5 218v372zM184 798l60 27q27 -59 96 -59q68 0 97 59l60 -27q-16 -51 -57.5 -78t-99.5 -27q-57 0 -99 27.5t-57 77.5z" />
    <glyph glyph-name="ubreve" unicode="&#x16d;" horiz-adv-x="604" 
d="M65 500h93v-292q0 -70 25 -106t86 -36q108 0 177 89v345h93v-500h-81l-6 79q-68 -89 -183 -89q-204 0 -204 219v291zM164 651l70 13q12 -51 68 -51t68 51l70 -13q-12 -53 -50 -81t-88 -28t-88 28t-50 81z" />
    <glyph glyph-name="Uring" unicode="&#x16e;" horiz-adv-x="680" 
d="M65 650h95v-379q0 -102 47 -155t133 -53t133 53t47 155v379h95v-372q0 -145 -72.5 -218t-202.5 -73t-202.5 73t-72.5 218v372zM340 669q-52 0 -84.5 31.5t-32.5 80.5q0 47 33.5 79t83.5 32t83.5 -32t33.5 -79q0 -49 -33 -80.5t-84 -31.5zM396 781q0 24 -16 39.5t-40 15.5
t-40.5 -15.5t-16.5 -39.5t16.5 -40t40.5 -16t40 16t16 40z" />
    <glyph glyph-name="uring" unicode="&#x16f;" horiz-adv-x="604" 
d="M65 500h93v-292q0 -70 25 -106t86 -36q108 0 177 89v345h93v-500h-81l-6 79q-68 -89 -183 -89q-204 0 -204 219v291zM302 542q-45 0 -77 27.5t-32 75.5q0 45 32 74t77 29q43 0 76 -28t33 -75q0 -49 -31.5 -76t-77.5 -27zM302 596q22 0 37 13t15 36q0 21 -14.5 34.5
t-37.5 13.5q-21 0 -36.5 -13.5t-15.5 -34.5t14.5 -35t37.5 -14z" />
    <glyph glyph-name="Uhungarumlaut" unicode="&#x170;" horiz-adv-x="680" 
d="M65 650h95v-379q0 -102 47 -155t133 -53t133 53t47 155v379h95v-372q0 -145 -72.5 -218t-202.5 -73t-202.5 73t-72.5 218v372zM243 691l51 189l82 -30l-69 -159h-64zM348 691l84 179l76 -47l-93 -132h-67z" />
    <glyph glyph-name="uhungarumlaut" unicode="&#x171;" horiz-adv-x="604" 
d="M65 500h93v-292q0 -70 25 -106t86 -36q108 0 177 89v345h93v-500h-81l-6 79q-68 -89 -183 -89q-204 0 -204 219v291zM213 557l51 183l82 -30l-69 -153h-64zM318 557l84 173l76 -47l-93 -126h-67z" />
    <glyph glyph-name="Uogonek" unicode="&#x172;" horiz-adv-x="680" 
d="M65 650h95v-379q0 -102 47 -155t133 -53t133 53t47 155v379h95v-372q0 -125 -54.5 -196.5t-153.5 -88.5q-51 -26 -51 -71q0 -44 49 -44q16 0 31 5l-16 -65q-17 -4 -37 -4q-47 0 -75.5 24t-28.5 63q0 54 45 86q-123 5 -191 77.5t-68 213.5v372z" />
    <glyph glyph-name="uogonek" unicode="&#x173;" horiz-adv-x="604" 
d="M65 500h93v-292q0 -70 25 -106t86 -36q108 0 177 89v345h93v-500q-49 -24 -49 -67q0 -37 44 -37q14 0 29 4l-17 -65q-16 -4 -34 -4q-48 0 -71 22.5t-23 60.5q0 25 13.5 49t38.5 37h-12l-6 79q-68 -89 -183 -89q-204 0 -204 219v291z" />
    <glyph glyph-name="Wcircumflex" unicode="&#x174;" horiz-adv-x="1009" 
d="M358 0h-127l-206 650h103l169 -555h4l162 555h85l171 -555h4l165 555h96l-205 -650h-128l-144 483h-4zM636 688l-132 86l-132 -86l-21 54l141 119h23l142 -119z" />
    <glyph glyph-name="wcircumflex" unicode="&#x175;" horiz-adv-x="862" 
d="M193 0l-168 500h96l134 -413h8l133 413h76l137 -413h8l127 413h93l-168 -500h-121l-112 344h-6l-113 -344h-124zM545 545l-112 77l-112 -77l-23 48l123 125h23l124 -125z" />
    <glyph glyph-name="Ycircumflex" unicode="&#x176;" horiz-adv-x="646" 
d="M25 650h106l192 -313h4l190 313h104l-250 -401v-249h-94v247zM455 684l-132 86l-132 -86l-21 54l141 119h23l142 -119z" />
    <glyph glyph-name="ycircumflex" unicode="&#x177;" horiz-adv-x="599" 
d="M25 500h103l193 -402h4l149 402h100l-246 -596q-20 -48 -63 -75.5t-94 -27.5q-30 0 -66 13l14 72q22 -5 39 -5q37 0 62 15.5t41 54.5l18 45zM421 545l-112 77l-112 -77l-23 48l123 125h23l124 -125z" />
    <glyph glyph-name="Ydieresis" unicode="&#x178;" horiz-adv-x="646" 
d="M25 650h106l192 -313h4l190 313h104l-250 -401v-249h-94v247zM213 828q30 0 47 -16.5t17 -44.5q0 -26 -17 -43t-47 -17q-29 0 -45.5 17t-16.5 43q0 27 16.5 44t45.5 17zM432 828q29 0 46 -17t17 -44q0 -26 -17 -43t-46 -17t-46 17t-17 43q0 27 17 44t46 17z" />
    <glyph glyph-name="Zacute" unicode="&#x179;" horiz-adv-x="617" 
d="M64 650h509v-68l-417 -503h425v-79h-544v65l420 508h-393v77zM275 698l89 183l78 -47l-98 -136h-69z" />
    <glyph glyph-name="zacute" unicode="&#x17a;" horiz-adv-x="543" 
d="M53 500h442v-55l-335 -373h337v-72h-455v56l332 372h-321v72zM211 563l94 183l73 -47l-103 -136h-64z" />
    <glyph glyph-name="Zdotaccent" unicode="&#x17b;" horiz-adv-x="617" 
d="M64 650h509v-68l-417 -503h425v-79h-544v65l420 508h-393v77zM313 830q31 0 49 -18.5t18 -47.5t-17.5 -46t-49.5 -17q-31 0 -48.5 17t-17.5 46t17.5 47.5t48.5 18.5z" />
    <glyph glyph-name="zdotaccent" unicode="&#x17c;" horiz-adv-x="543" 
d="M53 500h442v-55l-335 -373h337v-72h-455v56l332 372h-321v72zM266 680q31 0 49 -18.5t18 -47.5t-17.5 -46t-49.5 -17q-31 0 -48.5 17t-17.5 46t17.5 47.5t48.5 18.5z" />
    <glyph glyph-name="Zcaron" unicode="&#x17d;" horiz-adv-x="617" 
d="M64 650h509v-68l-417 -503h425v-79h-544v65l420 508h-393v77zM184 864l132 -86l132 86l21 -54l-141 -119h-23l-142 119z" />
    <glyph glyph-name="zcaron" unicode="&#x17e;" horiz-adv-x="543" 
d="M53 500h442v-55l-335 -373h337v-72h-455v56l332 372h-321v72zM151 723l112 -77l112 77l23 -48l-123 -125h-23l-124 125z" />
    <glyph glyph-name="longs" unicode="&#x17f;" horiz-adv-x="260" 
d="M65 0v533q0 87 53 142t142 55q93 0 161 -43l-44 -73q-51 36 -109 36q-55 0 -82.5 -30t-27.5 -84v-536h-93z" />
    <glyph glyph-name="florin" unicode="&#x192;" horiz-adv-x="367" 
d="M23 500h87v33q0 87 53 142t142 55q93 0 161 -43l-39 -71q-49 34 -110 34q-113 0 -113 -114v-36h152l-4 -77l-148 5v-397q0 -101 -52 -156.5t-149 -57.5l-7 79q59 4 86.5 32t27.5 86v409l-87 12v65z" />
    <glyph glyph-name="uni0200" unicode="&#x200;" horiz-adv-x="707" 
d="M301 650h105l278 -650h-99l-85 197h-299l-81 -197h-98zM347 558l-115 -283h238l-114 283h-9zM369 887l51 -189h-64l-69 159zM231 877l84 -179h-67l-93 132z" />
    <glyph glyph-name="uni0201" unicode="&#x201;" horiz-adv-x="602" 
d="M99 392l-20 74q106 44 213 44q111 0 163.5 -41.5t52.5 -132.5v-209q0 -36 12.5 -48.5t49.5 -12.5v-66q-31 -10 -66 -10q-30 0 -48.5 21.5t-21.5 60.5q-69 -82 -206 -82q-86 0 -132.5 40.5t-46.5 112.5q0 65 47 119q125 39 322 43v28q0 53 -29 76.5t-101 23.5
q-94 0 -189 -41zM418 132v106q-156 -3 -255 -30q-20 -24 -20 -60q0 -40 25.5 -61t72.5 -21q101 0 177 66zM329 746l51 -183h-64l-69 153zM191 736l84 -173h-67l-93 126z" />
    <glyph glyph-name="uni0202" unicode="&#x202;" horiz-adv-x="707" 
d="M301 650h105l278 -650h-99l-85 197h-299l-81 -197h-98zM347 558l-115 -283h238l-114 283h-9zM485 681l-132 86l-132 -86l-21 54l141 119h23l142 -119z" />
    <glyph glyph-name="uni0203" unicode="&#x203;" horiz-adv-x="602" 
d="M99 392l-20 74q106 44 213 44q111 0 163.5 -41.5t52.5 -132.5v-209q0 -36 12.5 -48.5t49.5 -12.5v-66q-31 -10 -66 -10q-30 0 -48.5 21.5t-21.5 60.5q-69 -82 -206 -82q-86 0 -132.5 40.5t-46.5 112.5q0 65 47 119q125 39 322 43v28q0 53 -29 76.5t-101 23.5
q-94 0 -189 -41zM418 132v106q-156 -3 -255 -30q-20 -24 -20 -60q0 -40 25.5 -61t72.5 -21q101 0 177 66zM406 545l-112 77l-112 -77l-23 48l123 125h23l124 -125z" />
    <glyph glyph-name="uni0204" unicode="&#x204;" horiz-adv-x="541" 
d="M65 0v650h419v-79h-323v-194h290v-78h-290v-220h337v-79h-433zM324 887l51 -189h-64l-69 159zM186 877l84 -179h-67l-93 132z" />
    <glyph glyph-name="uni0205" unicode="&#x205;" horiz-adv-x="587" 
d="M538 227h-402q5 -78 58.5 -119t131.5 -41q103 0 173 39l27 -76q-49 -23 -93.5 -31.5t-112.5 -8.5q-133 0 -206.5 69.5t-73.5 189.5q0 116 77.5 188.5t195.5 72.5q115 0 174.5 -56.5t59.5 -150.5q0 -43 -9 -76zM134 299h323q-1 73 -37 104.5t-117 31.5q-65 0 -114 -35.5
t-55 -100.5zM341 746l51 -183h-64l-69 153zM203 736l84 -173h-67l-93 126z" />
    <glyph glyph-name="uni0206" unicode="&#x206;" horiz-adv-x="541" 
d="M65 0v650h419v-79h-323v-194h290v-78h-290v-220h337v-79h-433zM407 696l-132 86l-132 -86l-21 54l141 119h23l142 -119z" />
    <glyph glyph-name="uni0207" unicode="&#x207;" horiz-adv-x="587" 
d="M538 227h-402q5 -78 58.5 -119t131.5 -41q103 0 173 39l27 -76q-49 -23 -93.5 -31.5t-112.5 -8.5q-133 0 -206.5 69.5t-73.5 189.5q0 116 77.5 188.5t195.5 72.5q115 0 174.5 -56.5t59.5 -150.5q0 -43 -9 -76zM134 299h323q-1 73 -37 104.5t-117 31.5q-65 0 -114 -35.5
t-55 -100.5zM419 545l-112 77l-112 -77l-23 48l123 125h23l124 -125z" />
    <glyph glyph-name="uni0208" unicode="&#x208;" horiz-adv-x="225" 
d="M65 650h95v-650h-95v650zM154 887l51 -189h-64l-69 159zM16 877l84 -179h-67l-93 132z" />
    <glyph glyph-name="uni0209" unicode="&#x209;" horiz-adv-x="223" 
d="M65 500h93v-500h-93v500zM146 746l51 -183h-64l-69 153zM8 736l84 -173h-67l-93 126z" />
    <glyph glyph-name="uni020A" unicode="&#x20a;" horiz-adv-x="225" 
d="M65 650h95v-650h-95v650zM244 681l-132 86l-132 -86l-21 54l141 119h23l142 -119z" />
    <glyph glyph-name="uni020B" unicode="&#x20b;" horiz-adv-x="223" 
d="M65 500h93v-500h-93v500zM223 545l-112 77l-112 -77l-23 48l123 125h23l124 -125z" />
    <glyph glyph-name="uni020C" unicode="&#x20c;" horiz-adv-x="780" 
d="M740 325q0 -148 -100.5 -243t-249.5 -95t-249.5 95t-100.5 243t100.5 243t249.5 95t249.5 -95t100.5 -243zM136 325q0 -120 73 -189.5t181 -69.5t181 69.5t73 189.5t-73 189.5t-181 69.5t-181 -69.5t-73 -189.5zM416 897l51 -189h-64l-69 159zM278 887l84 -179h-67
l-93 132z" />
    <glyph glyph-name="uni020D" unicode="&#x20d;" horiz-adv-x="638" 
d="M598 250q0 -117 -80 -188.5t-199 -71.5t-199 71.5t-80 188.5t80 188.5t199 71.5t199 -71.5t80 -188.5zM131 250q0 -86 50.5 -136.5t137.5 -50.5t137.5 50.5t50.5 136.5t-50.5 136.5t-137.5 50.5t-137.5 -50.5t-50.5 -136.5zM351 746l51 -183h-64l-69 153zM213 736
l84 -173h-67l-93 126z" />
    <glyph glyph-name="uni020E" unicode="&#x20e;" horiz-adv-x="780" 
d="M740 325q0 -148 -100.5 -243t-249.5 -95t-249.5 95t-100.5 243t100.5 243t249.5 95t249.5 -95t100.5 -243zM136 325q0 -120 73 -189.5t181 -69.5t181 69.5t73 189.5t-73 189.5t-181 69.5t-181 -69.5t-73 -189.5zM522 695l-132 86l-132 -86l-21 54l141 119h23l142 -119z
" />
    <glyph glyph-name="uni020F" unicode="&#x20f;" horiz-adv-x="638" 
d="M598 250q0 -117 -80 -188.5t-199 -71.5t-199 71.5t-80 188.5t80 188.5t199 71.5t199 -71.5t80 -188.5zM131 250q0 -86 50.5 -136.5t137.5 -50.5t137.5 50.5t50.5 136.5t-50.5 136.5t-137.5 50.5t-137.5 -50.5t-50.5 -136.5zM431 545l-112 77l-112 -77l-23 48l123 125h23
l124 -125z" />
    <glyph glyph-name="uni0210" unicode="&#x210;" horiz-adv-x="636" 
d="M65 650h265q100 0 163 -49.5t63 -134.5q0 -60 -37 -106t-106 -64l188 -296h-111l-174 279h-156v-279h-95v650zM160 573v-217h156q66 0 105.5 28.5t39.5 81.5q0 52 -38.5 79.5t-107.5 27.5h-155zM325 887l51 -189h-64l-69 159zM187 877l84 -179h-67l-93 132z" />
    <glyph glyph-name="uni0211" unicode="&#x211;" horiz-adv-x="491" 
d="M65 500h81l6 -79q68 89 174 89q52 0 87 -16t67 -56l-63 -57q-41 51 -101 51q-54 0 -89.5 -21t-68.5 -68v-343h-93v500zM334 746l51 -183h-64l-69 153zM196 736l84 -173h-67l-93 126z" />
    <glyph glyph-name="uni0212" unicode="&#x212;" horiz-adv-x="636" 
d="M65 650h265q100 0 163 -49.5t63 -134.5q0 -60 -37 -106t-106 -64l188 -296h-111l-174 279h-156v-279h-95v650zM160 573v-217h156q66 0 105.5 28.5t39.5 81.5q0 52 -38.5 79.5t-107.5 27.5h-155zM429 694l-132 86l-132 -86l-21 54l141 119h23l142 -119z" />
    <glyph glyph-name="uni0213" unicode="&#x213;" horiz-adv-x="491" 
d="M65 500h81l6 -79q68 89 174 89q52 0 87 -16t67 -56l-63 -57q-41 51 -101 51q-54 0 -89.5 -21t-68.5 -68v-343h-93v500zM415 545l-112 77l-112 -77l-23 48l123 125h23l124 -125z" />
    <glyph glyph-name="uni0214" unicode="&#x214;" horiz-adv-x="680" 
d="M65 650h95v-379q0 -102 47 -155t133 -53t133 53t47 155v379h95v-372q0 -145 -72.5 -218t-202.5 -73t-202.5 73t-72.5 218v372zM386 875l51 -189h-64l-69 159zM248 865l84 -179h-67l-93 132z" />
    <glyph glyph-name="uni0215" unicode="&#x215;" horiz-adv-x="604" 
d="M65 500h93v-292q0 -70 25 -106t86 -36q108 0 177 89v345h93v-500h-81l-6 79q-68 -89 -183 -89q-204 0 -204 219v291zM339 739l51 -183h-64l-69 153zM201 729l84 -173h-67l-93 126z" />
    <glyph glyph-name="uni0216" unicode="&#x216;" horiz-adv-x="680" 
d="M65 650h95v-379q0 -102 47 -155t133 -53t133 53t47 155v379h95v-372q0 -145 -72.5 -218t-202.5 -73t-202.5 73t-72.5 218v372zM472 685l-132 86l-132 -86l-21 54l141 119h23l142 -119z" />
    <glyph glyph-name="uni0217" unicode="&#x217;" horiz-adv-x="604" 
d="M65 500h93v-292q0 -70 25 -106t86 -36q108 0 177 89v345h93v-500h-81l-6 79q-68 -89 -183 -89q-204 0 -204 219v291zM414 545l-112 77l-112 -77l-23 48l123 125h23l124 -125z" />
    <glyph glyph-name="Scommaaccent" unicode="&#x218;" horiz-adv-x="574" 
d="M493 606l-40 -75q-75 54 -172 54q-68 0 -96.5 -27t-28.5 -66q0 -74 103 -95l93 -19q84 -17 131.5 -67.5t47.5 -130.5q0 -85 -69 -139t-187 -54q-71 0 -121.5 13t-109.5 45l32 87q99 -61 197 -61q80 0 123 30t43 78q0 52 -27.5 78.5t-92.5 38.5l-102 19
q-70 13 -110.5 61.5t-40.5 111.5q0 79 57 127t158 48q66 0 114.5 -12.5t97.5 -44.5zM246 -275l-25 45q62 24 62 68q-28 0 -42.5 15.5t-14.5 38.5t14.5 40.5t45.5 17.5q34 0 52.5 -25t18.5 -63q0 -41 -29 -80.5t-82 -56.5z" />
    <glyph glyph-name="scommaaccent" unicode="&#x219;" horiz-adv-x="502" 
d="M435 479l-29 -72q-67 31 -151 31q-63 0 -94 -18t-31 -48q0 -35 31 -49.5t102 -21.5q98 -10 147.5 -47t49.5 -111q0 -76 -63 -114.5t-175 -38.5q-103 0 -182 34l23 76q74 -35 155 -35q155 0 155 79q0 37 -29.5 53t-107.5 24q-99 10 -146.5 44t-47.5 100q0 63 55 104
t159 41q99 0 179 -31zM191 -268l-25 43q62 28 62 70q-28 0 -42.5 15.5t-14.5 38.5t14.5 40.5t45.5 17.5q34 0 52.5 -25t18.5 -63q0 -41 -29 -80.5t-82 -56.5z" />
    <glyph glyph-name="uni021A" unicode="&#x21a;" horiz-adv-x="544" 
d="M30 574v76h484v-76h-194v-574h-96v574h-194zM233 -265l-25 45q62 24 62 68q-28 0 -42.5 15.5t-14.5 38.5t14.5 40.5t45.5 17.5q34 0 52.5 -25t18.5 -63q0 -41 -29 -80.5t-82 -56.5z" />
    <glyph glyph-name="uni021B" unicode="&#x21b;" horiz-adv-x="434" 
d="M15 434v35l68 43l73 113l31 -5v-120h199l-3 -77l-196 9v-263q0 -54 25 -79.5t68 -25.5q58 0 114 35l30 -67q-59 -42 -154 -42q-86 0 -131.5 45.5t-45.5 132.5v255zM231 -278l-25 43q62 28 62 70q-28 0 -42.5 15.5t-14.5 38.5t14.5 40.5t45.5 17.5q34 0 52.5 -25t18.5 -63
q0 -41 -29 -80.5t-82 -56.5z" />
    <glyph glyph-name="dotlessj" unicode="&#x237;" horiz-adv-x="233" 
d="M74 500h94v-529q0 -101 -52 -156.5t-149 -57.5l-7 79q59 4 86.5 32t27.5 86v546z" />
    <glyph glyph-name="circumflex" unicode="&#x2c6;" horiz-adv-x="360" 
d="M292 545l-112 77l-112 -77l-23 48l123 125h23l124 -125z" />
    <glyph glyph-name="caron" unicode="&#x2c7;" horiz-adv-x="360" 
d="M68 723l112 -77l112 77l23 -48l-123 -125h-23l-124 125z" />
    <glyph glyph-name="uni02C9" unicode="&#x2c9;" horiz-adv-x="363" 
d="M0 650h363v-71h-363v71z" />
    <glyph glyph-name="breve" unicode="&#x2d8;" horiz-adv-x="366" 
d="M45 656l70 13q12 -51 68 -51t68 51l70 -13q-12 -53 -50 -81t-88 -28t-88 28t-50 81z" />
    <glyph glyph-name="dotaccent" unicode="&#x2d9;" horiz-adv-x="233" 
d="M116 121q31 0 49 -18.5t18 -47.5t-17.5 -46t-49.5 -17q-31 0 -48.5 17t-17.5 46t17.5 47.5t48.5 18.5z" />
    <glyph glyph-name="ring" unicode="&#x2da;" horiz-adv-x="300" 
d="M150 549q-45 0 -77 27.5t-32 75.5q0 45 32 74t77 29q43 0 76 -28t33 -75q0 -49 -31.5 -76t-77.5 -27zM150 603q22 0 37 13t15 36q0 21 -14.5 34.5t-37.5 13.5q-21 0 -36.5 -13.5t-15.5 -34.5t14.5 -35t37.5 -14z" />
    <glyph glyph-name="ogonek" unicode="&#x2db;" horiz-adv-x="218" 
d="M121 11q19 -7 34 -11q-49 -24 -49 -67q0 -37 44 -37q14 0 29 4l-17 -65q-16 -4 -34 -4q-48 0 -71 22.5t-23 60.5q0 33 22.5 62t64.5 35z" />
    <glyph glyph-name="tilde" unicode="&#x2dc;" horiz-adv-x="421" 
d="M58 565l-28 60q44 48 114 48q35 0 72.5 -19.5t61.5 -19.5q38 0 68 31l41 -46q-46 -56 -108 -56q-31 0 -74.5 20.5t-66.5 20.5q-48 0 -80 -39z" />
    <glyph glyph-name="hungarumlaut" unicode="&#x2dd;" horiz-adv-x="375" 
d="M55 563l51 183l82 -30l-69 -153h-64zM160 563l84 173l76 -47l-93 -126h-67z" />
    <glyph glyph-name="pi" unicode="&#x3c0;" horiz-adv-x="583" 
d="M8 500h495v-378q0 -31 13 -42.5t49 -11.5l-7 -68q-28 -7 -51 -7q-57 0 -76.5 33.5t-19.5 97.5v303h-239v-427h-92v423l-72 13v64z" />
    <glyph glyph-name="afii10023" unicode="&#x401;" horiz-adv-x="541" 
d="M65 0v650h419v-79h-323v-194h290v-78h-290v-220h337v-79h-433zM165 828q30 0 47 -16.5t17 -44.5q0 -26 -17 -43t-47 -17q-29 0 -45.5 17t-16.5 43q0 27 16.5 44t45.5 17zM384 828q29 0 46 -17t17 -44q0 -26 -17 -43t-46 -17t-46 17t-17 43q0 27 17 44t46 17z" />
    <glyph glyph-name="afii10051" unicode="&#x402;" horiz-adv-x="765" 
d="M25 650h484v-76h-192v-186q69 82 181 82q103 0 157.5 -56.5t54.5 -162.5v-230q0 -98 -53 -162.5t-149 -81.5l-17 79q125 36 125 158v238q0 142 -118 142q-108 0 -181 -88v-306h-94v574h-198v76z" />
    <glyph glyph-name="afii10052" unicode="&#x403;" horiz-adv-x="516" 
d="M65 650h412v-77h-316v-573h-96v650zM236 698l89 183l78 -47l-98 -136h-69z" />
    <glyph glyph-name="afii10053" unicode="&#x404;" horiz-adv-x="660" 
d="M472 380v-78h-336q7 -111 77.5 -171t176.5 -60q62 0 107 13.5t97 49.5l28 -82q-94 -65 -242 -65q-67 0 -127 21t-108 61t-76.5 106.5t-28.5 150.5q0 148 102.5 242.5t248.5 94.5q133 0 231 -72l-38 -73q-91 67 -193 67q-100 0 -167.5 -56.5t-84.5 -148.5h333z" />
    <glyph glyph-name="afii10054" unicode="&#x405;" horiz-adv-x="574" 
d="M493 606l-40 -75q-75 54 -172 54q-68 0 -96.5 -27t-28.5 -66q0 -74 103 -95l93 -19q84 -17 131.5 -67.5t47.5 -130.5q0 -85 -69 -139t-187 -54q-71 0 -121.5 13t-109.5 45l32 87q99 -61 197 -61q80 0 123 30t43 78q0 52 -27.5 78.5t-92.5 38.5l-102 19
q-70 13 -110.5 61.5t-40.5 111.5q0 79 57 127t158 48q66 0 114.5 -12.5t97.5 -44.5z" />
    <glyph glyph-name="uni0406" unicode="&#x406;" horiz-adv-x="225" 
d="M65 650h95v-650h-95v650z" />
    <glyph glyph-name="afii10056" unicode="&#x407;" horiz-adv-x="225" 
d="M65 650h95v-650h-95v650zM2 829q30 0 47 -16.5t17 -44.5q0 -26 -17 -43t-47 -17q-29 0 -45.5 17t-16.5 43q0 27 16.5 44t45.5 17zM221 829q29 0 46 -17t17 -44q0 -26 -17 -43t-46 -17t-46 17t-17 43q0 27 17 44t46 17z" />
    <glyph glyph-name="afii10057" unicode="&#x408;" horiz-adv-x="244" 
d="M85 650h94v-632q0 -126 -59.5 -185.5t-168.5 -75.5l-30 78q89 14 126.5 51t37.5 135v629z" />
    <glyph glyph-name="afii10058" unicode="&#x409;" horiz-adv-x="1051" 
d="M210 650h425v-243h137q111 0 177.5 -52t66.5 -151q0 -97 -66.5 -150.5t-177.5 -53.5h-232v574h-238v-151q0 -223 -52 -328q-52 -103 -157 -103q-51 0 -80 14l14 77q26 -9 56 -9q54 0 84 62q43 90 43 327v187zM635 329v-251h133q153 0 153 126q0 125 -155 125h-131z" />
    <glyph glyph-name="afii10059" unicode="&#x40a;" horiz-adv-x="1000" 
d="M65 650h95v-253h324v253h95v-253h142q112 0 178 -50t66 -148q0 -96 -66.5 -147.5t-177.5 -51.5h-237v320h-324v-320h-95v650zM579 319v-241h138q153 0 153 121q0 66 -40.5 93t-114.5 27h-136z" />
    <glyph glyph-name="afii10060" unicode="&#x40b;" horiz-adv-x="765" 
d="M25 650h484v-76h-192v-186q69 82 181 82q103 0 157.5 -56.5t54.5 -162.5v-251h-94v252q0 142 -118 142q-108 0 -181 -88v-306h-94v574h-198v76z" />
    <glyph glyph-name="afii10061" unicode="&#x40c;" horiz-adv-x="659" 
d="M65 650h96v-239h139l104 167q51 82 132 82q35 0 69 -10l-14 -80q-17 5 -35 5q-53 0 -85 -51l-95 -149l244 -375h-109l-211 332h-139v-332h-96v650zM261 698l89 183l78 -47l-98 -136h-69z" />
    <glyph glyph-name="afii10062" unicode="&#x40e;" horiz-adv-x="682" 
d="M25 650h107l227 -519h6l194 519h98l-237 -601q-37 -92 -80 -136t-110 -44q-52 0 -92 24l22 75q27 -14 56 -14q73 0 99 78zM188 802l60 27q27 -59 96 -59q68 0 97 59l60 -27q-16 -51 -57.5 -78t-99.5 -27q-57 0 -99 27.5t-57 77.5z" />
    <glyph glyph-name="afii10145" unicode="&#x40f;" horiz-adv-x="656" 
d="M65 650h96v-572h334v572h96v-650h-208l-12 -141h-70l-12 141h-224v650z" />
    <glyph glyph-name="afii10017" unicode="&#x410;" horiz-adv-x="707" 
d="M301 650h105l278 -650h-99l-85 197h-299l-81 -197h-98zM347 558l-115 -283h238l-114 283h-9z" />
    <glyph glyph-name="afii10018" unicode="&#x411;" horiz-adv-x="594" 
d="M65 650h435v-76h-340v-174h138q116 0 183 -51.5t67 -148.5q0 -96 -67 -148t-180 -52h-236v650zM160 323v-246h128q86 0 125.5 29.5t39.5 93.5q0 68 -40.5 95.5t-127.5 27.5h-125z" />
    <glyph glyph-name="afii10019" unicode="&#x412;" horiz-adv-x="601" 
d="M65 650h227q98 0 160 -42.5t62 -130.5q0 -81 -66 -120v-4q111 -55 111 -168q0 -86 -67 -135.5t-163 -49.5h-264v650zM159 306v-229h161q64 0 104.5 26t40.5 84t-37 88.5t-100 30.5h-169zM159 574v-194h148q54 0 84 25.5t30 68.5q0 50 -31.5 75t-87.5 25h-143z" />
    <glyph glyph-name="afii10020" unicode="&#x413;" horiz-adv-x="516" 
d="M65 650h412v-77h-316v-573h-96v650z" />
    <glyph glyph-name="afii10021" unicode="&#x414;" horiz-adv-x="731" 
d="M182 650h448v-572h70l-8 -219h-74l-12 141h-485l-15 -141h-76v217q38 10 59 29q93 84 93 337v208zM536 573h-262v-120q0 -279 -100 -375h362v495z" />
    <glyph glyph-name="afii10022" unicode="&#x415;" horiz-adv-x="541" 
d="M65 0v650h419v-79h-323v-194h290v-78h-290v-220h337v-79h-433z" />
    <glyph glyph-name="afii10024" unicode="&#x416;" horiz-adv-x="1011" 
d="M458 650h94v-244h109l84 172q20 40 55.5 61t76.5 21q35 0 69 -10l-12 -80q-17 5 -35 5q-62 0 -87 -51l-75 -154l234 -370h-109l-203 330h-107v-330h-94v330h-107l-203 -330h-109l234 370l-75 154q-25 51 -87 51q-18 0 -35 -5l-12 80q34 10 69 10q92 0 132 -82l84 -172
h109v244z" />
    <glyph glyph-name="afii10025" unicode="&#x417;" horiz-adv-x="566" 
d="M176 395h117q51 0 80 24.5t29 67.5q0 41 -32 70.5t-98 29.5q-54 0 -91 -13.5t-79 -47.5l-38 66q83 71 211 71q96 0 157.5 -49t61.5 -123q0 -40 -20 -73t-55 -48v-4q49 -22 80.5 -67t31.5 -101q0 -96 -71.5 -153.5t-183.5 -57.5q-76 0 -126 12.5t-105 48.5l31 84
q47 -39 89 -52.5t103 -13.5q72 0 120.5 33.5t48.5 96.5q0 62 -34.5 93t-96.5 31h-130v75z" />
    <glyph glyph-name="afii10026" unicode="&#x418;" horiz-adv-x="702" 
d="M65 650h93v-522h4l386 522h89v-650h-93v503h-4l-376 -503h-99v650z" />
    <glyph glyph-name="afii10027" unicode="&#x419;" horiz-adv-x="702" 
d="M65 650h93v-522h4l386 522h89v-650h-93v503h-4l-376 -503h-99v650zM195 802l60 27q27 -59 96 -59q68 0 97 59l60 -27q-16 -51 -57.5 -78t-99.5 -27q-57 0 -99 27.5t-57 77.5z" />
    <glyph glyph-name="afii10028" unicode="&#x41a;" horiz-adv-x="659" 
d="M65 650h96v-239h139l104 167q51 82 132 82q35 0 69 -10l-14 -80q-17 5 -35 5q-53 0 -85 -51l-95 -149l244 -375h-109l-211 332h-139v-332h-96v650z" />
    <glyph glyph-name="afii10029" unicode="&#x41b;" horiz-adv-x="720" 
d="M210 650h445v-650h-95v574h-258v-151q0 -223 -52 -328q-52 -103 -157 -103q-51 0 -80 14l14 77q26 -9 56 -9q54 0 84 62q43 90 43 327v187z" />
    <glyph glyph-name="afii10030" unicode="&#x41c;" horiz-adv-x="761" 
d="M65 650h117l198 -296l202 296h114v-650h-92v368l2 164h-9l-199 -291h-39l-197 291h-8l1 -164v-368h-90v650z" />
    <glyph glyph-name="afii10031" unicode="&#x41d;" horiz-adv-x="669" 
d="M509 650h95v-650h-95v303h-349v-303h-95v650h95v-270h349v270z" />
    <glyph glyph-name="afii10032" unicode="&#x41e;" horiz-adv-x="780" 
d="M740 325q0 -148 -100.5 -243t-249.5 -95t-249.5 95t-100.5 243t100.5 243t249.5 95t249.5 -95t100.5 -243zM136 325q0 -120 73 -189.5t181 -69.5t181 69.5t73 189.5t-73 189.5t-181 69.5t-181 -69.5t-73 -189.5z" />
    <glyph glyph-name="afii10033" unicode="&#x41f;" horiz-adv-x="650" 
d="M65 650h520v-650h-94v573h-332v-573h-94v650z" />
    <glyph glyph-name="afii10034" unicode="&#x420;" horiz-adv-x="594" 
d="M65 650h226q113 0 185 -55t72 -150q0 -97 -70.5 -151t-186.5 -54h-131v-240h-95v650zM160 573v-256h118q87 0 131 30t44 98q0 128 -175 128h-118z" />
    <glyph glyph-name="afii10035" unicode="&#x421;" horiz-adv-x="660" 
d="M622 591l-38 -73q-91 67 -193 67q-115 0 -185.5 -73t-70.5 -186q0 -121 72 -188t183 -67q62 0 107 13.5t97 49.5l28 -82q-94 -65 -242 -65q-67 0 -127 21t-108 61t-76.5 106.5t-28.5 150.5q0 148 102.5 242.5t248.5 94.5q133 0 231 -72z" />
    <glyph glyph-name="afii10036" unicode="&#x422;" horiz-adv-x="544" 
d="M30 574v76h484v-76h-194v-574h-96v574h-194z" />
    <glyph glyph-name="afii10037" unicode="&#x423;" horiz-adv-x="682" 
d="M25 650h107l227 -519h6l194 519h98l-237 -601q-37 -92 -80 -136t-110 -44q-52 0 -92 24l22 75q27 -14 56 -14q73 0 99 78z" />
    <glyph glyph-name="afii10038" unicode="&#x424;" horiz-adv-x="838" 
d="M372 663h94v-92q38 6 79 6q119 0 186 -69t67 -177t-67 -177.5t-186 -69.5q-41 0 -79 6v-90h-94v90q-38 -6 -79 -6q-119 0 -186 69.5t-67 177.5t67 177t186 69q41 0 79 -6v92zM372 168v326q-32 6 -81 6q-75 0 -116 -44t-41 -125t41 -125t116 -44q49 0 81 6zM466 494v-326
q32 -6 81 -6q75 0 116 44t41 125t-41 125t-116 44q-49 0 -81 -6z" />
    <glyph glyph-name="afii10039" unicode="&#x425;" horiz-adv-x="682" 
d="M48 650h114l178 -257l182 257h107l-226 -307l254 -343h-115l-205 289l-204 -289h-108l249 343z" />
    <glyph glyph-name="afii10040" unicode="&#x426;" horiz-adv-x="693" 
d="M65 650h95v-573h335v573h95v-573h73l-8 -218h-75l-12 141h-503v650z" />
    <glyph glyph-name="afii10041" unicode="&#x427;" horiz-adv-x="626" 
d="M561 0h-96v206q-72 -9 -135 -9q-134 0 -207 63t-73 193v197h96v-189q0 -95 50.5 -138t172.5 -43q55 0 96 4v366h96v-650z" />
    <glyph glyph-name="afii10042" unicode="&#x428;" horiz-adv-x="921" 
d="M65 0v650h95v-573h253v573h95v-573h253v573h95v-650h-791z" />
    <glyph glyph-name="afii10043" unicode="&#x429;" horiz-adv-x="959" 
d="M65 0v650h95v-574h253v574h95v-574h253v574h95v-574h73l-9 -217h-75l-12 141h-768z" />
    <glyph glyph-name="afii10044" unicode="&#x42a;" horiz-adv-x="681" 
d="M15 650h225v-243h157q111 0 177.5 -52t66.5 -151q0 -97 -66.5 -150.5t-177.5 -53.5h-252v570l-130 8v72zM240 329v-251h153q153 0 153 126q0 125 -155 125h-151z" />
    <glyph glyph-name="afii10045" unicode="&#x42b;" horiz-adv-x="782" 
d="M622 0v650h95v-650h-95zM65 650h95v-243h157q111 0 177.5 -52t66.5 -151q0 -97 -66.5 -150.5t-177.5 -53.5h-252v650zM160 329v-251h153q154 0 154 126q0 125 -156 125h-151z" />
    <glyph glyph-name="afii10046" unicode="&#x42c;" horiz-adv-x="601" 
d="M65 650h95v-243h157q111 0 177.5 -52t66.5 -151q0 -97 -66.5 -150.5t-177.5 -53.5h-252v650zM160 329v-251h153q153 0 153 126q0 125 -155 125h-151z" />
    <glyph glyph-name="afii10047" unicode="&#x42d;" horiz-adv-x="664" 
d="M206 380h321q-15 93 -79 149t-163 56q-112 0 -203 -67l-38 73q98 72 241 72q146 0 243.5 -93t97.5 -244q0 -107 -48 -185.5t-123 -116t-164 -37.5q-146 0 -244 65l24 82q52 -35 99 -49t111 -14q105 0 173.5 60t75.5 171h-324v78z" />
    <glyph glyph-name="afii10048" unicode="&#x42e;" horiz-adv-x="964" 
d="M65 650h95v-269h107q17 127 106 204.5t221 77.5q147 0 238.5 -94t91.5 -244t-91.5 -244t-238.5 -94q-141 0 -231 87t-98 228h-105v-302h-95v650zM360 325q0 -122 64 -190.5t170 -68.5t170 68.5t64 190.5t-64 190.5t-170 68.5t-170 -68.5t-64 -190.5z" />
    <glyph glyph-name="afii10049" unicode="&#x42f;" horiz-adv-x="625" 
d="M560 650v-650h-95v257h-150l-172 -257h-110l189 268q-73 19 -115.5 66.5t-42.5 118.5q0 90 67.5 143.5t176.5 53.5h252zM465 572h-153q-153 0 -153 -119q0 -118 155 -118h151v237z" />
    <glyph glyph-name="afii10065" unicode="&#x430;" horiz-adv-x="602" 
d="M99 392l-20 74q106 44 213 44q111 0 163.5 -41.5t52.5 -132.5v-209q0 -36 12.5 -48.5t49.5 -12.5v-66q-31 -10 -66 -10q-30 0 -48.5 21.5t-21.5 60.5q-69 -82 -206 -82q-86 0 -132.5 40.5t-46.5 112.5q0 65 47 119q125 39 322 43v28q0 53 -29 76.5t-101 23.5
q-94 0 -189 -41zM418 132v106q-156 -3 -255 -30q-20 -24 -20 -60q0 -40 25.5 -61t72.5 -21q101 0 177 66z" />
    <glyph glyph-name="afii10066" unicode="&#x431;" horiz-adv-x="616" 
d="M510 735l56 -48q-44 -82 -153 -102l-122 -22q-72 -14 -108 -60t-49 -127h8q54 94 192 94q106 0 174 -64t68 -176q0 -109 -74 -174.5t-185 -65.5q-137 0 -204 81.5t-67 223.5q0 157 64.5 243.5t180.5 107.5l117 22q62 12 102 67zM143 232q0 -75 48.5 -121.5t123.5 -46.5
q76 0 122.5 45.5t46.5 120.5q0 79 -44 122.5t-123 43.5t-126.5 -46t-47.5 -118z" />
    <glyph glyph-name="afii10067" unicode="&#x432;" horiz-adv-x="554" 
d="M65 500h242q76 0 125 -34t49 -100q0 -60 -57 -91v-5q40 -11 64 -43t24 -76q0 -70 -50.5 -110.5t-130.5 -40.5h-266v500zM158 223v-153h163q99 0 99 79q0 39 -24 56.5t-74 17.5h-164zM158 429v-135h159q33 0 53 17.5t20 49.5t-20.5 50t-56.5 18h-155z" />
    <glyph glyph-name="afii10068" unicode="&#x433;" horiz-adv-x="476" 
d="M65 500h370v-77h-277v-423h-93v500z" />
    <glyph glyph-name="afii10069" unicode="&#x434;" horiz-adv-x="632" 
d="M156 500h384v-426h63l-11 -196h-70l-11 122h-397l-17 -122h-73v192q72 39 102 113t30 185v132zM242 425v-91q0 -172 -94 -260h299v351h-205z" />
    <glyph glyph-name="afii10070" unicode="&#x435;" horiz-adv-x="587" 
d="M538 227h-402q5 -78 58.5 -119t131.5 -41q103 0 173 39l27 -76q-49 -23 -93.5 -31.5t-112.5 -8.5q-133 0 -206.5 69.5t-73.5 189.5q0 116 77.5 188.5t195.5 72.5q115 0 174.5 -56.5t59.5 -150.5q0 -43 -9 -76zM134 299h323q-1 73 -37 104.5t-117 31.5q-65 0 -114 -35.5
t-55 -100.5z" />
    <glyph glyph-name="afii10072" unicode="&#x436;" horiz-adv-x="898" 
d="M404 500h90v-188h96l67 126q37 70 116 70q31 0 59 -11l-15 -69q-17 4 -34 4q-36 0 -60 -44l-60 -109l190 -279h-104l-159 240h-96v-240h-90v240h-96l-159 -240h-104l190 279l-60 109q-24 44 -60 44q-17 0 -34 -4l-15 69q27 11 59 11q79 0 116 -70l67 -126h96v188z" />
    <glyph glyph-name="afii10073" unicode="&#x437;" horiz-adv-x="531" 
d="M78 400l-28 69q89 41 202 41q53 0 95 -12t72.5 -44.5t30.5 -82.5q0 -66 -58 -93v-4q47 -17 68.5 -45.5t21.5 -75.5q0 -73 -62 -118t-182 -45q-128 0 -214 50l34 69q78 -45 179 -45q150 0 150 90q0 79 -102 79h-148v72h141q81 0 81 61q0 39 -29.5 55t-89.5 16
q-88 0 -162 -37z" />
    <glyph glyph-name="afii10074" unicode="&#x438;" horiz-adv-x="604" 
d="M65 500h91v-254l-3 -128l298 382h88v-500h-91v197l2 179l-295 -376h-90v500z" />
    <glyph glyph-name="afii10075" unicode="&#x439;" horiz-adv-x="604" 
d="M65 500h91v-254l-3 -128l298 382h88v-500h-91v197l2 179l-295 -376h-90v500zM164 656l70 13q12 -51 68 -51t68 51l70 -13q-12 -53 -50 -81t-88 -28t-88 28t-50 81z" />
    <glyph glyph-name="afii10076" unicode="&#x43a;" horiz-adv-x="566" 
d="M65 500h93v-185h124l70 123q41 70 125 70q34 0 55 -11l-16 -74q-19 4 -35 4q-23 0 -36.5 -10t-27.5 -33l-63 -107l181 -277h-108l-150 240h-119v-240h-93v500z" />
    <glyph glyph-name="afii10077" unicode="&#x43b;" horiz-adv-x="611" 
d="M162 500h384v-500h-92v426h-204v-80q0 -110 -14 -185.5t-55 -120.5q-43 -48 -111 -48q-40 0 -67 14l12 70q18 -6 34 -6q45 0 66 22q28 29 37.5 92t9.5 172v144z" />
    <glyph glyph-name="afii10078" unicode="&#x43c;" horiz-adv-x="724" 
d="M65 500h114l183 -304l180 304h117v-500h-92v226l3 162h-5l-176 -288h-60l-174 288h-5l2 -135v-253h-87v500z" />
    <glyph glyph-name="afii10079" unicode="&#x43d;" horiz-adv-x="592" 
d="M65 500h92v-203h278v203h92v-500h-92v223h-278v-223h-92v500z" />
    <glyph glyph-name="afii10080" unicode="&#x43e;" horiz-adv-x="638" 
d="M598 250q0 -117 -80 -188.5t-199 -71.5t-199 71.5t-80 188.5t80 188.5t199 71.5t199 -71.5t80 -188.5zM131 250q0 -86 50.5 -136.5t137.5 -50.5t137.5 50.5t50.5 136.5t-50.5 136.5t-137.5 50.5t-137.5 -50.5t-50.5 -136.5z" />
    <glyph glyph-name="afii10081" unicode="&#x43f;" horiz-adv-x="583" 
d="M65 500h453v-500h-92v426h-269v-426h-92v500z" />
    <glyph glyph-name="afii10082" unicode="&#x440;" horiz-adv-x="609" 
d="M65 -230v711q118 29 227 29q133 0 205 -69t72 -192q0 -118 -65.5 -188.5t-190.5 -70.5q-95 0 -155 47v-267h-93zM158 418v-295q64 -55 155 -55q76 0 119.5 48t43.5 133q0 92 -48.5 140t-135.5 48q-76 0 -134 -19z" />
    <glyph glyph-name="afii10083" unicode="&#x441;" horiz-adv-x="548" 
d="M510 472l-39 -69q-63 33 -138 33q-94 0 -146.5 -48.5t-52.5 -138.5q0 -81 53.5 -132t130.5 -51q94 0 170 42l28 -73q-83 -45 -203 -45q-123 0 -198 72.5t-75 184.5q0 116 83 189.5t204 73.5q111 0 183 -38z" />
    <glyph glyph-name="afii10084" unicode="&#x442;" horiz-adv-x="519" 
d="M213 427h-178v73h449v-73h-178v-427h-93v427z" />
    <glyph glyph-name="afii10085" unicode="&#x443;" horiz-adv-x="599" 
d="M478 500h101l-224 -582q-47 -120 -161 -120q-32 0 -52 6l10 75q56 0 84 13.5t44 57.5l18 50h-72l-206 500h105l158 -423h43z" />
    <glyph glyph-name="afii10086" unicode="&#x444;" horiz-adv-x="814" 
d="M362 720h90v-220q42 10 65 10q117 0 187 -68.5t70 -191.5q0 -116 -74 -188t-183 -72q-23 0 -65 10v-230h-90v230q-42 -10 -65 -10q-117 0 -187 68.5t-70 191.5q0 116 74 188t183 72q23 0 65 -10v220zM452 427v-354q29 -10 60 -10q78 0 123.5 49t45.5 138t-45.5 138
t-123.5 49q-31 0 -60 -10zM362 73v354q-29 10 -60 10q-78 0 -123.5 -49t-45.5 -138t45.5 -138t123.5 -49q31 0 60 10z" />
    <glyph glyph-name="afii10087" unicode="&#x445;" horiz-adv-x="607" 
d="M46 500h109l135 -200h4l145 200h103l-176 -238l192 -262h-110l-154 220h-4l-156 -220h-104l193 261z" />
    <glyph glyph-name="afii10088" unicode="&#x446;" horiz-adv-x="607" 
d="M65 500h93v-426h263v426h93v-426h64l-7 -196h-70l-11 122h-425v500z" />
    <glyph glyph-name="afii10089" unicode="&#x447;" horiz-adv-x="569" 
d="M44 500h93v-147q0 -67 32.5 -98.5t100.5 -31.5q80 0 141 38v239h93v-500h-93v188q-66 -42 -150 -42q-103 0 -160 52t-57 151v151z" />
    <glyph glyph-name="afii10090" unicode="&#x448;" horiz-adv-x="836" 
d="M65 0v500h92v-426h215v426h92v-426h215v426h92v-500h-706z" />
    <glyph glyph-name="afii10091" unicode="&#x449;" horiz-adv-x="852" 
d="M65 500h92v-426h214v426h92v-426h214v426h92v-426h53l-8 -196h-71l-11 122h-667v500z" />
    <glyph glyph-name="afii10092" unicode="&#x44a;" horiz-adv-x="629" 
d="M29 500h210v-175q68 29 140 29q97 0 154 -46t57 -131q0 -89 -59 -133t-157 -44h-228v425l-117 6v69zM239 73h125q133 0 133 105q0 49 -29 75.5t-82 26.5q-87 0 -147 -22v-185z" />
    <glyph glyph-name="afii10093" unicode="&#x44b;" horiz-adv-x="734" 
d="M576 500h93v-500h-93v500zM65 500h93v-175q68 29 140 29q97 0 154 -46t57 -131q0 -89 -59 -133t-157 -44h-228v500zM158 73h125q133 0 133 105q0 49 -29 75.5t-82 26.5q-87 0 -147 -22v-185z" />
    <glyph glyph-name="afii10094" unicode="&#x44c;" horiz-adv-x="549" 
d="M65 500h93v-175q68 29 140 29q97 0 154 -46t57 -131q0 -89 -59 -133t-157 -44h-228v500zM158 73h125q133 0 133 105q0 49 -29 75.5t-82 26.5q-87 0 -147 -22v-185z" />
    <glyph glyph-name="afii10095" unicode="&#x44d;" horiz-adv-x="548" 
d="M152 299h263q-23 137 -176 137q-89 0 -162 -37l-33 66q91 45 201 45q131 0 199.5 -71t68.5 -186q0 -117 -80 -190t-207 -73q-112 0 -190 39l23 75q73 -38 161 -38q87 0 139 41.5t59 119.5h-266v72z" />
    <glyph glyph-name="afii10096" unicode="&#x44e;" horiz-adv-x="808" 
d="M65 500h91v-204h93q14 99 84.5 156.5t173.5 57.5q117 0 189 -70.5t72 -189.5q0 -118 -73 -189t-188 -71q-110 0 -180.5 62.5t-79.5 169.5h-91v-222h-91v500zM336 250q0 -86 46 -136.5t125 -50.5t125 50.5t46 136.5t-46 136.5t-125 50.5t-125 -50.5t-46 -136.5z" />
    <glyph glyph-name="afii10097" unicode="&#x44f;" horiz-adv-x="563" 
d="M509 0h-93v169q-68 -21 -160 -22l-96 -147h-104l113 166q-114 43 -114 155q0 88 63.5 133.5t162.5 45.5h228v-500zM416 427h-128q-140 0 -140 -107q0 -48 32 -74t86 -26q88 0 150 19v188z" />
    <glyph glyph-name="afii10071" unicode="&#x451;" horiz-adv-x="587" 
d="M538 227h-402q5 -78 58.5 -119t131.5 -41q103 0 173 39l27 -76q-49 -23 -93.5 -31.5t-112.5 -8.5q-133 0 -206.5 69.5t-73.5 189.5q0 116 77.5 188.5t195.5 72.5q115 0 174.5 -56.5t59.5 -150.5q0 -43 -9 -76zM134 299h323q-1 73 -37 104.5t-117 31.5q-65 0 -114 -35.5
t-55 -100.5zM205 681q29 0 45.5 -16.5t16.5 -43.5q0 -25 -16.5 -41.5t-45.5 -16.5q-27 0 -44 16.5t-17 41.5q0 27 17 43.5t44 16.5zM428 681q29 0 45.5 -16.5t16.5 -43.5q0 -25 -16.5 -41.5t-45.5 -16.5q-27 0 -44 16.5t-17 41.5q0 27 16.5 43.5t44.5 16.5z" />
    <glyph glyph-name="afii10099" unicode="&#x452;" horiz-adv-x="625" 
d="M132 733l41 -4v-102h221l-4 -80l-217 8v-137q69 82 179 82q103 0 156 -57t53 -164v-243q0 -103 -52 -164t-149 -75l-17 76q125 24 125 154v253q0 144 -116 144q-106 0 -179 -88v-336h-93v552l-80 8v49l70 38z" />
    <glyph glyph-name="afii10100" unicode="&#x453;" horiz-adv-x="476" 
d="M65 500h370v-77h-277v-423h-93v500zM228 563l94 183l73 -47l-103 -136h-64z" />
    <glyph glyph-name="afii10101" unicode="&#x454;" horiz-adv-x="548" 
d="M405 299v-72h-270q7 -72 59.5 -116.5t123.5 -44.5q94 0 170 42l28 -73q-83 -45 -203 -45q-123 0 -198 72.5t-75 184.5q0 116 83 189.5t204 73.5q111 0 183 -38l-39 -69q-63 33 -138 33q-80 0 -130.5 -35.5t-63.5 -101.5h266z" />
    <glyph glyph-name="afii10102" unicode="&#x455;" horiz-adv-x="502" 
d="M435 479l-29 -72q-67 31 -151 31q-63 0 -94 -18t-31 -48q0 -35 31 -49.5t102 -21.5q98 -10 147.5 -47t49.5 -111q0 -76 -63 -114.5t-175 -38.5q-103 0 -182 34l23 76q74 -35 155 -35q155 0 155 79q0 37 -29.5 53t-107.5 24q-99 10 -146.5 44t-47.5 100q0 63 55 104
t159 41q99 0 179 -31z" />
    <glyph glyph-name="afii10103" unicode="&#x456;" horiz-adv-x="223" 
d="M65 500h93v-500h-93v500zM112 716q30 0 47.5 -18t17.5 -45q0 -26 -17.5 -44.5t-47.5 -18.5t-47.5 18.5t-17.5 44.5q0 27 17.5 45t47.5 18z" />
    <glyph glyph-name="afii10104" unicode="&#x457;" horiz-adv-x="223" 
d="M65 500h93v-500h-93v500zM-1 681q29 0 45.5 -16.5t16.5 -43.5q0 -25 -16.5 -41.5t-45.5 -16.5q-27 0 -44 16.5t-17 41.5q0 27 17 43.5t44 16.5zM222 681q29 0 45.5 -16.5t16.5 -43.5q0 -25 -16.5 -41.5t-45.5 -16.5q-27 0 -44 16.5t-17 41.5q0 27 16.5 43.5t44.5 16.5z
" />
    <glyph glyph-name="afii10105" unicode="&#x458;" horiz-adv-x="233" 
d="M74 500h94v-529q0 -101 -52 -156.5t-149 -57.5l-7 79q59 4 86.5 32t27.5 86v546zM121 716q30 0 47.5 -18t17.5 -45q0 -26 -17.5 -44.5t-47.5 -18.5t-47.5 18.5t-17.5 44.5q0 27 17.5 45t47.5 18z" />
    <glyph glyph-name="afii10106" unicode="&#x459;" horiz-adv-x="887" 
d="M162 500h364v-175q53 29 120 29q97 0 154 -46t57 -131q0 -89 -59 -133t-157 -44h-207v426h-185v-80q0 -111 -14 -186.5t-55 -120.5q-41 -46 -110 -46q-41 0 -67 11l11 70q15 -5 34 -5q42 0 67 26q28 29 37.5 91t9.5 170v144zM526 73h105q133 0 133 105q0 49 -31 75.5
t-90 26.5q-64 0 -117 -22v-185z" />
    <glyph glyph-name="afii10107" unicode="&#x45a;" horiz-adv-x="877" 
d="M65 500h92v-203h267v203h92v-175q53 29 122 29q97 0 153 -46t56 -131q0 -89 -59 -133t-157 -44h-207v223h-267v-223h-92v500zM516 73h105q133 0 133 105q0 102 -119 102q-66 0 -119 -22v-185z" />
    <glyph glyph-name="afii10108" unicode="&#x45b;" horiz-adv-x="625" 
d="M132 733l41 -4v-102h221l-4 -80l-217 8v-137q69 82 179 82q103 0 156 -57t53 -164v-279h-93v280q0 144 -116 144q-106 0 -179 -88v-336h-93v552l-80 8v49l70 38z" />
    <glyph glyph-name="afii10109" unicode="&#x45c;" horiz-adv-x="566" 
d="M241 563l94 183l73 -47l-103 -136h-64zM65 500h93v-185h124l70 123q41 70 125 70q34 0 55 -11l-16 -74q-19 4 -35 4q-23 0 -36.5 -10t-27.5 -33l-63 -107l181 -277h-108l-150 240h-119v-240h-93v500z" />
    <glyph glyph-name="afii10110" unicode="&#x45e;" horiz-adv-x="599" 
d="M478 500h101l-224 -582q-47 -120 -161 -120q-32 0 -52 6l10 75q56 0 84 13.5t44 57.5l18 50h-72l-206 500h105l158 -423h43zM162 656l70 13q12 -51 68 -51t68 51l70 -13q-12 -53 -50 -81t-88 -28t-88 28t-50 81z" />
    <glyph glyph-name="afii10193" unicode="&#x45f;" horiz-adv-x="615" 
d="M65 500h94v-426h298v426h93v-500h-197l-9 -122h-73l-9 122h-197v500z" />
    <glyph glyph-name="afii10050" unicode="&#x490;" horiz-adv-x="516" 
d="M65 650h322l7 100h77l6 -177h-316v-573h-96v650z" />
    <glyph glyph-name="afii10098" unicode="&#x491;" horiz-adv-x="483" 
d="M65 500h300l11 88h71l6 -164h-295v-424h-93v500z" />
    <glyph glyph-name="endash" unicode="&#x2013;" horiz-adv-x="579" 
d="M80 303h419v-76h-419v76z" />
    <glyph glyph-name="emdash" unicode="&#x2014;" horiz-adv-x="832" 
d="M90 303h652v-76h-652v76z" />
    <glyph glyph-name="quoteleft" unicode="&#x2018;" horiz-adv-x="206" 
d="M128 696l33 -38q-67 -23 -67 -67q26 0 39.5 -15t13.5 -36t-13.5 -37.5t-42.5 -16.5q-32 0 -49 23t-17 59q0 39 27 76t76 52z" />
    <glyph glyph-name="quoteright" unicode="&#x2019;" horiz-adv-x="206" 
d="M68 434l-33 38q67 23 67 67q-26 0 -39.5 15t-13.5 36t13.5 37.5t42.5 16.5q32 0 49 -23t17 -59q0 -39 -27 -76t-76 -52z" />
    <glyph glyph-name="quotesinglbase" unicode="&#x201a;" horiz-adv-x="206" 
d="M68 -105l-33 38q67 23 67 67q-26 0 -39.5 15t-13.5 36t13.5 37.5t42.5 16.5q32 0 49 -23t17 -59q0 -39 -27 -76t-76 -52z" />
    <glyph glyph-name="quotedblleft" unicode="&#x201c;" horiz-adv-x="356" 
d="M278 696l33 -38q-67 -23 -67 -67q26 0 39.5 -15t13.5 -36t-13.5 -37.5t-42.5 -16.5q-32 0 -49 23t-17 59q0 39 27 76t76 52zM128 696l33 -38q-67 -23 -67 -67q26 0 39.5 -15t13.5 -36t-13.5 -37.5t-42.5 -16.5q-32 0 -49 23t-17 59q0 39 27 76t76 52z" />
    <glyph glyph-name="quotedblright" unicode="&#x201d;" horiz-adv-x="356" 
d="M68 434l-33 38q67 23 67 67q-26 0 -39.5 15t-13.5 36t13.5 37.5t42.5 16.5q32 0 49 -23t17 -59q0 -39 -27 -76t-76 -52zM218 434l-33 38q67 23 67 67q-26 0 -39.5 15t-13.5 36t13.5 37.5t42.5 16.5q32 0 49 -23t17 -59q0 -39 -27 -76t-76 -52z" />
    <glyph glyph-name="quotedblbase" unicode="&#x201e;" horiz-adv-x="356" 
d="M68 -105l-33 38q67 23 67 67q-26 0 -39.5 15t-13.5 36t13.5 37.5t42.5 16.5q32 0 49 -23t17 -59q0 -39 -27 -76t-76 -52zM218 -105l-33 38q67 23 67 67q-26 0 -39.5 15t-13.5 36t13.5 37.5t42.5 16.5q32 0 49 -23t17 -59q0 -39 -27 -76t-76 -52z" />
    <glyph glyph-name="dagger" unicode="&#x2020;" horiz-adv-x="373" 
d="M144 532l55 15l30 -9v-66l-8 -49l47 8h80v-50l-11 -21h-69l-47 7l7 -54v-228l-11 -96l-47 -17l-24 16v325l6 54l-46 -7h-81v47l11 24h69l47 -8l-8 49v60z" />
    <glyph glyph-name="daggerdbl" unicode="&#x2021;" horiz-adv-x="373" 
d="M144 532l55 15l30 -9v-66l-8 -49l47 8h80v-50l-11 -21h-69l-47 7l7 -54l-7 -49l47 8h75v-50l-11 -21h-64l-47 7l7 -54v-69l-11 -96l-47 -17l-24 16v166l6 54l-46 -7h-81v47l11 24h69l47 -8l-6 49l6 54l-46 -7h-76v47l11 24h64l47 -8l-8 49v60z" />
    <glyph glyph-name="bullet" unicode="&#x2022;" horiz-adv-x="254" 
d="M204 309q0 -32 -21.5 -53t-55.5 -21t-55.5 21t-21.5 53t21.5 53t55.5 21t55.5 -21t21.5 -53z" />
    <glyph glyph-name="onedotenleader" unicode="&#x2024;" horiz-adv-x="233" 
d="M116 121q31 0 49 -18.5t18 -47.5t-17.5 -46t-49.5 -17q-31 0 -48.5 17t-17.5 46t17.5 47.5t48.5 18.5z" />
    <glyph glyph-name="twodotenleader" unicode="&#x2025;" horiz-adv-x="427" 
d="M116 121q31 0 49 -18.5t18 -47.5t-17.5 -46t-49.5 -17q-31 0 -48.5 17t-17.5 46t17.5 47.5t48.5 18.5zM310 121q31 0 49 -18.5t18 -47.5t-17.5 -46t-49.5 -17q-31 0 -48.5 17t-17.5 46t17.5 47.5t48.5 18.5z" />
    <glyph glyph-name="ellipsis" unicode="&#x2026;" horiz-adv-x="615" 
d="M116 121q31 0 49 -18.5t18 -47.5t-17.5 -46t-49.5 -17q-31 0 -48.5 17t-17.5 46t17.5 47.5t48.5 18.5zM307 121q31 0 49 -18.5t18 -47.5t-17.5 -46t-49.5 -17q-31 0 -48.5 17t-17.5 46t17.5 47.5t48.5 18.5zM498 121q31 0 49 -18.5t18 -47.5t-17.5 -46t-49.5 -17
q-31 0 -48.5 17t-17.5 46t17.5 47.5t48.5 18.5z" />
    <glyph glyph-name="perthousand" unicode="&#x2030;" horiz-adv-x="1040" 
d="M501 512l56 -38l-348 -496l-57 37zM179 231q-62 0 -105.5 39.5t-43.5 99.5t43 100t106 40q61 0 105 -41t44 -99q0 -60 -44 -99.5t-105 -39.5zM179 294q33 0 55.5 20.5t22.5 55.5t-21.5 56t-56.5 21q-36 0 -57.5 -21.5t-21.5 -55.5t22 -55t57 -21zM538 -10
q-62 0 -105.5 39.5t-43.5 99.5t43 100t106 40q61 0 105 -41t44 -99q0 -60 -44 -99.5t-105 -39.5zM538 53q33 0 55.5 20.5t22.5 55.5t-21.5 56t-56.5 21q-36 0 -57.5 -21.5t-21.5 -55.5t22 -55t57 -21zM861 -10q-62 0 -105.5 39.5t-43.5 99.5t43 100t106 40q61 0 105 -41
t44 -99q0 -60 -44 -99.5t-105 -39.5zM861 53q33 0 55.5 20.5t22.5 55.5t-21.5 56t-56.5 21q-36 0 -57.5 -21.5t-21.5 -55.5t22 -55t57 -21z" />
    <glyph glyph-name="guilsinglleft" unicode="&#x2039;" horiz-adv-x="332" 
d="M259 443l38 -58l-152 -129l152 -135l-38 -58l-219 171v38z" />
    <glyph glyph-name="guilsinglright" unicode="&#x203a;" horiz-adv-x="332" 
d="M73 443l219 -171v-38l-219 -171l-38 58l152 129l-152 135z" />
    <glyph glyph-name="exclamdbl" unicode="&#x203c;" horiz-adv-x="411" 
d="M65 679h95l-13 -509h-69zM112 121q31 0 49 -18.5t18 -47.5t-17.5 -46t-49.5 -17q-31 0 -48.5 17t-17.5 46t17.5 47.5t48.5 18.5zM251 679h95l-13 -509h-69zM298 121q31 0 49 -18.5t18 -47.5t-17.5 -46t-49.5 -17q-31 0 -48.5 17t-17.5 46t17.5 47.5t48.5 18.5z" />
    <glyph glyph-name="fraction" unicode="&#x2044;" horiz-adv-x="293" 
d="M293 653l65 -30l-358 -644l-62 31z" />
    <glyph glyph-name="zerosuperior" unicode="&#x2070;" horiz-adv-x="448" 
d="M103 559q0 -59 32.5 -94.5t88.5 -35.5t88 35.5t32 94.5q0 60 -32.5 95.5t-87.5 35.5t-88 -36.5t-33 -94.5zM418 559q0 -79 -52 -136t-142 -57t-142 57t-52 136t53 137t141 58t141 -58t53 -137z" />
    <glyph glyph-name="foursuperior" unicode="&#x2074;" horiz-adv-x="381" 
d="M252 750l59 -5v-244h40v-62h-40v-64h-71v64h-211l-9 51zM240 645l-128 -144h128v144z" />
    <glyph glyph-name="fivesuperior" unicode="&#x2075;" horiz-adv-x="343" 
d="M54 745h239v-63h-177l-3 -75q30 9 70 9q59 0 97 -31t38 -90q0 -62 -44 -95.5t-110 -33.5q-89 0 -143 37l32 58q49 -36 107 -36q42 0 65.5 18t23.5 52q0 63 -82 63q-48 0 -90 -14l-30 7z" />
    <glyph glyph-name="sixsuperior" unicode="&#x2076;" horiz-adv-x="362" 
d="M99 537q0 -50 21.5 -80t62.5 -30q82 0 82 66q0 68 -70 68q-53 0 -96 -24zM293 754l4 -60q-104 -1 -143.5 -25t-52.5 -81q44 33 102 33q57 0 95.5 -31.5t38.5 -96.5q0 -63 -43 -95t-111 -32q-74 0 -113.5 50t-39.5 133q0 205 263 205z" />
    <glyph glyph-name="sevensuperior" unicode="&#x2077;" horiz-adv-x="330" 
d="M25 745h280v-46l-165 -324h-77l161 308h-199v62z" />
    <glyph glyph-name="eightsuperior" unicode="&#x2078;" horiz-adv-x="380" 
d="M156 554q-54 -9 -54 -66q0 -63 88 -63q38 0 63 16.5t25 46.5q0 22 -10 35.5t-31 19.5t-37 8t-44 3zM217 607q36 11 36 46q0 43 -62 43q-64 0 -64 -42q0 -45 90 -47zM91 583q-35 24 -35 70q0 50 39 75.5t96 25.5q56 0 94.5 -25t38.5 -74q0 -47 -36 -68q62 -28 62 -96
q0 -63 -46 -94t-114 -31q-73 0 -116.5 31t-43.5 92q0 66 61 94z" />
    <glyph glyph-name="ninesuperior" unicode="&#x2079;" horiz-adv-x="362" 
d="M268 583q0 110 -84 110q-82 0 -82 -66q0 -33 21 -50.5t56 -17.5q45 0 89 24zM76 366l-5 60q78 0 132 26t63 76q-41 -29 -95 -29q-57 0 -98 32.5t-41 94.5q0 63 42.5 95.5t109.5 32.5q75 0 114 -48.5t39 -131.5q0 -102 -68.5 -155t-192.5 -53z" />
    <glyph glyph-name="parenleftsuperior" unicode="&#x207d;" horiz-adv-x="156" 
d="M94 792l51 -25q-46 -89 -46 -204q0 -114 47 -200l-52 -26q-63 98 -63 226q0 132 63 229z" />
    <glyph glyph-name="parenrightsuperior" unicode="&#x207e;" horiz-adv-x="156" 
d="M10 766l52 26q64 -98 64 -228q0 -129 -64 -227l-51 25q46 87 46 202q0 113 -47 202z" />
    <glyph glyph-name="zeroinferior" unicode="&#x2080;" horiz-adv-x="448" 
d="M103 114q0 -59 32.5 -94.5t88.5 -35.5t88 35.5t32 94.5q0 60 -32.5 95.5t-87.5 35.5t-88 -36.5t-33 -94.5zM418 114q0 -79 -52 -136t-142 -57t-142 57t-52 136t53 137t141 58t141 -58t53 -137z" />
    <glyph glyph-name="oneinferior" unicode="&#x2081;" horiz-adv-x="226" 
d="M17 238l120 65l39 -5v-368h-71v284l-71 -19z" />
    <glyph glyph-name="twoinferior" unicode="&#x2082;" horiz-adv-x="332" 
d="M296 -8v-62h-271v61l157 119q49 36 49 78q0 57 -72 57q-55 0 -102 -44l-34 51q59 57 141 57q62 0 100 -32.5t38 -87.5q0 -70 -56 -111l-117 -86h167z" />
    <glyph glyph-name="threeinferior" unicode="&#x2083;" horiz-adv-x="357" 
d="M262 137q60 -27 60 -90q0 -62 -45.5 -94t-112.5 -32q-49 0 -79 9t-60 33l24 55q51 -39 111 -39q41 0 67 17.5t26 50.5q0 28 -16.5 40t-54.5 12h-83v58h74q30 0 45 10t15 35q0 47 -67 47q-54 0 -95 -31l-33 47q53 44 134 44q49 0 88.5 -25.5t39.5 -72.5q0 -51 -38 -74z
" />
    <glyph glyph-name="fourinferior" unicode="&#x2084;" horiz-adv-x="381" 
d="M252 305l59 -5v-244h40v-62h-40v-64h-71v64h-211l-9 51zM240 200l-128 -144h128v144z" />
    <glyph glyph-name="fiveinferior" unicode="&#x2085;" horiz-adv-x="343" 
d="M54 300h239v-63h-177l-3 -75q30 9 70 9q59 0 97 -31t38 -90q0 -62 -44 -95.5t-110 -33.5q-89 0 -143 37l32 58q49 -36 107 -36q42 0 65.5 18t23.5 52q0 63 -82 63q-48 0 -90 -14l-30 7z" />
    <glyph glyph-name="sixinferior" unicode="&#x2086;" horiz-adv-x="362" 
d="M99 92q0 -50 21.5 -80t62.5 -30q82 0 82 66q0 68 -70 68q-53 0 -96 -24zM293 309l4 -60q-104 -1 -143.5 -25t-52.5 -81q44 33 102 33q57 0 95.5 -31.5t38.5 -96.5q0 -63 -43 -95t-111 -32q-74 0 -113.5 50t-39.5 133q0 205 263 205z" />
    <glyph glyph-name="seveninferior" unicode="&#x2087;" horiz-adv-x="330" 
d="M25 300h280v-46l-165 -324h-77l161 308h-199v62z" />
    <glyph glyph-name="eightinferior" unicode="&#x2088;" horiz-adv-x="380" 
d="M156 109q-54 -9 -54 -66q0 -63 88 -63q38 0 63 16.5t25 46.5q0 22 -10 35.5t-31 19.5t-37 8t-44 3zM217 162q36 11 36 46q0 43 -62 43q-64 0 -64 -42q0 -45 90 -47zM91 138q-35 24 -35 70q0 50 39 75.5t96 25.5q56 0 94.5 -25t38.5 -74q0 -47 -36 -68q62 -28 62 -96
q0 -63 -46 -94t-114 -31q-73 0 -116.5 31t-43.5 92q0 66 61 94z" />
    <glyph glyph-name="nineinferior" unicode="&#x2089;" horiz-adv-x="362" 
d="M268 138q0 110 -84 110q-82 0 -82 -66q0 -33 21 -50.5t56 -17.5q45 0 89 24zM76 -79l-5 60q78 0 132 26t63 76q-41 -29 -95 -29q-57 0 -98 32.5t-41 94.5q0 63 42.5 95.5t109.5 32.5q75 0 114 -48.5t39 -131.5q0 -102 -68.5 -155t-192.5 -53z" />
    <glyph glyph-name="parenleftinferior" unicode="&#x208d;" horiz-adv-x="156" 
d="M94 347l51 -25q-46 -89 -46 -204q0 -114 47 -200l-52 -26q-63 98 -63 226q0 132 63 229z" />
    <glyph glyph-name="parenrightinferior" unicode="&#x208e;" horiz-adv-x="156" 
d="M10 321l52 26q64 -98 64 -228q0 -129 -64 -227l-51 25q46 87 46 202q0 113 -47 202z" />
    <glyph glyph-name="Euro" unicode="&#x20ac;" horiz-adv-x="649" 
d="M29 286h423l-4 -69h-274q23 -74 82.5 -113.5t141.5 -39.5q106 0 196 60l27 -73q-89 -64 -232 -64q-71 0 -133 24t-109.5 77t-63.5 129h-58zM38 395h53q30 98 115 155.5t193 57.5q122 0 212 -66l-35 -67q-82 61 -177 61q-80 0 -137 -37.5t-82 -103.5h277l-4 -69h-419z" />
    <glyph glyph-name="afii61352" unicode="&#x2116;" horiz-adv-x="1024" 
d="M722 198h242v-66h-242v66zM984 385q0 -58 -40 -96t-101 -38t-101 38t-40 96t40 96t101 38t101 -38t40 -96zM65 650h99l397 -530l-3 169v361h91v-650h-102l-398 531l6 -196v-335h-90v650zM773 385q0 -34 19 -52.5t51 -18.5t51 18.5t19 52.5t-19 52.5t-51 18.5t-51 -18.5
t-19 -52.5z" />
    <glyph glyph-name="trademark" unicode="&#x2122;" horiz-adv-x="620" 
d="M30 650h222v-49h-81v-216h-60v216h-81v49zM280 650h63l83 -115l83 115h61v-265h-59v184l-77 -106h-22l-75 106v-184h-57v265z" />
    <glyph glyph-name="Omega" unicode="&#x2126;" horiz-adv-x="770" 
d="M448 0v60q181 96 181 273q0 116 -66.5 183.5t-177.5 67.5t-177.5 -67.5t-66.5 -183.5q0 -177 181 -273v-60h-264v73h116q-129 94 -129 260q0 144 93.5 237t246.5 93t246.5 -93t93.5 -237q0 -77 -32.5 -145t-96.5 -115h116v-73h-264z" />
    <glyph glyph-name="estimated" unicode="&#x212e;" horiz-adv-x="627" 
d="M575 242h-441q4 -104 52 -169q60 -36 150 -36q107 0 206 59l21 -49q-90 -57 -233 -57q-134 0 -212 70t-78 189q0 115 82 188t201 73q118 0 189.5 -58t71.5 -149q0 -39 -9 -61zM134 284h361q-2 90 -36 153q-56 32 -146 32q-77 0 -125 -35q-48 -60 -54 -150z" />
    <glyph glyph-name="arrowleft" unicode="&#x2190;" horiz-adv-x="778" 
d="M728 309v-70h-550l87 -88l-55 -36l-165 148v22l165 148l55 -36l-87 -88h550z" />
    <glyph glyph-name="arrowup" unicode="&#x2191;" horiz-adv-x="454" 
d="M267 0h-80v512l-98 -84l-39 52l166 170h22l166 -170l-39 -52l-98 84v-512z" />
    <glyph glyph-name="arrowright" unicode="&#x2192;" horiz-adv-x="778" 
d="M45 239v70h550l-87 88l55 36l165 -148v-22l-165 -148l-55 36l87 88h-550z" />
    <glyph glyph-name="arrowdown" unicode="&#x2193;" horiz-adv-x="454" 
d="M187 650h80v-535l98 84l39 -52l-166 -170h-22l-166 170l39 52l98 -84v535z" />
    <glyph glyph-name="partialdiff" unicode="&#x2202;" horiz-adv-x="623" 
d="M141 613l22 79q63 -2 117 -10.5t112 -31t98.5 -57t66.5 -93t26 -134.5q0 -203 -109 -303q-81 -73 -207 -73q-100 0 -163.5 59.5t-63.5 158.5q0 109 76 180.5t197 71.5q63 0 112 -21.5t71 -63.5h7q-6 107 -95.5 172.5t-266.5 65.5zM277 64q81 0 138.5 50.5t57.5 132.5
q0 61 -43.5 100t-115.5 39q-87 0 -135 -45t-48 -132q0 -65 38.5 -105t107.5 -40z" />
    <glyph glyph-name="Delta" unicode="&#x2206;" horiz-adv-x="660" 
d="M285 650h103l237 -600v-50h-590v50zM327 555l-185 -478h376l-180 478h-11z" />
    <glyph glyph-name="product" unicode="&#x220f;" horiz-adv-x="520" 
d="M65 664h390v-724h-94v647h-202v-647h-94v724z" />
    <glyph glyph-name="summation" unicode="&#x2211;" horiz-adv-x="528" 
d="M65 650h419v-77h-295l212 -211v-38l-234 -245h331v-79h-443v77l249 265l-239 239v69z" />
    <glyph glyph-name="minus" unicode="&#x2212;" horiz-adv-x="381" 
d="M40 367h301v-76h-301v76z" />
    <glyph glyph-name="radical" unicode="&#x221a;" horiz-adv-x="509" 
d="M15 500h101l114 -416h4l140 656h177l-10 -76h-91l-147 -664h-137z" />
    <glyph glyph-name="infinity" unicode="&#x221e;" horiz-adv-x="623" 
d="M274 323q-44 76 -99 76q-78 0 -78 -77q0 -34 18 -54.5t51 -20.5q35 0 60 17.5t48 58.5zM307 265q-26 -41 -63.5 -64t-77.5 -23q-64 0 -102.5 40t-38.5 103q0 69 42.5 108t99.5 39q48 0 82 -21t67 -66q26 41 63.5 64t77.5 23q64 0 102.5 -40t38.5 -103q0 -69 -42.5 -108
t-99.5 -39q-48 0 -82 21t-67 66zM349 323q44 -76 99 -76q78 0 78 77q0 34 -18 54.5t-51 20.5q-35 0 -60 -17.5t-48 -58.5z" />
    <glyph glyph-name="integral" unicode="&#x222b;" horiz-adv-x="223" 
d="M255 751l7 -79q-61 -4 -82.5 -23t-21.5 -75v-523q0 -99 -46 -145.5t-144 -48.5l-7 79q61 4 82.5 23t21.5 75v523q0 99 46 145.5t144 48.5z" />
    <glyph glyph-name="approxequal" unicode="&#x2248;" horiz-adv-x="437" 
d="M68 214l-28 64q44 48 112 48q35 0 69.5 -19.5t58.5 -19.5q37 0 67 31l41 -50q-46 -56 -107 -56q-31 0 -71.5 20.5t-63.5 20.5q-46 0 -78 -39zM68 352l-28 64q44 48 112 48q35 0 69.5 -19.5t58.5 -19.5q37 0 67 31l41 -50q-46 -56 -107 -56q-31 0 -71.5 20.5t-63.5 20.5
q-46 0 -78 -39z" />
    <glyph glyph-name="notequal" unicode="&#x2260;" horiz-adv-x="389" 
d="M40 440h146l17 65l65 -17l-13 -48h94v-74h-113l-17 -68h130v-74h-149l-18 -70l-65 17l13 53h-90v74h109l18 68h-127v74z" />
    <glyph glyph-name="lessequal" unicode="&#x2264;" horiz-adv-x="337" 
d="M234 533l58 -47l-160 -123l170 -120l-58 -50l-209 141v38zM55 255l197 -131l-58 -49l-159 111z" />
    <glyph glyph-name="greaterequal" unicode="&#x2265;" horiz-adv-x="337" 
d="M103 533l199 -161v-38l-209 -141l-58 50l170 120l-160 123zM282 255l20 -69l-159 -111l-58 49z" />
    <glyph glyph-name="triagup" unicode="&#x25b2;" horiz-adv-x="664" 
d="M65 173l267 244l267 -243v-19h-534v18z" />
    <glyph glyph-name="triagrt" unicode="&#x25ba;" horiz-adv-x="367" 
d="M83 506l244 -257l-243 -257h-19v514h18z" />
    <glyph glyph-name="triagdn" unicode="&#x25bc;" horiz-adv-x="664" 
d="M599 339l-267 -244l-267 243v19h534v-18z" />
    <glyph glyph-name="triaglf" unicode="&#x25c4;" horiz-adv-x="367" 
d="M284 -8l-244 257l243 257h19v-514h-18z" />
    <glyph glyph-name="lozenge" unicode="&#x25ca;" horiz-adv-x="563" 
d="M330 -114h-98l-192 380v44l193 380h98l192 -380v-44zM278 597l-151 -305l154 -313h4l150 304l-153 314h-4z" />
    <glyph glyph-name="Acute" horiz-adv-x="264" 
d="M54 698l89 183l78 -47l-98 -136h-69z" />
    <glyph glyph-name="Breve" horiz-adv-x="383" 
d="M35 802l60 27q27 -59 96 -59q68 0 97 59l60 -27q-16 -51 -57.5 -78t-99.5 -27q-57 0 -99 27.5t-57 77.5z" />
    <glyph glyph-name="Caron" horiz-adv-x="360" 
d="M48 864l132 -86l132 86l21 -54l-141 -119h-23l-142 119z" />
    <glyph glyph-name="Cedilla" horiz-adv-x="269" 
d="M82 3l71 4l-7 -55q34 0 53.5 -18.5t19.5 -51.5q0 -51 -46.5 -83t-107.5 -43l-13 61q95 16 95 63q0 27 -36 27h-33z" />
    <glyph glyph-name="Circumflex" horiz-adv-x="360" 
d="M312 691l-132 86l-132 -86l-21 54l141 119h23l142 -119z" />
    <glyph glyph-name="Dieresis" horiz-adv-x="454" 
d="M117 828q30 0 47 -16.5t17 -44.5q0 -26 -17 -43t-47 -17q-29 0 -45.5 17t-16.5 43q0 27 16.5 44t45.5 17zM336 828q29 0 46 -17t17 -44q0 -26 -17 -43t-46 -17t-46 17t-17 43q0 27 17 44t46 17z" />
    <glyph glyph-name="Dotaccent" horiz-adv-x="230" 
d="M116 121q31 0 49 -18.5t18 -47.5t-17.5 -46t-49.5 -17q-31 0 -48.5 17t-17.5 46t17.5 47.5t48.5 18.5z" />
    <glyph glyph-name="Euro.taboldstyle" 
d="M37 163v66h393v-66h-236q23 -45 67 -71t98 -26q50 0 86 10t79 35l29 -73q-84 -48 -200 -48q-97 0 -166 47t-94 126h-56zM37 267v66h57q28 81 102.5 129t170.5 48q108 0 183 -38l-36 -73q-63 36 -141 36q-141 0 -184 -102h241v-66h-393z" />
    <glyph glyph-name="Grave" horiz-adv-x="264" 
d="M122 881l89 -183h-69l-98 136z" />
    <glyph glyph-name="Hungarumlaut" horiz-adv-x="375" 
d="M55 698l51 189l82 -30l-69 -159h-64zM160 698l84 179l76 -47l-93 -132h-67z" />
    <glyph glyph-name="Imacron" horiz-adv-x="225" 
d="M65 650h95v-650h-95v650zM-51 787h326v-73h-326v73z" />
    <glyph glyph-name="Macron" horiz-adv-x="418" 
d="M46 784h326v-73h-326v73z" />
    <glyph glyph-name="Ogonek" horiz-adv-x="218" 
d="M128 12l37 -12q-54 -28 -54 -72t49 -44q16 0 31 5l-16 -65q-17 -4 -37 -4q-47 0 -75.5 24t-28.5 63q0 35 24 66.5t70 38.5z" />
    <glyph glyph-name="Ring" horiz-adv-x="331" 
d="M162 674q-52 0 -84.5 31.5t-32.5 80.5q0 47 33.5 79t83.5 32t83.5 -32t33.5 -79q0 -49 -33 -80.5t-84 -31.5zM218 786q0 24 -16 39.5t-40 15.5t-40.5 -15.5t-16.5 -39.5t16.5 -40t40.5 -16t40 16t16 40z" />
    <glyph glyph-name="Tilde" horiz-adv-x="422" 
d="M58 699l-28 66q45 45 117 45q33 0 72.5 -18.5t64.5 -18.5q40 0 68 29l41 -48q-43 -55 -108 -55q-31 0 -76 19.5t-68 19.5q-49 0 -83 -39z" />
    <glyph glyph-name="a.sc" horiz-adv-x="642" 
d="M269 560h106l242 -560h-94l-71 162h-266l-69 -162h-92zM317 483l-100 -244h204l-98 244h-6z" />
    <glyph glyph-name="aacute.sc" horiz-adv-x="642" 
d="M269 560h106l242 -560h-94l-71 162h-266l-69 -162h-92zM317 483l-100 -244h204l-98 244h-6zM290 618l89 183l78 -47l-98 -136h-69z" />
    <glyph glyph-name="abreve.sc" horiz-adv-x="642" 
d="M269 560h106l242 -560h-94l-71 162h-266l-69 -162h-92zM317 483l-100 -244h204l-98 244h-6zM165 722l60 27q27 -59 96 -59q68 0 97 59l60 -27q-16 -51 -57.5 -78t-99.5 -27q-57 0 -99 27.5t-57 77.5z" />
    <glyph glyph-name="acircumflex.sc" horiz-adv-x="642" 
d="M269 560h106l242 -560h-94l-71 162h-266l-69 -162h-92zM317 483l-100 -244h204l-98 244h-6zM453 591l-132 86l-132 -86l-21 54l141 119h23l142 -119z" />
    <glyph glyph-name="adieresis.sc" horiz-adv-x="642" 
d="M269 560h106l242 -560h-94l-71 162h-266l-69 -162h-92zM317 483l-100 -244h204l-98 244h-6zM211 748q30 0 47 -16.5t17 -44.5q0 -26 -17 -43t-47 -17q-29 0 -45.5 17t-16.5 43q0 27 16.5 44t45.5 17zM430 748q29 0 46 -17t17 -44q0 -26 -17 -43t-46 -17t-46 17t-17 43
q0 27 17 44t46 17z" />
    <glyph glyph-name="ae.sc" horiz-adv-x="867" 
d="M367 560h449v-74h-275v-155h251v-74h-251v-182h296v-75h-387v109h-264l-69 -109h-107zM414 486l-189 -301h225v301h-36z" />
    <glyph glyph-name="afii10055" horiz-adv-x="225" 
d="M65 650h95v-650h-95v650z" />
    <glyph glyph-name="afii10065.sc" horiz-adv-x="642" 
d="M269 560h106l242 -560h-94l-71 162h-266l-69 -162h-92zM317 483l-100 -244h204l-98 244h-6z" />
    <glyph glyph-name="afii10066.sc" horiz-adv-x="535" 
d="M65 560h374v-74h-283v-134h110q103 0 163.5 -46.5t60.5 -130.5q0 -82 -61.5 -128.5t-159.5 -46.5h-204v560zM156 278v-203h102q76 0 108.5 22.5t32.5 77.5q0 57 -35.5 80t-108.5 23h-99z" />
    <glyph glyph-name="afii10067.sc" horiz-adv-x="526" 
d="M65 560h216q73 0 124 -40.5t51 -109.5q0 -32 -16.5 -61.5t-45.5 -44.5v-4q43 -15 67.5 -52.5t24.5 -84.5q0 -74 -55 -118.5t-132 -44.5h-234v560zM155 255v-183h121q59 0 90 20t31 70q0 43 -26 68t-73 25h-143zM155 487v-162h115q96 0 96 80q0 82 -106 82h-105z" />
    <glyph glyph-name="afii10068.sc" horiz-adv-x="451" 
d="M65 560h361v-76h-270v-484h-91v560z" />
    <glyph glyph-name="afii10069.sc" horiz-adv-x="679" 
d="M174 560h400v-485h65l-7 -207h-69l-9 132h-431l-13 -132h-70v205q67 14 102 108q32 86 32 200v179zM264 486v-96q0 -118 -30 -213q-20 -64 -60 -102h308v411h-218z" />
    <glyph glyph-name="afii10070.sc" horiz-adv-x="508" 
d="M65 0v560h381v-74h-290v-155h265v-74h-265v-182h302v-75h-393z" />
    <glyph glyph-name="afii10071.sc" horiz-adv-x="508" 
d="M65 0v560h381v-74h-290v-155h265v-74h-265v-182h302v-75h-393zM152 748q30 0 47 -16.5t17 -44.5q0 -26 -17 -43t-47 -17q-29 0 -45.5 17t-16.5 43q0 27 16.5 44t45.5 17zM371 748q29 0 46 -17t17 -44q0 -26 -17 -43t-46 -17t-46 17t-17 43q0 27 17 44t46 17z" />
    <glyph glyph-name="afii10072.sc" horiz-adv-x="848" 
d="M379 560h90v-210h88l81 152q36 66 118 66q30 0 61 -9l-14 -73q-11 4 -29 4q-25 0 -39.5 -7t-27.5 -31l-79 -137l205 -315h-103l-174 276h-87v-276h-90v276h-87l-174 -276h-103l205 315l-80 137q-14 24 -28 31t-39 7q-18 0 -29 -4l-14 73q31 9 61 9q82 0 118 -66l82 -152
h88v210z" />
    <glyph glyph-name="afii10073.sc" horiz-adv-x="518" 
d="M155 334h97q49 0 76.5 23.5t27.5 61.5q0 33 -29 56.5t-84 23.5q-77 0 -148 -50l-36 61q81 60 186 60q92 0 146.5 -40.5t54.5 -106.5q0 -78 -72 -111v-4q47 -15 73 -51t26 -86q0 -82 -63 -131.5t-164 -49.5q-130 0 -210 59l32 70q85 -54 171 -54q142 0 142 104
q0 95 -118 95h-108v70z" />
    <glyph glyph-name="afii10074.sc" horiz-adv-x="640" 
d="M65 560h90v-425l337 425h83v-560h-90v424l-337 -424h-83v560z" />
    <glyph glyph-name="afii10075.sc" horiz-adv-x="640" 
d="M65 560h90v-425l337 425h83v-560h-90v424l-337 -424h-83v560zM164 722l60 27q27 -59 96 -59q68 0 97 59l60 -27q-16 -51 -57.5 -78t-99.5 -27q-57 0 -99 27.5t-57 77.5z" />
    <glyph glyph-name="afii10076.sc" horiz-adv-x="569" 
d="M65 560h91v-206h101l94 144q45 70 124 70q33 0 61 -8l-16 -74q-12 4 -30 4q-42 0 -71 -42l-87 -129l227 -319h-107l-196 280h-100v-280h-91v560z" />
    <glyph glyph-name="afii10077.sc" horiz-adv-x="662" 
d="M189 560h408v-560h-91v486h-227v-118q0 -183 -51 -287q-45 -89 -146 -89q-42 0 -69 12l12 76q25 -9 48 -9q51 0 74 48q42 89 42 284v157z" />
    <glyph glyph-name="afii10078.sc" horiz-adv-x="712" 
d="M65 560h106l185 -259l187 259h103v-560h-89v437h-5l-180 -249h-34l-180 249h-5v-437h-88v560z" />
    <glyph glyph-name="afii10079.sc" horiz-adv-x="623" 
d="M65 560h91v-230h311v230h91v-560h-91v254h-311v-254h-91v560z" />
    <glyph glyph-name="afii10080.sc" horiz-adv-x="681" 
d="M641 280q0 -128 -85.5 -209t-215.5 -81q-129 0 -214.5 81t-85.5 209t85.5 209t214.5 81q131 0 216 -81t85 -209zM132 280q0 -99 60 -155.5t148 -56.5q90 0 149 55t59 157t-59 157t-149 55t-149 -55t-59 -157z" />
    <glyph glyph-name="afii10081.sc" horiz-adv-x="625" 
d="M65 560h495v-560h-91v484h-313v-484h-91v560z" />
    <glyph glyph-name="afii10082.sc" horiz-adv-x="543" 
d="M65 560h233q92 0 148.5 -49t56.5 -127q0 -86 -59 -133.5t-152 -47.5h-137v-203h-90v560zM155 485v-207h130q126 0 126 106q0 54 -32 77.5t-105 23.5h-119z" />
    <glyph glyph-name="afii10083.sc" horiz-adv-x="582" 
d="M537 508l-40 -71q-64 55 -163 55q-98 0 -152.5 -58t-54.5 -153q0 -98 58.5 -154t151.5 -56q102 0 175 52l25 -77q-79 -56 -209 -56q-122 0 -207.5 75t-85.5 216q0 128 88 208.5t215 80.5q114 0 199 -62z" />
    <glyph glyph-name="afii10084.sc" horiz-adv-x="496" 
d="M30 560h436v-75h-172v-485h-92v485h-172v75z" />
    <glyph glyph-name="afii10085.sc" horiz-adv-x="629" 
d="M25 560h103l203 -444h5l171 444h97l-218 -532q-34 -82 -72 -118.5t-98 -36.5q-42 0 -72 21l10 74q25 -16 52 -16q31 0 51 14t33 52z" />
    <glyph glyph-name="afii10086.sc" horiz-adv-x="775" 
d="M343 570h90v-71q31 7 75 7q103 0 165 -64t62 -157t-62 -157.5t-165 -64.5q-40 0 -75 10v-73h-90v73q-37 -10 -76 -10q-103 0 -165 64.5t-62 157.5t62 157t165 64q37 0 76 -7v71zM343 146v280q-32 7 -77 7q-64 0 -100 -39t-36 -109t35.5 -108.5t100.5 -38.5q46 0 77 8z
M433 426v-280q31 -8 77 -8q64 0 99.5 38.5t35.5 108.5t-35.5 109t-99.5 39q-48 0 -77 -7z" />
    <glyph glyph-name="afii10087.sc" horiz-adv-x="623" 
d="M39 560h110l164 -222l160 222h109l-209 -270l225 -290h-113l-175 241l-176 -241h-109l224 288z" />
    <glyph glyph-name="afii10088.sc" horiz-adv-x="626" 
d="M65 0v560h90v-485h299v485h90v-485h57l-8 -207h-73l-8 132h-447z" />
    <glyph glyph-name="afii10089.sc" horiz-adv-x="575" 
d="M510 0h-91v176q-62 -11 -124 -11q-108 0 -176.5 57t-68.5 185v153h90v-152q0 -87 42.5 -127.5t146.5 -40.5q51 0 90 9v311h91v-560z" />
    <glyph glyph-name="afii10090.sc" horiz-adv-x="850" 
d="M65 560h90v-485h225v485h90v-485h225v485h90v-560h-720v560z" />
    <glyph glyph-name="afii10091.sc" horiz-adv-x="861" 
d="M65 560h90v-485h222v485h90v-485h222v485h90v-485h57l-8 -207h-73l-8 132h-682v560z" />
    <glyph glyph-name="afii10092.sc" horiz-adv-x="618" 
d="M25 560h202v-209h156q81 0 138 -47.5t57 -128.5q0 -78 -59.5 -126.5t-137.5 -48.5h-245v485l-111 4v71zM227 276v-201h134q127 0 127 101q0 100 -129 100h-132z" />
    <glyph glyph-name="afii10093.sc" horiz-adv-x="731" 
d="M575 0v560h91v-560h-91zM65 560h91v-209h160q81 0 138 -47.5t57 -128.5q0 -78 -59.5 -126.5t-137.5 -48.5h-249v560zM156 276v-201h138q57 0 92 24.5t35 76.5q0 100 -129 100h-136z" />
    <glyph glyph-name="afii10094.sc" horiz-adv-x="551" 
d="M65 560h91v-209h160q81 0 138 -47.5t57 -128.5q0 -78 -59.5 -126.5t-137.5 -48.5h-249v560zM156 276v-201h138q57 0 92 24.5t35 76.5q0 100 -129 100h-136z" />
    <glyph glyph-name="afii10095.sc" horiz-adv-x="582" 
d="M154 325h294q-9 78 -63 124.5t-142 46.5q-96 0 -168 -54l-35 66q85 62 199 62q140 0 221.5 -78t81.5 -211q0 -136 -84.5 -213.5t-207.5 -77.5q-69 0 -117.5 11.5t-97.5 41.5l25 76q46 -31 85.5 -42.5t95.5 -11.5q90 0 146 49.5t62 136.5h-295v74z" />
    <glyph glyph-name="afii10096.sc" horiz-adv-x="877" 
d="M65 560h91v-232h97q15 111 95 176.5t196 65.5q128 0 210.5 -79t82.5 -211q0 -131 -82.5 -210.5t-210.5 -79.5q-129 0 -207.5 72t-85.5 192h-95v-254h-91v560zM343 280q0 -101 56.5 -158t144.5 -57t144.5 57t56.5 158t-56.5 158t-144.5 57q-90 0 -145.5 -56.5
t-55.5 -158.5z" />
    <glyph glyph-name="afii10097.sc" horiz-adv-x="572" 
d="M507 560v-560h-90v223h-117l-165 -223h-105l176 231q-62 15 -98.5 57.5t-36.5 106.5q0 72 57 118.5t145 46.5h234zM417 485h-122q-66 0 -99.5 -20.5t-33.5 -69.5q0 -97 122 -97h133v187z" />
    <glyph glyph-name="afii10098.sc" horiz-adv-x="451" 
d="M65 560h273l9 90h73l6 -166h-270v-484h-91v560z" />
    <glyph glyph-name="afii10099.sc" horiz-adv-x="718" 
d="M30 560h462v-75h-195v-123q60 38 151 38q99 0 154.5 -54t55.5 -148v-145q0 -87 -38 -142t-99 -73l-42 64q89 42 89 150v139q0 130 -129 130q-86 0 -142 -38v-283h-91v485h-176v75z" />
    <glyph glyph-name="afii10100.sc" horiz-adv-x="451" 
d="M65 560h361v-76h-270v-484h-91v560zM220 618l89 183l78 -47l-98 -136h-69z" />
    <glyph glyph-name="afii10101.sc" horiz-adv-x="582" 
d="M431 325v-74h-303q10 -85 67 -132.5t142 -47.5q103 0 175 53l25 -78q-79 -56 -209 -56q-122 0 -207.5 75t-85.5 216q0 128 88 208.5t215 80.5q114 0 199 -62l-40 -71q-64 55 -163 55q-86 0 -139 -45t-65 -122h301z" />
    <glyph glyph-name="afii10102.sc" horiz-adv-x="500" 
d="M432 518l-38 -71q-74 50 -150 50q-51 0 -76.5 -20.5t-25.5 -53.5q0 -30 16 -46t52 -25l93 -24q80 -21 118.5 -59.5t38.5 -111.5t-56 -120t-161 -47q-64 0 -109.5 11t-93.5 40l31 80q48 -31 86 -43t90 -12q62 0 94.5 23.5t32.5 66.5q0 40 -22.5 60.5t-76.5 33.5l-101 24
q-120 29 -120 147q0 67 50.5 108t136.5 41q116 0 191 -52z" />
    <glyph glyph-name="afii10103.sc" horiz-adv-x="221" 
d="M65 560h91v-560h-91v560z" />
    <glyph glyph-name="afii10104.sc" horiz-adv-x="221" 
d="M65 560h91v-560h-91v560zM0 748q30 0 47 -16.5t17 -44.5q0 -26 -17 -43t-47 -17q-29 0 -45.5 17t-16.5 43q0 27 16.5 44t45.5 17zM219 748q29 0 46 -17t17 -44q0 -26 -17 -43t-46 -17t-46 17t-17 43q0 27 17 44t46 17z" />
    <glyph glyph-name="afii10105.sc" horiz-adv-x="231" 
d="M75 560h91v-548q0 -94 -55 -162.5t-158 -79.5l-24 77q77 14 111.5 53.5t34.5 118.5v541z" />
    <glyph glyph-name="afii10106.sc" horiz-adv-x="942" 
d="M189 560h378v-209h140q81 0 138 -47.5t57 -128.5q0 -78 -59.5 -126.5t-137.5 -48.5h-229v486h-197v-118q0 -183 -51 -287q-45 -89 -146 -89q-42 0 -69 12l12 76q25 -9 48 -9q51 0 74 48q42 89 42 284v157zM567 276v-201h118q57 0 92 24.5t35 76.5q0 100 -129 100h-116z
" />
    <glyph glyph-name="afii10107.sc" horiz-adv-x="903" 
d="M65 560h91v-209h281v209h91v-209h140q81 0 138 -47.5t57 -128.5q0 -78 -59.5 -126.5t-137.5 -48.5h-229v276h-281v-276h-91v560zM528 276v-201h118q57 0 92 24.5t35 76.5q0 100 -129 100h-116z" />
    <glyph glyph-name="afii10108.sc" horiz-adv-x="718" 
d="M30 560h462v-75h-195v-123q60 38 151 38q99 0 154.5 -54t55.5 -148v-198h-90v191q0 130 -129 130q-86 0 -142 -38v-283h-91v485h-176v75z" />
    <glyph glyph-name="afii10109.sc" horiz-adv-x="569" 
d="M65 560h91v-206h101l94 144q45 70 124 70q33 0 61 -8l-16 -74q-12 4 -30 4q-42 0 -71 -42l-87 -129l227 -319h-107l-196 280h-100v-280h-91v560zM237 618l89 183l78 -47l-98 -136h-69z" />
    <glyph glyph-name="afii10110.sc" horiz-adv-x="629" 
d="M25 560h103l203 -444h5l171 444h97l-218 -532q-34 -82 -72 -118.5t-98 -36.5q-42 0 -72 21l10 74q25 -16 52 -16q31 0 51 14t33 52zM158 712l60 27q27 -59 96 -59q68 0 97 59l60 -27q-16 -51 -57.5 -78t-99.5 -27q-57 0 -99 27.5t-57 77.5z" />
    <glyph glyph-name="afii10193.sc" horiz-adv-x="615" 
d="M272 -132l-9 132h-198v560h91v-484h303v484h91v-560h-198l-9 -132h-71z" />
    <glyph glyph-name="agrave.sc" horiz-adv-x="642" 
d="M269 560h106l242 -560h-94l-71 162h-266l-69 -162h-92zM317 483l-100 -244h204l-98 244h-6zM258 801l89 -183h-69l-98 136z" />
    <glyph glyph-name="amacron.sc" horiz-adv-x="642" 
d="M269 560h106l242 -560h-94l-71 162h-266l-69 -162h-92zM317 483l-100 -244h204l-98 244h-6zM158 704h326v-73h-326v73z" />
    <glyph glyph-name="aogonek.sc" horiz-adv-x="642" 
d="M269 560h106l242 -560q-54 -28 -54 -72t49 -44q16 0 31 5l-16 -65q-17 -4 -37 -4q-47 0 -75.5 24t-28.5 63q0 27 14.5 53t42.5 40h-20l-71 162h-267l-68 -162h-92zM314 483l-98 -244h205l-98 244h-9z" />
    <glyph glyph-name="aring.sc" horiz-adv-x="642" 
d="M269 560h106l242 -560h-94l-71 162h-266l-69 -162h-92zM317 483l-100 -244h204l-98 244h-6zM321 594q-52 0 -84.5 31.5t-32.5 80.5q0 47 33.5 79t83.5 32t83.5 -32t33.5 -79q0 -49 -33 -80.5t-84 -31.5zM377 706q0 24 -16 39.5t-40 15.5t-40.5 -15.5t-16.5 -39.5
t16.5 -40t40.5 -16t40 16t16 40z" />
    <glyph glyph-name="atilde.sc" horiz-adv-x="642" 
d="M269 560h106l242 -560h-94l-71 162h-266l-69 -162h-92zM317 483l-100 -244h204l-98 244h-6zM168 619l-28 66q45 45 117 45q33 0 72.5 -18.5t64.5 -18.5q40 0 68 29l41 -48q-43 -55 -108 -55q-31 0 -76 19.5t-68 19.5q-49 0 -83 -39z" />
    <glyph glyph-name="b.sc" horiz-adv-x="526" 
d="M65 560h216q73 0 124 -40.5t51 -109.5q0 -32 -16.5 -61.5t-45.5 -44.5v-4q43 -15 67.5 -52.5t24.5 -84.5q0 -74 -55 -118.5t-132 -44.5h-234v560zM155 255v-183h121q59 0 90 20t31 70q0 43 -26 68t-73 25h-143zM155 487v-162h115q96 0 96 80q0 82 -106 82h-105z" />
    <glyph glyph-name="c.sc" horiz-adv-x="582" 
d="M537 508l-40 -71q-64 55 -163 55q-98 0 -152.5 -58t-54.5 -153q0 -98 58.5 -154t151.5 -56q102 0 175 52l25 -77q-79 -56 -209 -56q-122 0 -207.5 75t-85.5 216q0 128 88 208.5t215 80.5q114 0 199 -62z" />
    <glyph glyph-name="cacute.sc" horiz-adv-x="582" 
d="M537 508l-40 -71q-64 55 -163 55q-98 0 -152.5 -58t-54.5 -153q0 -98 58.5 -154t151.5 -56q102 0 175 52l25 -77q-79 -56 -209 -56q-122 0 -207.5 75t-85.5 216q0 128 88 208.5t215 80.5q114 0 199 -62zM292 618l89 183l78 -47l-98 -136h-69z" />
    <glyph glyph-name="cb.liga" horiz-adv-x="1168" 
d="M510 472l-39 -69q-63 33 -138 33q-94 0 -146.5 -48.5t-52.5 -138.5q0 -81 53.5 -132t130.5 -51q94 0 170 42l28 -73q-83 -45 -203 -45q-123 0 -198 72.5t-75 184.5q0 116 83 189.5t204 73.5q18 0 48 -2q-15 30 -15 77q0 70 51.5 114t131.5 44q86 0 164 -28v-249
q73 44 172 44q122 0 185.5 -64.5t63.5 -190.5q0 -119 -83.5 -192t-212.5 -73q-69 0 -116.5 12t-101.5 41v617q-38 11 -79 11q-45 0 -70.5 -23.5t-25.5 -64.5q0 -36 15.5 -62.5t55.5 -48.5zM707 388v-293q59 -27 126 -27q93 0 147 48.5t54 139.5q0 90 -39.5 134.5
t-123.5 44.5q-97 0 -164 -47z" />
    <glyph glyph-name="ccaron.sc" horiz-adv-x="582" 
d="M537 508l-40 -71q-64 55 -163 55q-98 0 -152.5 -58t-54.5 -153q0 -98 58.5 -154t151.5 -56q102 0 175 52l25 -77q-79 -56 -209 -56q-122 0 -207.5 75t-85.5 216q0 128 88 208.5t215 80.5q114 0 199 -62zM201 784l132 -86l132 86l21 -54l-141 -119h-23l-142 119z" />
    <glyph glyph-name="ccedilla.sc" horiz-adv-x="582" 
d="M537 508l-40 -71q-64 55 -163 55q-98 0 -152.5 -58t-54.5 -153q0 -98 58.5 -154t151.5 -56q102 0 175 52l25 -77q-75 -53 -192 -56l-5 -38q34 0 53.5 -18.5t19.5 -51.5q0 -51 -46.5 -83t-107.5 -43l-13 61q95 16 95 63q0 27 -36 27h-33l3 87q-104 15 -172 88t-68 199
q0 128 88 208.5t215 80.5q114 0 199 -62z" />
    <glyph glyph-name="ccircumflex.sc" horiz-adv-x="582" 
d="M537 508l-40 -71q-64 55 -163 55q-98 0 -152.5 -58t-54.5 -153q0 -98 58.5 -154t151.5 -56q102 0 175 52l25 -77q-79 -56 -209 -56q-122 0 -207.5 75t-85.5 216q0 128 88 208.5t215 80.5q114 0 199 -62zM464 601l-132 86l-132 -86l-21 54l141 119h23l142 -119z" />
    <glyph glyph-name="cdotaccent.sc" horiz-adv-x="582" 
d="M537 508l-40 -71q-64 55 -163 55q-98 0 -152.5 -58t-54.5 -153q0 -98 58.5 -154t151.5 -56q102 0 175 52l25 -77q-79 -56 -209 -56q-122 0 -207.5 75t-85.5 216q0 128 88 208.5t215 80.5q114 0 199 -62zM338 747q31 0 49 -18.5t18 -47.5t-17.5 -46t-49.5 -17
q-31 0 -48.5 17t-17.5 46t17.5 47.5t48.5 18.5z" />
    <glyph glyph-name="cent.taboldstyle" 
d="M528 472l-39 -69q-63 33 -138 33q-94 0 -146.5 -48.5t-52.5 -138.5q0 -81 53.5 -132t130.5 -51q94 0 170 42l28 -73q-68 -37 -157 -43v-75h-84v75q-107 11 -171 81.5t-64 173.5q0 102 66 172.5t169 86.5v71h84v-68q88 -4 151 -37z" />
    <glyph glyph-name="centoldstyle" horiz-adv-x="548" 
d="M510 472l-39 -69q-63 33 -138 33q-94 0 -146.5 -48.5t-52.5 -138.5q0 -81 53.5 -132t130.5 -51q94 0 170 42l28 -73q-68 -37 -157 -43v-75h-84v75q-107 11 -171 81.5t-64 173.5q0 102 66 172.5t169 86.5v71h84v-68q88 -4 151 -37z" />
    <glyph glyph-name="ch.liga" horiz-adv-x="1155" 
d="M510 472l-39 -69q-63 33 -138 33q-94 0 -146.5 -48.5t-52.5 -138.5q0 -81 53.5 -132t130.5 -51q94 0 170 42l28 -73q-83 -45 -203 -45q-123 0 -198 72.5t-75 184.5q0 116 83 189.5t204 73.5q18 0 48 -2q-15 30 -15 77q0 70 51.5 114t131.5 44q86 0 164 -28v-287
q66 82 181 82q103 0 155 -56t52 -163v-291h-93v292q0 142 -114 142q-108 0 -181 -88v-346h-93v660q-29 11 -79 11q-45 0 -70.5 -23.5t-25.5 -64.5q0 -36 15.5 -62.5t55.5 -48.5z" />
    <glyph glyph-name="ck.liga" horiz-adv-x="1129" 
d="M961 500h109l2 -10l-217 -189l227 -293l-3 -8h-105l-190 255l-77 -43v-212h-92v660q-34 11 -80 11q-45 0 -70.5 -23.5t-25.5 -64.5q0 -36 15.5 -62.5t55.5 -48.5l-39 -69q-63 33 -138 33q-94 0 -146.5 -48.5t-52.5 -138.5q0 -81 53.5 -132t130.5 -51q94 0 170 42l28 -73
q-83 -45 -203 -45q-123 0 -198 72.5t-75 184.5q0 116 83 189.5t204 73.5q18 0 48 -2q-15 30 -15 77q0 70 51.5 114t131.5 44q86 0 164 -28v-423l80 53z" />
    <glyph glyph-name="comma.denominator" horiz-adv-x="139" 
d="M59 -82l-39 19q35 30 35 59q-34 6 -34 43q0 22 13 35t36 13q24 0 36.5 -14t12.5 -36q0 -75 -60 -119z" />
    <glyph glyph-name="comma.numerator" horiz-adv-x="139" 
d="M59 198l-39 19q35 30 35 59q-34 6 -34 43q0 22 13 35t36 13q24 0 36.5 -14t12.5 -36q0 -75 -60 -119z" />
    <glyph glyph-name="commaaccent" horiz-adv-x="231" 
d="M70 -113l-25 43q62 28 62 70q-28 0 -42.5 15.5t-14.5 38.5t14.5 40.5t45.5 17.5q34 0 52.5 -25t18.5 -63q0 -41 -29 -80.5t-82 -56.5z" />
    <glyph glyph-name="commaaccent.cap" horiz-adv-x="231" 
d="M70 -113l-25 45q62 24 62 68q-28 0 -42.5 15.5t-14.5 38.5t14.5 40.5t45.5 17.5q34 0 52.5 -25t18.5 -63q0 -41 -29 -80.5t-82 -56.5z" />
    <glyph glyph-name="commainferior" horiz-adv-x="139" 
d="M59 -152l-39 19q35 30 35 59q-34 6 -34 43q0 22 13 35t36 13q24 0 36.5 -14t12.5 -36q0 -75 -60 -119z" />
    <glyph glyph-name="commasuperior" horiz-adv-x="139" 
d="M59 293l-39 19q35 30 35 59q-34 6 -34 43q0 22 13 35t36 13q24 0 36.5 -14t12.5 -36q0 -75 -60 -119z" />
    <glyph glyph-name="ct.liga" horiz-adv-x="977" 
d="M929 500l-3 -77l-196 8v-262q0 -54 25 -79.5t68 -25.5q58 0 114 35l30 -67q-59 -42 -154 -42q-86 0 -131.5 45.5t-45.5 132.5v255l-68 11v35q83 34 83 114q0 42 -29.5 69t-78.5 27q-45 0 -74.5 -27.5t-29.5 -68.5t16 -67.5t55 -43.5l-39 -69q-63 33 -138 33
q-94 0 -146.5 -48.5t-52.5 -138.5q0 -81 53.5 -132t130.5 -51q94 0 170 42l28 -73q-83 -45 -203 -45q-123 0 -198 72.5t-75 184.5q0 116 83 189.5t204 73.5q18 0 48 -2q-15 30 -15 77q0 68 54.5 113t129.5 45q84 0 136 -46t52 -107q0 -50 -18 -90h215z" />
    <glyph glyph-name="currency.taboldstyle" 
d="M161 462l47 -52q37 22 86 22t86 -22l48 51l56 -54l-50 -47q25 -41 25 -83q0 -41 -25 -82l49 -47l-55 -55l-47 52q-37 -23 -87 -23q-49 0 -87 22l-47 -52l-54 56l49 46q-25 42 -25 83q0 42 25 84l-49 48zM382 277q0 37 -26 61t-62 24t-61.5 -24t-25.5 -61t26 -61.5
t61 -24.5q36 0 62 24.5t26 61.5z" />
    <glyph glyph-name="d.sc" horiz-adv-x="618" 
d="M65 560h201q138 0 225 -73t87 -203q0 -134 -87 -209t-226 -75h-200v560zM157 486v-411h117q96 0 153.5 53t57.5 156q0 101 -58 151.5t-160 50.5h-110z" />
    <glyph glyph-name="dblGrave" horiz-adv-x="375" 
d="M269 887l51 -189h-64l-69 159zM131 877l84 -179h-67l-93 132z" />
    <glyph glyph-name="dblgrave" horiz-adv-x="375" 
d="M269 746l51 -183h-64l-69 153zM131 736l84 -173h-67l-93 126z" />
    <glyph glyph-name="dcaron.sc" horiz-adv-x="618" 
d="M65 560h201q138 0 225 -73t87 -203q0 -134 -87 -209t-226 -75h-200v560zM157 486v-411h117q96 0 153.5 53t57.5 156q0 101 -58 151.5t-160 50.5h-110zM135 784l132 -86l132 86l21 -54l-141 -119h-23l-142 119z" />
    <glyph glyph-name="dcroat.sc" horiz-adv-x="618" 
d="M5 323h60v237h201q138 0 225 -73t87 -203q0 -134 -87 -209t-226 -75h-200v250h-60v73zM157 486v-163h146v-73h-146v-175h117q96 0 153.5 53t57.5 156q0 101 -58 151.5t-160 50.5h-110z" />
    <glyph glyph-name="dollar.taboldstyle" 
d="M245 577h84v-68q69 -3 144 -33l-32 -73q-68 34 -142 34q-63 0 -94 -17.5t-31 -47.5q0 -36 32.5 -49.5t100.5 -20.5q99 -10 148 -46.5t49 -112.5q0 -65 -45.5 -102.5t-129.5 -46.5v-77h-84v73q-90 3 -156 32l28 75q68 -32 145 -32q154 0 154 79q0 39 -28 53.5t-108 22.5
q-100 10 -147 43.5t-47 101.5q0 54 40.5 92.5t118.5 48.5v71z" />
    <glyph glyph-name="dollaroldstyle" horiz-adv-x="502" 
d="M201 577h84v-68q69 -3 144 -33l-32 -73q-68 34 -142 34q-63 0 -94 -17.5t-31 -47.5q0 -36 32.5 -49.5t100.5 -20.5q99 -10 148 -46.5t49 -112.5q0 -65 -45.5 -102.5t-129.5 -46.5v-77h-84v73q-90 3 -156 32l28 75q68 -32 145 -32q154 0 154 79q0 39 -28 53.5t-108 22.5
q-100 10 -147 43.5t-47 101.5q0 54 40.5 92.5t118.5 48.5v71z" />
    <glyph glyph-name="dotlessi.sc" horiz-adv-x="221" 
d="M65 560h91v-560h-91v560z" />
    <glyph glyph-name="dotlessj.sc" horiz-adv-x="231" 
d="M75 560h91v-548q0 -94 -55 -162.5t-158 -79.5l-24 77q77 14 111.5 53.5t34.5 118.5v541z" />
    <glyph glyph-name="e.sc" horiz-adv-x="508" 
d="M65 0v560h381v-74h-290v-155h265v-74h-265v-182h302v-75h-393z" />
    <glyph glyph-name="eacute.sc" horiz-adv-x="508" 
d="M65 0v560h381v-74h-290v-155h265v-74h-265v-182h302v-75h-393zM221 618l89 183l78 -47l-98 -136h-69z" />
    <glyph glyph-name="ebreve.sc" horiz-adv-x="508" 
d="M65 0v560h381v-74h-290v-155h265v-74h-265v-182h302v-75h-393zM108 722l60 27q27 -59 96 -59q68 0 97 59l60 -27q-16 -51 -57.5 -78t-99.5 -27q-57 0 -99 27.5t-57 77.5z" />
    <glyph glyph-name="ecaron.sc" horiz-adv-x="508" 
d="M65 0v560h381v-74h-290v-155h265v-74h-265v-182h302v-75h-393zM139 784l132 -86l132 86l21 -54l-141 -119h-23l-142 119z" />
    <glyph glyph-name="ecircumflex.sc" horiz-adv-x="508" 
d="M65 0v560h381v-74h-290v-155h265v-74h-265v-182h302v-75h-393zM397 611l-132 86l-132 -86l-21 54l141 119h23l142 -119z" />
    <glyph glyph-name="edieresis.sc" horiz-adv-x="508" 
d="M65 0v560h381v-74h-290v-155h265v-74h-265v-182h302v-75h-393zM152 748q30 0 47 -16.5t17 -44.5q0 -26 -17 -43t-47 -17q-29 0 -45.5 17t-16.5 43q0 27 16.5 44t45.5 17zM371 748q29 0 46 -17t17 -44q0 -26 -17 -43t-46 -17t-46 17t-17 43q0 27 17 44t46 17z" />
    <glyph glyph-name="edotaccent.sc" horiz-adv-x="508" 
d="M65 0v560h381v-74h-290v-155h265v-74h-265v-182h302v-75h-393zM272 743q31 0 49 -18.5t18 -47.5t-17.5 -46t-49.5 -17q-31 0 -48.5 17t-17.5 46t17.5 47.5t48.5 18.5z" />
    <glyph glyph-name="egrave.sc" horiz-adv-x="508" 
d="M65 0v560h381v-74h-290v-155h265v-74h-265v-182h302v-75h-393zM223 801l89 -183h-69l-98 136z" />
    <glyph glyph-name="eight.denominator" horiz-adv-x="380" 
d="M156 179q-54 -9 -54 -66q0 -63 88 -63q38 0 63 16.5t25 46.5q0 22 -10 35.5t-31 19.5t-37 8t-44 3zM217 232q36 11 36 46q0 43 -62 43q-64 0 -64 -42q0 -45 90 -47zM91 208q-35 24 -35 70q0 50 39 75.5t96 25.5q56 0 94.5 -25t38.5 -74q0 -47 -36 -68q62 -28 62 -96
q0 -63 -46 -94t-114 -31q-73 0 -116.5 31t-43.5 92q0 66 61 94z" />
    <glyph glyph-name="eight.fitted" 
d="M168 349v4q-33 17 -55.5 52.5t-22.5 78.5q0 80 56.5 129.5t148.5 49.5q86 0 145 -46t59 -126q0 -47 -24 -84.5t-54 -51.5v-4q52 -20 82 -62t30 -98q0 -97 -64 -150.5t-174 -53.5q-121 0 -180 54t-59 145q0 57 30.5 100.5t81.5 62.5zM295 383q54 0 82.5 27.5t28.5 75.5
q0 46 -27 75.5t-84 29.5q-56 0 -84 -29t-28 -76q0 -44 29 -73.5t83 -29.5zM295 311q-68 0 -106.5 -32.5t-38.5 -92.5q0 -56 35 -90t110 -34q70 0 106.5 34.5t36.5 89.5q0 60 -36.5 92.5t-106.5 32.5z" />
    <glyph glyph-name="eight.numerator" horiz-adv-x="380" 
d="M156 459q-54 -9 -54 -66q0 -63 88 -63q38 0 63 16.5t25 46.5q0 22 -10 35.5t-31 19.5t-37 8t-44 3zM217 512q36 11 36 46q0 43 -62 43q-64 0 -64 -42q0 -45 90 -47zM91 488q-35 24 -35 70q0 50 39 75.5t96 25.5q56 0 94.5 -25t38.5 -74q0 -47 -36 -68q62 -28 62 -96
q0 -63 -46 -94t-114 -31q-73 0 -116.5 31t-43.5 92q0 66 61 94z" />
    <glyph glyph-name="eight.taboldstyle" 
d="M165 349v4q-33 17 -55.5 54.5t-22.5 81.5q0 77 56 125.5t152 48.5q94 0 150.5 -48t56.5 -126q0 -46 -24 -82.5t-54 -51.5v-4q52 -20 82 -62t30 -98q0 -97 -64.5 -150.5t-176.5 -53.5q-119 0 -180.5 54.5t-61.5 144.5q0 57 30.5 100.5t81.5 62.5zM295 383q55 0 86.5 29.5
t31.5 76.5q0 48 -30 76t-88 28t-88.5 -28.5t-30.5 -75.5q0 -43 32.5 -74.5t86.5 -31.5zM295 314q-69 0 -110.5 -32.5t-41.5 -93.5q0 -56 38.5 -92.5t113.5 -36.5q71 0 110.5 36.5t39.5 90.5q0 60 -40 94t-110 34z" />
    <glyph glyph-name="eightoldstyle" horiz-adv-x="567" 
d="M157 349v4q-33 17 -55.5 54.5t-22.5 81.5q0 77 56 125.5t152 48.5q94 0 150.5 -48t56.5 -126q0 -46 -24 -82.5t-54 -51.5v-4q52 -20 82 -62t30 -98q0 -97 -64.5 -150.5t-176.5 -53.5q-119 0 -180.5 54.5t-61.5 144.5q0 57 30.5 100.5t81.5 62.5zM287 383q55 0 86.5 29.5
t31.5 76.5q0 48 -30 76t-88 28t-88.5 -28.5t-30.5 -75.5q0 -43 32.5 -74.5t86.5 -31.5zM287 314q-69 0 -110.5 -32.5t-41.5 -93.5q0 -56 38.5 -92.5t113.5 -36.5q71 0 110.5 36.5t39.5 90.5q0 60 -40 94t-110 34z" />
    <glyph glyph-name="emacron.sc" horiz-adv-x="508" 
d="M65 0v560h381v-74h-290v-155h265v-74h-265v-182h302v-75h-393zM97 704h326v-73h-326v73z" />
    <glyph glyph-name="eogonek.sc" horiz-adv-x="508" 
d="M65 0v560h381v-74h-290v-155h265v-74h-265v-182h302v-75q-54 -28 -54 -72t49 -44q16 0 31 5l-16 -65q-17 -4 -37 -4q-47 0 -75.5 24t-28.5 63q0 27 14.5 53t42.5 40h-319z" />
    <glyph glyph-name="eth.sc" horiz-adv-x="618" 
d="M5 323h60v237h201q138 0 225 -73t87 -203q0 -134 -87 -209t-226 -75h-200v250h-60v73zM157 486v-163h146v-73h-146v-175h117q96 0 153.5 53t57.5 156q0 101 -58 151.5t-160 50.5h-110z" />
    <glyph glyph-name="f.sc" horiz-adv-x="466" 
d="M65 560h361v-75h-270v-168h248v-75h-248v-242h-91v560z" />
    <glyph glyph-name="five.denominator" horiz-adv-x="343" 
d="M54 370h239v-63h-177l-3 -75q30 9 70 9q59 0 97 -31t38 -90q0 -62 -44 -95.5t-110 -33.5q-89 0 -143 37l32 58q49 -36 107 -36q42 0 65.5 18t23.5 52q0 63 -82 63q-48 0 -90 -14l-30 7z" />
    <glyph glyph-name="five.fitted" 
d="M108 650h386v-81h-297v-167q54 11 104 11q102 0 165 -56.5t63 -152.5q0 -94 -68 -155.5t-188 -61.5q-68 0 -116 15.5t-97 54.5l42 76q45 -36 80.5 -50t87.5 -14q84 0 125 35.5t41 99.5q0 129 -161 129q-79 0 -154 -27l-13 5v339z" />
    <glyph glyph-name="five.numerator" horiz-adv-x="343" 
d="M54 650h239v-63h-177l-3 -75q30 9 70 9q59 0 97 -31t38 -90q0 -62 -44 -95.5t-110 -33.5q-89 0 -143 37l32 58q49 -36 107 -36q42 0 65.5 18t23.5 52q0 63 -82 63q-48 0 -90 -14l-30 7z" />
    <glyph glyph-name="five.taboldstyle" 
d="M106 510h375v-83h-287v-160q48 12 110 12q101 0 157 -61.5t56 -138.5q0 -106 -80 -165t-192 -59q-109 0 -178 30l25 79q40 -18 69 -23.5t80 -5.5q85 0 136 39t51 103q0 57 -39 90t-103 33q-87 0 -162 -29l-18 5v334z" />
    <glyph glyph-name="fiveoldstyle" horiz-adv-x="545" 
d="M84 510h375v-83h-287v-160q48 12 110 12q101 0 157 -61.5t56 -138.5q0 -106 -80 -165t-192 -59q-109 0 -178 30l25 79q40 -18 69 -23.5t80 -5.5q85 0 136 39t51 103q0 57 -39 90t-103 33q-87 0 -162 -29l-18 5v334z" />
    <glyph glyph-name="florin.taboldstyle" 
d="M87 500h87v33q0 87 53 142t142 55q93 0 161 -43l-39 -71q-49 34 -110 34q-113 0 -113 -114v-36h152l-4 -77l-148 5v-397q0 -101 -52 -156.5t-149 -57.5l-7 79q59 4 86.5 32t27.5 86v409l-87 12v65z" />
    <glyph glyph-name="four.denominator" horiz-adv-x="381" 
d="M252 375l59 -5v-244h40v-62h-40v-64h-71v64h-211l-9 51zM240 270l-128 -144h128v144z" />
    <glyph glyph-name="four.fitted" 
d="M366 656l111 -6v-425h74l-10 -83h-64v-142h-93v142h-345v68zM384 225v311l-7 1l-226 -312h233z" />
    <glyph glyph-name="four.numerator" horiz-adv-x="381" 
d="M252 655l59 -5v-244h40v-62h-40v-64h-71v64h-211l-9 51zM240 550l-128 -144h128v144z" />
    <glyph glyph-name="four.taboldstyle" 
d="M375 516l105 -6v-421h74l-10 -77h-64v-147h-90v147h-355v68zM390 89v311l-7 1l-236 -312h243z" />
    <glyph glyph-name="fouroldstyle" horiz-adv-x="595" 
d="M375 516l105 -6v-421h74l-10 -77h-64v-147h-90v147h-355v68zM390 89v311l-7 1l-236 -312h243z" />
    <glyph glyph-name="g.sc" horiz-adv-x="623" 
d="M348 317h230v-264q-58 -36 -113.5 -49.5t-131.5 -13.5q-122 0 -207.5 75t-85.5 216q0 128 88.5 208.5t217.5 80.5t214 -62l-40 -71q-74 55 -178 55q-98 0 -154 -58t-56 -153q0 -98 58.5 -154t151.5 -56q91 0 148 29v144h-142v73z" />
    <glyph glyph-name="gbreve.sc" horiz-adv-x="623" 
d="M348 317h230v-264q-58 -36 -113.5 -49.5t-131.5 -13.5q-122 0 -207.5 75t-85.5 216q0 128 88.5 208.5t217.5 80.5t214 -62l-40 -71q-74 55 -178 55q-98 0 -154 -58t-56 -153q0 -98 58.5 -154t151.5 -56q91 0 148 29v144h-142v73zM188 722l60 27q27 -59 96 -59q68 0 97 59
l60 -27q-16 -51 -57.5 -78t-99.5 -27q-57 0 -99 27.5t-57 77.5z" />
    <glyph glyph-name="gcircumflex.sc" horiz-adv-x="623" 
d="M348 317h230v-264q-58 -36 -113.5 -49.5t-131.5 -13.5q-122 0 -207.5 75t-85.5 216q0 128 88.5 208.5t217.5 80.5t214 -62l-40 -71q-74 55 -178 55q-98 0 -154 -58t-56 -153q0 -98 58.5 -154t151.5 -56q91 0 148 29v144h-142v73zM481 601l-132 86l-132 -86l-21 54
l141 119h23l142 -119z" />
    <glyph glyph-name="gcommaaccent.sc" horiz-adv-x="623" 
d="M348 317h230v-264q-58 -36 -113.5 -49.5t-131.5 -13.5q-122 0 -207.5 75t-85.5 216q0 128 88.5 208.5t217.5 80.5t214 -62l-40 -71q-74 55 -178 55q-98 0 -154 -58t-56 -153q0 -98 58.5 -154t151.5 -56q91 0 148 29v144h-142v73zM306 -273l-25 45q62 24 62 68
q-28 0 -42.5 15.5t-14.5 38.5t14.5 40.5t45.5 17.5q34 0 52.5 -25t18.5 -63q0 -41 -29 -80.5t-82 -56.5z" />
    <glyph glyph-name="gdotaccent.sc" horiz-adv-x="623" 
d="M348 317h230v-264q-58 -36 -113.5 -49.5t-131.5 -13.5q-122 0 -207.5 75t-85.5 216q0 128 88.5 208.5t217.5 80.5t214 -62l-40 -71q-74 55 -178 55q-98 0 -154 -58t-56 -153q0 -98 58.5 -154t151.5 -56q91 0 148 29v144h-142v73zM351 744q31 0 49 -18.5t18 -47.5
t-17.5 -46t-49.5 -17q-31 0 -48.5 17t-17.5 46t17.5 47.5t48.5 18.5z" />
    <glyph glyph-name="germandbls.sc" horiz-adv-x="992" 
d="M432 518l-38 -71q-74 50 -150 50q-51 0 -76.5 -20.5t-25.5 -53.5q0 -30 16 -46t52 -25l93 -24q80 -21 118.5 -59.5t38.5 -111.5t-56 -120t-161 -47q-64 0 -109.5 11t-93.5 40l31 80q48 -31 86 -43t90 -12q62 0 94.5 23.5t32.5 66.5q0 40 -22.5 60.5t-76.5 33.5l-101 24
q-120 29 -120 147q0 67 50.5 108t136.5 41q116 0 191 -52zM924 518l-38 -71q-74 50 -150 50q-51 0 -76.5 -20.5t-25.5 -53.5q0 -30 16 -46t52 -25l93 -24q80 -21 118.5 -59.5t38.5 -111.5t-56 -120t-161 -47q-64 0 -109.5 11t-93.5 40l31 80q48 -31 86 -43t90 -12
q62 0 94.5 23.5t32.5 66.5q0 40 -22.5 60.5t-76.5 33.5l-101 24q-120 29 -120 147q0 67 50.5 108t136.5 41q116 0 191 -52z" />
    <glyph glyph-name="h.sc" horiz-adv-x="623" 
d="M65 560h91v-230h311v230h91v-560h-91v254h-311v-254h-91v560z" />
    <glyph glyph-name="hbar.sc" horiz-adv-x="623" 
d="M65 560h91v-79h311v79h91v-79h44v-68h-44v-413h-91v254h-311v-254h-91v413h-44v68h44v79zM156 330h311v83h-311v-83z" />
    <glyph glyph-name="hcircumflex.sc" horiz-adv-x="623" 
d="M65 560h91v-230h311v230h91v-560h-91v254h-311v-254h-91v560zM443 611l-132 86l-132 -86l-21 54l141 119h23l142 -119z" />
    <glyph glyph-name="hyphen.denominator" horiz-adv-x="253" 
d="M32 221h189v-64h-189v64z" />
    <glyph glyph-name="hyphen.numerator" horiz-adv-x="253" 
d="M32 501h189v-64h-189v64z" />
    <glyph glyph-name="hypheninferior" horiz-adv-x="253" 
d="M32 151h189v-64h-189v64z" />
    <glyph glyph-name="hyphensuperior" horiz-adv-x="253" 
d="M32 596h189v-64h-189v64z" />
    <glyph glyph-name="i.sc" horiz-adv-x="221" 
d="M65 560h91v-560h-91v560z" />
    <glyph glyph-name="iacute.sc" horiz-adv-x="221" 
d="M65 560h91v-560h-91v560zM73 618l89 183l78 -47l-98 -136h-69z" />
    <glyph glyph-name="icircumflex.sc" horiz-adv-x="221" 
d="M65 560h91v-560h-91v560zM242 601l-132 86l-132 -86l-21 54l141 119h23l142 -119z" />
    <glyph glyph-name="idieresis.sc" horiz-adv-x="221" 
d="M65 560h91v-560h-91v560zM0 748q30 0 47 -16.5t17 -44.5q0 -26 -17 -43t-47 -17q-29 0 -45.5 17t-16.5 43q0 27 16.5 44t45.5 17zM219 748q29 0 46 -17t17 -44q0 -26 -17 -43t-46 -17t-46 17t-17 43q0 27 17 44t46 17z" />
    <glyph glyph-name="igrave.sc" horiz-adv-x="221" 
d="M65 560h91v-560h-91v560zM61 801l89 -183h-69l-98 136z" />
    <glyph glyph-name="imacron.sc" horiz-adv-x="221" 
d="M65 560h91v-560h-91v560zM-53 704h326v-73h-326v73z" />
    <glyph glyph-name="iogonek.sc" horiz-adv-x="221" 
d="M65 560h91v-560q-54 -28 -54 -72t49 -44q16 0 31 5l-16 -65q-17 -4 -37 -4q-47 0 -75.5 24t-28.5 63q0 27 14.5 53t42.5 40h-17v560z" />
    <glyph glyph-name="itilde.sc" horiz-adv-x="221" 
d="M65 560h91v-560h-91v560zM-44 619l-28 66q45 45 117 45q33 0 72.5 -18.5t64.5 -18.5q40 0 68 29l41 -48q-43 -55 -108 -55q-31 0 -76 19.5t-68 19.5q-48 0 -83 -39z" />
    <glyph glyph-name="j.sc" horiz-adv-x="231" 
d="M75 560h91v-548q0 -94 -55 -162.5t-158 -79.5l-24 77q77 14 111.5 53.5t34.5 118.5v541z" />
    <glyph glyph-name="jcircumflex.sc" horiz-adv-x="231" 
d="M75 560h91v-548q0 -94 -55 -162.5t-158 -79.5l-24 77q77 14 111.5 53.5t34.5 118.5v541zM247 601l-132 86l-132 -86l-21 54l141 119h23l142 -119z" />
    <glyph glyph-name="k.sc" horiz-adv-x="583" 
d="M58 560h90v-276l270 276h113l-212 -218l244 -342h-107l-201 287l-107 -99v-188h-90v560z" />
    <glyph glyph-name="kcommaaccent.sc" horiz-adv-x="583" 
d="M58 560h90v-276l270 276h113l-212 -218l244 -342h-107l-201 287l-107 -99v-188h-90v560zM245 -226l-25 45q62 24 62 68q-28 0 -42.5 15.5t-14.5 38.5t14.5 40.5t45.5 17.5q34 0 52.5 -25t18.5 -63q0 -41 -29 -80.5t-82 -56.5z" />
    <glyph glyph-name="kgreenlandic.sc" horiz-adv-x="583" 
d="M58 560h90v-276l270 276h113l-212 -218l244 -342h-107l-201 287l-107 -99v-188h-90v560z" />
    <glyph glyph-name="l.sc" horiz-adv-x="471" 
d="M65 560h91v-485h285v-75h-376v560z" />
    <glyph glyph-name="lacute.sc" horiz-adv-x="471" 
d="M65 560h91v-485h285v-75h-376v560zM73 618l89 183l78 -47l-98 -136h-69z" />
    <glyph glyph-name="lcaron.sc" horiz-adv-x="471" 
d="M65 560h91v-485h285v-75h-376v560zM331 343l-25 45q62 24 62 68q-28 0 -42.5 15.5t-14.5 38.5t14.5 40.5t45.5 17.5q34 0 52.5 -25t18.5 -63q0 -41 -29 -80.5t-82 -56.5z" />
    <glyph glyph-name="lcommaaccent.sc" horiz-adv-x="471" 
d="M65 560h91v-485h285v-75h-376v560zM225 -263l-25 45q62 24 62 68q-28 0 -42.5 15.5t-14.5 38.5t14.5 40.5t45.5 17.5q34 0 52.5 -25t18.5 -63q0 -41 -29 -80.5t-82 -56.5z" />
    <glyph glyph-name="ldot.sc" horiz-adv-x="471" 
d="M65 560h91v-485h285v-75h-376v560zM345 392q31 0 49 -18.5t18 -47.5t-17.5 -46t-49.5 -17q-31 0 -48.5 17t-17.5 46t17.5 47.5t48.5 18.5z" />
    <glyph glyph-name="lslash.sc" horiz-adv-x="484" 
d="M78 560h91v-226l106 40l19 -68l-125 -47v-184h285v-75h-376v225l-53 -19l-19 68l72 27v259z" />
    <glyph glyph-name="m.sc" horiz-adv-x="711" 
d="M65 560h106l185 -259l187 259h103v-560h-89v437h-5l-180 -249h-34l-180 249h-5v-437h-88v560z" />
    <glyph glyph-name="n.sc" horiz-adv-x="670" 
d="M65 560h95l361 -445l-4 134v311h88v-560h-98l-358 448l4 -159v-289h-88v560z" />
    <glyph glyph-name="nacute.sc" horiz-adv-x="670" 
d="M65 560h95l361 -445l-4 134v311h88v-560h-98l-358 448l4 -159v-289h-88v560zM292 618l89 183l78 -47l-98 -136h-69z" />
    <glyph glyph-name="ncaron.sc" horiz-adv-x="670" 
d="M65 560h95l361 -445l-4 134v311h88v-560h-98l-358 448l4 -159v-289h-88v560zM203 774l132 -86l132 86l21 -54l-141 -119h-23l-142 119z" />
    <glyph glyph-name="ncommaaccent.sc" horiz-adv-x="670" 
d="M65 560h95l361 -445l-4 134v311h88v-560h-98l-358 448l4 -159v-289h-88v560zM278 -225l-25 45q62 24 62 68q-28 0 -42.5 15.5t-14.5 38.5t14.5 40.5t45.5 17.5q34 0 52.5 -25t18.5 -63q0 -41 -29 -80.5t-82 -56.5z" />
    <glyph glyph-name="nine.denominator" horiz-adv-x="362" 
d="M268 208q0 110 -84 110q-82 0 -82 -66q0 -33 21 -50.5t56 -17.5q45 0 89 24zM76 -9l-5 60q78 0 132 26t63 76q-41 -29 -95 -29q-57 0 -98 32.5t-41 94.5q0 63 42.5 95.5t109.5 32.5q75 0 114 -48.5t39 -131.5q0 -102 -68.5 -155t-192.5 -53z" />
    <glyph glyph-name="nine.fitted" 
d="M123 -13l-8 81q137 0 227.5 60.5t94.5 170.5q-66 -59 -172 -59q-90 0 -149 57t-59 152q0 107 67 160t164 53q113 0 177.5 -78t64.5 -244q0 -174 -112.5 -263.5t-294.5 -89.5zM435 381q0 100 -39.5 152t-113.5 52q-131 0 -131 -134q0 -63 32.5 -96.5t95.5 -33.5
q92 0 156 60z" />
    <glyph glyph-name="nine.numerator" horiz-adv-x="362" 
d="M268 488q0 110 -84 110q-82 0 -82 -66q0 -33 21 -50.5t56 -17.5q45 0 89 24zM76 271l-5 60q78 0 132 26t63 76q-41 -29 -95 -29q-57 0 -98 32.5t-41 94.5q0 63 42.5 95.5t109.5 32.5q75 0 114 -48.5t39 -131.5q0 -102 -68.5 -155t-192.5 -53z" />
    <glyph glyph-name="nine.taboldstyle" 
d="M120 -143l-6 82q63 0 115.5 10.5t98.5 34.5t74.5 67.5t34.5 103.5q-69 -57 -171 -57q-90 0 -149 57t-59 152q0 106 68 159.5t163 53.5q240 0 240 -323q0 -89 -32.5 -156t-89.5 -106t-129 -58.5t-158 -19.5zM436 237q0 105 -41.5 154.5t-110.5 49.5q-132 0 -132 -132
q0 -63 32 -97t94 -34q93 0 158 59z" />
    <glyph glyph-name="nineoldstyle" horiz-adv-x="561" 
d="M107 -143l-6 82q63 0 115.5 10.5t98.5 34.5t74.5 67.5t34.5 103.5q-69 -57 -171 -57q-90 0 -149 57t-59 152q0 106 68 159.5t163 53.5q240 0 240 -323q0 -89 -32.5 -156t-89.5 -106t-129 -58.5t-158 -19.5zM423 237q0 105 -41.5 154.5t-110.5 49.5q-132 0 -132 -132
q0 -63 32 -97t94 -34q93 0 158 59z" />
    <glyph glyph-name="ntilde.sc" horiz-adv-x="670" 
d="M65 560h95l361 -445l-4 134v311h88v-560h-98l-358 448l4 -159v-289h-88v560zM182 619l-28 66q45 45 117 45q33 0 72.5 -18.5t64.5 -18.5q40 0 68 29l41 -48q-43 -55 -108 -55q-31 0 -76 19.5t-68 19.5q-49 0 -83 -39z" />
    <glyph glyph-name="numbersign.taboldstyle" 
d="M200 470l71 -6l-10 -99h77l11 105l72 -6l-10 -99h106l-3 -65h-109l-7 -73h110l-3 -64h-112l-11 -97l-71 5l9 92h-76l-11 -97l-72 5l9 92h-97l3 64h100l8 73h-102l3 65h103zM256 300l-7 -73h77l7 73h-77z" />
    <glyph glyph-name="o.sc" horiz-adv-x="681" 
d="M641 280q0 -128 -85.5 -209t-215.5 -81q-129 0 -214.5 81t-85.5 209t85.5 209t214.5 81q131 0 216 -81t85 -209zM132 280q0 -99 60 -155.5t148 -56.5q90 0 149 55t59 157t-59 157t-149 55t-149 -55t-59 -157z" />
    <glyph glyph-name="oacute.sc" horiz-adv-x="681" 
d="M641 280q0 -128 -85.5 -209t-215.5 -81q-129 0 -214.5 81t-85.5 209t85.5 209t214.5 81q131 0 216 -81t85 -209zM132 280q0 -99 60 -155.5t148 -56.5q90 0 149 55t59 157t-59 157t-149 55t-149 -55t-59 -157zM304 618l89 183l78 -47l-98 -136h-69z" />
    <glyph glyph-name="obreve.sc" horiz-adv-x="681" 
d="M641 280q0 -128 -85.5 -209t-215.5 -81q-129 0 -214.5 81t-85.5 209t85.5 209t214.5 81q131 0 216 -81t85 -209zM132 280q0 -99 60 -155.5t148 -56.5q90 0 149 55t59 157t-59 157t-149 55t-149 -55t-59 -157zM184 722l60 27q27 -59 96 -59q68 0 97 59l60 -27
q-16 -51 -57.5 -78t-99.5 -27q-57 0 -99 27.5t-57 77.5z" />
    <glyph glyph-name="ocircumflex.sc" horiz-adv-x="681" 
d="M641 280q0 -128 -85.5 -209t-215.5 -81q-129 0 -214.5 81t-85.5 209t85.5 209t214.5 81q131 0 216 -81t85 -209zM132 280q0 -99 60 -155.5t148 -56.5q90 0 149 55t59 157t-59 157t-149 55t-149 -55t-59 -157zM472 601l-132 86l-132 -86l-21 54l141 119h23l142 -119z" />
    <glyph glyph-name="odieresis.sc" horiz-adv-x="681" 
d="M641 280q0 -128 -85.5 -209t-215.5 -81q-129 0 -214.5 81t-85.5 209t85.5 209t214.5 81q131 0 216 -81t85 -209zM132 280q0 -99 60 -155.5t148 -56.5q90 0 149 55t59 157t-59 157t-149 55t-149 -55t-59 -157zM230 748q30 0 47 -16.5t17 -44.5q0 -26 -17 -43t-47 -17
q-29 0 -45.5 17t-16.5 43q0 27 16.5 44t45.5 17zM449 748q29 0 46 -17t17 -44q0 -26 -17 -43t-46 -17t-46 17t-17 43q0 27 17 44t46 17z" />
    <glyph glyph-name="oe.sc" horiz-adv-x="965" 
d="M526 560h377v-74h-290v-155h265v-74h-265v-182h302v-75h-389v73q-67 -83 -196 -83q-128 0 -209 80.5t-81 209.5t81 209.5t209 80.5t196 -76v66zM132 280q0 -100 55.5 -156t142.5 -56q89 0 143.5 54.5t54.5 157.5t-54.5 157.5t-143.5 54.5q-88 0 -143 -54.5t-55 -157.5z
" />
    <glyph glyph-name="ograve.sc" horiz-adv-x="681" 
d="M641 280q0 -128 -85.5 -209t-215.5 -81q-129 0 -214.5 81t-85.5 209t85.5 209t214.5 81q131 0 216 -81t85 -209zM132 280q0 -99 60 -155.5t148 -56.5q90 0 149 55t59 157t-59 157t-149 55t-149 -55t-59 -157zM288 801l89 -183h-69l-98 136z" />
    <glyph glyph-name="ohungarumlaut.sc" horiz-adv-x="681" 
d="M641 280q0 -128 -85.5 -209t-215.5 -81q-129 0 -214.5 81t-85.5 209t85.5 209t214.5 81q131 0 216 -81t85 -209zM132 280q0 -99 60 -155.5t148 -56.5q90 0 149 55t59 157t-59 157t-149 55t-149 -55t-59 -157zM252 618l51 189l82 -30l-69 -159h-64zM357 618l84 179l76 -47
l-93 -132h-67z" />
    <glyph glyph-name="omacron.sc" horiz-adv-x="681" 
d="M641 280q0 -128 -85.5 -209t-215.5 -81q-129 0 -214.5 81t-85.5 209t85.5 209t214.5 81q131 0 216 -81t85 -209zM132 280q0 -99 60 -155.5t148 -56.5q90 0 149 55t59 157t-59 157t-149 55t-149 -55t-59 -157zM177 704h326v-73h-326v73z" />
    <glyph glyph-name="one.denominator" horiz-adv-x="226" 
d="M17 308l120 65l39 -5v-368h-71v284l-71 -19z" />
    <glyph glyph-name="one.fitted" 
d="M318 651l67 -3v-571h119v-77h-360v77h148v468l-143 -52l-25 69z" />
    <glyph glyph-name="one.numerator" horiz-adv-x="226" 
d="M17 588l120 65l39 -5v-368h-71v284l-71 -19z" />
    <glyph glyph-name="one.taboldstyle" 
d="M306 511l65 -3v-432h119v-76h-365v76h156v331l-152 -49l-19 66z" />
    <glyph glyph-name="oneoldstyle" horiz-adv-x="321" 
d="M191 511l65 -1v-510h-90v407l-112 -49l-19 66z" />
    <glyph glyph-name="oslash.sc" horiz-adv-x="681" 
d="M497 584l67 -44l-25 -37q102 -83 102 -223q0 -128 -85.5 -209t-215.5 -81q-74 0 -136 28l-32 -46l-65 44l30 44q-97 82 -97 220q0 128 85.5 209t214.5 81q69 0 130 -25zM491 435l-241 -350q43 -17 90 -17q90 0 149 55t59 157q0 98 -57 155zM186 130l238 347
q-39 15 -84 15q-90 0 -149 -55t-59 -157q0 -91 54 -150z" />
    <glyph glyph-name="otilde.sc" horiz-adv-x="681" 
d="M641 280q0 -128 -85.5 -209t-215.5 -81q-129 0 -214.5 81t-85.5 209t85.5 209t214.5 81q131 0 216 -81t85 -209zM132 280q0 -99 60 -155.5t148 -56.5q90 0 149 55t59 157t-59 157t-149 55t-149 -55t-59 -157zM187 619l-28 66q45 45 117 45q33 0 72.5 -18.5t64.5 -18.5
q40 0 68 29l41 -48q-43 -55 -108 -55q-31 0 -76 19.5t-68 19.5q-48 0 -83 -39z" />
    <glyph glyph-name="p.sc" horiz-adv-x="543" 
d="M65 560h233q92 0 148.5 -49t56.5 -127q0 -86 -59 -133.5t-152 -47.5h-137v-203h-90v560zM155 485v-207h130q126 0 126 106q0 54 -32 77.5t-105 23.5h-119z" />
    <glyph glyph-name="parenleft.denominator" horiz-adv-x="156" 
d="M94 417l51 -25q-46 -89 -46 -204q0 -114 47 -200l-52 -26q-63 98 -63 226q0 132 63 229z" />
    <glyph glyph-name="parenleft.numerator" horiz-adv-x="156" 
d="M94 697l51 -25q-46 -89 -46 -204q0 -114 47 -200l-52 -26q-63 98 -63 226q0 132 63 229z" />
    <glyph glyph-name="parenright.denominator" horiz-adv-x="156" 
d="M10 391l52 26q64 -98 64 -228q0 -129 -64 -227l-51 25q46 87 46 202q0 113 -47 202z" />
    <glyph glyph-name="parenright.numerator" horiz-adv-x="156" 
d="M10 671l52 26q64 -98 64 -228q0 -129 -64 -227l-51 25q46 87 46 202q0 113 -47 202z" />
    <glyph glyph-name="percent" horiz-adv-x="717" 
d="M501 512l56 -38l-348 -496l-57 37zM179 231q-62 0 -105.5 39.5t-43.5 99.5t43 100t106 40q61 0 105 -41t44 -99q0 -60 -44 -99.5t-105 -39.5zM179 294q33 0 55.5 20.5t22.5 55.5t-21.5 56t-56.5 21q-36 0 -57.5 -21.5t-21.5 -55.5t22 -55t57 -21zM538 -10
q-62 0 -105.5 39.5t-43.5 99.5t43 100t106 40q61 0 105 -41t44 -99q0 -60 -44 -99.5t-105 -39.5zM538 53q33 0 55.5 20.5t22.5 55.5t-21.5 56t-56.5 21q-36 0 -57.5 -21.5t-21.5 -55.5t22 -55t57 -21z" />
    <glyph glyph-name="period.denominator" horiz-adv-x="139" 
d="M69 87q23 0 36.5 -13t13.5 -34t-13.5 -34t-36.5 -13t-36 13t-13 34t13 34t36 13z" />
    <glyph glyph-name="period.numerator" horiz-adv-x="139" 
d="M69 367q23 0 36.5 -13t13.5 -34t-13.5 -34t-36.5 -13t-36 13t-13 34t13 34t36 13z" />
    <glyph glyph-name="periodinferior" horiz-adv-x="139" 
d="M69 17q23 0 36.5 -13t13.5 -34t-13.5 -34t-36.5 -13t-36 13t-13 34t13 34t36 13z" />
    <glyph glyph-name="periodsuperior" horiz-adv-x="139" 
d="M69 462q23 0 36.5 -13t13.5 -34t-13.5 -34t-36.5 -13t-36 13t-13 34t13 34t36 13z" />
    <glyph glyph-name="q.sc" horiz-adv-x="681" 
d="M593 -35l-25 -78l-328 117q-99 36 -149.5 108t-50.5 168q0 128 85.5 209t214.5 81q131 0 216 -81t85 -209q0 -100 -55 -172t-155 -97zM132 280q0 -99 60 -155.5t148 -56.5q90 0 149 55t59 157t-59 157t-149 55t-149 -55t-59 -157z" />
    <glyph glyph-name="r.sc" horiz-adv-x="565" 
d="M65 560h226q91 0 146.5 -43t55.5 -117q0 -61 -34 -100.5t-91 -57.5l159 -242h-105l-148 234h-119v-234h-90v560zM155 486v-178h128q121 0 121 92q0 46 -31.5 66t-94.5 20h-123z" />
    <glyph glyph-name="racute.sc" horiz-adv-x="565" 
d="M65 560h226q91 0 146.5 -43t55.5 -117q0 -61 -34 -100.5t-91 -57.5l159 -242h-105l-148 234h-119v-234h-90v560zM155 486v-178h128q121 0 121 92q0 46 -31.5 66t-94.5 20h-123zM214 618l89 183l78 -47l-98 -136h-69z" />
    <glyph glyph-name="rcaron.sc" horiz-adv-x="565" 
d="M65 560h226q91 0 146.5 -43t55.5 -117q0 -61 -34 -100.5t-91 -57.5l159 -242h-105l-148 234h-119v-234h-90v560zM155 486v-178h128q121 0 121 92q0 46 -31.5 66t-94.5 20h-123zM132 784l132 -86l132 86l21 -54l-141 -119h-23l-142 119z" />
    <glyph glyph-name="rcommaaccent.sc" horiz-adv-x="565" 
d="M65 560h226q91 0 146.5 -43t55.5 -117q0 -61 -34 -100.5t-91 -57.5l159 -242h-105l-148 234h-119v-234h-90v560zM155 486v-178h128q121 0 121 92q0 46 -31.5 66t-94.5 20h-123zM238 -224l-25 45q62 24 62 68q-28 0 -42.5 15.5t-14.5 38.5t14.5 40.5t45.5 17.5
q34 0 52.5 -25t18.5 -63q0 -41 -29 -80.5t-82 -56.5z" />
    <glyph glyph-name="rupiah" horiz-adv-x="577" 
d="M84 595h221q109 0 173 -44.5t64 -135.5q0 -93 -66 -139t-171 -46h-130v-59h171v-72h-171v-99h-91v99h-61v72h61v59h-61v76h61v289zM175 520v-214h121q77 0 117 23t40 86q0 59 -40 82t-117 23h-121z" />
    <glyph glyph-name="s.sc" horiz-adv-x="500" 
d="M432 518l-38 -71q-74 50 -150 50q-51 0 -76.5 -20.5t-25.5 -53.5q0 -30 16 -46t52 -25l93 -24q80 -21 118.5 -59.5t38.5 -111.5t-56 -120t-161 -47q-64 0 -109.5 11t-93.5 40l31 80q48 -31 86 -43t90 -12q62 0 94.5 23.5t32.5 66.5q0 40 -22.5 60.5t-76.5 33.5l-101 24
q-120 29 -120 147q0 67 50.5 108t136.5 41q116 0 191 -52z" />
    <glyph glyph-name="sacute.sc" horiz-adv-x="500" 
d="M432 518l-38 -71q-74 50 -150 50q-51 0 -76.5 -20.5t-25.5 -53.5q0 -30 16 -46t52 -25l93 -24q80 -21 118.5 -59.5t38.5 -111.5t-56 -120t-161 -47q-64 0 -109.5 11t-93.5 40l31 80q48 -31 86 -43t90 -12q62 0 94.5 23.5t32.5 66.5q0 40 -22.5 60.5t-76.5 33.5l-101 24
q-120 29 -120 147q0 67 50.5 108t136.5 41q116 0 191 -52zM210 618l89 183l78 -47l-98 -136h-69z" />
    <glyph glyph-name="sb.liga" horiz-adv-x="1088" 
d="M435 479l-29 -72q-67 31 -151 31q-63 0 -94 -18t-31 -48q0 -36 32.5 -49.5t100.5 -20.5q99 -10 148 -46.5t49 -112.5t-63 -114.5t-175 -38.5q-103 0 -182 34l23 76q74 -35 155 -35q155 0 155 79q0 39 -28.5 53.5t-108.5 22.5q-100 10 -147 43.5t-47 101.5q0 63 55 104
t159 41q27 0 39 -1q-15 27 -15 76q0 70 51.5 114t131.5 44q86 0 164 -28v-249q73 44 172 44q122 0 185.5 -64.5t63.5 -190.5q0 -119 -83.5 -192t-212.5 -73q-69 0 -116.5 12t-101.5 41v617q-38 11 -79 11q-45 0 -70.5 -23.5t-25.5 -64.5q0 -35 17.5 -59t58.5 -45zM627 388
v-293q59 -27 126 -27q93 0 147 48.5t54 139.5q0 90 -39.5 134.5t-123.5 44.5q-97 0 -164 -47z" />
    <glyph glyph-name="scaron.sc" horiz-adv-x="500" 
d="M432 518l-38 -71q-74 50 -150 50q-51 0 -76.5 -20.5t-25.5 -53.5q0 -30 16 -46t52 -25l93 -24q80 -21 118.5 -59.5t38.5 -111.5t-56 -120t-161 -47q-64 0 -109.5 11t-93.5 40l31 80q48 -31 86 -43t90 -12q62 0 94.5 23.5t32.5 66.5q0 40 -22.5 60.5t-76.5 33.5l-101 24
q-120 29 -120 147q0 67 50.5 108t136.5 41q116 0 191 -52zM118 784l132 -86l132 86l21 -54l-141 -119h-23l-142 119z" />
    <glyph glyph-name="scedilla.sc" horiz-adv-x="500" 
d="M432 518l-38 -71q-74 50 -150 50q-51 0 -76.5 -20.5t-25.5 -53.5q0 -30 16 -46t52 -25l93 -24q79 -21 118 -60t39 -111q0 -71 -52.5 -117.5t-151.5 -49.5l-5 -38q34 0 53.5 -18.5t19.5 -51.5q0 -51 -46.5 -83t-107.5 -43l-13 61q95 16 95 63q0 27 -36 27h-33l3 86
q-80 7 -146 48l31 80q48 -31 86 -43t90 -12q62 0 94.5 23.5t32.5 66.5q0 40 -22.5 60.5t-76.5 33.5l-101 24q-120 29 -120 147q0 67 50.5 108t136.5 41q116 0 191 -52z" />
    <glyph glyph-name="scircumflex.sc" horiz-adv-x="500" 
d="M432 518l-38 -71q-74 50 -150 50q-51 0 -76.5 -20.5t-25.5 -53.5q0 -30 16 -46t52 -25l93 -24q80 -21 118.5 -59.5t38.5 -111.5t-56 -120t-161 -47q-64 0 -109.5 11t-93.5 40l31 80q48 -31 86 -43t90 -12q62 0 94.5 23.5t32.5 66.5q0 40 -22.5 60.5t-76.5 33.5l-101 24
q-120 29 -120 147q0 67 50.5 108t136.5 41q116 0 191 -52zM382 601l-132 86l-132 -86l-21 54l141 119h23l142 -119z" />
    <glyph glyph-name="scommaaccent.sc" horiz-adv-x="500" 
d="M432 518l-38 -71q-74 50 -150 50q-51 0 -76.5 -20.5t-25.5 -53.5q0 -30 16 -46t52 -25l93 -24q80 -21 118.5 -59.5t38.5 -111.5t-56 -120t-161 -47q-64 0 -109.5 11t-93.5 40l31 80q48 -31 86 -43t90 -12q62 0 94.5 23.5t32.5 66.5q0 40 -22.5 60.5t-76.5 33.5l-101 24
q-120 29 -120 147q0 67 50.5 108t136.5 41q116 0 191 -52zM200 -271l-25 45q62 24 62 68q-28 0 -42.5 15.5t-14.5 38.5t14.5 40.5t45.5 17.5q34 0 52.5 -25t18.5 -63q0 -41 -29 -80.5t-82 -56.5z" />
    <glyph glyph-name="seven.denominator" horiz-adv-x="330" 
d="M25 370h280v-46l-165 -324h-77l161 308h-199v62z" />
    <glyph glyph-name="seven.fitted" 
d="M82 650h426v-58l-256 -592h-103l254 566h-321v84z" />
    <glyph glyph-name="seven.numerator" horiz-adv-x="330" 
d="M25 650h280v-46l-165 -324h-77l161 308h-199v62z" />
    <glyph glyph-name="seven.taboldstyle" 
d="M77 510h436v-58l-270 -587h-99l262 562h-329v83z" />
    <glyph glyph-name="sevenoldstyle" horiz-adv-x="536" 
d="M45 510h436v-58l-270 -587h-99l262 562h-329v83z" />
    <glyph glyph-name="sh.liga" horiz-adv-x="1075" 
d="M435 479l-29 -72q-67 31 -151 31q-63 0 -94 -18t-31 -48q0 -36 32.5 -49.5t100.5 -20.5q99 -10 148 -46.5t49 -112.5t-63 -114.5t-175 -38.5q-103 0 -182 34l23 76q74 -35 155 -35q155 0 155 79q0 39 -28.5 53.5t-108.5 22.5q-100 10 -147 43.5t-47 101.5q0 63 55 104
t159 41q26 0 38 -1q-14 31 -14 76q0 70 51.5 114t131.5 44q86 0 164 -28v-287q66 82 181 82q103 0 155 -56t52 -163v-291h-93v292q0 142 -114 142q-108 0 -181 -88v-346h-93v660q-38 11 -79 11q-45 0 -70.5 -23.5t-25.5 -64.5q0 -36 17 -61t59 -43z" />
    <glyph glyph-name="six.denominator" horiz-adv-x="362" 
d="M99 162q0 -50 21.5 -80t62.5 -30q82 0 82 66q0 68 -70 68q-53 0 -96 -24zM293 379l4 -60q-104 -1 -143.5 -25t-52.5 -81q44 33 102 33q57 0 95.5 -31.5t38.5 -96.5q0 -63 -43 -95t-111 -32q-74 0 -113.5 50t-39.5 133q0 205 263 205z" />
    <glyph glyph-name="six.fitted" 
d="M453 662l8 -80q-134 0 -222 -59t-88 -176q70 62 170 62q90 0 149 -57t59 -152q0 -55 -20.5 -97.5t-55 -67t-75 -36.5t-85.5 -12q-110 0 -173 81.5t-63 240.5q0 172 112 262.5t284 90.5zM153 272q0 -204 155 -204q61 0 94 33.5t33 98.5q0 63 -33 97t-95 34q-89 0 -154 -59
z" />
    <glyph glyph-name="six.numerator" horiz-adv-x="362" 
d="M99 442q0 -50 21.5 -80t62.5 -30q82 0 82 66q0 68 -70 68q-53 0 -96 -24zM293 659l4 -60q-104 -1 -143.5 -25t-52.5 -81q44 33 102 33q57 0 95.5 -31.5t38.5 -96.5q0 -63 -43 -95t-111 -32q-74 0 -113.5 50t-39.5 133q0 205 263 205z" />
    <glyph glyph-name="six.taboldstyle" 
d="M457 650l4 -77q-65 0 -118.5 -11.5t-98 -37t-69.5 -70.5t-25 -107q70 62 171 62q90 0 149 -57t59 -152q0 -55 -20.5 -97.5t-55 -67t-75 -36.5t-85.5 -12q-112 0 -173.5 82t-61.5 246q0 70 21 127t57.5 95.5t87.5 64t109 37t124 11.5zM151 272q0 -104 41 -154t106 -50
q137 0 137 132q0 63 -33 97t-95 34q-91 0 -156 -59z" />
    <glyph glyph-name="sixoldstyle" horiz-adv-x="561" 
d="M444 650l4 -77q-65 0 -118.5 -11.5t-98 -37t-69.5 -70.5t-25 -107q70 62 171 62q90 0 149 -57t59 -152q0 -55 -20.5 -97.5t-55 -67t-75 -36.5t-85.5 -12q-112 0 -173.5 82t-61.5 246q0 70 21 127t57.5 95.5t87.5 64t109 37t124 11.5zM138 272q0 -104 41 -154t106 -50
q137 0 137 132q0 63 -33 97t-95 34q-91 0 -156 -59z" />
    <glyph glyph-name="sk.liga" horiz-adv-x="1032" 
d="M627 715v-423l80 53l174 155h118l-226 -201l229 -299h-108l-190 255l-77 -43v-212h-93v660q-38 11 -79 11q-45 0 -70.5 -23.5t-25.5 -64.5q0 -69 76 -104l-29 -72q-67 31 -151 31q-63 0 -94 -18t-31 -48q0 -36 32.5 -49.5t100.5 -20.5q99 -10 148 -46.5t49 -112.5
t-63 -114.5t-175 -38.5q-103 0 -182 34l23 76q74 -35 155 -35q155 0 155 79q0 39 -28.5 53.5t-108.5 22.5q-100 10 -147 43.5t-47 101.5q0 63 55 104t159 41q27 0 39 -1q-15 27 -15 76q0 70 51.5 114t131.5 44q86 0 164 -28z" />
    <glyph glyph-name="st.liga" horiz-adv-x="897" 
d="M431 479l-29 -72q-67 31 -151 31q-63 0 -94 -18t-31 -48q0 -36 32.5 -49.5t100.5 -20.5q99 -10 148 -46.5t49 -112.5t-63 -114.5t-175 -38.5q-103 0 -182 34l23 76q74 -35 155 -35q155 0 155 79q0 39 -28.5 53.5t-108.5 22.5q-100 10 -147 43.5t-47 101.5q0 63 55 104
t159 41q29 0 42 -1q-14 31 -14 76q0 68 54.5 113t129.5 45q84 0 136 -46t52 -107q0 -50 -18 -90h215l-3 -77l-196 8v-262q0 -54 25 -79.5t68 -25.5q58 0 114 35l30 -67q-59 -42 -154 -42q-86 0 -131.5 45.5t-45.5 132.5v255l-68 11v35q83 34 83 114q0 42 -29.5 69t-78.5 27
q-45 0 -74.5 -27.5t-29.5 -68.5q0 -36 15.5 -60t56.5 -44z" />
    <glyph glyph-name="t.sc" horiz-adv-x="496" 
d="M30 560h436v-75h-172v-485h-92v485h-172v75z" />
    <glyph glyph-name="tcaron.sc" horiz-adv-x="496" 
d="M30 560h436v-75h-172v-485h-92v485h-172v75zM116 784l132 -86l132 86l21 -54l-141 -119h-23l-142 119z" />
    <glyph glyph-name="tcommaaccent.sc" horiz-adv-x="496" 
d="M30 560h436v-75h-172v-485h-92v485h-172v75zM208 -264l-25 45q62 24 62 68q-28 0 -42.5 15.5t-14.5 38.5t14.5 40.5t45.5 17.5q34 0 52.5 -25t18.5 -63q0 -41 -29 -80.5t-82 -56.5z" />
    <glyph glyph-name="thorn.sc" horiz-adv-x="546" 
d="M65 570h90v-77h140q91 0 151 -55.5t60 -134.5q0 -87 -62.5 -142t-154.5 -55h-134v-106h-90v570zM155 418v-237h127q60 0 96 32t36 90q0 115 -143 115h-116z" />
    <glyph glyph-name="three.denominator" horiz-adv-x="357" 
d="M262 207q60 -27 60 -90q0 -62 -45.5 -94t-112.5 -32q-49 0 -79 9t-60 33l24 55q51 -39 111 -39q41 0 67 17.5t26 50.5q0 28 -16.5 40t-54.5 12h-83v58h74q30 0 45 10t15 35q0 47 -67 47q-54 0 -95 -31l-33 47q53 44 134 44q49 0 88.5 -25.5t39.5 -72.5q0 -51 -38 -74z
" />
    <glyph glyph-name="three.fitted" 
d="M190 395h100q47 0 75.5 27.5t28.5 69.5q0 44 -31.5 68.5t-78.5 24.5q-50 0 -86 -11.5t-72 -41.5l-41 65q84 66 202 66q88 0 143.5 -45.5t55.5 -116.5q0 -42 -19.5 -78t-58.5 -53v-4q52 -19 83 -61t31 -103q0 -91 -65.5 -153t-175.5 -62q-143 0 -224 77l44 77
q44 -40 83.5 -56.5t90.5 -16.5q67 0 111 36t44 96t-37 89t-98 29h-105v77z" />
    <glyph glyph-name="three.numerator" horiz-adv-x="357" 
d="M262 487q60 -27 60 -90q0 -62 -45.5 -94t-112.5 -32q-49 0 -79 9t-60 33l24 55q51 -39 111 -39q41 0 67 17.5t26 50.5q0 28 -16.5 40t-54.5 12h-83v58h74q30 0 45 10t15 35q0 47 -67 47q-54 0 -95 -31l-33 47q53 44 134 44q49 0 88.5 -25.5t39.5 -72.5q0 -51 -38 -74z
" />
    <glyph glyph-name="three.taboldstyle" 
d="M184 261h106q48 0 74 22.5t26 64.5q0 45 -30 69.5t-83 24.5q-80 0 -155 -52l-36 63q82 66 199 66q87 0 141 -44.5t54 -116.5q0 -88 -77 -122v-4q112 -37 112 -151q0 -109 -80 -167.5t-198 -58.5q-94 0 -166 30l26 77q65 -27 143 -27q82 0 134 40t52 104q0 106 -130 106
h-112v76z" />
    <glyph glyph-name="threeoldstyle" horiz-adv-x="545" 
d="M159 261h106q48 0 74 22.5t26 64.5q0 45 -30 69.5t-83 24.5q-80 0 -155 -52l-36 63q45 36 90.5 51t108.5 15q87 0 141 -44.5t54 -116.5q0 -88 -77 -122v-4q112 -37 112 -151q0 -109 -80 -167.5t-198 -58.5q-94 0 -166 30l26 77q65 -27 143 -27q82 0 134 40t52 104
q0 106 -130 106h-112v76z" />
    <glyph glyph-name="two.denominator" horiz-adv-x="332" 
d="M296 62v-62h-271v61l157 119q49 36 49 78q0 57 -72 57q-55 0 -102 -44l-34 51q59 57 141 57q62 0 100 -32.5t38 -87.5q0 -70 -56 -111l-117 -86h167z" />
    <glyph glyph-name="two.fitted" 
d="M89 0v76l224 219q58 57 82.5 93.5t24.5 80.5q0 54 -34.5 83t-91.5 29q-101 0 -174 -59l-45 71q52 38 103.5 54t120.5 16q96 0 153.5 -51.5t57.5 -140.5q0 -104 -123 -222l-169 -160v-4h299v-85h-428z" />
    <glyph glyph-name="two.numerator" horiz-adv-x="332" 
d="M296 342v-62h-271v61l157 119q49 36 49 78q0 57 -72 57q-55 0 -102 -44l-34 51q58 57 141 57q62 0 100 -32.5t38 -87.5q0 -70 -56 -111l-117 -86h167z" />
    <glyph glyph-name="two.taboldstyle" 
d="M86 79l229 145q57 36 78 63t21 66q0 88 -121 88q-88 0 -171 -60l-37 68q91 70 211 70q97 0 152 -44t55 -120q0 -105 -121 -177l-154 -94v-4h271v-80h-413v79z" />
    <glyph glyph-name="twooldstyle" horiz-adv-x="548" 
d="M70 79l229 145q57 36 78 63t21 66q0 88 -121 88q-88 0 -171 -60l-37 68q91 70 211 70q97 0 152 -44t55 -120q0 -105 -121 -177l-154 -94v-4h271v-80h-413v79z" />
    <glyph glyph-name="u.sc" horiz-adv-x="618" 
d="M65 560h91v-332q0 -79 41.5 -122t111.5 -43q68 0 110.5 43t42.5 122v332h91v-320q0 -119 -67 -185t-177 -66t-177 63.5t-67 182.5v325z" />
    <glyph glyph-name="uacute.sc" horiz-adv-x="618" 
d="M65 560h91v-332q0 -79 41.5 -122t111.5 -43q68 0 110.5 43t42.5 122v332h91v-320q0 -119 -67 -185t-177 -66t-177 63.5t-67 182.5v325zM265 608l89 183l78 -47l-98 -136h-69z" />
    <glyph glyph-name="ubreve.sc" horiz-adv-x="618" 
d="M65 560h91v-332q0 -79 41.5 -122t111.5 -43q68 0 110.5 43t42.5 122v332h91v-320q0 -119 -67 -185t-177 -66t-177 63.5t-67 182.5v325zM153 712l60 27q27 -59 96 -59q68 0 97 59l60 -27q-16 -51 -57.5 -78t-99.5 -27q-57 0 -99 27.5t-57 77.5z" />
    <glyph glyph-name="ucircumflex.sc" horiz-adv-x="618" 
d="M65 560h91v-332q0 -79 41.5 -122t111.5 -43q68 0 110.5 43t42.5 122v332h91v-320q0 -119 -67 -185t-177 -66t-177 63.5t-67 182.5v325zM441 611l-132 86l-132 -86l-21 54l141 119h23l142 -119z" />
    <glyph glyph-name="udieresis.sc" horiz-adv-x="618" 
d="M65 560h91v-332q0 -79 41.5 -122t111.5 -43q68 0 110.5 43t42.5 122v332h91v-320q0 -119 -67 -185t-177 -66t-177 63.5t-67 182.5v325zM199 748q30 0 47 -16.5t17 -44.5q0 -26 -17 -43t-47 -17q-29 0 -45.5 17t-16.5 43q0 27 16.5 44t45.5 17zM418 748q29 0 46 -17
t17 -44q0 -26 -17 -43t-46 -17t-46 17t-17 43q0 27 17 44t46 17z" />
    <glyph glyph-name="ugrave.sc" horiz-adv-x="618" 
d="M65 560h91v-332q0 -79 41.5 -122t111.5 -43q68 0 110.5 43t42.5 122v332h91v-320q0 -119 -67 -185t-177 -66t-177 63.5t-67 182.5v325zM262 791l89 -183h-69l-98 136z" />
    <glyph glyph-name="uhungarumlaut.sc" horiz-adv-x="618" 
d="M65 560h91v-332q0 -79 41.5 -122t111.5 -43q68 0 110.5 43t42.5 122v332h91v-320q0 -119 -67 -185t-177 -66t-177 63.5t-67 182.5v325zM213 608l51 189l82 -30l-69 -159h-64zM318 608l84 179l76 -47l-93 -132h-67z" />
    <glyph glyph-name="umacron.sc" horiz-adv-x="618" 
d="M65 560h91v-332q0 -79 41.5 -122t111.5 -43q68 0 110.5 43t42.5 122v332h91v-320q0 -119 -67 -185t-177 -66t-177 63.5t-67 182.5v325zM146 704h326v-73h-326v73z" />
    <glyph glyph-name="uni0201.sc" horiz-adv-x="642" 
d="M269 560h106l242 -560h-94l-71 162h-266l-69 -162h-92zM317 483l-100 -244h204l-98 244h-6zM349 807l51 -189h-64l-69 159zM211 797l84 -179h-67l-93 132z" />
    <glyph glyph-name="uni0203.sc" horiz-adv-x="642" 
d="M269 560h106l242 -560h-94l-71 162h-266l-69 -162h-92zM317 483l-100 -244h204l-98 244h-6zM453 601l-132 86l-132 -86l-21 54l141 119h23l142 -119z" />
    <glyph glyph-name="uni0205.sc" horiz-adv-x="508" 
d="M65 0v560h381v-74h-290v-155h265v-74h-265v-182h302v-75h-393zM308 807l51 -189h-64l-69 159zM170 797l84 -179h-67l-93 132z" />
    <glyph glyph-name="uni0207.sc" horiz-adv-x="508" 
d="M65 0v560h381v-74h-290v-155h265v-74h-265v-182h302v-75h-393zM395 611l-132 86l-132 -86l-21 54l141 119h23l142 -119z" />
    <glyph glyph-name="uni0209.sc" horiz-adv-x="221" 
d="M65 560h91v-560h-91v560zM151 807l51 -189h-64l-69 159zM13 797l84 -179h-67l-93 132z" />
    <glyph glyph-name="uni020B.sc" horiz-adv-x="221" 
d="M65 560h91v-560h-91v560zM242 601l-132 86l-132 -86l-21 54l141 119h23l142 -119z" />
    <glyph glyph-name="uni020D.sc" horiz-adv-x="681" 
d="M641 280q0 -128 -85.5 -209t-215.5 -81q-129 0 -214.5 81t-85.5 209t85.5 209t214.5 81q131 0 216 -81t85 -209zM132 280q0 -99 60 -155.5t148 -56.5q90 0 149 55t59 157t-59 157t-149 55t-149 -55t-59 -157zM379 807l51 -189h-64l-69 159zM241 797l84 -179h-67l-93 132z
" />
    <glyph glyph-name="uni020F.sc" horiz-adv-x="681" 
d="M641 280q0 -128 -85.5 -209t-215.5 -81q-129 0 -214.5 81t-85.5 209t85.5 209t214.5 81q131 0 216 -81t85 -209zM132 280q0 -99 60 -155.5t148 -56.5q90 0 149 55t59 157t-59 157t-149 55t-149 -55t-59 -157zM472 601l-132 86l-132 -86l-21 54l141 119h23l142 -119z" />
    <glyph glyph-name="uni0211.sc" horiz-adv-x="565" 
d="M65 560h226q91 0 146.5 -43t55.5 -117q0 -61 -34 -100.5t-91 -57.5l159 -242h-105l-148 234h-119v-234h-90v560zM155 486v-178h128q121 0 121 92q0 46 -31.5 66t-94.5 20h-123zM299 807l51 -189h-64l-69 159zM161 797l84 -179h-67l-93 132z" />
    <glyph glyph-name="uni0213.sc" horiz-adv-x="565" 
d="M65 560h226q91 0 146.5 -43t55.5 -117q0 -61 -34 -100.5t-91 -57.5l159 -242h-105l-148 234h-119v-234h-90v560zM155 486v-178h128q121 0 121 92q0 46 -31.5 66t-94.5 20h-123zM393 611l-132 86l-132 -86l-21 54l141 119h23l142 -119z" />
    </font>
</defs>
</svg>
